<svg xmlns="http://www.w3.org/2000/svg" viewBox="0 0 50 50"><path d="M.56.49v49h49v-49Zm15.38 40.67c0 .44 0 .44-.44.44H9.35c-.33 0-.42-.1-.42-.41v-21.4c0-.3.08-.42.41-.41h6.16c.43 0 .44 0 .44.43v21.35Zm-3.52-24.7a4 4 0 1 1 4-4 4 4 0 0 1-4 4ZM41.34 41.6h-6.22c-.34 0-.41-.13-.41-.43V31.08a15.21 15.21 0 0 0-.22-3.37 3 3 0 0 0-2.11-2.58 4.54 4.54 0 0 0-3 .18 3.36 3.36 0 0 0-2 2.63 12.57 12.57 0 0 0-.25 2.2v11c0 .47 0 .47-.46.47h-6.09c-.32 0-.42-.07-.42-.41V19.79c0-.3.07-.4.39-.4h5.93c.32 0 .39.11.39.4v2.5a7.14 7.14 0 0 1 4.13-3.1 9.65 9.65 0 0 1 6.55.42 6.25 6.25 0 0 1 3.53 4.31 13 13 0 0 1 .57 3.66c0 4.55 0 9.11.07 13.67-.01.28-.11.36-.38.35Z" style="fill:#e88562"/></svg>