<svg xmlns="http://www.w3.org/2000/svg" viewBox="0 0 50 50"><defs><style>.a{fill:#fefefe;}</style></defs><title>icon-</title><path class="a" d="M48.51,24.59A23.86,23.86,0,1,1,24.05.8,23.85,23.85,0,0,1,48.51,24.59ZM28.3,27.91c-6.88,2.51-12.46,6.42-16.15,12.71a.92.92,0,0,0,.15.18,20.11,20.11,0,0,0,20,2.72c.31-.11.34-.27.26-.57-.85-3.33-1.64-6.69-2.54-10C29.54,31.26,28.89,29.64,28.3,27.91Zm-1.4-3.34-1.5-3.12c0-.1-.12-.19-.19-.31a76.34,76.34,0,0,1-21,2.91A20.47,20.47,0,0,0,9.51,38.24,34.36,34.36,0,0,1,17,29.83,28,28,0,0,1,26.9,24.57ZM16.09,6.15A20.73,20.73,0,0,0,4.7,20.41c2.81.5,16.31-1.28,18.92-2.54ZM27.64,16.72a24.41,24.41,0,0,0,10.5-7.23c-3.32-4-13-6.46-18.07-4.63Zm17.41,7.69a20.42,20.42,0,0,0-4.61-12.62,21,21,0,0,1-5.2,4.68c-2,1.24-4,2.32-6.08,3.49.51,1.14,1,2.39,1.62,3.62,0,.11.34.17.51.15a47.45,47.45,0,0,1,10.11.16C42.59,24,43.78,24.23,45.05,24.41Zm-9,17c4-2.05,9-10,8.63-13.62A29.79,29.79,0,0,0,32.09,27,92.24,92.24,0,0,1,36,41.45Z"/></svg>