<?xml version="1.0" encoding="utf-8"?>
<!-- Generator: Adobe Illustrator 23.0.4, SVG Export Plug-In . SVG Version: 6.00 Build 0)  -->
<svg version="1.1" id="Layer_1" xmlns="http://www.w3.org/2000/svg" xmlns:xlink="http://www.w3.org/1999/xlink" x="0px" y="0px"
	 viewBox="0 0 50 50" style="enable-background:new 0 0 50 50;" xml:space="preserve">
<style type="text/css">
	.st0{fill:#E88562;}
</style>
<title>icon-</title>
<path class="st0" d="M4,17.6c-0.1,2.3-0.2,4.6-0.3,6.8c-0.9,0-1.7,0-2.5,0c-0.4-4.3-0.7-8.6-1.1-12.9c0.8,0,1.5,0,2.3,0
	c0.1,2.5,0.2,5.1,0.2,7.6c0,0,0,0,0.1,0c0.1-2.5,0.2-5,0.3-7.6c0.4,0,0.8,0,1.2,0c0.3,0,0.6-0.1,0.8,0.1c0.1,0.1,0.1,0.5,0.1,0.8
	c0.1,2.3,0.2,4.6,0.3,6.9c0,0.1,0,0.2,0,0.2c0.1-2.7,0.2-5.3,0.2-8c0.7,0,1.4,0,2.1,0c0,0.4-0.1,0.8-0.1,1.2
	c-0.2,2.1-0.4,4.3-0.5,6.4c-0.1,1.7-0.3,3.4-0.4,5.1c0,0.2-0.1,0.3-0.3,0.3c-0.6,0-1.3,0-1.9,0c-0.2,0-0.3-0.1-0.3-0.3
	c-0.1-2.1-0.2-4.3-0.2-6.4C4.1,17.7,4.1,17.7,4,17.6C4,17.6,4,17.6,4,17.6z"/>
<path class="st0" d="M3,25.5c0.7,0,1.4,0,2.1,0c0.1,2.7,0.2,5.3,0.4,8c0,0,0,0,0,0c0.1-2.6,0.2-5.3,0.2-8c0.7,0,1.4,0,2.1,0
	c-0.4,4.3-0.7,8.6-1.1,12.9c-0.8,0-1.7,0-2.5,0c-0.1-2.3-0.2-4.6-0.3-6.9c0,0,0,0,0,0c-0.1,2.3-0.2,4.6-0.3,6.8c-0.9,0-1.7,0-2.5,0
	c-0.4-4.3-0.7-8.6-1.1-12.9c0.8,0,1.5,0,2.3,0c0.1,2.5,0.2,5,0.2,7.6c0,0,0,0,0.1,0C2.8,30.6,2.9,28.1,3,25.5z"/>
<path class="st0" d="M13.9,11.5c0.8,0,1.7,0,2.5,0c0.1,2,0.2,3.9,0.4,5.9c0,0,0,0,0,0c0-0.5,0.1-1.1,0.1-1.6c0.1-1.3,0.2-2.7,0.2-4
	c0-0.2,0.1-0.3,0.3-0.3c0.7,0,1.4,0,2.2,0c0,4.3,0,8.6,0,13c-0.6,0-1.2,0-1.8,0c0-2.2,0-4.3,0-6.5c0,0,0,0-0.1,0
	c-0.2,2.2-0.4,4.3-0.6,6.5c-0.3,0-0.5,0-0.8,0c-0.2-2.2-0.4-4.4-0.6-6.7c0,0,0,0,0,0c0,2.2,0,4.4,0,6.7c-0.6,0-1.2,0-1.8,0
	C13.9,20.1,13.9,15.8,13.9,11.5z"/>
<path class="st0" d="M8.3,25.5c0.7,0,1.5,0,2.2,0c0,1.7,0,3.3,0,5c0.2,0,0.3,0,0.4,0c0-1.7,0-3.3,0-5c0.7,0,1.5,0,2.2,0
	c0,4.3,0,8.6,0,12.9c-0.7,0-1.4,0-2.2,0c0-1.9,0-3.7,0-5.6c-0.2,0-0.3,0-0.5,0c0,1.9,0,3.7,0,5.6c-0.8,0-1.5,0-2.2,0
	C8.3,34.2,8.3,29.9,8.3,25.5z"/>
<path class="st0" d="M18.9,32c0,1.5,0,3,0,4.5c0,1.2-0.8,1.9-2,2.1c-0.4,0-0.9,0-1.3,0c-1-0.2-1.6-0.9-1.7-1.9c0-0.2,0-0.5,0-0.7
	c0-2.6,0-5.2,0-7.8c0-0.4,0-0.8,0.1-1.2c0.2-0.8,0.7-1.3,1.5-1.4c0.5-0.1,1.1-0.1,1.7,0c1,0.1,1.6,0.9,1.7,2
	C18.9,29,18.9,30.5,18.9,32C18.9,32,18.9,32,18.9,32z M16.1,32c0,1.4,0,2.7,0,4.1c0,0.1,0,0.2,0,0.3c0,0.1,0.1,0.2,0.2,0.2
	c0.1,0,0.2-0.1,0.2-0.2c0-0.1,0-0.1,0-0.2c0-2.8,0-5.6,0-8.4c0-0.2,0-0.4-0.2-0.4c-0.3,0-0.2,0.3-0.2,0.5
	C16.1,29.2,16.1,30.6,16.1,32z"/>
<path class="st0" d="M13.3,18c0,1.3,0,2.6,0,3.9c0,0.4,0,0.7-0.1,1.1c-0.2,0.8-0.7,1.4-1.6,1.5c-0.6,0.1-1.2,0.1-1.7,0
	c-0.9-0.2-1.5-0.9-1.6-1.8c0-0.2,0-0.5,0-0.7c0-2.7,0-5.4,0-8c0-0.3,0-0.6,0.1-1c0.2-0.9,0.8-1.4,1.6-1.5c0.6-0.1,1.2-0.1,1.8,0.1
	c1,0.2,1.5,1,1.5,2.1C13.3,15,13.3,16.5,13.3,18C13.3,18,13.3,18,13.3,18z M11,18c0-1.4,0-2.8,0-4.2c0-0.2,0-0.5-0.3-0.5
	c-0.3,0-0.2,0.3-0.2,0.5c0,2.8,0,5.5,0,8.3c0,0.2-0.1,0.5,0.2,0.5c0.3,0,0.3-0.3,0.3-0.5C11,20.7,11,19.4,11,18z"/>
<path class="st0" d="M21.2,25.5c0.4,0,0.7,0,1.1,0c0.8,0,1.5,0,2.3,0c0.8,0,1.3,0.5,1.5,1.3c0,0.2,0.1,0.5,0.1,0.7c0,3,0,6,0,8.9
	c0,0.3,0,0.7-0.1,1c-0.2,0.7-0.7,1-1.4,1.1c-1.1,0-2.2,0-3.3,0C21.2,34.2,21.2,29.9,21.2,25.5z M23.4,36.6c0.3,0.1,0.4,0,0.4-0.3
	c0-0.1,0-0.2,0-0.2c0-2.7,0-5.5,0-8.2c0-0.1,0-0.1,0-0.2c0-0.3-0.1-0.4-0.4-0.3C23.4,30.4,23.4,33.5,23.4,36.6z"/>
<path class="st0" d="M44.3,30.4c-0.7,0-1.4,0-2.1,0c0-0.1,0-0.2,0-0.3c0-0.8,0-1.6,0-2.4c0-0.1,0-0.2,0-0.3
	c-0.1-0.1-0.2-0.2-0.3-0.2c-0.1,0-0.2,0.1-0.2,0.2c0,0.1,0,0.2,0,0.3c0,2.8,0,5.7,0,8.5c0,0.1,0,0.1,0,0.2c0,0.2,0.1,0.4,0.3,0.4
	c0.2,0,0.3-0.2,0.3-0.4c0-1.3,0-2.5,0-3.8c0,0,0,0,0-0.1c-0.1,0-0.3,0-0.4,0c0-0.6,0-1.1,0-1.7c0.8,0,1.7,0,2.5,0c0,2.5,0,5.1,0,7.6
	c-0.5,0-0.9,0-1.4,0c-0.1,0-0.1-0.1-0.2-0.2c-0.1-0.2-0.1-0.4-0.2-0.6c-0.1,0.1-0.1,0.1-0.1,0.2c-0.5,0.6-1.1,0.9-1.9,0.7
	c-0.7-0.2-1-0.8-1.2-1.5c0-0.2-0.1-0.4-0.1-0.6c0-2.9,0-5.9,0-8.8c0-0.4,0.1-0.9,0.3-1.3c0.3-0.6,0.9-0.9,1.6-1c0.5,0,1.1,0,1.6,0.1
	c0.8,0.1,1.4,0.7,1.4,1.6C44.4,28.1,44.3,29.2,44.3,30.4z"/>
<path class="st0" d="M46.9,38.5c-0.6,0-1.2,0-1.8,0c0-4.3,0-8.6,0-12.9c0.7,0,1.5,0,2.2,0c0.3,2.2,0.5,4.4,0.8,6.5c0,0,0,0,0,0
	c0-2.2,0-4.4,0-6.5c0.6,0,1.2,0,1.8,0c0,4.3,0,8.6,0,12.9c-0.7,0-1.3,0-2,0c-0.3-2.4-0.6-4.8-1-7.2c0,0,0,0,0,0
	C46.9,33.6,46.9,36,46.9,38.5z"/>
<path class="st0" d="M29.6,24.5c-0.7,0-1.3,0-2,0c-0.3-2.4-0.6-4.9-1-7.3c0,0,0,0,0,0c0,2.4,0,4.8,0,7.3c-0.6,0-1.2,0-1.8,0
	c0-4.3,0-8.6,0-12.9c0.7,0,1.5,0,2.2,0c0.3,2.2,0.5,4.3,0.8,6.5c0,0,0,0,0,0c0-2.2,0-4.3,0-6.5c0.6,0,1.2,0,1.8,0
	C29.6,15.8,29.6,20.1,29.6,24.5z"/>
<path class="st0" d="M35.9,30.1c-0.7,0-1.4,0-2.1,0c0-0.3,0-0.6,0-0.8c0-0.6,0-1.2,0-1.9c0-0.2,0-0.3-0.2-0.3
	c-0.2,0-0.2,0.2-0.2,0.3c0,0.7,0,1.4,0,2.1c0,0.3,0.2,0.6,0.4,0.8c0.5,0.4,1,0.9,1.5,1.3c0.5,0.5,0.7,1.1,0.8,1.8c0,1,0,2.1,0,3.1
	c0,0.4-0.1,0.8-0.4,1.2c-0.4,0.6-1,0.8-1.6,0.8c-0.4,0-0.9,0-1.3,0c-1-0.1-1.6-0.6-1.6-1.6c-0.1-1.2,0-2.5,0-3.7c0.7,0,1.4,0,2.2,0
	c0,0.4,0,0.7,0,1c0,0.7,0,1.4,0,2c0,0.1,0,0.2,0,0.2c0.1,0.1,0.1,0.2,0.2,0.2c0.1-0.1,0.2-0.1,0.2-0.2c0-0.1,0-0.1,0-0.2
	c0-0.8,0-1.6,0-2.4c0-0.4-0.1-0.7-0.5-1c-0.4-0.4-0.9-0.7-1.3-1.1c-0.6-0.5-0.8-1.2-0.8-2c0-0.9,0-1.8,0-2.7c0-1,0.6-1.7,1.7-1.8
	c0.6-0.1,1.2,0,1.7,0c0.8,0.1,1.3,0.6,1.3,1.5C35.9,28,35.9,29,35.9,30.1z"/>
<path class="st0" d="M22.5,18.7c0,1.3,0,2.5,0,3.7c0.5,0,1.1,0,1.6,0c0,0.7,0,1.3,0,2c-1.2,0-2.5,0-3.7,0c0-4.3,0-8.6,0-12.9
	c1.2,0,2.5,0,3.7,0c0,0.7,0,1.3,0,2c-0.5,0-1,0-1.5,0c0,1.1,0,2.1,0,3.1c0.4,0,0.9,0,1.3,0c0,0.7,0,1.4,0,2.1
	C23.4,18.7,23,18.7,22.5,18.7z"/>
<path class="st0" d="M30.4,27.5c-0.5,0-1,0-1.5,0c0,1,0,2.1,0,3.1c0.3,0,0.7,0,1,0c0.2,0,0.3,0,0.3,0.3c0,0.5,0,1,0,1.6
	c0,0.2-0.1,0.3-0.3,0.3c-0.3,0-0.7,0-1,0c0,1.3,0,2.5,0,3.7c0.5,0,1,0,1.6,0c0,0.7,0,1.3,0,2c-1.2,0-2.5,0-3.7,0c0-4.3,0-8.6,0-12.9
	c1.2,0,2.4,0,3.7,0C30.4,26.2,30.4,26.8,30.4,27.5z"/>
<path class="st0" d="M36.6,25.5c0.7,0,1.4,0,2.2,0c0,4.3,0,8.6,0,12.9c-0.7,0-1.4,0-2.2,0C36.6,34.2,36.6,29.8,36.6,25.5z"/>
</svg>
