<svg xmlns="http://www.w3.org/2000/svg" viewBox="0 0 50 50"><path d="M0 42.21A20.89 20.89 0 0 0 15 38a10.52 10.52 0 0 1-9.47-7.13 10.9 10.9 0 0 0 4.47-.18 10.41 10.41 0 0 1-6.38-4.48A9.28 9.28 0 0 1 2 20.76L6.23 22l.12-.24a10.39 10.39 0 0 1-4.07-6.16A10.21 10.21 0 0 1 3.4 8.2a29.27 29.27 0 0 0 21 10.67c-.05-.47-.09-.89-.14-1.32a10.24 10.24 0 0 1 17.25-8.39 1.1 1.1 0 0 0 .85.24 19.31 19.31 0 0 0 5.34-2l.61-.31a10.51 10.51 0 0 1-4.21 5.5l.08.17 5.38-1.46c-.08.12-.18.29-.3.45a21.77 21.77 0 0 1-4.19 4.33 1.16 1.16 0 0 0-.39.81 30 30 0 0 1-7.77 20.7 26.73 26.73 0 0 1-15.58 8.66A29.23 29.23 0 0 1 .79 42.73c-.22-.13-.43-.28-.79-.52Z" style="fill:#e88562"/></svg>