<?xml version="1.0" encoding="utf-8"?>
<!-- Generator: Adobe Illustrator 23.0.4, SVG Export Plug-In . SVG Version: 6.00 Build 0)  -->
<svg version="1.1" id="Layer_1" xmlns="http://www.w3.org/2000/svg" xmlns:xlink="http://www.w3.org/1999/xlink" x="0px" y="0px"
	 viewBox="0 0 50 50" style="enable-background:new 0 0 50 50;" xml:space="preserve">
<style type="text/css">
	.st0{fill:#E88562;}
</style>
<title>icon-</title>
<path class="st0" d="M50,0c0,16.6,0,33.3,0,50c-16.7,0-33.3,0-50,0C0,33.4,0,16.7,0,0C16.8,0,33.4,0,50,0z M25.6,27.6
	c-0.3-0.6-0.5-1-0.7-1.4c-2.1-4.7-4.3-9.3-6.4-14c-0.3-0.7-0.7-1-1.5-1c-2.6,0.1-5.1,0-7.7,0c-0.3,0-0.6,0.1-1.3,0.2
	c1.1,1.4,2.1,2.4,3,3.7c0.5,0.7,0.9,1.6,0.9,2.4c0.1,3.2-0.2,6.4,0.1,9.6c0.3,3.7-0.5,6.9-3.3,9.4c-0.3,0.3-0.5,0.8-0.8,1.3
	c3.5,0,6.8,0,10.4,0c-0.4-0.6-0.6-1-0.9-1.3c-2.9-2.5-3.8-5.7-3.4-9.5c0.3-2.5,0.1-5.1,0.1-7.6c0.5,0.4,0.7,0.8,0.9,1.3
	c2.5,5.4,5,10.9,7.5,16.3c0.2,0.4,0.7,0.6,1,0.9c0.3-0.3,0.6-0.6,0.8-1c1.5-3.7,2.9-7.4,4.4-11.1c0.9-2.2,1.7-4.3,2.6-6.5
	c0.2,4.1,0.1,8.1,0.3,12.2c0.1,2.1-0.4,3.8-2.2,5.1c-0.4,0.3-0.6,0.8-1,1.2c4.6,0,9,0,13.6,0c-0.5-0.6-0.8-1-1.1-1.2
	c-1.8-1.3-2.2-3-2.1-5.1c0.2-4.7,0.1-9.3,0-14c-0.1-2,0.4-3.6,2-4.7c0.4-0.3,0.7-0.8,1.4-1.5c-3.2,0-5.9,0-8.6,0
	c-0.8,0-1.2,0.3-1.5,1c-1.8,4.6-3.6,9.1-5.4,13.7C26.2,26.4,25.9,26.9,25.6,27.6z"/>
</svg>
