<svg xmlns="http://www.w3.org/2000/svg" viewBox="0 0 50 50"><path d="M16 47.06A23.88 23.88 0 0 1 33.77 2.74a23.86 23.86 0 0 1 13 32.07C41 47.47 27.22 51 18.16 47.79c.86-1.89 1.85-3.74 2.55-5.7s1.1-4 1.65-6c3.44 3.21 7.79 3.36 11.91.54 6.12-4.2 8.37-15.17 3-21.46-3.45-4-7.93-5.55-13.1-5.24a15.71 15.71 0 0 0-10 4 13.76 13.76 0 0 0-2.93 16.28 8 8 0 0 0 3 3.31c.63.37 1.09.38 1.21-.49a2 2 0 0 1 .14-.53 4.13 4.13 0 0 0-.39-3.72C12 22.8 16.08 15.2 23 14.31a14 14 0 0 1 4.34.09c5.18 1 8.16 5.45 7.53 11a13.48 13.48 0 0 1-1.94 6.11 6.63 6.63 0 0 1-5 3.27 3.49 3.49 0 0 1-4-4.51c.55-2.15 1.2-4.27 1.75-6.41a5.51 5.51 0 0 0 .13-1.72 3 3 0 0 0-4.59-2.6A5.1 5.1 0 0 0 18.53 24a25.43 25.43 0 0 0 .36 3.86 4.74 4.74 0 0 1 0 1.5c-.79 3.64-1.79 7.25-2.47 10.92a56.35 56.35 0 0 0-.42 6.78Z" style="fill:#e88562"/></svg>