<svg xmlns="http://www.w3.org/2000/svg" viewBox="0 0 50 50"><path d="M48.51 24.59A23.86 23.86 0 1 1 24.05.8a23.85 23.85 0 0 1 24.46 23.79ZM28.3 27.91c-6.88 2.51-12.46 6.42-16.15 12.71a.92.92 0 0 0 .15.18 20.11 20.11 0 0 0 20 2.72c.31-.11.34-.27.26-.57-.85-3.33-1.64-6.69-2.54-10-.48-1.69-1.13-3.31-1.72-5.04Zm-1.4-3.34-1.5-3.12c0-.1-.12-.19-.19-.31a76.34 76.34 0 0 1-21 2.91 20.47 20.47 0 0 0 5.3 14.19A34.36 34.36 0 0 1 17 29.83a28 28 0 0 1 9.9-5.26ZM16.09 6.15A20.73 20.73 0 0 0 4.7 20.41c2.81.5 16.31-1.28 18.92-2.54Zm11.55 10.57a24.41 24.41 0 0 0 10.5-7.23c-3.32-4-13-6.46-18.07-4.63Zm17.41 7.69a20.42 20.42 0 0 0-4.61-12.62 21 21 0 0 1-5.2 4.68c-2 1.24-4 2.32-6.08 3.49.51 1.14 1 2.39 1.62 3.62 0 .11.34.17.51.15a47.45 47.45 0 0 1 10.11.16c1.19.11 2.38.34 3.65.52Zm-9 17c4-2.05 9-10 8.63-13.62A29.79 29.79 0 0 0 32.09 27 92.24 92.24 0 0 1 36 41.45Z" style="fill:#e88562"/></svg>