<svg version="1.1" id="Layer_1" xmlns="http://www.w3.org/2000/svg" x="0" y="0" viewBox="0 0 50 50" style="enable-background:new 0 0 50 50" xml:space="preserve"><style>.st0{fill:#e88562}</style><path class="st0" d="M4 17.6c-.1 2.3-.2 4.6-.3 6.8H1.2C.8 20.1.5 15.8.1 11.5h2.3c.1 2.5.2 5.1.2 7.6h.1c.1-2.5.2-5 .3-7.6h1.2c.3 0 .6-.1.8.1.1.1.1.5.1.8l.3 6.9v.2c.1-2.7.2-5.3.2-8h2.1c0 .4-.1.8-.1 1.2-.2 2.1-.4 4.3-.5 6.4-.1 1.7-.3 3.4-.4 5.1 0 .2-.1.3-.3.3H4.5c-.2 0-.3-.1-.3-.3-.1-2.1-.2-4.3-.2-6.4.1-.1.1-.1 0-.2zM3 25.5h2.1c.1 2.7.2 5.3.4 8 .1-2.6.2-5.3.2-8h2.1c-.4 4.3-.7 8.6-1.1 12.9H4.2l-.3-6.9c-.1 2.3-.2 4.6-.3 6.8H1.1C.7 34 .4 29.7 0 25.4h2.3c.1 2.5.2 5 .2 7.6h.1c.2-2.4.3-4.9.4-7.5zM13.9 11.5h2.5c.1 2 .2 3.9.4 5.9 0-.5.1-1.1.1-1.6.1-1.3.2-2.7.2-4 0-.2.1-.3.3-.3h2.2v13h-1.8V18h-.1c-.2 2.2-.4 4.3-.6 6.5h-.8c-.2-2.2-.4-4.4-.6-6.7v6.7h-1.8v-13zM8.3 25.5h2.2v5h.4v-5h2.2v12.9h-2.2v-5.6h-.5v5.6H8.2c.1-4.2.1-8.5.1-12.9zM18.9 32v4.5c0 1.2-.8 1.9-2 2.1h-1.3c-1-.2-1.6-.9-1.7-1.9v-8.5c0-.4 0-.8.1-1.2.2-.8.7-1.3 1.5-1.4.5-.1 1.1-.1 1.7 0 1 .1 1.6.9 1.7 2V32zm-2.8 0V36.4c0 .1.1.2.2.2s.2-.1.2-.2v-8.6c0-.2 0-.4-.2-.4-.3 0-.2.3-.2.5V32zM13.3 18v3.9c0 .4 0 .7-.1 1.1-.2.8-.7 1.4-1.6 1.5-.6.1-1.2.1-1.7 0-.9-.2-1.5-.9-1.6-1.8V14c0-.3 0-.6.1-1 .2-.9.8-1.4 1.6-1.5.6-.1 1.2-.1 1.8.1 1 .2 1.5 1 1.5 2.1V18zM11 18v-4.2c0-.2 0-.5-.3-.5s-.2.3-.2.5v8.3c0 .2-.1.5.2.5.3 0 .3-.3.3-.5V18zM21.2 25.5h3.4c.8 0 1.3.5 1.5 1.3 0 .2.1.5.1.7v8.9c0 .3 0 .7-.1 1-.2.7-.7 1-1.4 1.1h-3.3c-.2-4.3-.2-8.6-.2-13zm2.2 11.1c.3.1.4 0 .4-.3V27.7c0-.3-.1-.4-.4-.3v9.2zM44.3 30.4h-2.1V27.4c-.1-.1-.2-.2-.3-.2-.1 0-.2.1-.2.2v9c0 .2.1.4.3.4.2 0 .3-.2.3-.4v-3.9h-.4v-1.7h2.5v7.6H43c-.1 0-.1-.1-.2-.2-.1-.2-.1-.4-.2-.6-.1.1-.1.1-.1.2-.5.6-1.1.9-1.9.7-.7-.2-1-.8-1.2-1.5 0-.2-.1-.4-.1-.6v-8.8c0-.4.1-.9.3-1.3.3-.6.9-.9 1.6-1 .5 0 1.1 0 1.6.1.8.1 1.4.7 1.4 1.6.2 1.1.1 2.2.1 3.4zM46.9 38.5h-1.8V25.6h2.2c.3 2.2.5 4.4.8 6.5v-6.5h1.8v12.9h-2c-.3-2.4-.6-4.8-1-7.2v7.2zM29.6 24.5h-2c-.3-2.4-.6-4.9-1-7.3v7.3h-1.8V11.6H27c.3 2.2.5 4.3.8 6.5v-6.5h1.8v12.9zM35.9 30.1h-2.1v-2.7c0-.2 0-.3-.2-.3s-.2.2-.2.3v2.1c0 .3.2.6.4.8.5.4 1 .9 1.5 1.3.5.5.7 1.1.8 1.8v3.1c0 .4-.1.8-.4 1.2-.4.6-1 .8-1.6.8h-1.3c-1-.1-1.6-.6-1.6-1.6-.1-1.2 0-2.5 0-3.7h2.2v3.2c.1.1.1.2.2.2.1-.1.2-.1.2-.2v-2.6c0-.4-.1-.7-.5-1-.4-.4-.9-.7-1.3-1.1-.6-.5-.8-1.2-.8-2V27c0-1 .6-1.7 1.7-1.8.6-.1 1.2 0 1.7 0 .8.1 1.3.6 1.3 1.5v3.4zM22.5 18.7v3.7h1.6v2h-3.7V11.5h3.7v2h-1.5v3.1h1.3v2.1h-1.4zM30.4 27.5h-1.5v3.1h1c.2 0 .3 0 .3.3v1.6c0 .2-.1.3-.3.3h-1v3.7h1.6v2h-3.7V25.6h3.7c-.1.6-.1 1.2-.1 1.9zM36.6 25.5h2.2v12.9h-2.2V25.5z"/></svg>