<svg xmlns="http://www.w3.org/2000/svg" viewBox="0 0 50 50" style="enable-background:new 0 0 50 50" xml:space="preserve"><path d="M50 0v50H0V0h50zM25.6 27.6l-.7-1.4c-2.1-4.7-4.3-9.3-6.4-14-.3-.7-.7-1-1.5-1-2.6.1-5.1 0-7.7 0-.3 0-.6.1-1.3.2 1.1 1.4 2.1 2.4 3 3.7.5.7.9 1.6.9 2.4.1 3.2-.2 6.4.1 9.6.3 3.7-.5 6.9-3.3 9.4-.3.3-.5.8-.8 1.3h10.4c-.4-.6-.6-1-.9-1.3-2.9-2.5-3.8-5.7-3.4-9.5.3-2.5.1-5.1.1-7.6.5.4.7.8.9 1.3 2.5 5.4 5 10.9 7.5 16.3.2.4.7.6 1 .9.3-.3.6-.6.8-1 1.5-3.7 2.9-7.4 4.4-11.1.9-2.2 1.7-4.3 2.6-6.5.2 4.1.1 8.1.3 12.2.1 2.1-.4 3.8-2.2 5.1-.4.3-.6.8-1 1.2H42c-.5-.6-.8-1-1.1-1.2-1.8-1.3-2.2-3-2.1-5.1.2-4.7.1-9.3 0-14-.1-2 .4-3.6 2-4.7.4-.3.7-.8 1.4-1.5h-8.6c-.8 0-1.2.3-1.5 1-1.8 4.6-3.6 9.1-5.4 13.7-.5.4-.8.9-1.1 1.6z" style="fill:#e88562"/></svg>