<?xml version="1.0" encoding="utf-8"?>
<!-- Generator: Adobe Illustrator 23.0.4, SVG Export Plug-In . SVG Version: 6.00 Build 0)  -->
<svg version="1.1" id="Layer_1" xmlns="http://www.w3.org/2000/svg" xmlns:xlink="http://www.w3.org/1999/xlink" x="0px" y="0px"
	 viewBox="0 0 50 50" style="enable-background:new 0 0 50 50;" xml:space="preserve">
<style type="text/css">
	.st0{fill:#E88562;}
</style>
<title>icon-</title>
<path class="st0" d="M29.5,36.4c1.2-0.2,2.3-0.4,3.3-0.7c4.7-1.3,7.3-4.5,7.7-9.4c0.1-1.5,0.2-2.9-0.2-4.3c-0.3-1.4-1-2.7-1.9-3.7
	c-0.2-0.3-0.3-0.5-0.2-0.9c0.6-1.9,0.4-3.8-0.3-5.6c-0.1-0.2-0.4-0.4-0.6-0.4c-1.2,0-2.3,0.4-3.3,0.9c-0.9,0.4-1.7,1-2.6,1.4
	c-0.2,0.1-0.5,0.2-0.7,0.1c-3.8-0.9-7.6-0.9-11.5,0c-0.2,0.1-0.6,0-0.8-0.1c-1.6-1-3.2-1.9-5.1-2.2c-1.1-0.2-1.2-0.1-1.6,1
	c-0.5,1.7-0.6,3.4,0,5.2c0.1,0.2,0,0.5-0.1,0.6c-1.8,2.2-2.4,4.7-2.2,7.4c0.1,1.7,0.4,3.3,1.1,4.9c1.3,2.9,3.8,4.5,6.8,5.3
	c0.8,0.2,1.7,0.3,2.6,0.5c0.2,0,0.3,0.1,0.6,0.1c-0.8,0.9-1.2,1.9-1.5,3c0,0.1-0.2,0.3-0.4,0.4c-2.7,1.1-5.1,0.4-6.7-2.1
	c-0.8-1.2-1.8-2.2-3.3-2.5c-0.3-0.1-0.7-0.1-1,0c-0.2,0-0.5,0.2-0.5,0.3c0,0.2,0.1,0.4,0.3,0.6c0.1,0.2,0.3,0.3,0.5,0.4
	c1.3,0.8,2.1,2,2.7,3.3c0.9,2.3,2.7,3.3,5,3.4c1.1,0.1,2.2-0.1,3.4-0.1c0,0.1,0,0.3,0,0.5c0,1.2,0,2.4,0,3.5c0,1.3-0.7,1.8-1.9,1.4
	c-5.1-1.8-9.3-4.9-12.3-9.4c-9.8-14.6-1.5-34,15.6-37.4c13-2.5,25.4,5.5,28.5,18.3c2.9,12-4.1,24.6-15.9,28.5
	c-1.2,0.4-1.9-0.1-1.9-1.4c0-1.9,0-3.9,0-5.8C31.1,39.5,30.9,37.8,29.5,36.4z"/>
</svg>
