<svg xmlns="http://www.w3.org/2000/svg" viewBox="0 0 50 50" style="enable-background:new 0 0 50 50" xml:space="preserve"><path d="M29.5 36.4c1.2-.2 2.3-.4 3.3-.7 4.7-1.3 7.3-4.5 7.7-9.4.1-1.5.2-2.9-.2-4.3-.3-1.4-1-2.7-1.9-3.7-.2-.3-.3-.5-.2-.9.6-1.9.4-3.8-.3-5.6-.1-.2-.4-.4-.6-.4-1.2 0-2.3.4-3.3.9-.9.4-1.7 1-2.6 1.4-.2.1-.5.2-.7.1-3.8-.9-7.6-.9-11.5 0-.2.1-.6 0-.8-.1-1.6-1-3.2-1.9-5.1-2.2-1.1-.2-1.2-.1-1.6 1-.5 1.7-.6 3.4 0 5.2.1.2 0 .5-.1.6-1.8 2.2-2.4 4.7-2.2 7.4.1 1.7.4 3.3 1.1 4.9 1.3 2.9 3.8 4.5 6.8 5.3.8.2 1.7.3 2.6.5.2 0 .3.1.6.1-.8.9-1.2 1.9-1.5 3 0 .1-.2.3-.4.4-2.7 1.1-5.1.4-6.7-2.1-.8-1.2-1.8-2.2-3.3-2.5-.3-.1-.7-.1-1 0-.2 0-.5.2-.5.3 0 .2.1.4.3.6.1.2.3.3.5.4 1.3.8 2.1 2 2.7 3.3.9 2.3 2.7 3.3 5 3.4 1.1.1 2.2-.1 3.4-.1v4c0 1.3-.7 1.8-1.9 1.4-5.1-1.8-9.3-4.9-12.3-9.4C-5 24.6 3.3 5.2 20.4 1.8c13-2.5 25.4 5.5 28.5 18.3 2.9 12-4.1 24.6-15.9 28.5-1.2.4-1.9-.1-1.9-1.4v-5.8c0-1.9-.2-3.6-1.6-5z" style="fill:#e88562"/></svg>