<svg version="1.1" id="Layer_1" xmlns="http://www.w3.org/2000/svg" x="0" y="0" viewBox="0 0 951 962.2" style="enable-background:new 0 0 951 962.2" xml:space="preserve"><style>.st2{fill:#d87653;stroke:#d87653;stroke-miterlimit:10}.st5{fill:#123345}.st6{fill:#d8d8d3}.st8{fill:#f2b980}.st9{fill:#133448}.st10{fill:#f2ba83}.st11{fill:#d9d8d3}.st12{fill:#113346}.st14{fill:#fcfcfb}.st16{fill:#dbdad6}.st20{fill:#fbfbfb}</style><path d="M791.6 366.8c1.8-4.1 3.8-8 5.2-12.2 1.1-3.4 1.4-7 2.1-10.4l-8.9-5.1.4-1 6.1 1.8c.1-.2.2-.4.4-.6-6.5-5.4-13.4-10.4-19.3-16.4s-11.1-13.1-16.6-19.8c6.1-.3 12.3.6 18 2.8 10.1 3.6 20.2 7.3 30 11.7s16.4 12.7 21.7 21.9c4.3 7.1 7.4 14.8 9.2 22.9.2.6.6 1.2 1 1.8l1 4.1 3.3 20c.8 5 1.8 10.1 2.4 15.1 1.6 14 3 28 4.4 42 1 10.5 1.9 21.1 2.9 31.6.1 1.4.5 2.9.8 4.3 0 1 .1 2 .1 2.9.7 7.7 1.3 15.3 2 23v3c.4 8 .9 15.9 1.3 23.9.2 1 .4 2.1.6 3.1.3 8 .6 16.1 1 24.1.2 4.8-.3 5.8-4.6 7.5l-6.3 2.4c-1.5 0-3 0-4.5.3-8.9 2-17.3.1-25.5-3.3-.5-1.7-.9-3.5-1.1-5.2-.1-6.3 0-12.6-.1-19-.1-3.6-.7-7.2-.7-10.9 0-4.6.7-9.2.7-13.9 0-3.6-.7-7.2-.8-10.9-.1-5.1 0-10.2 0-15.3 0-3.1.2-6.3-1.6-9.1-.5-.8-.3-2.2-.2-3.3.2-2.1.8-4.2.7-6.3-.2-4.5-.5-9-1-13.4-1-8.7-2-17.4-3.5-26-1.5-9.1-3.6-18.2-5.5-27.2-2.4-11.1-4.5-22.4-8.6-33.1-1.3-3.7-3.1-6.3-6.5-7.8z" style="fill:#e98561"/><path d="M620.7 503.9c-1-6.7-1.9-13.5-3-20.2-.2-1-.5-1.9-.8-2.8l-.3-3c-.9-6.8-1.9-13.5-2.7-20.3-.8-6.2-1.5-12.4-2.2-18.5l-.1-3.1c-.4-5.7-.8-11.4-1.3-17.1-.4-4.4-.8-8.8-1.3-13.2 1.9.6 3.7 1.3 5.5 2.1 8.4 4.2 16.8 8.4 26.4 9.6s19.1 1.2 28.5-1.9c.8-.2 1.6-.3 2.4-.4 1 .4 2 .8 3 1 3.7.5 7.5.8 11.3.8 3.7 0 7.4-.7 11.3-1.1-.3 1.4-.4 2-.5 2.6-5 .6-10.1 1.3-15.1 1.6-3.8.3-7.6 0-11.5.1-5.5 0-10.2 2.6-14.8 5.1-.7.4-1.2 1.1-1.5 1.9-1.4 5-3.8 9.8-2.4 15.4 1 4.1.8 8.5 1.2 12.8.8 7.6 1.6 15.1 2.4 22.7-1 2.7 1 3.5 2.9 4 1.5.4 3.2.7 4.8 1 11.5 2.1 23 4.2 34.5 6.2 13.5 2.4 27 4.5 40.4 7.1 3 .6 6.8-.6 8.9 2.9-.3 6.2-.7 12.4-.9 18.6-.2 5.6-.9 11.1-5 15.4-5.1-.8-10.1-1.5-15.2-2.3-4.6-.6-9.1-1.1-13.7-1.8-5.1-.7-10.1-1.6-15.2-2.4l-3-.6c-8.2-1.1-16.4-2.1-24.5-3.5-9.6-1.6-19.2-3.4-28.7-5.6-4.8-1.2-9.5-3-13.9-5.2-1.9-.9-3.2-3.2-4.8-4.9l-1.1-3z" style="fill:#e98561;stroke:#e98561;stroke-miterlimit:10"/><path class="st2" d="M683.3 386.2c9.9-.2 19.6.5 28.5 5.7 6.6 3.9 13.2 1.2 15.5-6.2 2.6-8 8.7-13 14.9-18 1.7-1.3 3.4-2.5 5.2-3.8 1.1 7 2.3 13.9 3.4 20.9.7 4.1 2.2 5 6.2 3.3 2.4-1 4.7-2.1 7-3.2-8.7 8.1-18.4 15.1-28.9 20.8-10 5.5-20.8 9.5-31.9 11.8-2.1.4-4.3.4-6.4.6.1-.6.2-1.3.5-2.6-3.9.4-7.6 1-11.3 1.1-3.7-.1-7.5-.3-11.2-.8-1-.2-2-.6-3-1 4.1-2.1 8.3-4.1 12.2-6.4 4.6-2.7 4.5-2.9 3.1-8-1.3-4.6-2.5-9.4-3.8-14.2z"/><path d="M430.8 517c.5 3.9 1.1 7.7 1.6 11.6.4 2.7 1.1 5.5-.8 8-9 .5-17.9 1.2-26.9 1.3-10.5.2-20.9 1.6-31.2 1.8-17.2.2-34.5 1.9-51.8.5-10.2-.8-20.5-.8-30.8-1.2-.5-1.5-.9-3.1-1.1-4.7-.5-11.1-.8-22.2-1.2-33.3 0-1.4 0-2.8-.1-4.1l-1.2-29.9c2.6.4 4.6-.5 6.6-2.4 2.7-2.7 4.6-5.5 5-9.4.4-3.6 1.5-7.1 1.8-10.6.5-7.9.8-15.9 1-23.8.1-4.3-.1-8.7 0-13 .4-13.6-1.1-27.2 1-40.8.1-1.1.1-2.2 0-3.4-1.5.7-2.7 1.6-2.9 2.7-.9 5.2-1.7 10.4-2.1 15.6-.5 7.1-.7 14.2-1.1 21.3-.2 3.9-.6 7.9-1.1 11.8-.9 7.8-2.4 15.6-2.7 23.5 0 5.8-1.1 11.5-3.1 16.9-1.1 2.9-2.1 5.9-3.1 8.8-1.7-.5-3.4-.8-5.1-1.1-3.1-.4-6.2-.4-9.3-.8-8.5-1.1-16.9-2.3-25.3-3.5l-7.2-1.6c-3.3-.4-6.5-.8-9.8-1.2-7.8-1.2-15.6-2.2-23.4-3.6-9.5-1.7-18.9-4.6-28.7-4.5v.1l-.9-.7-4-.5c-3.7-.6-7.4-1.1-11.1-1.8-5.3-.9-10.6-1.9-15.9-2.8.6-3.5 1.1-6.2 1.6-8.9l2.4-20.2c3.5-2.2 7.3-.8 11-.9l3.1.4c5.2.8 10.3 1.4 15.5 2.3 4.8.8 9.6 1.9 14.4 2.9l11.1 2 8 .3c.6.3 1.2.5 1.8.7 9.3.9 18.7 1.8 28 2.7l1.1.3 4 .1 6 .1c2.3.2 4.8.6 4.6-3l1.2-25c.3-2.3.6-4.6.9-7l1.2-12c0-.3.1-.6.1-1 .2-1.4.5-2.7.7-4.1.4-5.1 1-10.1 1.1-15.2.2-7.8 2.5-14.5 8-20.1 6.8-6.8 13.4-13.7 20.1-20.5l4-3.9c3.6-3.2 7.1-6.4 10.7-9.5 2.1-1.6 3.5-4 3.9-6.6 0-1.8-.2-3.6-.5-5.4-.6-2.5.6-2.9 2.6-2.8 2.3 1.6 4.7 2.5 7.4 1 1.4.2 2.9.8 4.2.5 5-.9 10-2.1 14.9-3.3 6.9-1.7 13.7-3.5 20.5-5.2.8 8.8 5.4 8.6 11.1 6.6 3.4-1.2 6.8-2.6 10.3-3.6 9.9-3.1 20-5.9 29.9-9.1 9.6-3.1 19.1-6.6 28.7-9.7 7.5-2.4 15.2-4.5 22.8-6.8.2-.9.3-1.9.2-2.8-7.6-35.3-15.3-70.6-23.1-106.2l2.4-1.3c4.3-.9 8.5-1.7 12.8-2.6 2.3-.4 4.7-.8 7-1.2l11-1.6c1.4 6.3 2.8 12.1 4 17.9 3.3 16.5 6.6 33 9.8 49.6 3.5 18.3 6.9 36.7 10.3 55 .3 1.6.8 3.2 1.2 4.8V281c.3 5.4-1.8 8.9-8.2 10.8-4.1 1.2-8.3 2.3-12.3 3.9-16.8 6.6-33.6 13.2-50.3 20-3.8 1.5-7.4 3.6-11.2 5.3-2.6 1.2-3.5 3.1-3.2 6 .5 6.9.8 13.9 1.2 20.9l.9 5.1c.7 10.5 1.3 21.1 2.1 31.6.3 4.2 1 8.4 1.6 12.7.1 1.6.3 3.2.4 4.8-.1.7-.1 1.3-.1 2 .8 7.6 1.6 15.1 2.3 22.7.4 3.6.5 7.3.8 10.9.9 10.9 1.9 21.7 2.9 32.6.4 4.3.6 8.6 1.2 12.8 1.2 9.7 2.6 19.3 3.9 29l.9 4.9z" style="fill:#e78562;stroke:#e78562;stroke-miterlimit:10"/><path d="M290.9 538.9c10.3.4 20.6.3 30.8 1.2 17.3 1.4 34.5-.2 51.8-.5 10.4-.2 20.8-1.6 31.2-1.8 9-.1 17.9-.8 26.9-1.3 0 8.5 1.9 16.7 3 25.1 1.1 8.7 1.5 17.5 2.2 26.2.3 3.8.7 7.6 1 11.4.3 3.5.6 6.9.8 10.4.5 13.1.6 26.2 1.3 39.3.5 9.9 1.8 19.8 2.6 29.6.3 3.5 0 7 .3 10.5.4 3.8.7 7.6 2 11.2 5.5 15.4 11.2 30.8 16.9 46.1 9 24.2 17.9 48.4 26.9 72.6 1.5 4.2 2.8 8.4 4.6 12.5 1 1.7.4 3.8-1.2 4.8-3.4 2.6-6.9 5.1-10.3 7.7-8 2.9-15.9 6.4-24.6 6.4h-9.3c-3.5.2-4.3-2.2-5.1-4.8-4.7-14.8-9.1-29.7-14.3-44.4-4.5-12.5-9.9-24.6-14.9-36.9-5.1-12.6-10.8-25-15.2-37.9-4.6-13.5-8.7-27.1-9.7-41.5-.9-12.7-2.3-25.4-4-38.1-1.7-13.1-3.8-26.2-5.7-39.3-.5-3.6-.8-7.2-1.3-11.6l-25.2 1.5c-.5 3.4-1.3 6.8-1.5 10.2-.8 15.1-2.1 30.2-2.4 45.3-.3 14.8-2.2 29.5-1.9 44.3.1 7.1-.2 14.3-1 21.4-.5 5.8-.5 11.5-.2 17.3.5 14.3 3.8 28.2 5.9 42.2 1.2 8.3 2.3 16.7 3.5 25 1.4 9.3 2.8 18.7 4.4 27.9 1.4 7.8 3.1 15.5 4.5 23.3.6 3.2 0 4.5-3.2 5.7-4.2 1.5-8.5 2.7-12.7 4.1l-33 4.7c-2.5-.9-3.7-2.6-4.2-5.3-2.4-12.7-5.2-25.2-7.6-37.9-1.9-9.6-3.5-19.2-5-28.8-.7-4.4-.7-8.9-1.2-13.4-1.4-12.5-2.9-25-4.3-37.5-.5-4.1-1.2-8.2-1.5-12.3-.5-9.5-1-18.9-1-28.4 0-13.5.7-26.9.8-40.4.1-30 0-60 0-90 0-2-.1-4-.1-6 0-1-.1-2.1-.1-3.2l.3-26.6z" style="fill:#64c5a8"/><path class="st5" d="M615.1 364.1c2.8-7.4 6-14.7 8.5-22.2 3.5-10.9 6.5-21.9 12.5-31.8 1.4-2.6 2.6-5.4 3.8-8.1 10.5-22.4 27.8-34.7 52.5-37.2 13.5-1.4 25.7 2.2 37.6 7.5 2.1 1 4.1 2.3 5.8 3.8 8.5 7.5 16.8 15.2 23.3 24.6.6.8 1.2 1.5 1.9 2.2 5.5 6.6 10.6 13.7 16.6 19.8s12.8 11 19.3 16.4c-.1.2-.2.4-.4.6l-6.1-1.8-.4 1 8.9 5.1c-.6 3.4-.9 7-2.1 10.4-1.4 4.2-3.5 8.2-5.2 12.2-5 6.9-12.2 10.8-19.8 14.2-2.7 1.2-5.2 2.8-7.8 4.1-2.3 1.1-4.7 2.1-7 3.2-3.9 1.7-5.5.8-6.2-3.3-1.1-7-2.3-13.9-3.4-20.9-1.3-12.4-5.5-24.4-12.1-34.9-7.7 7.9-16.5 13.2-25.5 18.6s-17.6 11.1-28.5 12.9c-1.1-3.4-2.2-6.4-3.4-10-.8 1.1-1.8 1.9-1.8 2.6.4 11.5 1.8 22.8 7.2 33.2 1.2 4.8 2.4 9.6 3.7 14.4 1.4 5.1 1.5 5.2-3.1 8-4 2.3-8.1 4.3-12.2 6.4-.8.1-1.6.2-2.4.4-9.3 3.1-18.8 3.1-28.5 1.9s-18-5.3-26.4-9.6c-1.8-.8-3.6-1.5-5.5-2.1l-6-3.5c0-.7-.1-1.5-.1-2.2 4.8-10 9.6-20.1 14.4-30.1.6-1.7 1.2-3.4 1.8-5.2s1.3-3.4 1.8-5.1c.5-1.5.8-3 1.2-4.5-2 3.5-3.8 7.1-5.3 10.8-.6.9-1.2 1.6-2 2.3.1-1.5.3-2.8.4-4.1z"/><path class="st6" d="m841.8 368-1-4.1c5.7 0 11.3-.1 17 .1 4.4.2 8.8 1.1 13.2 1.5 5.1.5 10.2 1.3 15.3 1.3 17 .2 34 .2 51 0 3.2 0 6.5-1 10.2-1.5 1.5.7 2.3 2.3 2.4 4.5.2 7.1 1.2 14.3.8 21.3-1.9 29.9-.5 59.9-.8 89.8-.1 15.8 1.4 31.6.6 47.3-.8 15-.5 29.9-.7 44.8-.1 9.4 1.2 18.9.8 28.3-1.9 42.8-.2 85.5-.9 128.3-.2 15.1-.9 30.2-.9 45.3 0 14.3-.1 28.6 1.1 42.8 1.1 13.5.3 26.9.8 40.3.2 6 .6 11.9 1 17.8.2 2.9-.5 4.9-3.9 4.9-2 0-3.9.8-5.8.8-8.2.1-16.3.3-24.5-.1-6.7-.3-13.5-1.2-20.2-1.8-5.1-.4-10.2-1-15.3-1-13-.2-26 0-39-.1-8.8-.1-17.6-1.4-26.3-.7-20.5 1.5-40.9-.3-61.3 1-14.6 1-29.2.5-43.8.7-9.3.1-18.5-.8-27.8-.8-12.4 0-24.9.6-37.3.9-10 .3-19.9 1-29.8.8-7.7-.1-15.5-1.5-23.2-1.7-10.9-.2-21.9-.9-32.8 1-2.2.5-4.5.7-6.8.8-8.1.1-16.2 0-24.9 0v-5.9c.3-28.3.8-56.5.9-84.8 0-11.6-.8-23.2-.8-34.8 0-13.5.1-26.9 1-40.3 1.7-25.6 1.4-51.2.6-76.8-1.4-49.5-.2-98.9-.8-148.3v-5.2c-2.3.8-4.1 1.5-5.9 2-7.9 2.4-15.8 4.6-23.6 7.1-10.2 3.3-20.3 7-30.4 10.4-8.9 3-17.9 5.7-26.8 8.6-4.1 1.3-8.1 2.7-12.2 4-.3-1.7-.6-3.3-1-5 4-1 8-1.8 11.9-3 8.5-2.6 17.1-5 25.4-8.2 10.8-4.1 21.5-8.4 32.8-10.9 3-.6 6-1.5 9-2.5 5.8-2 11.4-4.5 17.2-6.3 13.1-4.1 26.3-8 40.2-12.2-2.9-8.3-5.5-16.8-8.7-25-3.8-10-8.3-19.8-11.9-29.9-5.3-14.7-10-29.7-15-44.5-3.7-11.1-7.8-22.1-11.3-33.2-2.7-8.7-5.4-17.3-9.7-25.4-1.3-2.9-2.3-5.8-3-8.9-2.1-7.3-5.1-14.2-8.9-20.8v-11.1c2.2 5 4.6 9.8 6.6 14.9 3.2 8.1 5.6 16.6 9.2 24.5 8 17.5 12.7 36 19.4 54 1.1 2.9 2.4 4 5.3 3.7 8.2-.7 16.5-1.3 24.7-2 1-.1 2 0 3-.1 14.4-.3 28.9-.7 43.3-1 1.8 0 3.7.1 5.5.2-.1 1.3-.2 2.6-.4 3.9l.1-.1-1.8 1h-45.5c-9.2.7-18.5 1.3-27.7 2-1.1.1-2.3.1-3.8.2 1.7 5 3.2 9.6 4.8 14.3 3.4 10.3 6.5 20.8 10.3 31 5.3 14.2 11.1 28.3 16.6 42.4.9 2.5 1.6 5 2 7.6.3 1.9.7 4.1-1.6 5.3-5.8 3.1-12 5.5-18.5 7.1-4.6 1.1-9.2 2.3-13.8 3.5-2.5.7-3.4 2.3-2.8 5 .4 1.8.7 3.5.7 5.4.6 26-.3 51.9.8 77.9 1.4 31.6-.6 63.2 1.1 94.8.5 10.6-.8 21.2-.8 31.8-.1 58.5-.1 117-.1 175.5 0 1.3.2 2.5.3 4.1 8.6-.1 16.8.6 25-1.1 2.1-.5 4.2-.8 6.3-.8 14.8.3 29.5-.2 44.4.7 13.2.8 26.5-.6 39.8-.7 51.8-.4 103.5-.8 155.3-1h4c1 0 2-.1 3-.1 3.6-.2 7.2-.8 10.9-.7 5.1.1 10.2.8 15.3.8 14.7.1 29.3 0 44 .1 5.1 0 10.2.6 15.3 1.1 6.7.6 13.4 1.5 20.2 1.8 8 .3 16 .1 24 .1 1.3 0 2.5-.2 4.2-.4-.4-4.4-.9-8.5-1-12.6-.6-21.8.8-43.6-.9-65.3-.9-11.2-1-22.5-1-33.8 0-9.1.6-18.2.9-27.3.6-23.4-.5-46.9.8-70.3 1.3-22.4-.7-44.9 1-67.3.7-8.7-.8-17.5-.8-26.3.1-14.6.9-29.2.8-43.8-.1-18.5-.2-36.9-.6-55.3-.6-26.9-1.5-53.9.6-80.8.5-6.6.1-13.3.1-20 0-.9-.2-1.9-.3-2.8-4.1.4-7.8 1-11.5 1.1-2.6.1-5.2-.8-7.8-.7-4.3.1-8.6.9-12.8.8-12.6-.2-25.2-.6-37.8-.9h-1c-8.3-2.1-16.7-1.9-25.2-2-2.7-.2-5.5-.5-8.3-1zM91.8 400.1c-4.4-11.6-8.7-23.2-13.2-34.7-4.8-12.1-10.2-24-14.7-36.2-8.2-21.9-14.4-44.5-20.1-67.1-.9-3-2-5.9-3.2-8.7-.9-2.1-2-4.2-2.8-6.4-8.1-21.1-16.2-42.2-22.9-63.8-3.5-11.1-8.1-21.9-12.3-32.9L1.4 147c-1-3.4-.7-3.4 2.3-5.2 6-3.5 12.4-6.2 19-8 8.8-2.7 17.5-5.9 26.2-9 9.6-3.4 19.2-7 28.9-10.3 8.4-2.9 16.9-5.6 25.3-8.5 7.9-2.8 15.7-6 23.6-8.9 2.6-1 5.4-1.6 8-2.6 13-4.9 25.9-9.9 39.1-14.2 17.9-5.7 35.4-12.7 53.2-18.9 20.6-7.1 41.2-14.1 61.9-20.9 14.9-4.9 30-9 44.8-14.1 12.8-4.4 25.3-9.6 38-14.4 10.3-4 20.6-8 31-11.9.9-.2 1.8-.2 2.7-.2 1.8 5.1 3.7 10.2 5.5 15.3 4.1 11.9 8 23.8 12.2 35.6 3.1 8.7 6.5 17.3 9.8 25.9.3.9 1.4 1.5 2.1 2.2l-3.1 3c-.5-.6-1-1.3-1.4-2-3.6-9.1-7.2-18.1-10.5-27.3-3.9-10.8-7.4-21.8-11.2-32.8-1.8-5.1-3.7-10.1-5.5-15.1-.7.1-1.3.2-2 .4-12 4.8-23.8 9.9-35.9 14.3-16.6 6-33.3 11.5-50.1 17.1-9.4 3.1-19 5.7-28.3 8.8-11.4 3.8-22.7 8.1-34.1 12-10.2 3.5-20.7 6.5-30.9 10-15.6 5.4-31.1 11.2-46.6 16.7-3.2 1.2-6.7 1.8-9.9 3-9.4 3.4-18.8 7.1-28.3 10.6-8 3-16.1 5.8-24.2 8.6-7.3 2.6-14.6 5.2-21.9 7.6-10.6 3.5-21.3 6.8-31.9 10.4-13.2 4.6-26.2 9.9-39.6 14C14 140 9.1 142.8 4 145.5c.1.7.3 1.4.5 2.1 7.6 16.9 13.5 34.4 19.9 51.8 4.6 12.7 9.4 25.4 14.1 38.1 1.5 4 3.1 8 4.7 12 .9 2.3 2.3 4.4 2.9 6.7 4.3 15.3 8.2 30.8 12.8 46.1 2.9 9.8 6.6 19.3 10.2 28.9 3.5 9.3 7.4 18.4 10.9 27.6l16.2 42-4.4-.7z"/><path d="m314.8 868.8 33-4.7c.6 5.5 1.1 11.1 1.7 16.7.4 3.3.9 6.5 1.1 9.8.4 5.1.7 10.2 1.1 15.3.3 3.6.7 7.2 1 10.8-4.7 6.5-11.4 10.3-18.5 13.6-2.4 1-4.8 2.2-7 3.6-8 5.2-16.8 7.4-26.2 7.9-3 .2-6.1-.5-9.2-.7-.1-.4-.3-.8-.4-1.2 1.2-1.1 2.6-2.1 4-2.9 6.9-3.1 13.9-6.1 20.9-9 2.8-1.2 5.2-2.5 6-5.7 2.1-1.1 2.6-2.8 2.1-5-2.2-10-4.4-20-6.5-30-1.1-6.1-2-12.3-3.1-18.5z" style="fill:#f1b980"/><path class="st8" d="M447.8 850.3h9.3c8.8 0 16.6-3.5 24.6-6.4 1.4 7.2 2.6 14.5 4.1 21.7 2.5 12 5.3 24 8 35.9.5 1.9 1.2 3.7 2 5.5H494c.9 4.8.9 5.5-3.2 7.2-3.5 1.6-7.2 2.6-11 2.8-4.4.1-9.4 1.2-13-3 1.4-2.7 3.4-5.2 1-8.2-1.2-3.6-2.2-7.2-3.5-10.7-3.5-9.8-7-19.5-10.5-29.2-1.8-5.2-4-10.4-6-15.6z"/><path class="st9" d="M322.5 922.3c-.8 3.2-3.2 4.5-6 5.7-7 3-13.9 5.9-20.9 9-1.5.8-2.8 1.8-4 2.9.1.4.3.8.4 1.2 3.1.3 6.2.9 9.2.7 9.3-.5 18.2-2.7 26.2-7.9 2.2-1.4 4.6-2.6 7-3.6 7.1-3.2 13.7-7.1 18.5-13.6 3.2 3.7 3.7 8.5 4.5 12.9.3 2.1-1 5.1-2.5 6.7-3.2 3.3-6.9 6.2-10.8 8.6-16.8 9.5-35.1 14.3-54.2 16.6-6.5.8-12.9 1.5-19.2-.4-1.2-.4-2.4-.9-3.5-1.7-3.2-2.3-3.7-5-1.1-8 2.5-3.1 5.4-5.8 8.6-8.2 7.5-5.3 15.9-9.5 24.6-12.3 7.8-2.6 15.4-5.7 23.2-8.6z"/><path class="st10" d="m91.8 400.1 4 .7 8.5 1.4c-1.2-2.3-2.3-4.7-3.3-7.1-.6-2 .6-3.1 2.8-2.6 2.1.4 4.1 1.1 6 2.1 4.9 2.8 9.5 6 14.3 9 8 4.9 16 9.4 25.7 9.5l-2.4 20.2c-6.1-1.2-12.2-2.6-18.3-3.6-5.3-.9-10.5-2.4-16-.7-2.3.7-4.8.8-7.3 1.1l-4-.2c-10.4-4.5-16.2-13.1-20.5-23.1-1.5-3.6-.7-5.2 3.1-6.1 2.5-.3 4.9-.5 7.4-.6zM431.7 82l3.1-3c2.4-1.7 4.4-1.5 6.5.8 4.5 5 9.3 9.8 13.6 15 3.1 3.6 3.2 7.9 2.4 12.6-.8 4.6-1.9 9.2-.6 14.1 1.5 6 2 12.3 3.2 18.4.3 1.5 1.3 2.9 1.9 4.4-2.3.4-4.7.8-7 1.2-4.3.8-8.5 1.7-12.8 2.6-1.7-6-3.2-12.1-5.1-18.1-2.8-8.6-7.6-15.8-15.8-20.2-1-.5-2-1.2-2.9-1.9-1.8-1.4-3.1-3.1-1.9-5.6 1-2.1 2.9-2.6 6-1.6s6.1 2.1 9.5 3.2l-.1-21.9z"/><path class="st11" d="m101.8 429.9 4 .2c3.5 10.3 6.8 20.6 10.4 30.9 7.6 21.6 15.2 43.2 22.9 64.8 4.6 12.9 9.2 25.8 13.8 38.6 2 5.6 3.7 11.3 5.9 16.8 2.9 7.2 6.1 14.3 9.2 21.4.6 1.4 1.3 2.9 1.9 4.3 5.1-2.1 9.6-4.2 14.2-6 6.4-2.5 12.9-5.2 19.4-7.3 9.5-3.1 19.2-6 28.8-8.7 6.2-1.8 12.6-2.7 18.6-4.8 11.1-3.8 21.9-8.2 32.9-12.3 2.1-.8 4.4-1.3 6.6-2l.1 3.2c-6 2.2-12.2 4-18.1 6.6-11.4 5-23.4 8.8-35.6 11.3-14.7 3-28.7 8.4-42.7 13.8-8.1 3.2-16.8 5.2-24.4 9.6-1.8 1.1-3.2.5-4-1.4-4.8-12.3-10.4-24.2-14.6-36.8-6.2-18.6-13.4-36.9-20-55.3-6.5-18.3-12.8-36.7-19.1-55.1-3.4-10.5-6.7-21.2-10.2-31.8z"/><path class="st9" d="M467.9 905.8c2.4 3 .4 5.5-1 8.2 3.6 4.2 8.6 3.1 13 3 3.8-.2 7.5-1.2 11-2.8 4.1-1.7 4.1-2.4 3.2-7.2h1.8c3.2 4.9 3.7 10.5 4.4 16 .3 2.8-1.2 5.2-4.1 6.7-8.1 4.2-16.9 4.4-25.3 3-9.8-1.6-15-14-8.2-21 1.7-1.9 3.4-3.9 5.2-5.9z"/><path class="st12" d="M265.8 163c12.4-9.5 26.7-15 41.8-17.9 16.5-3.2 32 .4 46.9 7.7 11.7 5.6 21.2 14.1 30.9 22.3 5.8 5 11.3 10.4 17.3 15s12.9 8.7 19.4 13.1c1.2.8 2.3 1.7 3.3 2.8-5.3-.4-8.6-4.9-13.1-6.7h-1.5l.9.8c2.6 2.3 5.2 4.6 7.8 6.8 1.4 1.2 2.8 2.3 4.3 3.5-6.3 9.8-12.5 19.3-18.7 28.9-3.3 5.1-6.4 10.5-9.9 15.5-8.5 12-20.3 19.8-33.8 25.3-.6.3-1.1.6-1.7 1-6.8 1.7-13.6 3.5-20.5 5.2-5 1.2-9.9 2.3-14.9 3.3-1.3.2-2.8-.3-4.2-.5-.4-2.6-1.2-5.2-1.1-7.9.1-5.9-.5-12.2 1.1-17.7 2.3-7.4 5.4-14.6 9.4-21.3 2.8-5.1 5-10.5 6.8-16 1.6-4.9-.7-12.6-4.6-15.4-1.1-.8-3.4-1.6-3.9-1.1-1.1 1.2-1.6 2.7-1.6 4.3.1 1.9 1.4 3.8 1.4 5.8 0 1.6-.6 3.1-1.8 4.1-1.6 1-3.1-.1-4-1.8-1-1.9-1.9-3.9-3-5.7-1.5-2.7-4.3-4.3-7.4-4.2-8.3-.1-16.6-.3-24.9-.6-8.6-.3-17.2-.7-25.8-1.2-3.3-.2-6.6-.6-9.8-.9-1.6-.4-3.2-1.1-4.8-1-3.3.1-4.8-1.4-4.4-5l-2.3 3.2-.7-.4c1.5-3.6 2.9-7.1 4.4-10.7l5.1-10.1c4.3-6.9 8.8-13.5 14.7-19.1l2.9-3.4z"/><path class="st11" d="m265.8 163-3 3-3.8-12c-1 1.3-1.9 2.6-2.7 4-1.9 4.2-3.7 8.5-5.6 12.7-.4.9-1.3 1.5-2.5 2.9-.2-1.8-.5-2.7-.2-3.4 2.3-5.6 4.5-11.4 7.1-16.8 1.3-2.7 2.2-4.9 1.1-7.9-2.4-6.8-4.3-13.8-6.5-20.8-.6-1.2-1.2-2.2-2-3.2-7 2-14.1 3.8-20.9 6.1-7.8 2.7-15.3 5.9-23 8.9-2.3.9-4.6 1.9-6.8 2.9-5.3 2.2-10.6 4.7-16 6.6-13.5 4.6-27.3 8.6-40.8 13.4-17.7 6.3-35.3 13-52.9 19.6-2.8 1.1-2.9 1.5-1.5 4.9 5.1 12.7 10.9 25.1 14.2 38.5 1.1 4.5 2.1 9 3.9 13.2 3.4 8.2 6 16.7 7.9 25.4.7 3 1.4 3.3 4.1 2.3 25.7-9.3 51.4-18.7 77.2-28.1 10.2-3.7 20.5-7.3 30.8-10.9 4.5-1.6 9-3.1 13.5-4.7 4-1.5 8-3.3 12.4-2.8v3c-2.3.2-4.6.6-6.8 1.1-7.5 2.4-15 5-22.4 7.5-5.1 1.8-10.3 3.5-15.4 5.4-12.8 4.8-25.6 9.8-38.4 14.4-12.6 4.5-25.3 8.4-38 12.7-5 1.7-9.9 3.5-15.4 5.4l30.8 86.7c5.9-1.9 11.4-3.5 16.8-5.4.8-.3 1.6-2.1 1.5-3.1-.1-1.6-1.2-3.1-1.6-4.7-.9-3.8-1.6-7.6-2.4-11.2 2.4-1.2 4.2-2.1 6-2.8 11.6-4.6 23.3-9.3 35-13.8 5.5-2.1 11.2-4 16.8-5.9 2.8-.9 3.2-.3 2.9 3l-8.9 3.3c2.1 5.2 3.9 9.7 5.8 14.3 3.4-1.2 6.6-2.2 9.6-3.5s6.1-3.1 9.3-4.7c-1.6-5.1-2.9-9.7-4.6-14.2-1-2.7-.6-3.8 2.2-4.7 15.5-5.3 30.6-11.8 45.1-19.3 3.1-1.6 6.3-2.9 10-2.6l8 1c.5 2.5.3 2.9-2.3 3-2.8.1-5.5 0-8.9 0 .9 6.2 3.8 10.9 5.8 16.5l13.7-5.7.9 1.7c-3.4 3.9-9 4.5-13.7 7.5l4.6 10.1-4 3.9c-.2-1.6-.6-3.2-1-4.8-2.8-8.3-5.6-16.6-8.4-24.8-.4-.9-1-1.8-1.6-2.6-15.1 8.5-31.1 15.2-47.6 20l20 54.7 4.5 1.5-3.3 4.4 3.7 8.5 4.4-1c-.2 1.4-.5 2.7-.7 4.1l-1 .1-5.1 1.6-3.9-9.6c-.5-3.5-.9-3.6-4-2l-12 3.9c-3.4.6-3.6.9-2 4.1l1 3c0 1.4.6 2.1 2 1.9 1.7.1 2.7 1.3 1.7 2.5-1.6 1.8-1.2 3.4-.7 5.3.2.9-.2 2-.5 3.8l-3.4-3.6c-1.4-3.4-1.4-3.4-6-1l-14 5-5 2c-1.1.2-2.2.4-3.3.7-4.9 1.7-9.8 3.5-14.7 5.3-3.3.9-3.5 1.4-2 4l-.4 4-1.2.3-3.3-4.4-2-1.9c-2.2 0-2-1.5-2-3 1.3-.2 2.8-.4 1-2.1-.4-1.3-.7-2.6-1.1-4-3-14.8-9.8-28.1-15.8-42l-18.3 6.3c4.3 12.3 8.4 24 12.4 35.5 6.7-1.2 12-5.1 19.3-4.6l-2.5 2.8-13 4.1-3.1 1.6 2.1 4.3c1 4.2 2.1 8.4 3.1 12.6l-3.1-.4c-2-6.5-3.9-12.9-6-19.3-4-11.7-8.2-23.2-12.3-34.9-1.6-4.5-3.1-9-4.6-13.5-4.5-12.9-9.1-25.8-13.6-38.7-3.7-10.6-7.7-21.1-11.2-31.7-3.2-9.8-5.9-19.9-9-29.7s-6.3-19.8-9.8-29.5c-3.7-9.9-7.6-19.7-11.5-29.5-2.3-5.9-1.4-8 4.4-10.3 16.8-6.4 33.5-13 50.4-19.3 7.9-2.9 15.9-5.4 23.9-8 7.2-2.3 14.6-4.1 21.7-6.5 4.5-1.5 8.7-3.9 13-5.9.8-.3 1.5-.8 2.2-1.1 6.9-2.7 13.8-5.3 20.6-8.2 7.8-3.2 16-4.9 24.1-7 2.2-.6 4.4-1.3 7.2-2.2 3.2 9.3 6.4 18.6 9.8 28.5 9.5-10.7 19.7-19.5 32.5-25.2-.9-2.2-4.9-3-1.8-6.3 4.1 2.9 10.1 1.4 14.2 6.1l-7.9 9.5c-.9-2.3-1.5-3.8-2.3-5.6-6.1 1.9-11.4 5.4-16.4 9.1-4.5 3.3-8.4 7.5-12.5 11.3-3.4 3.1-5.3 6.5-2.6 11.3 1.2 2.5 1.5 5.3 2.3 7.8zm-34.6 216.5-4.5-12.6c-5.9-16.6-11.9-33.2-17.8-49.8-1.2-3.5-1.5-3.4-5-2.2-13.9 5-27.8 10-42.1 15.1-.1.8 0 1.7.2 2.5 3.7 9.9 7.2 19.8 11.3 29.5 3.8 8.4 6.9 17.1 9.4 26 .9 2.8 1.9 5.5 3.1 8.1l45.4-16.6zm19-18.6c-4.8-13.4-9.4-26.1-13.8-38.6-5.5 2.3-10.4 4.5-15.4 6.5-3.4 1.4-3.4 1.3-2.3 4.9.7 2.2 1.5 4.4 2.3 6.5 2.9 8 6 16 8.8 24.1.7 1.8 1.4 3.1 3.5 2.4 5.4-1.8 10.7-3.7 16.9-5.8z"/><path d="M293.5 276.1c-10.2-1.4-19.6-6.4-26.5-14-3-3.5-4-4.3-6.6-5-3.3-1-6.6-1.8-9.9-2.7-1.6-.4-3.1-1-4.6-1.4l-1.3-2.9c1.1-3 2.1-6.1 3.1-9.1l1.2-3c0-.3.1-.6.1-.9.2-1.4.4-2.8.7-4.1l.1-12.9v-3l.9-1.1c.1-2.2.1-4.5.1-6.8 3.3.3 6.6.8 9.8.9 8.6.5 17.2.9 25.8 1.2 8.3.3 16.6.5 24.9.6 3.1-.1 5.9 1.6 7.4 4.2 1.1 1.8 2.1 3.8 3 5.7.9 1.7 2.4 2.9 4 1.8 1.2-1 1.8-2.5 1.8-4.1 0-1.9-1.3-3.8-1.4-5.8 0-1.6.5-3.1 1.6-4.3.5-.5 2.8.3 3.9 1.1 3.9 2.8 6.2 10.5 4.6 15.4-1.7 5.5-4 10.9-6.8 16-3.9 6.7-7.1 13.9-9.4 21.3-1.6 5.6-1 11.8-1.1 17.7 0 2.6.7 5.2 1.1 7.9-2.7 1.4-5.1.6-7.4-1 2.6-6.1-1.1-11.9-7.5-11.8-.8 0-1.6.1-2.5.1l-6.9-.1-2.2.1zm-16.4-55.8c.1-.3.6-1 .5-1.5-.9-4.5-10.6-7.8-14.1-4.8-.7.6-1.1 1.5-1 2.5.4 1 1.3 1.9 2.3 2.2 4 .7 8 1.1 12.3 1.6zm15.8 27.3-11.3 13c4.9-.7 10.8-7.2 11.3-13zm-23.3-15.5c-1.5 5.6-.5 7.4 3.8 7.4.6-4.9.5-5.1-3.8-7.4z" style="fill:#f0b882"/><path class="st11" d="M177.8 447.8c1.9 6.1 3.7 12.2 5.6 18.3.6 1.9 1.5 3.7 2.2 5.5 1.4 3.6 2 3.9 5.4 2.6 3.5-1.4 7-3 10.6-4.2 10.2-3.2 20.5-6.1 30.7-9.2 2.1-.6 4.1-1.3 6.1-2.1.6-.2.9-1.1 1.3-1.7l7.2 1.6c-9.8 4.1-19.9 6.8-30.2 9.3-8 1.9-15.7 5-23.5 7.6L189 477c-.9 4.2 1.1 7.6 2.8 10.9 5.6 11.1 7.4 23.6 11.9 35.1.2.5.2 1 .4 1.4 1.7 4.8 1.6 4.8 6.6 2.8 14.1-5.6 28.3-11.1 42.4-16.8 7.5-3 14.8-6.6 22.3-9.6 4.3-1.7 8.7-2.9 13.1-4.3 0 1.4 0 2.8.1 4.1-6.3 2-12.6 3.7-18.8 6-9.4 3.5-18.7 7.4-28.1 11-11.5 4.5-23 8.9-34.6 13.4.6 2.4 1.2 4.7 1.9 7.7-5-.9-4.7-6.4-8.4-6.8.3-1.5 1.1-3 .7-4-4.5-13.2-7.3-27.1-13.6-39.7-2.4-4.7-3.8-9.9-5.6-14.8-3-8.4-6.1-16.7-9.1-25.1-.1-.6-.2-1.3-.2-1.9l4 .5 1 .9z"/><path class="st2" d="M287.3 466.9c-.2-.9-.4-1.8-.6-2.8 1-3 2-5.9 3.1-8.8 2-5.4 3.1-11.1 3.1-16.9.3-7.8 1.8-15.6 2.7-23.5.5-3.9.9-7.9 1.1-11.8.4-7.1.5-14.2 1.1-21.3.4-5.2 1.2-10.4 2.1-15.6.2-1.1 1.4-2 2.9-2.7.1 1.1.1 2.2 0 3.4-2 13.6-.5 27.2-1 40.8-.1 4.3.1 8.7 0 13-.2 7.9-.5 15.9-1 23.8-.2 3.6-1.4 7.1-1.8 10.6-.4 3.9-2.3 6.7-5 9.4-2.1 2-4.1 2.8-6.7 2.4z"/><path class="st11" d="M418.5 397.2c3.6-1 7.4-1.8 10.8-3.1 8.1-3.2 16.1-6.8 24.2-9.9 3.4-1.3 7.1-1.6 10.7-2.4l.5 1.1c-.7.8-1.4 1.5-2.3 2-5.5 2.5-11.1 5-16.7 7.4-4.5 2-9 4.1-13.6 5.8-4.3 1.5-8.8 2.6-13.2 3.8-.1-1.5-.2-3.1-.4-4.7zM233.8 406l-16 7c-4.1 1.7-8.2 3.4-12.2 5.2-.4.2-.5 1.1-.8 1.7l-11.1-2 2-.9 2-.9 11-4 2-1 11-5 5-2 7-3c1.8 0 2.4 1 1.7 2.6-.4.7-.9 1.5-1.6 2.3zM414 347.9c3-.8 6-1.6 8.9-2.5 5.2-1.5 10.4-3.1 15.5-4.8 1.6-.5 2.7-.3 3.2 1.2.6 1.8-.9 2.4-2.1 2.8-4.3 1.5-8.7 2.9-13.1 4.4-3.9 1.3-7.8 2.7-11.6 4-.3-1.7-.5-3.4-.8-5.1zM242.8 420.9c-1.1-3.6-2.2-7.1-3.3-10.7-.3-1.1-.5-2.2-.7-3.3-.3-2.3-.6-4.7-.9-7 2.3 0 2.4 1.9 3 3.4 2.4 6.8 4.7 13.7 7.1 20.5h-4.1c-.5-.9-.8-1.9-1.1-2.9z"/><path class="st14" d="m177.8 447.9-.9-.7.9.7z"/><path d="M683.3 386.2c-5.4-10.4-6.8-21.7-7.2-33.2 0-.7 1-1.5 1.8-2.6 1.2 3.6 2.3 6.7 3.4 10 10.9-1.8 19.5-7.5 28.5-12.9s17.9-10.7 25.5-18.5c6.7 10.5 10.8 22.5 12.1 34.9-1.7 1.2-3.5 2.5-5.2 3.8-6.2 5-12.3 10-14.9 18-2.4 7.4-8.9 10.1-15.5 6.2-8.9-5.2-18.6-5.9-28.5-5.7zm56.6-34c-4.4 1.5-2.2 5.4-3.8 8.3l-5.7-4.6c-.4 4.3 3.6 8.7 7.2 8 1.1-.5 1.9-1.4 2.2-2.6.3-2.9.1-5.9.1-9.1zm-55.6 20.6c-.1 4.5 2.6 7.9 6.2 8.3 2.4.2 4-.7 4.2-3.1s0-4.7 0-7.4c-5.1 1-1.3 5.6-4.4 7.5l-6-5.3zm39.7-28.5 14.7-1.7c-3.9-4.4-7.8-2.6-11.2-2.5-1.6.1-4.3.1-3.5 4.2z" style="fill:#efb67e"/><path class="st11" d="m617.2 369.7-2.6 1.2.1-3-.1.1c.8-.7 1.4-1.5 2-2.3 1.5-3.7 3.2-7.3 5.3-10.7-.4 1.5-.7 3-1.2 4.5-.5 1.7-1.2 3.4-1.8 5.1s-1.1 3.4-1.7 5.1z"/><path class="st5" d="M603 402.1c-1.4-.7-1.5-1.4-.1-2.2 0 .7 0 1.4.1 2.2z"/><path class="st8" d="M849.8 571v6.8c-.7 4.8-.2 9.9-3 14.2l-7.2 8.9c-3 1.1-5.3 2.8-5.8 6.2l-2 2c-4.9-.1-7.6 3-10.1 6.6-.7.4-1.3.9-1.8 1.5-1.5 2.2-3.3 2.1-5.3.8.3-6.9.6-13.8 1.1-20.7.2-2.7-.6-4.4-3-5.5 0-1.3 0-2.5-.1-3.8l6-15c.4-1.7.8-3.3 1.1-5 8.2 3.3 16.6 5.3 25.5 3.3 1.7-.3 3.1-.4 4.6-.3z"/><path class="st16" d="M857.8 506.9c9.3-1 18.7-.8 28-2.6 6.8-1.3 13.7-.8 20.3 1.4-.7.9-1 2.1-1.7 2.4-1.5.5-3.2.8-4.8.8-8.3.1-16.6-.1-24.9.1-5.6.1-11.2.6-16.8 1-.1-1.1-.1-2.1-.1-3.1z"/><path class="st11" d="m859.1 533.8 42.1-.9c1.9 0 4.1-.7 5.3 1.9-1.4 2.3-3.8 2-6 2.1h-40.8c-.1-1-.3-2-.6-3.1z"/><path class="st16" d="M855.7 481c7.9-.4 15.9-.9 23.8-1 5.8 0 11.5.6 17.3.9 3.2.1 6.4 0 9.8 0-.1 2.5-1.4 2.9-3 3-3.8.3-7.6 1-11.3.9-7.1-.3-14.1-1.2-21.2-1.7-2.8-.2-5.6-.2-8.5 0-2.3.1-4.6.5-6.8.8-.1-.9-.1-1.9-.1-2.9z"/><path class="st5" d="m614.8 367.9-.1 3-7.1 10.3-.9-.5L613 369l1.8-1.1z"/><path class="st11" d="M357.8 100.7c-.4.7-.5 1.8-1.1 2.2-1.5.8-3 1.5-4.5 2.1-4.2 2-8.6 3.6-12.4 6.1-6.8 4.5-14.7 5.6-22.2 7.8-.4.1-.9-.2-1.3-.4-.9-1.9.1-3 1.6-3.6 1.8-.8 3.7-1.5 5.6-1.9 5.8-.9 10.9-3.5 16.1-6.1 5.5-2.8 11.5-4.8 17.3-7.2l.9 1zM243 195.3c-.8-.3-1.7-.9-2.3-.7-6.1 1.9-12.2 3.9-18.5 5.8-.3 1.1-.7 2.3-1.1 3.9l-3.1-1.8c-2.1 1.1-.7 5.2-4.6 5.4-1.3-3.3.1-6.5 1.2-9.2s.7-4.6-.4-7c-1.6-3.4-3-7-4.4-10.5-1.3-3-2.5-6-5.7-7.8-2.4-1.4-3.6-3.8-3.1-7.2 9.3.3 17.1-4.4 25.4-7.3 1.7-.5 3.4-1.3 4.9-2.4 3-2.2 6.6-2.4 9.9-3.5.3-.1.8.3 2 .8l-6.3 5.6c2.9 7.7 5.7 15.3 8.5 22.8.5 1.4.7 3 2.8 2.9l-5.2 10.2zM213.8 180c0-.2-.1-.3-.2-.4-.1-.1-.2-.1-.3-.1l.5.5c.2 3.6 1.6 6.6 3.9 10.2 1.2-3 2.1-5.3 3.4-8.4l-7.3-1.8zm-4.8-10.4c1.9 4.5 7.9 8.6 12 8.4.8 0 1.6-.3 2.1-.9 2.7-4.8 5-9.8 6.7-15.1l-20.8 7.6zm25.3-8.4-7.3 18.2 15.3 4c-2.9-7.8-5.3-14.5-8-22.2zm9 27.8c0-.4 0-.7-.1-1.1l-18.4-4.9-5.4 13.7 23.9-7.7z"/><path class="st14" d="m183.8 402.9-2-1.9 2 1.9z"/><path class="st9" d="M277.1 220.3c-4.3-.5-8.3-.9-12.3-1.6-1.1-.4-1.9-1.2-2.3-2.2-.1-.9.3-1.9 1-2.5 3.5-3 13.2.3 14.1 4.8.1.6-.4 1.2-.5 1.5z"/><path class="st11" d="M265.8 261.9c-.9-.3-1.8-.7-2.6-1.1-4-3-8.1-2.7-11.6 1.3-4.5-1.4-4.7-5.6-5.7-9.2 1.6.5 3.1 1 4.6 1.4l9.9 2.7c2.5.8 4.9 1.8 5.4 4.9zM244.5 250c-.5-.3-1.4-.5-1.5-1-.8-2.5-1.3-5-2-7.6-.5-1.4.1-2.9 1.5-3.4.1-.1.2-.1.4-.1h2c-.3 2.3.5 3.3 2.9 3-1.1 3-2.2 6.1-3.3 9.1z"/><path class="st5" d="M292.9 247.6c-.5 5.8-6.4 12.3-11.3 13l11.3-13zM269.6 232.1c4.3 2.2 4.4 2.5 3.8 7.4-4.3 0-5.3-1.8-3.8-7.4z"/><path class="st11" d="M244.8 238h-2c.8-3.6 2.2-4.6 6.9-5.1-.2 1.4-.5 2.8-.7 4.1l-2.2.9-2 .1z"/><path class="st11" d="M248.8 237.9h-2.1l2.2-.9c.1.3 0 .6-.1.9zM249.8 217l.9-1.1-.9 1.1zM259.6 464.1c-.1 2.9-2.3 3.1-3.7 3.7-4.6 1.8-9.3 3.4-13.9 5l-29.1 9.6c-2.8.9-5.6 1.6-8.4 2.4-1.5-2.4.3-2.9 1.6-3.5 3.2-1.3 6.5-2.4 9.8-3.5 12.7-4.2 25.3-8.3 38-12.4 1.7-.5 3.6-.8 5.7-1.3z"/><path class="st16" d="M269.1 493.7c-6.5 5-14 7.5-21.4 10.1-7.1 2.5-14.5 4.2-21.7 6.6-4 1.3-7.7 3.4-12 5.3.1-2.5 1.9-3.6 3.4-4.5 2.3-1.4 4.7-2.5 7.2-3.3 11.7-4 23.4-7.9 35.1-11.8 3-1 6.2-1.6 9.4-2.4z"/><path class="st11" d="M257.5 489c-16.9 4.5-32.9 11.2-50 18.2.7-1.6.9-2.9 1.5-3.2 3.6-1.8 7.3-3.6 11.1-5.1 9-3.5 18.2-6.8 27.2-10.2 3.4-1.3 6.7-.8 10.2.3zM212.2 493.8c-1-2.7.9-3.1 2.1-3.6 5.6-2.4 11.2-4.8 16.9-6.9 6.3-2.4 12.8-4.3 19.1-6.7 2.3-1 5.1-.7 7.1.9l-45.2 16.3zM237.8 399.9c.3 2.3.6 4.7.9 7l-4.9-1c.6-.8 1.2-1.6 1.7-2.4.7-1.6.1-2.5-1.7-2.6 1-2.4 1.5-2.5 4-1zM670.8 718.9l-3-.3c0 3.6-.1 7.1.1 10.7 0 .6 1.2 1.1 1.9 1.7v1.1c-.6.4-1.7.7-1.8 1.2-.8 3.2.2 15.9 1.5 19.9 2.5-.3 5.2-.7 8-1 4.3-.4 8.5-.8 12.8-1.2.6-.1 1.7 0 1.8-.4 2-3.7 5.4-2.5 8.4-2.6 6.3-.1 12.7.1 19-.1 5.1-.2 10.2-.8 15.1-1.3 3.6 4.2 1.5 8.6 2.3 13.1-14.5.5-28.3 4.6-42.7.6-.2-1.3-.4-3-.7-5-8.1-1.5-16.1.9-24 .8-1.9 3.9-.3 6.5 2.4 8.8v1.1l-2.7.2v8.3h22c.7-3.1 3.1-3.8 6.5-3.6 7 .4 13.8-.7 20.7-1.8 3.9-.6 8 0 12-.2 2.2-.3 4.5-.7 6.7-1.3.6 4.6 1.3 9.6 2.1 15-.6.1-1.6.3-2.7.3-9.3.3-18.5.6-27.8 1-4.3.2-8.5.7-12.8.9-.9 0-1.8-.4-2.5-1 13.1-4 26.5-4.2 40.3-4v-6.7c-12.8-1.5-25.3 1.5-38.5.6.3 2.9.5 5.3.8 7.7l-1.2.5-3.3-4.4h-22.1c-.1 4.3-1.4 8.1 1.4 11.5l-1.7 1.9H652c.9-4.6 4-2.7 5.9-3 2.5-.2 5.1-.2 7.7-.1.6-3.6.6-7.3-.2-10.9-.7-3.3-.1-6.9-.1-11l-15.1 1-1.4.6 1.4.3c.4 3.4-1.9 3.9-4.3 4-8.4.4-16.9.8-25.3 1s-17 0-25.5.1c-3.5.1-6.9.6-10.3.9-2.5.2-2.7-1.3-2.5-3.2 2.3 0 4.7.2 7 0 6-.5 12.1-1.6 18.1-1.8 9.6-.3 19.3 0 28.9-.1 2.6-.2 5.1-.5 7.6-1v-5.3c-8.2.8-16 1.9-23.8 2.3-9.3.4-18.6.2-27.9 0-2.6-.2-5.2-.5-7.8-.9v-1.1c1.7-.5 3.5-.8 5.3-.9 8-.1 16 0 24-.1 8.9-.1 17.8-1 26.5-2.8 1.7-.4 3.6 0 5.6 0 .7 2.2 1.4 4.4 2 6.4l17.3-3V742c-5.3 0-10.6-.2-15.8.1-1.3.1-2.6 1.9-3.8 2.9l-2-1.1-.3-3.7c-1.1-.2-2.3-.3-3.4-.3h-51.2c-1.4.2-2.8.5-4.1.9l-2-1.1c3.4-2 7.2-3.1 11.2-3 15.2.1 30.5.1 45.7 0 1.6 0 3.9 1 4.2-2h2l1 2c.1 3 .1 3 2 2l17-1.2c0-13.2.3-26.3-.8-39.7-1.7 0-3.6-.1-5.6 0-2.1.1-4.2.5-6.3.7s-4.3-.7-5.9 1.5c-.4.5-1.8.5-2.8.5-15.1.4-30.1.6-45.2 1-4.5 0-9 .5-13.4 1.3-2.3.5-4.2 2.1-6.3.5.4-3 .9-5.8 1.2-8.6.1-1.4.6-2.2 2-2.2l.1 1.1c.4 2.2.8 4.5 1.2 6.6.6.2 1.2.3 1.9.3 7.1-1.5 14.4-2.1 21.6-2 8.3.1 16.7.2 25-.1 3.5-.1 7-1.2 10.4-1.9l1.9-1c7.2-.3 14.3-.7 21.5-.9 1.5 0 3 .6 4.5 1v1.9l-3.1.4c.5 6 .9 12 1.4 18.3l2.7.3v2.4zm61.7 32.4H697c.5 2.4.9 4.4 1.4 7 10.3-.5 20.3-.9 30.4-1.5 3.4-.1 3.9-1 3.7-5.5zM699 570.7l-3.1 4c1.3 1.8 3.3 3.6.4 5.7-.4.3-.4 1.2-.3 1.8.2 3.5.7 6.9.8 10.3.4 15.1.6 30.2 1.1 45.3.1 3.1 1.1 6.1 1.5 9.2 0 1.4-.1 2.8-.4 4.2-4.2-2.9-7.9-2.9-11.9-1.8-2.2.6-4.6.3-7 .2-3.3-.2-6.6-.8-9.8-.8-10.3-.1-20.7.1-31 0-5.1-.1-10.2-.9-15.3-.9-5.4 0-10.9.6-16.3 1.1-2.3.2-4.6.8-6.8.8-7.5.1-15 .1-22.5.1-1.8 0-3.5-.1-5.3-.4 3.8-2.1 2.8-5.5 2.8-8.4v-63.3c1.1.6 1.8.8 1.8 1 .5 4.4 1.1 8.8 1.2 13.3.1 15.2.1 30.3.1 45.5v5.9c4.8-2.6 9-4.5 12.8-6.9 9.2-5.9 18.1-12.2 27.2-18.2 3.2-2.1 6.5-3.9 9.8-5.9 1.4-.8 2.7-1.8 4.6-3-3.5-1.9-6.4-3.4-9.2-5.1-6.3-3.6-12.5-7.4-18.9-10.9-7.3-4-14.6-7.8-22-11.5-2.5-1.2-4.8-2.3-4.3-5.8l-6.8-1.3c1.1-1.3 2.4-2.7 3.9-1.9 3.4 1.8 6.5-.1 9.7-.5 10.9-1.2 21.8-1.2 32.7.1 2.5.2 5 .2 7.5.1 13.6-.3 27.2-.7 40.8-1 5.9-.1 12-.8 17.6 2 3.4 1.7 6 .9 8.2-2 1.3-1.8 3.4-2.4 6.4-1zM579.3 647l.1.9c1.5 0 3 .1 4.4 0 6.3-.3 12.5-.6 18.8-1 .8 0 1.6-.5 2.4-.5 6.6-.5 13.2-1.2 19.7-1.3 5.4-.1 10.9.8 16.3.8 7.1 0 14.2-.7 21.3-.9 3.3-.2 6.6-.1 9.9.3 7.3 1.2 14.5.3 21.8.2-5.3-3.3-11.1-5.7-16-9.2-7.5-5.5-15.5-10.1-23.9-13.9-4.8-2-9.1-5.3-13.5-8.3-2-1.4-3.9-1.8-6-.6-6.1 3.6-12.2 7.3-18.3 11-11.8 7.1-22.4 16.5-35.6 21.3-.4.5-.9.8-1.4 1.2zm107.1-68.3c-6.8-2.7-14.1-4-21.5-3.7-5.8.2-11.6 1-17.3.9-18-.2-35.9-.7-53.8-.9-4.3 0-8.6.9-12.8 1.4l-.2 1.2c1.9 1.2 3.9 2.3 5.9 3.2 7.6 3.1 15 6.9 22 11.3 9.1 5.7 18.6 10.7 27.9 16 16.2-10.1 33.4-18.1 49.8-29.4zm7.1 62.5 1.2-.7c.6-20-.1-40.1-2.2-60l-51.7 30.1c1.9.9 3.6 2 5.3 3.2 3.5 3 7.6 5.3 12 6.8 3 1 5.9 2.3 8.6 3.8 8.9 5.6 17.8 11.3 26.8 16.8zM901.8 825c-.4-1.7-.7-3.5-.9-5.3-.1-5.3 0-10.7-.1-16-.3-10.9-.6-21.8-1-32.8-.1-1.9-.8-3.8-1.3-6.3-6.6.6-13 1.1-19.3 1.7-1.8.2-3.6.5-5.4.6-8.7.3-17.5.5-26.8.7 0 4-.1 7.2 0 10.5.1 2.5.7 4.9.8 7.3.4 12.8.7 25.5 1 38.3.1.8.2 1.6.4 2.3h11.5c10.7 0 21.5.3 32.1-1.9 3.1-.7 6.4 0 9 1.9-.1 2.4-1.7 3.6-3.7 2.8-4.3-1.6-8.4.6-12.7.3-4.1-.3-8.2.8-12.3.8-7.3-.1-14.5-.7-21.8-.8-1.5 0-3 1-4.9 1.6-1.5-1.3-3.1-2.7-1.8-5.5.3-1.1.4-2.3.2-3.5-.3-10.9-.5-21.9-1-32.8-.3-6.4-1.3-12.8-1.8-19.2-.2-2.6 0-5.3 0-8 1.4-1 2.7-1.4 3.9.2-.1 1.4.5 2.1 2 2 12.3-1.7 24.7-1.8 37.1-2.2 5.4-.2 10.8-1.1 17 1 .5 3 1.7 6.6 1.8 10.3.5 15.8.8 31.5 1.1 47.3v4.3l-3.1.4zM901.6 754.1c-1.4-4.6-5-3.4-7.8-2.8-3.7.8-7.5.8-11.2 0-3.2-.6-6.6-.2-10-.1-9.3.2-18.5.5-27.8.7-.4-.1-.8-.3-1-.6-.3-4.4-.8-8.3-.9-12.1-.2-7.5 0-15-.1-22.5-.2-10.1-.7-20.2-.9-30.3 0-2-2.4-4.1-.4-5.5 6.4-.4 12.3-.8 18.1-1.2 1.8-.1 3.6-.6 5.4-.6 5.3 0 10.5-.6 15.7-1.7 4.3-.8 9-.2 13.4-.4 2.7-.1 5.3-.7 8.4-1.2.2.9.3 1.8.3 2.8.4 23.2.7 46.5 1 69.8-.1 1.8-.3 3.7-.7 5.5l-1.5.2zm-2.2-7.9v-66c-9 1.4-17.7.9-26.4 2.5-8.2 1.5-16.8.9-25.3 1.3-1.1.1-2.2.3-3.3.6.4 3.7 1.1 7.1 1.2 10.5.4 14.9.7 29.8 1.1 44.8-.1 1-.1 2 0 3 .3 1.7.8 3.4 1.3 5.4l51.4-2.1z"/><path class="st10" d="M740.8 533c4.2-4.3 4.8-9.7 5-15.4.2-6.2.6-12.4.9-18.6l12 2 3.9 3.9c0 2.6 2.2 3.2 4 3.8s3.6.6 5.3 1.3c1.3.6 2.6 1.4 3.8 2.2-.8 4.3-4.2 3.2-6.3 3.9l10.1 4c.2 3.5-1.6 4-3.8 3.8-5.3-.5-10.5-1-15.8-1.6-1.5-.2-3-.3-4.5-.2 4 3 9 2.5 13.5 4.2s9.1 2.7 14.6 4.2c-7.2 4.5-13.9-.1-20.2 1.6 1.2 1.3 4.3 1.3 3.3 4-.8 2.4-3.3 1.9-5.2 1.8-2.6-.2-5.2-.5-7.8-1-3.4-.6-6.8-1.3-10.1-2.1-1-.4-1.9-1-2.7-1.8zm26.4-17.3v-.4h-3.8v.4h3.8z"/><path class="st11" d="M785 823.7c-.2-9.1.4-18.2-.7-27.2-1-8.7 1.4-17.9-3.1-25.9.5-2.2 1-4.1 1.5-6.4 2.2-1.4 2 2.2 3.6 1.9 7-.7 14-1.6 21-2.1s14.2-.5 21.3-.6c.2 0 .3.2.5.1 4.7-.7 4.7-.7 4.7 3.8v59c0 1.5-.2 2.9-.2 4.3-4.2 1-3.3-2.5-4.3-4.4h-2.8c-4.4.6-8.8 1.6-13.2 1.7-6.3.1-12.5.7-18.7 1.9-2.8.6-5.8-.4-8.7-.8-.7-.1-1.3-1.2-2.7-2.7l46.5-4.4v-54.6c-14.2 2.6-28.5.7-43.1 4.1.4 5.6.7 11 1.1 16.3.1.8.2 1.7.2 2.5v30.5c-.1 1.5.3 3.5-2.9 3zM782.8 755.8c0-3.2.1-6.1 0-9.1-.3-13.9-.6-27.9-1-41.8-.2-5.5-.5-10.9-1-16.3-.1-1.5-1-3-1.8-5.2.8-.4 1.9-1.3 3-1.3 7.3-.4 14.6-.9 21.8-1 6.7-.1 13.4-.9 19.9-2.5 2.1-.4 4.2-.6 6.4-.4.9 0 1.7 1.1 3.1 2l-6.7 2.5c.6 6.1 1.1 12.3 1.7 18.5.1 1 .3 2 .4 2.9.7 10.5 1.3 21.1 2.1 31.7.4 5.6 1.3 11.1 1.9 16.7 0 1.1-.1 2.2-.4 3.3-.6-.2-1.1-.2-1.2-.3-1.2-5.1-1.2-5-6.5-4.4-12 1.2-23.8 3.8-36 3.2-1.4-.3-3.1.7-5.7 1.5zm1-69.9c0 5.1-.2 9.2 0 13.4.5 9.1 1.4 18.1 1.8 27.2.3 6.5.1 13 .1 19.5 0 1.3.2 2.5.4 4.3l42.7-4.6c-.4-8-.7-15.6-1.2-23.2s-1.3-15.1-1.9-22.7c-.4-4.6-.7-9.2-1-13.8-.2-2.4-1.6-3.5-3.7-2.8-8.6 2.5-17.4 1.7-26.2 1.9-3.4 0-7 .5-11 .8zM868.6 580.3c6.2-1.8 12.5-1.5 18.8-1.3 6 .2 12.1-1.6 18.4 1 0 4-.1 8.5 0 13 .2 4.6.8 9.2.8 13.8 0 3.5-.4 6.9-1.2 10.3-.2.9-2.3 1.8-3.5 1.8-4.2.2-8.3-.1-12.5.1-3 .1-5.9.8-8.8.8-3.4 0-6.8-.6-10.8-1-.5-2.4-.8-4.8-1.1-7.2-.2-5.5-.1-11-.1-16.5l4.1.5v18c2.4-2.9 3.9-4.9 5.6-6.8 4.9-5.4 4.9-5.4.3-10.8l4.3-1.2c.8.6 1.7 1 2.6 1.3 1.1.2 2.8.5 3.4-.1 4.4-3.7 8.1-8.2 11-13.2l-16.2.2-15.1-2.7zm33.9 6.1c-3.7 4.1-7.1 8.1-10.6 11.9-1.7 1.8-1.1 3.1.4 4.6 3.1 3 6 6 9.1 9 .3.3.8.2 1.2.4v-25.9zm-15.8 17.1c-3.3 3.8-6.1 7.1-9.2 10.7 3.7 1.5 6.6 0 9.6-.2s6.1-.1 9-.1l-9.4-10.4zM773.1 582.3c-.5 4.1-1.3 7.1-1.2 10.1.1 6.6.6 13.2.8 19.8 0 1.7-.8 3.5-1.1 4.8-6.2 1.6-12.2 3.5-18.2 4.6-4.2.7-8.6.2-12.9.1-.5 0-1-.8-1.8-1.4 1.9-2.2 1.7-4.5 1.3-7.2-.8-6.7-.8-13.5-1.2-20.3-.1-2.4-.3-4.9-.5-8 1.2-.4 2.5-.6 3.7-.8 5.2-.1 10.3-.1 15.5 0 3.7.1 7.3-.3 10.5-2.2 1.6-1.1 3.8-.9 5.1.5zm-6.3 5.6-15.8 1c-1.2.1-2.4.1-4.9.2l13.3 11.5c2.7-4.5 5.1-8.6 7.4-12.7l.4-.6c-.2.2-.3.4-.4.6zm-20.7 28.7 10.3-12.9-14.4-12.9c.6 9.4 1.2 18 1.8 26.9 3.2 0 6 .6 8.3-.1 5.1-1.8 10.5-2.8 15.9-3 .2 0 .4-.5.8-1.1-3.3-2.5-6.6-5.1-9.9-7.7-6.3 7.9-9.3 10.4-12.8 10.8zm15.4-14.1 6.9 5.3v-15l-6.9 9.7zM812.7 587.9c0 1.3 0 2.5.1 3.8l1.1 26.2c-.2 1.2-.3 2.5-.6 4.5-.8-.8-1.6-1.6-2.5-2.3-1.2-.7-2.5-1.8-3.7-1.8-7 .4-14.1 1-21.1 1.6-1.3.1-2.5.6-3.8.7-1.7.1-3.4 0-6.2 0 3.8-4.2 2.9-8.3 2.8-12.3-.2-6.4-.7-12.8-.9-19.2-.1-4.5 0-4.5 4.3-5.3 2.3-.4 4.5-.7 6.8-1l7.8 3c-1.2.4-2.4.8-3.6 1-3.3.4-6.6.7-10 1.1l-.2 1.1 14.4 9.6 6.4-11.7 2.1.3-6.7 13 10.6 13.9V588l2.9-.1zm-6.5 26.2c-3.4-4.6-5.5-8.8-9.8-11.2l-8 7.9-.8-.7c.4-1 .9-1.9 1.5-2.8 1.1-1.3 2.2-2.5 3.5-3.6 1.7-1.6 1.7-3.2-.2-4.6-3.2-2.4-6.5-4.8-10.9-7.9.6 7.9.8 14.6 1.6 21.2.4 3.1 2.4 3.9 5.5 3.5 3.6-.4 7.2-.6 10.8-1 2-.1 3.9-.4 6.8-.8z"/><path d="m868.6 580.3 15.2 2.7-.8 11.9-4.3 1.2-5.9-.5-4.1-.5-12.8-1.3-3.1-.6-5.8-1.2c2.8-4.4 2.3-9.4 3-14.2l18.6 2.5z" style="fill:#a4e978"/><path class="st16" d="M739.8 641.8c.7-.6 1.3-1.5 2.1-1.7 2.2-.6 4.5-1 6.8-1.1 15.1-.4 30.3-1.5 45.3-.8 10 .5 19.9.7 29.8.6 6.7 0 13.4-1.2 20.2-1.8.3 0 .7-.1 1-.1 18-.3 35.9-.7 53.8-1 2.2 0 4.4.9 6.6 1.4l.1 1.1c-1.3.2-2.6.3-3.9.4-12.5 0-25-.1-37.5.1-9.1.1-18.3.1-27.3 1.1-11.8 1.4-23.8 2-35.7 1.8-10.3-.2-20.6-1-30.8-.8-8.1.1-16.1 1.2-24.2 1.8-2 .2-3.9 0-5.9 0l-.4-1z"/><path d="m805.9 587.2-2.1-.3-7-1-7.8-3c-2.8-1.3-5.5-2.7-8.2-4.3-1.5-1-2.4-2.8-3.9-4.6 2-.9 3.1-1.7 4.3-1.9 9.7-1.6 19.5-1.6 29.2 0 2.8.5 5.6.5 8.4.8l-6 15h-2.9l-4-.7z" style="fill:#a9ef7d"/><path class="st11" d="m579.8 725 1.4-9.3h-3.1c-.6-3.1 1.2-3.7 3.6-3.7 5.3 0 10.6.2 15.9-.1 9.7-.5 19.3-1.5 29-1.8 5.3-.1 10.7-1.3 16.1 0 .7.2 1.4.6 2 1-.3 1.4-.5 2.8-.9 4.5l3 .5v2.8c-.3.1-.8 0-.9.2-.2.3-.2.6-.1.9.3.8.7 1.5 1.1 2.6-5.5.5-10.6 1.2-15.6 1.3-10.9.2-21.9 0-32.8.1-6.2.1-12.5.6-18.7 1zm61.9-12c-3.7 0-7-.4-10.2.1-8.6 1.4-17.4 2-26.1 1.9-5.8-.1-11.6 0-17.5 0-1.3 0-2.5.2-3.6.3v6.1c3.9-.2 7.3-.4 10.8-.5 11.6-.1 23.3.1 34.9-.1 3.9-.1 7.8-.8 11.7-1.2V713z"/><path class="st16" d="M741.4 634c1.4-.4 2.8-.7 4.2-1 1.3-.1 2.7-.1 4 0 10.4.1 20.8-.5 31.2-2 .8-.1 1.7-.1 2.5 0 10.2 1.3 20.4-.7 30.7-.1 6.8.3 13.5-.3 20.2-1.8 1.3-.2 2.7-.2 4-.1h35c2.6-.2 5.2-.4 7.8-.8.5-.1 1-.2 1.5-.1 6.7 2.3 13.4-.7 20.2-.1 1.8.2 3.7-.2 4.1 2.4-.5.3-.9.5-1.5.6-10.4.4-20.9.7-31.3 1.1-2.6.1-5.2.6-7.8.8-1.1.1-2.2-.3-3.4-.4-9.6-.1-19.3-.5-28.9-.2-6.6.2-13.1 1.3-19.7 1.7-2.9.2-5.9-.9-8.8-.8-9.3.2-18.5.6-27.8 1-7.9.3-15.9.6-23.8 1-2.1.1-4.2.9-6.3.8-2-.2-3.9-.6-5.8-1.1-.2-.4-.3-.7-.3-.9z"/><path class="st11" d="M669.8 732.1V731c.5-.3 1.1-.9 1.6-.9 6.4-.4 12.8-.8 19.6-1.1l3.1-4.7c4.5 3.1 9.3 1.7 13.9 1.7 5.3 0 10.5-.7 15.8-.9 3.8-.2 7.6 0 11.6 0 .5 3.1 1 5.8 1.4 8.5.3 2.2-.8 3.4-3.1 3.5-5.4.3-10.9.6-16.3 1-6.2.5-12.4 1.3-18.6 1.8-2.2.2-4.4-.5-7.4-.8 1.2-1.5 2-2.2 2.2-3 .7-2-.3-3.9-2.4-3.9-3.1-.1-6.3.1-9.4.4-4.1.3-8.1 1.2-12-.5zm27.2 3.8c2.7 0 4.8.1 7 0 8.7-.6 17.4-1.3 26.1-2 1.1-.1 2.2-.2 3.5-.4l-1.5-6.1L697 730v5.9zM611.5 435.9l.1 3.1c-3.8.2-7.4 3-11.5 1.2-.6-.1-1.3.2-1.7.7-1.7 2.3-3.8 2.2-6 1.1-1.2 1.8-2.1 3.3-3.1 4.9-3.5 5.2-6.5 5.4-10.4.6-.3-.4-.6-.9-.8-1.3-2.1.2-4.5 2.1-6.3-1.2.4-.5.7-1.3 1.4-1.7 3.3-2 4.2-5.2 4.6-8.8.5-4.6 1.2-9.1 2-13.6.3-1.2 1.1-2.2 2.2-2.7 1.8-.5 2.3 1.2 2.8 2.7 1.6 4.2 1.3 9-.7 13-1.8 3.5-1.5 7-1.2 10.6 2.6.6 2.7-1.7 3.6-2.8.9-1.4 1.8-2.8 2.5-4.3 2.3-4.4 3.7-4.5 7.3-.6l15.2-.9zM730.8 432.1c-4.3-.4-8.8 2.9-12.1-2.6 1-.6 2-1.1 3.2-1.6 2.8-.9 5.8-1.3 8.5-2.4 1.7-.7 3-2.4 4.5-3.6s2.5-2.7 4.1-3.4c1.3-.5 2.8-.3 4 .4 1.5 1.1 1.1 3-.1 4.4-.9 1-1.8 1.9-2.8 2.9-4.3 4-4.3 4-4.1 9.7 1.9 1.1 4 2.1 6 3 1.3.5 2.8.7 4.1.4 6.2-1.7 11.3 1.4 16.7 3.3.6.2.8 1.6 1.3 2.7-2.6.9-4.7 1.2-6.8-.4-3.4-2.4-6.8-2.9-10.6-.6-1.2.7-3.4.2-5.1-.2-1.2-.3-2.2-1.3-3.6-2.2-.6.5-1.3.9-2 1.3-3.3 1.6-5 .7-5.1-3-.2-2.7-.1-5.3-.1-8.1zM808.8 796.1c2.7 4.5 4.8 8.3 7.2 12.1.7.8 1.6 1.4 2.7 1.8 1 .5 2 .8 3.9 1.5-1.6 1.5-2.4 3-3.6 3.3-4.8 1.3-9.6 2.3-14.4 3.2-3.1.5-5-.9-6.8-3.7-4.1-6.3-3.6-12 1-17.7.6-.9 1-2 1-3.2.2-1.7-.1-3.3.1-5 .2-3.2 2.2-4.7 5.4-4.3.3 0 .7.1 1 .2 6.2 1.3 7.4 4.2 4.1 9.8-.7.7-1.2 1.4-1.6 2zm3.8 15.3c.2-.5.3-1 .5-1.6-2.5-3.7-4.8-7.4-7.5-10.9-1.1-1.5-3.9-1.3-5.2.1-2.4 2.5-2.3 10.1.3 12.3.9.9 2.1 1.4 3.4 1.5 2.9-.3 5.7-.8 8.5-1.4zm-9.5-17.4c4-.4 4.8-2.8 5.6-5.7l-5.6-1.4v7.1zM733.8 714.9c-4.5 0-9-.2-13.5.2-5.1.3-10.1 1.1-15.2 1.7-3.1.4-6.2.9-9.3 1.1-.9.1-1.8-.6-2.8-.9.2-1.6.4-3 .6-4.5l-12.7-1.7v-1.3l12.6-.8c-.4-2.9-2.2-5.8 1.3-7.8l2.1 4c.3 3 .7 6 1 8.5l34.6-3.2c-.1-1-.3-2-.4-3.1-1 .4-2.1.6-3.2.7-8.6-.3-17.1-.6-25.7-1-.6 0-1.2-1.2-1.8-1.9h34.2v7c-2 0-1.8 1.5-1.8 3zM852.7 593.2l3.1.6c.3 6.6.7 13.1 1 19.7.1 1.6 0 3.2 0 5.4h-6.2c-5.9-.1-11.8.5-17.6 1.8-1.9.4-3.9 0-5.9-.2-1.6-.1-3.1-.3-5.3-.6v-4.3c2.5-3.6 5.2-6.7 10.1-6.6l-4.7 6.8c6.2.3 11.8-.9 17.9-2.4l-8.5-7.8-2.7 1.2c.5-3.4 2.9-5.1 5.8-6.2 2.6 3.8 5.4 7.4 7.6 11.4 1.6 2.8 3.5 3.1 6.3 2.3-.3-7-.6-14-.9-21.1zM708.1 435.9c1.6 3.7-.5 4.8-2.7 4.9-3.7.2-7.6.9-11.2-1.1-1.7-.9-3.8-1.1-5.6-2-1.9-1.1-4.3-.9-5.9.6-2.8 2.2-6.1 2.1-9.2.6-4.2 5.2-6.6 5.4-10.4 1.3-1 .4-2.2 1.4-2.8 1.1s-1.3-1.8-1.5-2.8c-.5-4.3.6-6.3 5-9.6 3 1.7 1.5 5.5 3.9 8l1.2-2.4c1.4-2 3.3-2.4 6-.8 2.5 1.5 4.6 1.7 6.7-.4 1.8-1.8 3.8-1.8 5.9-1 6.7 2.5 13.3 4.5 20.6 3.6zM642.8 784c-2.2-.3-4.6-1.2-6.7-.8-8.3 1.2-16.5 2.6-24.9 3-8.8.3-17.7 1.6-26.9 2.5v6.1l2.6.2.1 1.1-6.2 1.2v-11.9c1.8-.6 3.6-1.1 5.5-1.4 10.9-.8 21.8-1.2 32.6-2.2 6-.6 12.1-1.5 18-2.8 3-.6 4.9 1.6 7.4 2.3.4.1.5 1.7.7 2.7h-2.2z"/><path class="st16" d="M665.5 532.9c-2 .5-4.1.8-6.1 1-14.6.1-29.2-.1-43.9.1-7.8.1-15.5.7-23.3.9-1.4 0-3.7.8-3.2-2.4.6-.2 1.1-.4 1.7-.5 3.9-.3 7.9-.7 11.8-1 2.7-.2 5.4.3 8.2.2 17-.8 34.1-.9 51.2-1.2 1.2 0 2.5.8 3.8 1.2l-.2 1.7zM706.9 478.4c1.6-.5 3.2-1 4.8-1.4h1c14.2-.3 28.5-.9 42.7-.9 8.9 0 17.8.6 26.8 1 .5.1.9.3 1.4.6-.3 2-1.7 2.2-3.2 2.3-3.9.3-7.9 1-11.8.9-6.4-.2-12.8-1-19.2-1.5-2.6-.2-5.4-.7-7.9-.3-10.1 1.8-20.2.5-30.2.9-1.4 0-2.8-.1-4.1-.3-.1-.5-.2-.9-.3-1.3z"/><path class="st11" d="m642.8 744 2 1.1c-.4.6-.8 1.7-1.3 1.8-3.6.5-7.2.9-10.8 1.1s-7-.2-10.5.1c-6.2.5-12.4 1.2-18.6 1.8h-.5c-7.4.3-14.8.7-22.3 1-.6-.1-1.3-.2-1.9-.4.2-2.2 1.5-2.4 3.1-2.6 8.4-.6 16.7-1.5 25.1-2s16.8-.6 25.2-1.1c3.7 0 7.1-.5 10.5-.8zM586.8 796.1v-1.2c6.4-2.2 13.1-3.2 19.8-3 6 .1 12 .1 17.9 0 3.6-.1 7.2-.7 10.8-.9 2.3-.1 4.6 0 6.7 0l2.8-3.3c2 2.9.9 5.9 0 9.1-.6-1.2-1.1-2.3-1.6-3.2-5.1.5-10.2 1.1-15.2 1.3-4.5.2-9-.1-13.4.1-9.3.3-18.5.7-27.8 1.1zM581.8 694v-1.1c.4-.3.8-.8 1.1-.8 8.4-.4 16.8-1 25.2-1s16.8.7 25.2.8c2.9 0 5.8-.6 8.8-.8 1.4-.1 2.9 0 4.7 0-.6 2.3-4.2 2.2-3 4.9l-1.9 1c-.2-.9-.3-1.8-.5-2.9l-59.6-.1z"/><path class="st16" d="m620.7 503.9 1.2 3c-6.5 0-12.9 0-19.4.1-3.3.1-6.5.5-9.8.9-2.3.2-3.9-.3-3.8-3.4 7-1.8 14.3-2.1 21.4-.9 3.4.6 6.9.2 10.4.3zM762.6 504.9l-3.9-3.9c10-1.7 16.3-1.6 24 .7-.4 2.8-2.4 3.1-4.6 3.1-5.2.1-10.3.1-15.5.1zM616.6 477.9l.3 3h-27.7l-.1-1.1c1.9-1.5 4.2-1.8 6.6-1.8 6.9-.1 13.9-.1 20.9-.1zM819.3 779.3c-1.1 1.2-1.6 2.2-2.1 2.2-8 .1-15.9.1-23.9 0-.5 0-1-1-2.2-2.2h28.2z"/><path class="st11" d="m693.8 526 3 .6c2.6 4.5 2.7 5.1.5 7.4-1.1 1.2-2.4 2.9-4.2 1.4-1.5-1.2-2.9-3-1.9-5.2.8-1.4 1.6-2.8 2.6-4.2zM576.7 527.9c2.2.1 4 1.9 4 4.1 0 1.8-2.6 4.7-4.2 4.9s-3.7-2.5-3.6-4.5 2-4.4 3.8-4.5z"/><path class="st16" d="M662.8 482.8c-1.6-.3-3.2-.5-4.8-1-2-.5-3.9-1.3-2.9-4l11.2.1-3.5 4.9zM574.3 508.7c-.7-5.2-.3-6.4 2.1-6.7 1.9-.2 3.2.5 3.4 2.6.2 2.6-1.6 3.9-5.5 4.1z"/><path class="st11" d="M573.9 481.8v-5.1c1.9-1 3.8-1.4 5.3.4.6 1 .7 2.1.3 3.2-1.1 2.4-3.2 1.6-5.6 1.5zM692.2 475.2c4.6-.2 5.5.2 5.6 2.6.1 2.5-1.1 3.2-5.6 2.9v-5.5zM646.8 718.9v-2.8c4.1 0 8.2-.1 12.2-.1 1.2.1 2.4.2 3.5.5v1l-15.7 1.4zM581.7 739.9l2 1.1v6.2c-1.3-.4-2.4-.4-2.5-.7-.5-1.9-.9-3.8-1.2-5.7.1-.3 1.2-.6 1.7-.9zM583.8 764l-1 3.9-1-.1c.6-1.7-1.5-4.5 2-5v1.2zM677.5 709.5h-3.4v-1.1l3.4-.2v1.3zM733.8 714.9c0-1.4-.2-3 2-2.9-.1 1.3.4 3.1-2 2.9zM647.8 739c-1.8 1-1.9 1-2-2l2 2z"/><path d="M847.8 763.9c-1.5.1-2.1-.6-2-2l2 2z" style="fill:#fdfdfc"/><path class="st11" d="M670.8 718.9v-2l1.7 1-1.7 1zM642.8 784h2l.1 2.2-2.1-2.2zM649.8 767.9l-1.4-.3 1.4-.6v.9zM669.8 697.9V696c1.1.6 1.3 1.2 0 1.9zM644.8 734.9h-2c.7-1.2 1.4-1.1 2 0zM671.8 766v-1.1 1.1zM581.8 767.9h1.1l-1.1 1.1v-1.1zM579.8 724.9c-.2.2-.3.4-.5.5 0-.1 0-.3.1-.3.2-.1.3-.1.4-.2z"/><path class="st5" d="M739.9 352.2c0 3.2.2 6.1-.1 9-.3 1.2-1.1 2.1-2.2 2.6-3.5.8-7.6-3.6-7.2-8l5.7 4.6c1.6-2.8-.6-6.7 3.8-8.2zM684.3 372.8l6 5.4c3.2-1.9-.7-6.5 4.4-7.5 0 2.6.2 5 0 7.4s-1.8 3.3-4.2 3.1c-3.5-.5-6.2-3.9-6.2-8.4z"/><path class="st9" d="M724 344.3c-.9-4.1 1.9-4.1 3.5-4.2 3.4-.1 7.4-1.9 11.2 2.5l-14.7 1.7z"/><path class="st11" d="m118.6 203.2 3.7 8.7c-1.7-.2-2.8.1-3.2-.4-3.1-3.4-3.9-7.7-4.9-12.4l2.8 1.3c3.2-1 6.2-1.7 9-2.7 7.6-2.7 15.3-5.3 22.7-8.4 12.8-5.3 25.5-10.9 38.3-16.4 2.1-.9 4.1-2.1 6.2-3 1.8-.6 3.6-1 5.4-1.3-.5 4.1-4.2 3.3-5.7 6.2 1.9 4 .5 10.6 7.5 12.8-.7 1.9-1.4 3.8-2.1 5.6-1.7.1-3.4.3-5.1.7-10.8 3.9-21.6 8-32.4 11.9-11.1 4.1-22.3 8.2-33.5 12.2-2 .6-4.2.7-6.2.2 23.7-11 48.2-19.9 72.8-28.8-1.2-4.6-2.4-8.8-3.7-13.4-4.9.4-9.3 2.7-13.8 4.6-8.5 3.6-16.8 7.7-25.3 11.5-8.9 3.9-17.9 7.6-27.7 8.9-1.6.3-3.1 1.4-4.8 2.2zM122.2 236.2l5.6-3.9-5-2c.1-.6 0-1.5.3-1.8 1.1-1 2.3-1.8 3.7-2.3 7.1-2.7 14.3-5.1 21.4-7.9 7.2-2.8 14.3-5.9 21.5-8.8 7.1-2.8 14.1-5.5 21.3-8.1 1.3-.3 2.6-.4 4-.4.2 3 .4 5.6.6 8.5-16.1 6.5-32.2 13.1-48.4 19.4-7.5 2.9-15.3 5.2-22.9 7.8-.6.1-1.2.2-1.9.2l-.2-.7zm70.5-29.4c.1-1.6-.7-2.2-2.6-1.5-5.7 2.2-11.5 4.1-17 6.6-13.2 6-26.5 11.9-40.4 16-1.3.5-2.6 1.1-3.8 1.7 1.1 2.6 2.5 2.4 4.3 1.7 6.4-2.6 12.9-4.9 19.4-7.4 9.9-4 19.9-8.1 29.8-12.2 3.3-1.4 6.6-3.1 10.3-4.9zM120.3 237.6l-.1-.2h.2z"/><path class="st20" d="m213.8 179.9-.5-.5c.1 0 .3 0 .3.1.1.1.2.3.2.4z"/><path class="st11" d="M231.7 241.4c3.9 7.5 4.2 15.5 9.2 22.2-1.3.9-2.6 1.6-4 2.3-6.6 2.5-13.2 4.9-19.8 7.4-1.5.7-3.3.1-4-1.4-.1-.1-.1-.3-.2-.4-2-5.4-3.9-10.8-5.9-16.1-.6-1.6-.2-2.9 1.6-3.6s3.6-1.6 5.5-2.3c5.9-2.3 12.3-3.3 17.6-8.1zm3.9 20.7c-1.8-4.7-3.6-9.5-5.4-14.3l-18.4 7c-.3 5.1 3.1 9.2 4.4 13.9l19.4-6.6zM149 298.6c-2.8-7.1-5.7-14.4-8.6-21.6 6.1-3 12.9-3.4 17.4-8.7l5.9 1c-2.8 3.6-1.2 7 .4 10.4 1.2 2.5 2 5.2 3 8l5.1.3c-2.9 4.9-16.4 11.2-23.2 10.6zm9.1-24-13.1 4.8c1.7 4.7 3.4 9.1 5 13.6.6 1.7 2 2.5 3.5 1.9 3.6-1.3 7.1-3 10.9-4.6-2.3-5.6-4.3-10.4-6.3-15.7zM201.6 275c-2.1 1.5-3.4 2.8-4.9 3.5-3.4 1.6-7 3-10.6 4.2-3.6 1.2-5 .3-6.7-3.5s-3.6-7.3-5.3-11c-.8-1.7-.4-3.5 1.4-4.1 4.9-1.6 9.5-3.8 13.7-6.7 1.5-1 4.1-.4 7.3-.5-3.9 4-2.3 7.1-.7 10.2 1.5 2.7 1 6.6 5.8 7.9zm-6.8-.5c-1.6-4.1-3-7.8-4.6-12l-11.6 5.4c1.1 3.2 2.1 6.4 3.5 9.3.7 1 1.9 1.5 3.1 1.4 3.2-1.1 6.3-2.6 9.6-4.1zM882.2 819.6l-3-3.2c-6 .5-12.2 1.6-18.1-.7-.6-5.7-.5-10.7 2-15.5.6-1.2.2-2.8.3-4.2 0-2.2.1-4.5.5-6.7.2-1 1.7-2 2.8-2.2 2.4-.6 4.8-.9 7.3-.9 1.2.2 2.2 1 2.7 2.1.4 1.5.3 3-.2 4.4-1 2.3-.6 5 1.2 6.9 1.7 1.8 3 3.9 4.1 6.2 1.3 3.2 3.1 5 7.1 4.2-.2 1.3-.1 2.5-.6 3-1.1.9-2.8 1.2-3.7 2.2s-1.5 2.4-2.4 4.4zm-15.7-6.7c1.9.1 3.8.1 5.7 0 7.1-1 7.4-1.8 4-8.1-2-3.6-4.6-5.4-9-4.7-1.8 4.1-4.1 8.1-.7 12.8zm.5-18.2c4.7 0 5.2-.5 5.3-4.5H867v4.5zM858.1 779.1c3.4-3.6 7.8-1.6 11.7-2 4.1-.4 8.3-.3 13.4-.5-4 5.3-8.9 2.2-12.5 3.6-4.4 1.7-8.3-.3-12.6-1.1z"/><path class="st20" d="M766.8 587.9c.1-.2.3-.4.4-.7l-.4.7z"/><path class="st11" d="M875.3 719.2c1.7 4 3.1 7.5 4.6 10.8.5.8 1.2 1.4 2.1 1.9.9.6 1.8 1.1 3.5 2-4.2 1.8-7.6 2.9-11.4 2.3-2-.2-4-.2-5.9.1-2.8.2-5.5.6-8.1.9-3.3-4.9-3-7.2 1.8-15.9-.2-.6-.5-1.1-.9-1.6-2.8-3-2.4-6.4-.7-9.6s5.2-4.7 9.3-4.1c1.4.2 2.8.2 4.2 0 4.9-.4 7.1 2.7 5.2 7.3-.5 1.2-1.1 2.4-1.8 3.5-.5.8-1.2 1.6-1.9 2.4zm.6 11c-.9-1.8-1.6-3.3-2.3-4.7-.3-.6-.8-1.1-1.3-1.5-2.5-2.7-6-2.7-8 .3-1.8 2.5-2.7 5.7-2.3 8.8 4.5-2.4 9.5.4 13.9-2.9zm.1-18.7c-.2-.5-.4-.9-.6-1.3-.9.2-1.8.3-2.7.3-1 0-2.2 0-2.9-.6-2.1-1.7-3.8-1-5 .7s-3 3.4-1.1 5.7c1.5 1.8 3.4 2.3 5.2 1 2.5-1.8 4.7-3.9 7.1-5.8zM855.1 702.2c-.4-3.5 1-4.3 3.1-4.2 7.7.3 15.5-1 23.5 1.4-1.9 1.7-3.4 2.7-6.2 2.1-3.3-.7-6.9-.3-10.3-.1-3.3.1-6.5.5-10.1.8zM809.8 721.2c2.8 1.5 3.7 3.8 4.2 6.6.4 2.3 1.5 4.5 2.4 7-3.2 3.2-7.7 2.6-11.8 2.8-1.8.1-3.6-.5-5.7.2-2.8.9-4.2-.8-3.5-3.9.8-3.7 1.8-7.3 3-11.5-1.3-1.5-3.5-3.5-2.4-6.8 1.4-3.8 3.1-7.3 6.7-9.5 2.9-1.8 4.2-1.4 6.4 1.6 4.2 5.6 4.3 7.4.7 13.5zm-11 13 11.1-1.3c.1-1.7.1-3.4-.1-5.1-.1-1-.6-1.8-1.3-2.5-3.7-2.7-7.5-1.3-8.6 3.2-.5 1.7-.7 3.3-1.1 5.7zm4.9-24.4c-1.1 1.6-2 2.9-2.9 4.3-.3.4-.5.8-.7 1.3-.6 2 .1 3.2 2.2 3.5 2.3.5 4.7-.8 5.5-3.1.7-2.5-.3-4-4.1-6z"/><path class="st16" d="M816.2 696.8c-9.6 3.2-18.2 4.4-27.5 1.4 4.5-2.5 22.8-3.6 27.5-1.4z"/><ellipse transform="rotate(-23.336 271.31 235.816)" class="st12" cx="271.3" cy="235.8" rx="2.8" ry="4.2"/></svg>