<svg version="1.1" id="Layer_1" xmlns="http://www.w3.org/2000/svg" x="0" y="0" viewBox="0 0 681.69 845.54" style="enable-background:new 0 0 681.69 845.54" xml:space="preserve"><style>.st2{fill:#133447}.st3{fill:#d6d5cf}.st6{fill:#e78663}.st7{fill:#e78664}.st8{fill:#f2b980}.st9{fill:#133448}.st12{fill:#a3e579}.st13{fill:#a2e578}.st15{fill:#f2bb83}.st17{fill:#59717f}.st18{fill:#efefec}.st22{fill:#f9f9f9}.st23{fill:#fefefe}.st24{fill:#f5f5f3}.st25{fill:#abf57d}.st26{fill:#c7c6be}</style><path d="m202.75 171.21 5.18-1.15c3.17-.4 4.23 1.82 4.48 4.19.84 7.71 5.84 12 12.08 15.35 3.95 2.09 8.08 3.86 12.13 5.77-6.25 1.9-12.48 3.88-18.76 5.69-12 3.48-24.09 6.81-36.11 10.29-14.55 4.22-29.09 8.49-43.61 12.82-9 2.66-18 5.43-27 8-2.24.48-4.51.82-6.8 1 3.75-6.64 10.73-9.16 16.65-13 12.52-8.14 25-16.39 37.7-24.17 5.68-3.47 5.92-8.23 5.07-13.71-.22-.97-.52-1.93-.9-2.85-.01-.19.01-.38.06-.56 7.84-1 15.7-2 23.53-3.11 4.08-.59 8.13-1.41 12.14-2.38 1.47-.33 2.77-1.39 4.16-2.18z" style="fill:#e68563;stroke:#e68563;stroke-miterlimit:10"/><path d="M273.86 462c1.94 15.79 3.92 31.57 5.82 47.37 1.78 14.82 3.39 29.66 5.25 44.48.87 6.89 2.27 13.72 3.25 20.61 1.63 11.49 3.08 23 4.7 34.5.88 6.23 2 12.43 3 18.64 1.66 10.64 3.18 21.31 5 31.93 2.38 14.21 4.93 28.4 7.43 42.6 2.12 12.07 4.31 24.14 6.38 36.22.63 3.7.13 4.17-3.65 4.85s-7.45 1.42-11.17 2.14l-28 4.08c-2 .14-4 .23-5.94.4-5.83.54-7.62-1.29-8.27-7.07-1.54-13.83-3.35-27.63-5.17-41.42-1.05-8.05-2.22-16.08-3.52-24.09-1.66-10.14-3.55-20.23-5.28-30.36-2-11.58-3.86-23.19-5.85-34.78-2.54-14.86-5.22-29.7-7.69-44.57-1.25-7.51-2.11-15.09-3.3-22.61-1-6.22-2.33-12.37-3.27-18.59-.76-5.07-1.08-10.21-1.73-15.3-.81-6.4-1.48-12.84-2.75-19.15-1-5.18-1.94-5.59-7.12-5.55-7.3.06-14.61.3-21.91.28-3.8 0-6.48 2.26-7.1 5.57-2.77 14.81-5.62 29.61-8.13 44.46-2.15 12.74-4 25.53-5.77 38.32-1.26 9-2.1 18.1-3.27 27.13-1 7.87-2.3 15.71-3.39 23.58-1.22 8.84-2.51 17.68-3.52 26.56-1.44 12.49-2.7 25-3.94 37.51-.79 7.92-1.28 15.86-2.16 23.76-1.05 9.37-2.36 18.72-3.59 28.07-.34 2.62-1.11 5.22-1.17 7.85-.08 3.54-2.11 4.16-4.92 3.94-4.8-.37-9.59-.83-14.38-1.25-2.72-.36-5.43-.82-8.16-1.07-6.53-.61-13.08-1.12-19.62-1.67l-.49-.08c-8.25-1.07-8.23-1.46-6.91-9.73 1.75-10.94 3.14-22 4.28-33 1.52-14.67 2.49-29.4 4-44.07 1.44-14 3.33-27.92 4.93-41.89 1.12-9.87 1.85-19.79 3.16-29.63 1.66-12.44 3.77-24.81 5.62-37.23.56-3.76.91-7.55 1.32-11.34.74-6.91 1.43-13.83 2.2-20.73.47-4.11 1.15-8.19 1.58-12.3 1.44-13.67 2.82-27.35 4.22-41 .07-.66 0-1.33 0-2 7.43-1.38 14.89-2.61 22.26-4.24 2.12-.47 5.8-.25 5.44-3.72s-3.62-1.88-5.72-2.17c-4.66-.66-9.34-1.25-14-1.86 13.1-.32 26.21-.6 39.31-1 11.11-.31 22.22-.78 33.33-1 16.43-.39 32.86-.66 49.29-1l-8 2.32c0 .41 0 .82-.07 1.22 1.09.88 2.3 1.62 3.58 2.19 3 .91 6 1.59 9.11 2.21 4.8.93 9.61 1.76 14.47 2.68z" style="fill:#63c5a9"/><path class="st2" d="M226 76.35 236.32 71c3.17-2.6 7.69-3.89 8.69-8.71-3.36-3.12-6.57-6.24-9.93-9.21-11.39-10.06-24-18-39.24-20.5-10.57-1.74-21.18-1.19-31.73.35a67.854 67.854 0 0 0-38.17 18.73l-3.73 3.73-3.47 3.79-2.74 3.18-.1.13-5.78 7.87c-.28.12-.47.38-.5.68l-3.54 6.3c-.22.22-.35.52-.36.83-.4 1.36-.88 2.7-1.44 4-3.28 6.83-7.04 13.53-10 20.51-1.74 4.1-3.11 8.44-4.82 12.54-3.27 7.84-7.42 15.32-11.53 23.61 3.24 2.1 6.84 4.33 10.31 6.74 1.66 1.27 3.25 2.64 4.76 4.09l2.53 1.78c4.4 2.77 9 5.26 13.16 8.35 7.73 5.77 15.61 11.24 24.83 14.27 4.36 1.44 9 2.14 13.44 3.23 1.02.33 2.03.72 3 1.17l1.89.25 11 .2c7.84-1 15.7-2 23.53-3.11 4.08-.59 8.13-1.41 12.14-2.38 1.48-.36 2.78-1.45 4.17-2.21-1.3-4.43-2.46-8.9-3.93-13.27-2-6.13-5.94-11-10.73-15.28-8-7.2-15.72-14.69-23.53-22.09-4.41-4.18-4.36-9.5-3.3-14.84.38-2 1.08-4.61 3.89-4.46s3.08 2.66 3.52 4.77c.27 1.29-.06 2.81.5 3.91.67 1.32 2 2.3 3.06 3.43 1.1-1.06 2.13-2.18 3.11-3.35.3-.62.39-1.32.25-2-.34-6.82 3.11-10.36 9.35-12.85C195.73 91 206.16 85.77 216.74 81l9.26-4.65z"/><path class="st3" d="M306 304.2c3.12-.3 6.24-.59 9.36-.91 6.2-.61 7.53 1.55 7.47 6.31-.23 15.48-.08 31-.08 46.45 0 6.06 0 6.05-6 6.19-.83 0-1.66.07-2.49.11l-26.4-.1c-37.93.53-75.85-.94-113.78.82-18.11.84-36.3.11-54.45.09-.34-19.29-.67-38.57-1-57.86l56.37-1.15 13.47-.07c6.2 1 12.34-.53 18.62-.09 14.5 1 29.08.93 43.63 1.19 6.63.13 13.27.13 19.91 0 2.78-.19 5.55-.53 8.29-1 .93.32 1.91.54 2.89.63 8.04-.15 16.12-.39 24.19-.61zm-157.23 34c.28 1.46.57 2.92.85 4.38l-.71.25-3.5-3.82c-.31 1.15-.75 1.83-.58 2.3.81 2.25 1.71 4.28.34 6.83-.43.8 1.17 2.68 2.06 4.51l2.64-2.85 2.53 1.15c0-2.64-.35-4.92.08-7 .68-3.36-.56-5.05-3.73-5.69l3.82-3.23-4.57-4.86 4.33-1.5-2-4.95c3.5-1.26.27-4.84 2.27-6.74.37-.35-.22-1.71-.37-2.63-1.95.47-3.6.73-5.15 1.27-2 .69-3 2-1.86 4.17.28.53.84 1 .85 1.56.06 5.5 0 11 0 16.68l2.7.17zm134.1 9.27c1.61-.28 3.4-.2 4.78-.92 4.86-2.55 8-10 7-15.93-1.14-6.87-5.37-12.2-11-13.19-1.75-.31-4.46 0-5.47 1.13-4.75 5.39-7.44 11.74-6.32 19.12.84 5.49 5.48 9.61 11.03 9.79h-.02zm-126.78 2.14c2.64-4.29 1.44-8 1.62-11.43.21-3.81.06-7.63.06-11.45 0-8.13 0-8.13-1.68-10.49v33.37z"/><path d="m236.62 195.37 27-7.57c6-1.68 12-3.25 18-5.08 1.91-.58 3.39-.59 4 1.42 2.58 8.28 5 16.61 7.59 25.11l-12.3 4.75c-1.61.36-3.23.65-4.82 1.08-8.91 2.38-17.85 4.66-26.71 7.22-17.84 5.17-35.63 10.5-53.44 15.77l-7.24 2.24c-1.31.07-2.61.24-3.89.5-13.85 3.8-27.72 7.54-41.52 11.53-8.21 2.37-16.31 5.16-24.46 7.76-1.18.38-2.35.83-3.55 1.11-3.19.73-6.4 1.38-9.6 2.06l-12.87 4c-.9-.81-2.32-1.47-2.61-2.46-2.2-7.59-4.2-15.21-6.39-23.41l20.52-8.19c2.29-.18 4.56-.52 6.8-1 9-2.59 18-5.36 27-8 14.53-4.3 29.07-8.57 43.61-12.82 12-3.48 24.09-6.81 36.11-10.29 6.29-1.85 12.52-3.83 18.77-5.73zm-115.88 50.32 10-3.74c-2.75-6.46-4-6.93-9.42-3.91-2.1 1.21-4.38 2.07-6.76 2.55-3.11.63-7.21 1.14-7 6.21-2.66-2.55-5.86-2.66-8.32-.51-2 1.78-1.92 3.14.67 6.92l18.88-5.51c-.38-2.15-.64-3.63-.89-5.1l1-.33 1.84 3.42zm144.71-37.79c4.82 1.52 9.16-.14 10.22-3.88 1.13-4-2.14-7.8-8.33-9.53-4.79 3.64-4.8 8.12-1.89 13.41z" style="fill:#c4c2b9"/><path d="M226 76.35 236.32 71c.28 1.12.64 2.22 1.07 3.29 2.92 6.11 5.79 12.25 8.92 18.25 1.25 2.28 2.8 4.38 4.6 6.26 1.75 1.91 4 3.37 5.78 5.26 1.94 2.06 1.24 4.53-.23 6.39-1.79 2.14-3.81 4.1-6 5.83-3.8 3.14-8.23 5.75-7.94 11.9L226 125.23c-.71 6.32 4.71 8.67 7.85 12.86-3.16 6.22-8.52 10.1-14.72 13-2.85 1.34-5.87 2.31-8.69 3.68-3.06 1.48-4 3.6-3.49 6.9.39 2.78.66 5.58 1 8.37l-5.18 1.15c-1.3-4.43-2.46-8.9-3.93-13.27-2-6.13-5.94-11-10.73-15.28-8-7.2-15.72-14.69-23.53-22.09-4.41-4.18-4.36-9.5-3.3-14.84.38-2 1.08-4.61 3.89-4.46s3.08 2.66 3.52 4.77c.27 1.29-.06 2.81.5 3.91.67 1.32 2 2.3 3.06 3.43 1.1-1.06 2.13-2.18 3.11-3.35.3-.62.39-1.32.25-2-.34-6.82 3.11-10.36 9.35-12.85 10.77-4.16 21.2-9.39 31.78-14.16l9.26-4.65zm-6.86 5.38c-1.24 1.5-2.41 3.06-3.49 4.68-1.27 2.1-1.86 4.24.69 5.29 3.09-1.84 5.81-3.29 8.34-5 1.4-1 3.14-2.21 3.53-3.66.67-2.41-2-2.44-3.48-3.29l-5.59 1.98zm5.09 14.74c-3.5 3.87-3.49 5.41-.11 9.34 3.79-3.07 3.88-5.65.14-9.34h-.03z" style="fill:#efb882"/><path class="st6" d="m92.81 267.23 12.87-4c0 11.43 0 22.86.15 34.29.13 2.02.39 4.02.79 6l12 1.74c.34 19.29.67 38.57 1 57.86-6.5 0-13 0-19.5.07-3.86 0-4.37.47-4.26 4.34.1 3.64.8 7.25.86 10.88.13 8.33 0 16.67 0 25 0 10.11-.68 8.62 8.89 8.8l-.06 32.89-19-.81-10.88-2.57c.46-7.67.84-15.25 1.38-22.82.5-6.95 1.09-13.89 1.77-20.81.84-8.74 1.81-17.47 2.68-26.21.79-7.91 1.48-15.83 2.28-23.74.91-8.9 2-17.78 2.8-26.69.57-6.44.56-12.94 1.26-19.37.92-8.55 2.26-17.05 3.46-25.56.48-3.08 1.02-6.18 1.51-9.29z"/><path class="st7" d="M195.94 238.06c17.81-5.27 35.6-10.6 53.44-15.77 8.86-2.56 17.8-4.84 26.71-7.22 1.59-.43 3.21-.72 4.82-1.08 5.75 3.63 9.2 9 11.6 15.19 5.2 13.27 8.64 27.17 10.24 41.34C304 281.73 304.94 293 306 304.2c-8.09.22-16.17.46-24.26.62-.98-.09-1.96-.31-2.89-.63-.04-19.64-.08-39.28-.11-58.92 0-7.28.74-7.2-7.43-7.19-25.11.04-50.24-.01-75.37-.02z"/><path class="st8" d="M100.88 749.34c6.54.55 13.09 1.06 19.62 1.67 2.73.25 5.44.71 8.16 1.07-1.74 13.21-5.92 26.06-6 39.53-.16 1.64-.5 3.27-1 4.84-.67 1.44-1.42 2.84-2 4.31-3.89 9.92-9 18.84-19.38 23.31-6.64 2.85-8 .9-9.24-6.08-.02-.68.08-1.36.3-2 1.09-5.44 2.19-10.88 3.3-16.33.86-5 1.86-10 2.57-15 .98-7 1.84-14 2.58-21 .48-4.77.73-9.55 1.09-14.32z"/><path class="st6" d="m287.84 362.25 26.4.1c.83 7.4 1.62 14.8 2.51 22.2.8 6.73 1.75 13.45 2.56 20.19 1.2 9.87 2.35 19.75 3.46 29.64.03 1.1-.04 2.2-.19 3.29l-8.76 1.58-7.9.9c-.05-8.91 0-17.82-.17-26.73-.17-2.1-.47-4.19-.91-6.25h-17c-.01-14.98-.01-29.95 0-44.92z"/><path class="st8" d="m271.8 749.39 28-4.08c1.65 11.17 3.33 22.34 5 33.52 1.39 9.57 8 14.66 15.94 18.57.89.43 1.73 1 2.59 1.44h-.22l1.49.4c2.36 1.42 4.72 2.86 7.09 4.27 2.55 1.52 5.22 2.89 7.63 4.61.85.62 1.1 2.08 1.72 3.36-9.25 1.73-21.65-.22-27.2-2.94-7.88-3.86-15.66-7.93-23.35-12.15-3.75-2.06-7.5-4.33-9.57-8.43-.21-.43-1.12-.5-1.71-.74l-7.41-37.83z"/><path class="st9" d="M279.15 787.19c.59.24 1.5.31 1.71.74 2.07 4.1 5.82 6.37 9.57 8.43 7.69 4.22 15.47 8.29 23.35 12.15 5.55 2.72 18 4.67 27.2 2.94-.62-1.28-.87-2.74-1.72-3.36-2.41-1.72-5.08-3.09-7.63-4.61-2.37-1.41-4.73-2.85-7.09-4.27 7.48 2.85 15 5.58 22.42 8.59 4.81 1.89 9.09 4.92 12.46 8.84.88.98 1.68 2.02 2.39 3.13 2 3.41 1.78 4.68-1.48 7.06a23.321 23.321 0 0 1-13.51 4.24c-4.96.1-9.92-.26-14.82-1.07-13.73-2.37-27-6.09-39.35-12.93-5.11-2.83-10.27-5.32-14.27-9.69-2.63-2.88-4-6-2.66-9.94 1.14-3.41 2.28-6.83 3.43-10.25z"/><path d="M491.07 140.41c-.93-1.82-1.85-3.35-2.52-5-3.05-7.35-6-14.75-9.05-22.1-1.57-3.76-2.29-4-6-2.26-4.51 2.09-9 4.31-13.54 6.22-1.74.73-3.77.75-6.33 1.21-7.06-18.62-14-36.84-21.07-55.52 8.07-3.49 15.56-6.79 23.1-10 9-3.8 18-7.47 27-11.3 3.61-1.54 4.79-.94 6.57 2.89 2.56 5.53 5.49 10.88 8.16 16.35 1.35 2.77 2.49 5.65 3.89 8.85 2.18-.77 3.89-1.28 5.53-2 4-1.69 7.86-3.55 11.85-5.21 4.6-1.9 6-1.28 8 3.31 2.62 6.09 5.19 12.22 7.85 18.3s5.54 11.94 8 18c2 4.86 3.44 9.91 5.37 15.58-18.68 7.77-36.88 16.35-56.81 22.68zm2.58-3.06c8.49-3.53 16.32-6.77 24.13-10 7.81-3.23 15.77-6.62 23.64-10 2.28-1 3.05-2.34 1.41-4.66-.88-1.39-1.59-2.88-2.13-4.43-3.13-7.63-6.24-15.26-9.33-22.91-.91-2.26-1.68-4.59-2.68-6.81-2-4.45-4.13-8.86-6.28-13.43-3.17 1.14-6 2-8.75 3.17-12.67 5.31-25.3 10.7-37.95 16-3.17 1.34-3.75 2.45-2.41 5.82 1.68 4.28 3.63 8.45 5.32 12.72 2.18 5.49 4 11.13 6.38 16.54 2.63 6.07 5.69 11.91 8.65 17.99zm3.85-67.14c0-.85.11-1.23 0-1.49-3.66-7.67-7.32-15.33-9.85-23.48-.62-2-2-2.34-3.94-1.48-4.62 2.06-9.3 4-13.9 6.07-9.45 4.3-18.85 8.69-28.29 13-3.62 1.64-4.57 2.78-3.56 6.24 1.33 4.57 3.05 9 4.74 13.49 2.16 5.65 4.49 11.24 6.69 16.88 1.94 5 3.8 9.94 5.86 15.34 7.06-3.2 14.27-4 19.83-9.25-2.27-6.2-4.36-12.1-6.6-17.94-.78-2-1.36-4.07 1-5.11 6-2.59 12.13-4.83 18.13-7.4 3.45-1.47 6.73-3.3 9.89-4.87z" style="fill:#a5e77b"/><path d="M0 337.12c14.07-4.24 21.37-13.86 26.66-25.85 16.34 1.86 31.42-2.5 46.15-11.27-.79 4.63-2.73 8.99-5.64 12.67-6.85 8.8-14.11 17.3-24.09 22.81a34.02 34.02 0 0 1-8.64 3.64c-11.13 2.54-22.24 2.59-34.44-2z" style="fill:#a5eb7a"/><path class="st12" d="M416.77 382.49c-.01 1.74.08 3.48.26 5.21.81 4.88 1.82 9.74 2.6 14.63.57 3.63-.21 4.85-3.95 5.53-8.64 1.56-17.32 2.9-26 4.35-4.55.76-9.09 1.65-13.66 2.33-5.21.77-10.45 1.38-16.5 2.16-.83-4.19-1.8-8.47-2.51-12.78-1.77-10.77-3.46-21.56-5.09-32.35-.56-3.76-.64-7.59-1.14-11.37-.41-3.07.64-4.65 3.81-5.06 6.58-.84 13.14-1.83 19.69-2.86 3.08-.48 6.13-1.21 9.95-2-1.07-5.82-2.07-11.29-3.09-16.76-.16-.81-.48-1.59-.69-2.39-1-3.89-.19-5.65 3.73-6.38 5.68-1 11.43-1.79 17.16-2.52 9.53-1.2 19.07-2.3 28.61-3.4 3-.33 5.92-.52 9.4-.81 4.14 19.42 6.72 38.82 9.6 58.39l-32.18 6.08zm-.35 21.92c-.62-5.73-1-11-1.8-16.16-1.83-11.53-4-23-5.77-34.55-.44-2.91-1.78-3.79-4.29-3.43-7 1-14 2-21 3.15-9.24 1.52-18.45 3.27-27.71 4.76-2.66.43-3.36 1.82-2.91 4.15.77 4 1.73 8 2.4 12.09 1.23 7.47 2.29 15 3.45 22.45.7 4.55 1.34 9.13 2.25 13.64.47 2.29 2 3.18 4.51 2.37 2.35-.74 4.77-1.28 7.21-1.62 11.73-1.74 23.47-3.35 35.19-5.1 2.85-.42 5.65-1.16 8.47-1.75zm-5.21-58.19c2 11.51 3.9 22.15 5.83 33.09l29.7-4.75c-1-5.52-2-10.82-3-16.13-2-11.31-4-22.64-6.11-33.94-.29-1.6-.88-3.3-3.09-3.26-3 0-6-.14-9 .19-10.29 1.17-20.56 2.45-30.81 3.84-2.92.4-5.77 1.3-8.64 2-2.38.56-2.53 2.26-2.2 4.26.63 3.88 1.27 7.77 1.82 11.66.52 3.71 1.75 5.06 5.39 5 3.12-.06 6.23-.47 9.34-.78 3.62-.4 7.16-.78 10.77-1.18z"/><path class="st13" d="M23 447.41c.34.95.76 2.14 1.21 3.43.43.17.88.29 1.34.36 7.29.43 13-3.54 18.8-7 1.7-1 3.14-2.45 4.76-3.62 2.68-1.95 4.2-1.3 4.58 2s.6 6.9 1 10.35C56.26 467 63.37 477.32 75.82 484c1.45.89 2.85 1.85 4.2 2.89-.27.83-.67 1.6-1.18 2.31-8.41 7.88-17.57 14.66-28.4 18.87-11 4.29-20.47 2.32-28.16-7a76.014 76.014 0 0 1-15.89-30.6 35.855 35.855 0 0 1 1.27-20.58L23 447.41zm-1 6.75c-.56 11.22-.69 21.63 2.2 31.76 1.48 5.04 3.29 9.98 5.43 14.78a9.779 9.779 0 0 0 7.42 5.84c5.22 1.16 9.87-.2 14.28-2.27 5.68-2.71 11.18-5.77 16.47-9.17 3-1.87 5.89-4.18 7.07-7.88-.42-.38-.87-.73-1.34-1.06-13-7.61-20.7-18.6-21.82-33.89-.37-2.79-.91-5.55-1.62-8.27-8.48 6.51-16.95 11.46-28.09 10.16z"/><path d="M94.61 799.71c-1.07 5.44-2.17 10.87-3.3 16.29a5.65 5.65 0 0 0-.3 2c1.28 7 2.6 8.93 9.24 6.08 10.42-4.47 15.49-13.39 19.38-23.31.58-1.47 1.33-2.87 2-4.31.88 9.11-.44 18.31-3.86 26.8-3.7 9.41-10.93 17-20.15 21.14-9.08 4-16-3.22-16.67-11.38-.23-3.96.51-7.91 2.15-11.52 3-6.61 6.78-12.84 10.24-19.24.45-.83.84-1.7 1.27-2.55z" style="fill:#153548"/><path class="st13" d="M631.46 0c5.32 1.71 10.22 3.18 15 4.87 6.57 2.3 13 5 19.65 7.08 3.1.79 5.63 3.02 6.8 6 2.9 7.24 5.7 14.52 8.41 21.84.39 1.09.44 2.27.13 3.39-3.35 10.57-6.79 21.11-10.24 31.65-.14.43-.58.77-1.23 1.61-6-1.93-12-4-18.13-5.87-12.31-3.82-24.64-7.6-37-11.34-3.27-1-3.62-1.49-2.45-5 2.37-7.26 4.81-14.5 7.31-21.72 3.3-9.56 6.68-19.09 10-28.62.48-1.14 1-2.17 1.75-3.89zm38.14 16.7c-.91-.51-1.85-.97-2.81-1.37-9.85-3.33-19.74-6.53-29.55-10-4.3-1.51-4.38-1.66-5.91 2.76-4.16 12-8.3 24.02-12.42 36.05-1.26 3.68-2.31 7.44-3.5 11.32l53 17c3.13-9.86 6.26-19.37 9.05-29 .3-1-1.06-3-2.13-4-2.31-2.1-5-3.82-7.42-5.76a4.537 4.537 0 0 1-1.66-5.68c1.28-3.44 2.15-7.14 3.35-11.32z"/><path class="st12" d="m337.52 523.88 56.84 19.82c-4.5 19.51-12.5 37.51-17.51 56.95-8.9-2.83-17-5.46-25.21-8-10.26-3.2-20.53-6.38-30.83-9.42-2.7-.79-3.5-2-2.57-4.7 2.25-6.43 4.31-12.92 6.54-19.35 3.64-10.5 7.31-20.98 11-31.45.42-1.07.96-2.08 1.74-3.85zm-16.18 55.59 52.9 17L391 546.23c-6.51-2.44-12.46-4.82-18.5-6.92-9.5-3.29-19.11-6.27-28.6-9.6-5.21-1.83-5.13-2-6.88 3.1-3.72 10.92-7.48 21.83-11.18 32.76-1.54 4.5-2.94 9.04-4.5 13.9z"/><path class="st15" d="m86.59 444.33 19 .81c.15 2.91.31 5.82.49 9.19h26.72c4.67.61 9.35 1.2 14 1.86 2.1.29 5.38-1.16 5.72 2.17s-3.32 3.25-5.44 3.72c-7.37 1.63-14.83 2.86-22.26 4.24-6 0-11.91.05-17.86-.14-2.79-.04-5.56-.44-8.25-1.18a7.253 7.253 0 0 1-4-3.26c-2.92-5.74-5.45-11.59-8.12-17.41z"/><path d="M414.33 223.2c-14.52 0-28.64.05-42.77-.07a4.709 4.709 0 0 1-3.21-1.8c-4.66-6.46-9.25-13-13.66-19.61a9.816 9.816 0 0 1-1.53-5.16c.1-10.63.4-21.25.66-31.88 0-.29.25-.58.54-1.21h60l-.03 59.73zm-2.05-2.43v-53.94c-4.39-1.81-50.51-2.47-56.5-.69v28.32c0 5.17.5 5.67 5.72 5.74 3.93.06 7.87 0 12 0v20.56l38.78.01z" style="fill:#a0e377"/><path class="st15" d="m305.92 440.15 7.9-.9c-1.66 5.52-3.28 11.06-5 16.57-1.23 4-3.68 5.64-8.15 5.55-8.94-.18-17.89.36-26.83.6-4.83-.89-9.67-1.72-14.48-2.68-3.06-.62-6.13-1.3-9.11-2.21-1.28-.57-2.49-1.31-3.58-2.19 0-.4 0-.81.07-1.22l8-2.32 44.74-1.14c.83 0 1.67.05 2.49 0 2.41-.25 4-1.19 3.85-4.06-.15-2.01.05-4.01.1-6z"/><path class="st17" d="M105.75 78.17c-.4 1.36-.88 2.7-1.44 4C101 89 97.24 95.7 94.28 102.68c-1.74 4.1-3.11 8.44-4.82 12.54-3.27 7.84-7.42 15.32-11.53 23.61 3.24 2.1 6.84 4.33 10.31 6.74 1.66 1.27 3.25 2.64 4.76 4.09-5.16-3.22-10.37-6.35-15.42-9.73-.81-.54-.61-2.45-1.37-3.23s-2-.61-3.56-1c2.91-4.59 5.19-9.06 8.29-12.85 5.77-7.07 9.23-15.37 13.34-23.33 3.35-6.5 6.57-13.07 9.89-19.59.45-.65.98-1.25 1.58-1.76zM95.5 151.44c4.4 2.77 9 5.26 13.16 8.35 7.73 5.77 15.61 11.24 24.83 14.27 4.36 1.44 9 2.14 13.44 3.23 1.02.33 2.03.72 3 1.17-7.54.71-14.49-1.75-21.15-4.64-5.1-2.4-9.99-5.22-14.63-8.43-5.14-3.34-10.07-7-15-10.65-1.28-1.03-2.5-2.13-3.65-3.3zM162.91 178.91c-.05.18-.07.37-.06.56l-11-.76 11.06.2zM115.93 62.49l-5.78 7.87 5.78-7.87zM109.65 71l-3.54 6.3 3.54-6.3zM125.94 51.64l-3.73 3.73 3.73-3.73zM118.74 59.16l-2.74 3.2 2.74-3.2z"/><path class="st9" d="M323.05 798.81h.22-.22z"/><path class="st18" d="M305.92 440.15c-.05 2-.25 4-.11 6 .19 2.87-1.44 3.81-3.85 4.06-.82.08-1.66 0-2.49 0l-44.74 1.14c-16.43.32-32.86.59-49.29 1-11.11.26-22.22.73-33.33 1-13.1.36-26.21.64-39.31 1h-26.74c-.18-3.37-.34-6.28-.49-9.19l.06-32.89 182.22-5.08h17c.44 2.06.74 4.15.91 6.25.12 8.89.11 17.8.16 26.71zm-186.14 4.23c3.68-.37 7.59-1.22 11.45-1.07 10 .39 20.13-1.77 30.88 2.18-.45-10.16-.87-19.6-1.29-29-1.71-.12-2.53-.25-3.35-.23-10.75.32-21.5.6-32.24 1-4.15.16-5.42 1.67-5.44 5.94-.04 6.8-.01 13.53-.01 21.18zm103.91-9.88c.63 2.86 1.14 5.15 1.82 8.23 1-1.63 1.56-2.5 1.77-2.82 3.08-.76 5.64 3.11 7.82.2 1.52-2 1.73-5 2.52-7.63l6.84-.71-.12-1.09c-7.86-2.46-15.79-1.09-23.82-.64s-16.31-.75-24.47-.71c-8 0-15.89.72-23.83 1.12v1.33c9.63 1.67 19.63-1.6 29.35 1-1.06 3-5.49-1.78-5.36 3.28 3.09-.16 5.88.25 7 4.57.49-2 .72-2.9.92-3.7l5.56-2.31-.33-1.05h-5.22v-1l30.25-1.1v6.26c-4.55 1.84-6.26-3.73-10.7-3.23z"/><path d="M224.76 79.72c1.47.85 4.15.88 3.48 3.29-.39 1.45-2.13 2.7-3.53 3.66-2.53 1.74-5.25 3.19-8.34 5-2.55-1-2-3.19-.69-5.29 1.08-1.62 2.25-3.18 3.49-4.68 0 0 3.2-1.66 4-1.92.51-.17 1.07-.19 1.59-.06z" style="fill:#334750"/><path d="m287.85 407.17-182.22 5.08c-9.57-.18-8.9 1.31-8.89-8.8 0-8.33.1-16.67 0-25-.06-3.63-.76-7.24-.86-10.88-.11-3.87.4-4.29 4.26-4.34 6.5-.08 13-.05 19.5-.07 18.15 0 36.34.75 54.45-.09 37.93-1.76 75.85-.29 113.78-.82-.02 14.97-.03 29.95-.02 44.92zM157.94 391.1c7.88 1.76 15.57 3 22.95 5.25s14.3 3.65 21.24-.78c.47-.18.95-.3 1.45-.35l20.95-5.39v-10.95c-9.55-1.58-18.94-3.24-28.36-4.64-9.21-1.37-17.63 1.94-26 4.91-4.17 1.46-8.25 3.15-12.18 4.67l-.05 7.28z" style="fill:#c4c3ba"/><path class="st18" d="M195.94 238.06c25.13 0 50.26.06 75.39 0 8.17 0 7.42-.09 7.43 7.19 0 19.64.04 39.28.11 58.92-2.74.47-5.51.81-8.29 1-6.67.14-13.3.14-19.91 0-14.55-.26-29.13-.19-43.63-1.19-6.28-.44-12.42 1.09-18.62.1.1-2 .27-4 .28-6v-57.83l7.24-2.19zm75.74 11.26c-1.88-.52-3.8-.88-5.74-1.06-21.31-.07-42.61 0-63.92 0-.83 0-1.82-.26-2.46.1-1 .58-2.57 1.54-2.6 2.39-.22 6.07-.12 12.15-.12 18 16 .52 31.24 1.17 46.49 1.44 7.93.13 15.88-.43 23.82-.66 3.71-.1 3.37-.05 3.05-3.67-.46-5.34-1.64-10.79 1.48-16.54zm-46.54 44.56c1.46.42 2.95.72 4.46.87 4.07.12 8.15-.14 12.21.06 1.65.08 2.82-.2 2.64-1.83-.33-3-.26-6.62-1.91-8.81-1-1.4-4.88-.71-7.46-.95h-1c-9.98-.01-9.98-.01-8.94 10.66zm21.64 1.64c6.32-1.19 12 .94 17.57-.57-.67-2-1.4-3.3-1.52-4.66-.63-7.06-.58-7.07-7.91-7.07-1.49-.07-2.99-.05-4.48.06-2.43.3-3.92 1.45-3.7 4.25.18 2.29.04 4.61.04 7.99z"/><path d="m118.58 305.3-12-1.74c-.4-1.98-.66-3.98-.79-6-.12-11.43-.11-22.86-.15-34.29 3.2-.68 6.41-1.33 9.6-2.06 1.2-.28 2.37-.73 3.55-1.11H175v44.06l-56.42 1.14zm18.89-24.53c-4.65-.44-9-.89-13.37-1.25-.87-.07-2 .57-2.61.22a3.34 3.34 0 0 0-4.63.95c-.04.07-.08.13-.12.2-.51.7-.89 2.46-.66 2.59 1.3.85 2.76 1.42 4.29 1.66 2.44.24 4.72-.27 7.39.54s6.19-.12 9.16 1.46c.66.12 1.33-.05 1.85-.47 3.34-2.54 7.54-1.44 10.73-1.05 4.07.31 8.11.96 12.07 1.94 1.25.28 2.53.37 3.81.26.29 0 .58-.64.91-1.05l-1.62-.92c.24-1.86.36-3.74.37-5.62 0-.32-1.87-1-2-.82-1.17 1.49-2.14 3.14-3.2 4.78-.34-.77.63-3.37-2.34-2.55-1.44.4-2.76-2.8-4.73-.49-.59.43-1.34.6-2.06.47-3.43-.46-6.84-1-10.29-1.57l-2.94 6-.01-5.28z" style="fill:#e2e2de"/><path class="st7" d="M175 304.15v-44.06h-56.17c8.15-2.6 16.25-5.39 24.46-7.76 13.8-4 27.67-7.73 41.52-11.53 1.28-.26 2.58-.43 3.89-.5v57.83c0 2-.18 4-.28 5.95l-13.42.07z"/><path class="st22" d="M282.89 347.47a11.55 11.55 0 0 1-11-9.79c-1.12-7.38 1.57-13.73 6.32-19.12 1-1.14 3.72-1.44 5.47-1.13 5.66 1 9.89 6.32 11 13.19 1 6-2.16 13.38-7 15.93-1.39.72-3.18.64-4.79.92zm9.45-12.47c-.59-3.23-.82-5.54-1.45-7.72-1.23-4.26-4.44-6.46-8.44-7.11-4.73-.78-5 3.26-6.22 5.65-2.39 4.78-3.59 9.88-.63 15.12s10.13 6.17 13.51 1.31c1.6-2.36 2.34-5.25 3.23-7.25zM148.79 338.2l-2.66-.17v-16.68c0-.52-.57-1-.85-1.56-1.16-2.18-.12-3.48 1.86-4.17 1.55-.54 3.2-.8 5.15-1.27.15.92.74 2.28.37 2.63-2 1.9 1.23 5.48-2.27 6.74l2 4.95-4.33 1.5 4.62 4.82-3.82 3.23-.07-.02z"/><path class="st22" d="M148.77 338.22c3.17.64 4.41 2.33 3.73 5.69-.43 2.12-.08 4.4-.08 7l-2.53-1.15-2.64 2.85c-.89-1.83-2.49-3.71-2.06-4.51 1.37-2.55.47-4.58-.34-6.83-.17-.47.27-1.15.58-2.3l3.5 3.82.71-.25c-.28-1.46-.57-2.92-.85-4.38l-.02.06zm.53 8.37c-.17-.25-.28-.58-.51-.71s-.48.06-.73.11l.58 1 .66-.4z"/><path class="st23" d="M156.11 349.61v-33.37c1.69 2.36 1.69 2.36 1.68 10.49 0 3.82.15 7.64-.06 11.45-.18 3.46 1.02 7.14-1.62 11.43z"/><path class="st24" d="m120.74 245.69-1.87-3.42-1 .33c.25 1.47.51 3 .89 5.1l-18.88 5.51c-2.59-3.78-2.71-5.14-.67-6.92 2.46-2.15 5.66-2 8.32.51-.25-5.07 3.85-5.58 7-6.21 2.38-.48 4.66-1.34 6.76-2.55 5.44-3 6.67-2.55 9.42 3.91l-9.97 3.74zM265.45 207.9c-2.91-5.29-2.9-9.77 1.89-13.41 6.19 1.73 9.46 5.51 8.33 9.53-1.06 3.74-5.4 5.4-10.22 3.88zm8.75-6-5.13-4.9c-3.52 3.1-4.15 6.15-2.15 8.4 1.65 1.81 3.3 1.14 7.28-3.53v.03z"/><path class="st2" d="M224.26 96.47c3.75 3.69 3.65 6.27-.11 9.34-3.38-3.93-3.39-5.47.11-9.34z"/><path class="st25" d="M493.65 137.35c-3-6.08-6-11.92-8.65-17.94-2.37-5.41-4.2-11-6.38-16.54-1.69-4.27-3.64-8.44-5.32-12.72-1.34-3.37-.76-4.48 2.41-5.82 12.65-5.35 25.28-10.74 37.95-16 2.73-1.14 5.58-2 8.75-3.17 2.15 4.57 4.28 9 6.28 13.43 1 2.22 1.77 4.55 2.68 6.81 3.1 7.64 6.21 15.28 9.33 22.91.54 1.55 1.25 3.04 2.13 4.43 1.64 2.32.87 3.69-1.41 4.66-7.87 3.33-15.75 6.67-23.64 10-7.78 3.18-15.64 6.42-24.13 9.95z"/><path class="st25" d="M497.5 70.21c-3.16 1.57-6.44 3.4-9.87 4.87-6 2.57-12.14 4.81-18.13 7.4-2.4 1-1.82 3.07-1 5.11 2.24 5.84 4.33 11.74 6.6 17.94-5.56 5.24-12.77 6-19.83 9.25-2.06-5.4-3.92-10.38-5.86-15.34-2.2-5.64-4.53-11.23-6.69-16.88-1.69-4.46-3.41-8.92-4.74-13.49-1-3.46-.06-4.6 3.56-6.24 9.44-4.31 18.84-8.7 28.29-13 4.6-2.09 9.28-4 13.9-6.07 1.9-.86 3.32-.53 3.94 1.48 2.53 8.15 6.19 15.81 9.85 23.48.09.28-.02.64-.02 1.49zM416.42 404.41c-2.82.59-5.62 1.33-8.47 1.75-11.72 1.75-23.46 3.36-35.19 5.1-2.44.34-4.86.88-7.21 1.62-2.51.81-4-.08-4.51-2.37-.91-4.51-1.55-9.09-2.25-13.64-1.16-7.48-2.22-15-3.45-22.45-.67-4.05-1.63-8.05-2.4-12.09-.45-2.33.25-3.72 2.91-4.15 9.26-1.49 18.47-3.24 27.71-4.76 7-1.16 14-2.17 21-3.15 2.51-.36 3.85.52 4.29 3.43 1.77 11.54 3.94 23 5.77 34.55.82 5.18 1.18 10.43 1.8 16.16z"/><path class="st25" d="M411.21 346.22c-3.61.4-7.15.82-10.7 1.17-3.11.31-6.22.72-9.34.78-3.64.06-4.87-1.29-5.39-5-.55-3.89-1.19-7.78-1.82-11.66-.33-2-.18-3.7 2.2-4.26 2.87-.69 5.72-1.59 8.64-2 10.25-1.39 20.52-2.67 30.81-3.84 2.95-.33 6-.14 9-.19 2.21 0 2.8 1.66 3.09 3.26 2.09 11.3 4.08 22.63 6.11 33.94 1 5.31 2 10.61 3 16.13L417 379.31c-1.89-10.94-3.76-21.58-5.79-33.09zM22 454.16c11.12 1.3 19.59-3.65 28.07-10.13.71 2.71 1.25 5.46 1.62 8.24 1.12 15.29 8.8 26.28 21.82 33.89.47.33.92.68 1.34 1.06-1.18 3.7-4.11 6-7.07 7.88-5.29 3.4-10.78 6.46-16.45 9.17-4.41 2.07-9.06 3.43-14.28 2.27a9.779 9.779 0 0 1-7.42-5.84c-2.14-4.8-3.95-9.74-5.43-14.78-2.87-10.13-2.74-20.54-2.2-31.76zM669.6 16.7c-1.2 4.18-2.07 7.88-3.36 11.44a4.537 4.537 0 0 0 1.66 5.68c2.46 1.94 5.11 3.66 7.42 5.76 1.07 1 2.43 2.91 2.13 4-2.79 9.61-5.92 19.12-9.05 29l-53-17c1.19-3.88 2.24-7.64 3.5-11.32 4.1-12 8.24-24.02 12.42-36.05 1.53-4.42 1.61-4.27 5.91-2.76 9.81 3.44 19.7 6.64 29.55 10 .96.36 1.9.78 2.82 1.25zM321.34 579.47c1.56-4.86 3-9.4 4.48-13.9 3.7-10.93 7.46-21.84 11.18-32.76 1.75-5.12 1.67-4.93 6.88-3.1 9.49 3.33 19.1 6.31 28.6 9.6 6 2.1 12 4.48 18.5 6.92l-16.74 50.24-52.9-17zM412.28 220.77h-38.75v-20.56h-12c-5.22-.07-5.71-.57-5.72-5.74v-28.32c6-1.78 52.11-1.12 56.5.69l-.03 53.93z"/><path class="st24" d="M119.78 444.38v-21.19c0-4.27 1.29-5.78 5.44-5.94 10.74-.43 21.49-.71 32.24-1 .82 0 1.64.11 3.35.23l1.29 29c-10.75-3.95-20.89-1.79-30.88-2.18-3.85-.14-7.76.7-11.44 1.08z"/><path class="st23" d="M223.69 434.5c4.44-.49 6.15 5.07 10.69 3.22v-6.26l-30.25 1.1v1h5.22l.33 1.05-5.56 2.31c-.2.8-.43 1.74-.92 3.7-1.09-4.32-3.88-4.73-7-4.57-.13-5.06 4.3-.26 5.36-3.28-9.72-2.6-19.72.67-29.35-1v-1.33c7.94-.4 15.88-1.09 23.83-1.12 8.16 0 16.35 1.17 24.47.71s16-1.82 23.82.64l.12 1.09-6.84.71c-.79 2.59-1 5.6-2.52 7.63-2.18 2.91-4.74-1-7.82-.2-.21.32-.75 1.19-1.77 2.82-.67-3.07-1.18-5.36-1.81-8.22z"/><path class="st22" d="M157.94 391.1v-7.28c3.93-1.52 8-3.21 12.18-4.67 8.42-3 16.84-6.28 26-4.91 9.42 1.4 18.81 3.06 28.36 4.64v10.95l-20.95 5.39c-.5.05-.98.17-1.45.35-6.94 4.43-13.9 3-21.24.78s-15.02-3.49-22.9-5.25zM192 376.3c-.54.19-1.16.44-1.79.61-8.86 2.5-17.73 4.95-26.58 7.51-1.28.3-2.07 1.59-1.77 2.86.14.59.5 1.11 1.02 1.45.94.67 2.02 1.14 3.16 1.37 5.77 1.34 11.63 2.34 17.34 3.91a26.704 26.704 0 0 0 17.66-.82c4.86-1.92 10.15-2.73 15.25-4.06 1.44-.37 2.85-.86 4.27-1.3 2-.61 2.36-2.05 2.17-3.9s-1.14-2.58-2.91-2.74c-1.3-.12-2.55-.59-3.85-.82-7.97-1.37-15.89-2.7-23.97-4.07z"/><path class="st24" d="M271.68 249.32c-3.12 5.75-1.94 11.2-1.48 16.5.32 3.62.66 3.57-3.05 3.67-7.94.23-15.89.79-23.82.66-15.25-.27-30.49-.92-46.49-1.44 0-5.86-.1-11.94.12-18 0-.85 1.57-1.81 2.6-2.39.64-.36 1.63-.1 2.46-.1h63.92c1.94.2 3.86.56 5.74 1.1z"/><path class="st22" d="M225.14 293.88c-1-10.67-1-10.67 9-10.67h1c2.58.24 6.41-.45 7.46.95 1.65 2.19 1.58 5.77 1.91 8.81.18 1.63-1 1.91-2.64 1.83-4.06-.2-8.14.06-12.21-.06a25.75 25.75 0 0 1-4.52-.86zM246.78 295.52c0-3.38.14-5.7 0-8-.22-2.8 1.27-3.95 3.7-4.25 1.49-.11 2.99-.13 4.48-.06 7.33 0 7.28 0 7.91 7.07.12 1.36.85 2.67 1.52 4.66-5.57 1.52-11.29-.61-17.61.58zM137.47 280.77v5.31l2.94-6c3.45.54 6.86 1.11 10.29 1.57.72.13 1.47-.04 2.06-.47 2-2.31 3.29.89 4.73.49 3-.82 2 1.78 2.34 2.55 1.06-1.64 2-3.29 3.2-4.78.14-.18 2 .5 2 .82-.01 1.88-.13 3.76-.37 5.62l1.62.92c-.33.41-.62 1.05-.91 1.05-1.28.11-2.56.02-3.81-.26-3.96-.98-8-1.63-12.07-1.94-3.19-.39-7.39-1.49-10.73 1.05-.52.42-1.19.59-1.85.47-3-1.58-6.4-.61-9.16-1.46s-5-.3-7.39-.54c-1.53-.24-2.99-.81-4.29-1.66-.23-.13.15-1.89.66-2.59a3.332 3.332 0 0 1 4.75-1.15c.64.35 1.74-.29 2.61-.22 4.37.33 8.73.78 13.38 1.22z"/><path class="st3" d="M292.34 335c-.89 2.05-1.63 4.94-3.23 7.25-3.38 4.86-10.54 3.94-13.51-1.31s-1.76-10.34.63-15.12c1.19-2.39 1.49-6.43 6.22-5.65 4 .65 7.21 2.85 8.44 7.11.63 2.13.86 4.44 1.45 7.72zM149.3 346.59l-.66.38-.58-1c.25-.05.57-.21.73-.11s.34.48.51.73z"/><path class="st26" d="M274.2 201.87c-4 4.67-5.63 5.34-7.28 3.49-2-2.25-1.37-5.3 2.15-8.4l5.13 4.91zM192 376.3c8.07 1.37 16 2.71 24 4.07 1.3.23 2.55.7 3.85.82 1.77.16 2.72.94 2.91 2.74s-.21 3.29-2.17 3.9c-1.42.44-2.83.93-4.27 1.3-5.1 1.33-10.39 2.14-15.25 4.06a26.704 26.704 0 0 1-17.66.82c-5.71-1.57-11.57-2.57-17.34-3.91-1.14-.23-2.22-.7-3.16-1.37a2.386 2.386 0 0 1-.7-3.29c.33-.51.85-.88 1.45-1.02 8.85-2.56 17.72-5 26.58-7.51.61-.17 1.23-.42 1.76-.61zm-2.72 6.35h-6.16c4.86 3-.35 4.34 1.25 7.41l7.16-1.16.67-.93c-4.15-.5-1.71-3.47-2.92-5.32zm14.13-1.38-1.27.5c-.75 2.64-1 5.43 1.79 6.89 2.37 1.26 4.56-.26 6.4-2.59h-4.78l-2.14-4.8zm-22 6.4c1.41-3.24-1.54-4-3.6-6.28-1.27 2.72-2.29 4.88-3.53 7.53l7.13-1.25zm18.39-5.9c-.88 1.92-1.42 3.12-2 4.4l-3.76-3c.59 4.06 2.14 6 4 5.72 2.21-.33 2.96-2.8 1.78-7.12h-.02z"/><path class="st22" d="M189.29 382.65c1.2 1.85-1.24 4.82 2.92 5.32l-.67.93-7.16 1.16c-1.6-3.07 3.61-4.38-1.25-7.41h6.16zM203.42 381.27l2.14 4.8h4.78c-1.84 2.33-4 3.85-6.4 2.59-2.77-1.46-2.54-4.25-1.79-6.89l1.27-.5z"/><path class="st24" d="m181.43 387.67-7.13 1.25c1.24-2.65 2.26-4.81 3.53-7.53 2.06 2.31 5.01 3.04 3.6 6.28z"/><path class="st22" d="M199.82 381.77c1.19 4.32.43 6.79-1.74 7.16-1.88.32-3.43-1.66-4-5.72l3.76 3c.56-1.32 1.1-2.52 1.98-4.44z"/></svg>