<svg version="1.1" id="Layer_1" xmlns="http://www.w3.org/2000/svg" x="0" y="0" viewBox="0 0 459.32 472.75" style="enable-background:new 0 0 459.32 472.75" xml:space="preserve"><style>.st0{fill:#abf47e}.st3{fill:#a0e476}.st6{fill:#eeece8}.st8{fill:#e78765}.st10{fill:#e3fbd4}.st12{fill:#c8ced1}.st19{fill:#113347}.st22{fill:#f2b980}.st23{fill:#133448;stroke:#133448;stroke-miterlimit:10}.st24{fill:#2b495a}.st25{fill:#324e60}.st29{fill:#eca863;stroke:#eca863;stroke-miterlimit:10}.st30{fill:#fefefe}.st39{fill:#132a37}</style><path class="st0" d="m149.68 348.66 1.17 7.98c.2.64.39 1.27.59 1.91.12.86.24 1.72.35 2.58.19.64.39 1.27.58 1.91.31 4.49.63 8.99.94 13.48.24 4.2.47 8.4.71 12.6 0 1.49 0 2.98.01 4.47-2.36.59-4.73 1.19-7.1 1.78-.31-3.7-.83-7.4-.88-11.11-.16-11.67-1.49-23.17-4.73-34.38-.94-3.26-2.83-6.24-4.29-9.34-3.38-6.52-6.15-13.47-10.37-19.4-2.81-3.95-7.91-6.17-11.57-9.62-4.76-4.49-8.86-9.7-13.7-14.09-5.55-5.03-7.52-11.18-7.49-18.33.03-8.37-.01-16.75-.02-25.12 3.34-2.89 2.53-6.9 1.08-9.71-2.88-5.6-6.53-10.89-10.47-15.83-2.56-3.21-4.47-6.31-4.05-10.44.79-7.81 1.84-15.61 2.51-23.43.7-8.19.83-16.23-4.2-23.58-3.18-4.64-6.49-9.61-7.93-14.92-2.49-9.17-2.43-18.79 2.61-27.27 3.96-6.68 4.26-12.78 1.04-19.78-4.54-9.89-2.78-20.89 4.66-27.02 6.77-5.58 15.3-7.17 23.6-4.9 5.72 1.57 9.22 6.86 9.88 12.93 1.4 12.77 6 24.09 13.51 34.47 5.97 8.24 8.02 17.93 8.03 27.92.01 6.35 1.5 11.34 5.59 16.73 6.65 8.75 11.17 19.28 12.32 30.31 1.11 10.59.01 21.39.36 32.08.09 2.85 1.27 6.23 3.11 8.36 7.18 8.33 9.49 18.44 10.96 28.74.86 6.02.91 12.36.02 18.37-.77 5.18-3.06 10.25-5.31 15.08-2.33 4.99-5.72 9.48-8.08 14.46-1.4 2.96-1.73 6.43-2.54 9.67-.19 1.23-.39 2.47-.58 3.7-.1 5.36-.19 10.71-.29 16.07-.02.89-.02 1.78-.03 2.67zm-14.18-25.69c.59-.28 1.19-.56 1.78-.84-.67-4.19-1.79-8.36-1.93-12.57-.36-10.6.26-21.25-.55-31.81-.59-7.61-1.74-15.55-4.61-22.53-7.13-17.33-11.75-34.89-11.32-53.81.14-6.26-1.01-13.01-3.42-18.76-5.38-12.83-10.66-25.54-11.15-39.73-.63 3.05-1.82 6.25-1.23 9.08 1.8 8.68 3.4 17.57 6.72 25.71 3.69 9.05 5.7 18.09 5.64 27.74-.03 5.39-1.02 11.04.26 16.11 2.93 11.64 6.97 23 10.58 34.47 1.16 3.7 3.12 7.32 3.41 11.08.73 9.34.48 18.75 1.08 28.11.51 7.95 1.55 15.87 2.58 23.78.18 1.38 1.41 2.64 2.16 3.97zM192.95 362.23c-7.35 9.82-8.13 21.85-11.13 33.13-1.74 0-3.48 0-5.22.01.9-7.74 1.79-15.48 2.69-23.21 2.75-3.63 2.31-7.59.97-11.51-1.49-4.38-3.87-8.56-4.72-13.04-1.46-7.69-3.79-15.83-2.6-23.27 1.95-12.16 8.45-22.84 16.69-32.21 4.35-4.94 6.71-10.61 7.82-17.24 2.3-13.68 6.28-26.61 20.47-33.21 5.09-2.36 6.39-6.86 5.12-12.07-1.51-6.21-.37-12.07 3.04-17.15 4.05-6.03 8.84-11.56 13.32-17.31 6.46-2.09 9.52-6.73 10.95-13.23 2.88-13.13 12.08-21.19 23.53-26.79 6.25-3.06 18.68 1.55 23.01 7.23 6.13 8.05 6.36 16.88 4.59 26.28-1.53 8.13-3.55 15.95-9.27 22.31-4.16 4.63-8.14 9.43-12.37 14-2.85 3.08-3.61 6.63-3.74 10.66-.41 13.28-2.58 26.12-11.25 36.84-3.17 3.92-6.34 8.24-10.47 10.89-8.07 5.18-9.88 12.79-11.58 21.35-2.16 10.87-4.67 21.92-9.04 32.03-4.2 9.71-12.51 16.29-23.32 18.96-5.38 1.33-10.66 3.06-15.98 4.61.09-.73.03-1.52.28-2.19 4.02-11 10.06-20.86 16.86-30.33 3.3-4.59 6.92-9.14 9.16-14.24 3.78-8.59 6.77-17.55 9.72-26.47 3.2-9.71 7.23-18.84 13.37-27.18 3.29-4.46 4.91-10.15 7.28-15.28-.43-.2-.86-.39-1.29-.59-1.72 2.89-3.24 5.94-5.2 8.66-6.22 8.58-12.76 16.89-16.09 27.24-3.06 9.52-6.52 18.91-10.06 28.26-1.36 3.59-2.98 7.26-5.27 10.3-7.04 9.33-13.82 18.78-17.25 30.11-1.34 4.45-2.03 9.1-3.02 13.65z"/><path d="M240.44 417.08c-5.05 4.72-9.86 9.73-15.2 14.09-7.34 6-15.66 10.31-25.18 11.8-2.68.42-3.78 1.64-3.78 4.45 0 5.41-2.03 7.67-7.24 8.11-5.63.48-11.27.73-16.92.94-9.23.34-18.46.9-27.68.75-8.9-.14-17.78-1.03-26.67-1.64-3.77-.26-5.68-2.5-6.88-6.01-.54-1.58-2.2-3.43-3.75-3.93-14.75-4.75-26.36-14.16-37.36-24.55-.42-.4-.69-.96-1.04-1.44.31-.61.62-1.21.93-1.82l89.83-.9c.61-.03 1.21-.07 1.82-.1l73.67-.51c1.82.26 3.63.51 5.45.76z" style="fill:#eeeeea"/><path d="M67.9 321.8c-7.08-4.13-9.67-10.99-10.76-18.5-.7-4.84-.32-9.83-1.07-14.66-.77-4.97-3.91-8.74-8.46-10.79-7.2-3.24-13.93-7.11-18.09-14.01-2.62-4.35-5.18-9.01-6.39-13.87-1.84-7.4-5.02-13.65-9.91-19.55-8.2-9.91-13.09-21.3-9.87-34.54 1.14-4.67 3.14-9.4 8.79-10.74.51 2.72.17 6.11 1.69 8.04 4.05 5.13 8.75 9.76 15.35 11.86 11.5 3.66 18.94 11.28 22.01 23.08 1.27 4.89 2.73 9.74 4.09 14.6 3.18 11.34 9.19 21.1 17.96 28.77 4.8 4.2 8.31 8.64 10.23 14.71 2.41 7.64 4.38 15.68 8.33 22.51 6.09 10.53 13.74 20.15 20.63 30.22 2.9 4.23 5.56 8.62 8.33 12.94-2-1.3-4.11-2.45-5.98-3.92-4.19-3.3-9.24-6.09-12.13-10.32-4.66-6.82-7.92-14.6-11.67-22.03-2.47-4.89-4.77-9.86-7.15-14.8-.42.19-.84.38-1.26.56 4.66 11.24 9.32 22.47 14.23 34.31-4.26-2.07-8.21-4.02-12.18-5.93-5.56-2.66-11.15-5.29-16.72-7.94z" style="fill:#acf47f"/><path class="st3" d="M182.74 241.3c-2.04-7.97-4.22-15.91-6.09-23.92-3.28-14.13.99-26.59 8.47-38.48 4.02-6.38 8.2-12.92 10.62-19.97 2.06-6.01 2.05-12.83 2.32-19.31.5-11.92 12.74-21.72 23.96-18.02 7.51 2.48 12.57 8.62 15.41 15.9 2.87 7.35 2.2 15.07 1.32 22.89-.91 8.07-.39 16.3-.47 24.45-.02 1.63.07 3.27.1 4.9-1.09 1.19-2.03 2.57-3.29 3.53-8.82 6.73-14.74 15.63-19.95 25.28-2.48 4.6-6.45 8.39-9.74 12.55-.19-8.87 1.2-17.43 4.52-25.73 1.31-3.27 1.99-6.84 2.56-10.35 2.15-13.16 4.18-26.34 6.13-39.53.32-2.19.05-4.47.05-6.71-.42-.03-.84-.05-1.26-.08-1.33 5.25-2.91 10.44-3.93 15.75-2.54 13.24-4.1 26.7-7.42 39.73-2.49 9.75-4.77 19.32-4.3 29.41-6.34 2.58-12.68 5.15-19.01 7.71z"/><path d="M120.75 351.87c-2.77-4.32-5.43-8.71-8.33-12.94-6.9-10.07-14.55-19.69-20.63-30.22-3.95-6.83-5.92-14.87-8.33-22.51-1.92-6.07-5.42-10.51-10.23-14.71-8.76-7.67-14.78-17.42-17.96-28.77-1.37-4.87-2.82-9.71-4.09-14.6-3.06-11.79-10.51-19.41-22.01-23.08-6.6-2.1-11.29-6.73-15.35-11.86-1.52-1.92-1.18-5.31-1.69-8.04 5.32-2.96 11.2-3.99 16.54-1.31 6.42 3.22 12.21 7.69 18.29 11.6 2.72 1.75 5.31 3.84 8.25 5.11 8.62 3.73 15.63 8.64 18.75 18.25 2.83 8.71 6.72 17.07 10.04 25.63 1.84 4.76 5.21 7.79 9.88 9.57.01 8.38.05 16.75.02 25.13-.02 7.15 1.94 13.3 7.49 18.33 4.84 4.39 8.94 9.6 13.7 14.09 3.66 3.44 8.76 5.67 11.57 9.62 4.22 5.93 6.98 12.88 10.37 19.4-2.54 4.38-5.07 8.75-7.61 13.13-2.88-.62-5.78-1.22-8.67-1.82z" style="fill:#a0e475"/><path d="M182.74 241.3c6.33-2.56 12.67-5.13 19-7.69 1.22-.83 2.43-1.66 3.65-2.49 3.29-4.16 7.25-7.96 9.74-12.55 5.21-9.65 11.13-18.54 19.95-25.28 1.26-.96 2.2-2.34 3.29-3.53.35 1.8.69 3.6 1.04 5.4-4.47 5.75-9.27 11.28-13.32 17.31-3.41 5.08-4.55 10.94-3.04 17.15 1.27 5.21-.04 9.71-5.12 12.07-14.19 6.59-18.17 19.53-20.47 33.21-1.11 6.63-3.47 12.29-7.82 17.24-8.24 9.37-14.74 20.05-16.69 32.21-1.2 7.44 1.13 15.58 2.6 23.27.85 4.48 3.23 8.66 4.72 13.04 1.34 3.92 1.78 7.88-.97 11.51-7.01 6.48-13.78 13.11-15.32 23.19-2.35 0-4.69.01-7.04.01 1.17-5.65 2.35-11.3 3.52-16.95.44-.96.89-1.92 1.33-2.88v-20.47c-.42-.99-.84-1.99-1.26-2.98-.79-3.82-1.34-7.71-2.42-11.45-2.33-8.05-2.29-16.27.13-24.01 1.52-4.85 5.04-9.33 8.5-13.23 3.09-3.49 4.82-6.82 4.52-11.55-1.06-16.66 2.83-32.44 9.02-47.76.33-.81.84-1.54 1.26-2.31.2-.07.39-.14.59-.21.23-.01.44-.09.61-.27z" style="fill:#0d2837"/><path class="st6" d="M156.94 395.36c2.35 0 4.69-.01 7.04-.01 4.21.01 8.42.01 12.63.02 1.74 0 3.48 0 5.22-.01h67.66c.4.57.79 1.15 1.19 1.72-.74 1.84-1.47 3.67-2.21 5.51-4.44-.26-8.89-.72-13.33-.72-7.48 0-14.95.48-22.43.45-33.07-.13-66.14-.43-99.21-.54-8.07-.03-16.13.44-24.2.6-5.21.11-10.43-.11-15.63.18-4.13.22-8.22.98-12.33 1.51-.01.57-.02 1.14-.02 1.71 3.1.34 6.2 1.03 9.29.96 14.04-.33 28.08-1.13 42.12-1.27 12.25-.12 24.51.59 36.77.62 26.65.08 53.3.04 79.95-.11 6.26-.04 12.51-.7 18.76-1.08-1.77 2.84-3.54 5.67-5.3 8.51-2.03-.31-4.07-.91-6.11-.89-25.39.23-50.78.56-76.18.83-11.97.12-23.94.08-35.9.23-9.26.12-18.53.6-27.79.59-8.19-.02-16.37-.7-24.56-.65-2.11.01-4.21 1.67-6.32 2.57-4.44-4.6-8.06-9.67-8.96-16.21-.48-3.45 1.55-4.5 4.54-4.45 16.66.27 33.32.68 49.99.77 6.82.04 13.64-.59 20.46-.92 1.94.04 3.88.07 5.81.11h9.05c2.37-.6 4.73-1.19 7.1-1.78.96.57 1.93 1.16 2.9 1.75z"/><path d="M137.89 395.38c-1.94-.04-3.88-.07-5.81-.11-2.75-6.51-5.09-13.24-8.4-19.45-2.49-4.68-8.08-3.91-12.49-4.65-9.04-1.5-17.34-4.53-23.07-11.9-3.14-4.03-6.08-8.73-7.33-13.59-1.71-6.62-4.78-12.05-9.06-17.14-1.63-1.95-2.57-4.48-3.83-6.74 5.58 2.65 11.16 5.28 16.73 7.95 3.97 1.9 7.92 3.85 12.18 5.93-4.91-11.83-9.57-23.07-14.23-34.31.42-.19.84-.38 1.26-.56 2.38 4.94 4.68 9.91 7.15 14.8 3.75 7.43 7.01 15.21 11.67 22.03 2.89 4.23 7.95 7.01 12.13 10.32 1.86 1.47 3.98 2.62 5.98 3.92l8.67 1.8c.12.42.46.93.33 1.25-3.23 8.21-1.77 15.51 2.68 23.16 2.95 5.09 3.7 11.48 5.44 17.29z" style="fill:#102b39"/><path class="st8" d="M248.21 404.89c-6.25.38-12.5 1.05-18.76 1.08-26.65.15-53.3.19-79.95.11-12.26-.04-24.52-.74-36.77-.62-14.04.14-28.08.94-42.12 1.27-3.09.07-6.2-.62-9.29-.96.01-.57.02-1.14.02-1.71 4.11-.52 8.2-1.28 12.33-1.51 5.2-.28 10.42-.07 15.63-.18 8.07-.17 16.13-.63 24.2-.6 33.07.12 66.14.41 99.21.54 7.48.03 14.95-.44 22.43-.45 4.44 0 8.88.46 13.33.72-.09.78-.18 1.54-.26 2.31zM66.05 416.07c2.11-.9 4.21-2.56 6.32-2.57 8.18-.05 16.37.63 24.56.65 9.26.02 18.53-.47 27.79-.59 11.97-.15 23.93-.1 35.9-.23 25.39-.26 50.78-.6 76.18-.83 2.03-.02 4.07.58 6.11.89-.28.84-.55 1.68-.82 2.52-2.36.14-4.73.27-7.09.41l-73.67.51c-.61.03-1.21.07-1.82.1l-89.83.9c-.89-.34-1.78-.67-2.67-1.01-.32-.24-.64-.5-.96-.75z"/><path d="M192.95 362.23c.99-4.55 1.68-9.19 3.03-13.64 3.43-11.33 10.21-20.78 17.25-30.11 2.29-3.04 3.91-6.7 5.27-10.3 3.54-9.35 6.99-18.75 10.06-28.26 3.33-10.34 9.87-18.66 16.09-27.24 1.97-2.72 3.48-5.76 5.2-8.66.43.2.86.39 1.29.59-2.37 5.13-4 10.82-7.28 15.28-6.14 8.34-10.16 17.47-13.37 27.18-2.95 8.93-5.95 17.88-9.72 26.47-2.24 5.11-5.86 9.66-9.16 14.24-6.81 9.46-12.84 19.33-16.86 30.33-.25.67-.19 1.46-.28 2.19l.05-.02c-.24.4-.48.81-.72 1.21-.29.26-.57.5-.85.74z" style="fill:#16343a"/><path class="st6" d="M154.03 389.12c-.24-4.2-.47-8.4-.71-12.6 3.24 4.03 1.77 8.32.71 12.6z"/><path class="st10" d="M149.98 329.91c.19-1.23.39-2.47.58-3.7-.19 1.24-.38 2.47-.58 3.7z"/><path d="M234.99 416.33c2.36-.14 4.73-.27 7.09-.41-.55.39-1.1.77-1.64 1.16l-5.45-.75z" style="fill:#ecd0c4"/><path class="st10" d="M149.68 348.66c0-.89.01-1.78.01-2.67 0 .89 0 1.78-.01 2.67z"/><path class="st12" d="M160.52 352.08c.42.99.84 1.99 1.26 2.98-.42-1-.84-1.99-1.26-2.98z"/><path class="st6" d="M67.01 416.83c.89.34 1.78.67 2.67 1.01-.31.61-.62 1.21-.93 1.82-.59-.94-1.16-1.88-1.74-2.83z"/><path class="st12" d="M161.79 375.53c-.44.96-.89 1.92-1.33 2.88.44-.96.89-1.92 1.33-2.88z"/><path class="st10" d="M151.45 358.55c-.2-.64-.4-1.27-.59-1.91.2.63.39 1.27.59 1.91zM152.38 363.03c-.19-.64-.39-1.27-.58-1.91.2.64.39 1.28.58 1.91z"/><path class="st3" d="M182.12 241.55z"/><path class="st0" d="M193.79 361.51c.24-.4.48-.81.72-1.21-.24.4-.48.81-.72 1.21z"/><path d="M135.5 322.97c-.75-1.32-1.98-2.59-2.17-3.98-1.02-7.91-2.07-15.83-2.58-23.78-.6-9.36-.35-18.77-1.08-28.11-.3-3.76-2.25-7.38-3.41-11.08-3.61-11.47-7.65-22.83-10.58-34.47-1.28-5.07-.29-10.72-.26-16.11.06-9.65-1.95-18.69-5.64-27.74-3.32-8.14-4.93-17.03-6.72-25.71-.59-2.83.6-6.02 1.23-9.08.49 14.19 5.78 26.9 11.15 39.73 2.41 5.75 3.56 12.51 3.42 18.76-.43 18.92 4.19 36.48 11.32 53.81 2.87 6.98 4.02 14.92 4.61 22.53.82 10.55.2 21.21.55 31.81.14 4.21 1.26 8.38 1.93 12.57-.58.29-1.17.57-1.77.85z" style="fill:#122f38"/><path d="M137.89 395.38c-1.74-5.81-2.49-12.2-5.45-17.3-4.44-7.64-5.91-14.94-2.68-23.16.13-.32-.21-.83-.33-1.25 2.54-4.37 5.07-8.75 7.61-13.13 1.46 3.11 3.35 6.09 4.29 9.34 3.25 11.21 4.57 22.71 4.73 34.38.05 3.71.58 7.41.88 11.11-3.01 0-6.03.01-9.05.01z" style="fill:#fafcfa"/><path d="M176.6 395.37c-4.21-.01-8.42-.01-12.63-.02 1.54-10.09 8.31-16.72 15.32-23.19-.89 7.73-1.79 15.47-2.69 23.21z" style="fill:#f8f9f8"/><path d="M159.5 416.94c.61-.03 1.21-.07 1.82-.1-.61.03-1.21.07-1.82.1z" style="fill:#eccfc2"/><path d="M205.39 231.12c-1.22.83-2.43 1.66-3.65 2.49-.47-10.09 1.81-19.66 4.3-29.41 3.32-13.02 4.89-26.49 7.42-39.73 1.02-5.31 2.6-10.5 3.93-15.75.42.03.84.05 1.26.08 0 2.24.28 4.52-.05 6.71a2637.56 2637.56 0 0 1-6.13 39.53c-.57 3.5-1.26 7.08-2.56 10.35-3.32 8.29-4.7 16.85-4.52 25.73z" style="fill:#aaf47d"/><path d="M316.33 144.42c.64 9.99 5.54 17.34 14.52 21.45 11.01 5.05 22.19 9.75 33.47 14.15 11.19 4.36 18.37 12.08 21.96 23.45 3.55 11.23 6.19 22.6 7.1 34.4.53 6.91 2.01 13.74 3.04 20.61 1.28 8.5 2.79 16.98 3.75 25.51 1.26 11.18 2.06 22.4 3.1 33.6.29 3.11.96 6.2 1.03 9.31.32 13.37-1.72 26.43-5.61 39.21-.29.95-.39 1.95-.58 2.93-4.96 1.06-9.91 2.12-14.87 3.19-.02-20.42.06-40.84-.09-61.25-.09-11.9-.64-23.8-.81-35.7-.04-3.04-1.22-4.16-4.15-4.1-3.98.07-7.96-.07-11.95-.12-.23-2.12-.4-4.25-.72-6.36-.71-4.71-1.67-9.39-2.22-14.12-.55-4.75-.67-9.54-1.05-14.31-.17-2.19.08-4.8-4.28-4.86.45 4.28 1.04 8.3 1.25 12.34.46 9.09.73 18.2 1.07 27.3-13.47.05-26.93.06-40.4.16-28.89.22-57.78.5-86.67.75.01-11.3.04-22.6.03-33.91 0-1.85.52-4.09-3.19-4.68-.6 13.06-1.18 25.88-1.77 38.7-1.15.14-2.33.17-3.45.43-6.6 1.52-6.69 1.54-6.57 8.31.23 12.93.76 25.86.87 38.8.16 17.96.05 35.92.05 53.87-1.75-.26-3.49-.51-5.24-.77-3.15-5.09-6.57-10.03-9.35-15.32-1.9-3.62-3.81-7.65-4.11-11.62-.84-11.41-1.27-22.88-1.1-34.32.18-11.59 1.21-23.17 1.98-34.75.91-13.57 1.55-27.17 3.05-40.68 1.2-10.81 1.96-21.77 5.83-32.15 2.79-7.48 7.35-13.3 14.63-16.84 8.37-4.06 16.87-7.88 25.04-12.31 9.67-5.25 17.34-12.29 18.42-24.27.11-1.2 1.48-2.29 2.26-3.43l.09.08c2.44.37 4.88.98 7.33 1.05 6.15.16 12.32.28 18.46 0 5.48-.24 10.65-1.81 15.08-5.27 1.59.5 3.18 1.02 4.77 1.54z" style="fill:#e78662"/><path class="st19" d="m316.33 144.42-4.77-1.56-.51-2.68-.72-13.95-.04.03c.41-.32.81-.64 1.22-.95 4.61-2.96 9.55-5.51 13.77-8.95 8.31-6.78 13.41-15.77 13.88-26.52.39-8.93-.31-17.94-1.03-26.87-.52-6.5-2.38-12.78-5.31-19-2.1 1.81-3.91 3.26-5.59 4.84-6 5.67-12.77 10.09-20.63 12.73-5.34 1.79-10.7 3.53-16.08 5.18-1.89.58-3.43 1.02-4.64 3.07-1.98 3.36-11.64 6.02-14.45 3.87-2.2-1.68-4.28-1.59-6.51-1.45-4.76.3-9.51.84-14.87 1.33v8.16c-1.56-.94-2.13-2.04-2.81-3.07-1.3-1.97-3.08-3.1-5.51-2.43-2.59.72-3.76 2.55-3.48 5.24.32 3.12.42 6.3 1.06 9.35 1.19 5.7 3.36 10.87 9.68 12.67 7.36 2.09 12.33 6.97 15.67 13.56 1.62 3.19 2.73 6.68 3.78 10.12 1.98 6.49 2.56 13.18 2.24 19.95l-.09-.08c-10.14-1.63-20.31-3.04-30.39-4.95-7.8-1.48-15.39-3.87-22-8.54-4.4-3.11-8.95-6.08-12.95-9.66-4.66-4.17-8.8-8.93-13.28-13.56.85-1.61 1.62-3.05 2.39-4.49 3.15-.51 2.99-3.68 4.45-5.55.67-.69 1.35-1.37 2.02-2.06 3.36-1.5-.19-3.46.35-5.15.67-.96 1.33-1.93 2-2.89 2.02-.06 4.62.66 4.07-2.96l.03-.03c.35-.64.69-1.29 1.04-1.93l.49-.58-.58.49c-.32.04-.64.06-.96.05l-.29-.29c2.75-5.04 5.87-9.92 8.16-15.16 2.76-6.32 4.65-13.02 7.23-19.43 3.63-9.02 6.33-18.65 12.67-26.22 9.47-11.29 21.87-17.99 36.3-20.99 8.8-1.83 17.68-2.52 26.62-1.89 6.65.47 12.58 3.34 18.32 6.54 1.86 1.04 3.54 2.37 5.37 3.46 9.02 5.37 16.25 12.48 21.57 21.58 9.38 16.07 15.61 33.43 21.25 51.04-2.2 3.09.35 5.64 1.13 8.33.16.53 1.94.59 2.98.87.6 1.14 1.19 2.27 1.79 3.41-.5 1.09-1.71 2.51-1.39 3.23 1.87 4.13 4.11 8.1 6.22 12.12 5.76 8.65 5.79 8.71-3.05 14.04-5.36 3.23-10.76 6.42-16.31 9.31-7.47 3.89-15.89 4.87-23.92 6.96-5.05 1.32-10.38 1.58-15.59 2.31zM203.69 91.95c.38.29.73.57 1.09.81.01.01.3-.29.28-.34-.19-.36-.43-.68-.65-1.02-.21.16-.41.32-.72.55z"/><path d="M383.25 372.22c4.96-1.06 9.91-2.12 14.87-3.19 7.75-.62 15.54-.94 23.25-1.95 6.63-.86 13.15-1.38 19.73.06 3.17.69 5.83 1.99 8.12 4.44 9 9.65 10.77 20.9 7.73 33.29-2.29 9.32-8.45 15.53-17.06 18.74-9.45 3.52-19.31 5.98-29.02 8.79-1.88.55-3.91.6-5.87.88-10.97 2.32-22 4.4-32.9 7.03-11.02 2.65-21.92 5.83-32.87 8.78-19.54 3.59-39.08 7.2-58.63 10.73-4.06.73-8.17 1.16-12.25 1.73-2.9.41-4.72-.85-5.58-3.6-.84-2.68-1.69-5.36-2.54-8.04-1.18-5.61-2.28-11.25-3.55-16.84-1.42-6.25-2.98-12.46-4.48-18.69.02-.66.13-1.33.06-1.98-.4-3.36.65-5.15 4.41-5.56 3.2-.34 6.31-1.62 9.42-2.6 8.42-2.65 16.84-5.33 25.23-8.09 1.77-.58 3.41-1.59 5.11-2.4 1.31.07 2.69.45 3.91.15 5.1-1.26 10.15-2.72 15.21-4.11 5.49-1.51 10.99-3.01 16.48-4.52l8.37-2.91c2.11-.31 4.26-.44 6.32-.95 9.11-2.25 18.2-4.59 27.28-6.92 2.51-.64 4.99-1.38 7.48-2.08.59-.05 1.18-.12 1.77-.19z" style="fill:#67c5a5;stroke:#67c5a5;stroke-miterlimit:10"/><path d="M296.43 393.77c-1.7.81-3.34 1.81-5.11 2.4-8.39 2.77-16.8 5.44-25.23 8.09-3.11.98-6.22 2.25-9.42 2.6-3.76.4-4.82 2.19-4.41 5.56.08.65-.03 1.32-.06 1.98-12.11 3.16-24.2 6.37-36.33 9.46-7.82 1.99-15.69 3.8-23.54 5.69-11.71-3.4-22.83-8.1-32.79-15.23-10.37-7.44-14.27-17.31-11.51-29.97 2.39-10.98 7.85-16.11 18.57-18.33 10.23-2.12 19.72.51 29.39 2.76 5.97 1.39 11.97 2.62 17.96 3.92 1.75.26 3.49.51 5.24.77 1.03.23 2.06.47 3.09.7.28.07.55.13.84.16.38.26.77.52 1.15.78 1.46.24 2.94.39 4.38.73 9.15 2.17 18.29 4.37 27.43 6.57 2.54.64 5.08 1.28 7.62 1.91l32.73 9.45z" style="fill:#59b896"/><path class="st22" d="M192.33 429.54c7.85-1.89 15.72-3.7 23.54-5.69 12.13-3.09 24.22-6.3 36.33-9.46 1.5 6.23 3.07 12.44 4.48 18.69 1.27 5.59 2.37 11.22 3.55 16.84-18.61 2.68-37.23 5.38-55.85 8.03-5.72.81-11.45 1.47-17.18 2.21-1.8-.17-3.69-.79-5.39-.44-5.07 1.04-9.86.65-14.44-1.76-4.45-2.34-6.13-6.79-3.92-11.26 1.23-2.48 2.78-4.99 4.78-6.84 2.76-2.55 6.08-4.49 9.16-6.68 4.98-1.21 9.96-2.43 14.94-3.64zM339.23 449.1c10.95-2.95 21.85-6.13 32.87-8.78 10.9-2.62 21.93-4.71 32.9-7.03 1.22.63 2.41 1.35 3.68 1.87 1.14.47 2.36.73 3.55 1.09 2.22 1.37 4.47 2.68 6.65 4.11 4.14 2.72 8.63 5.08 12.24 8.39 4.18 3.84 3.22 9.77-1.7 12.48-5.86 3.22-12.03 5.13-18.94 3.14-2.97-.86-6.22-.76-9.34-1.09-9.94-2.89-19.78-6.21-29.85-8.54-8.95-2.07-18.16-3.04-27.25-4.54-1.62-.27-3.21-.73-4.81-1.1z"/><path class="st23" d="M177.4 433.18c-3.08 2.2-6.4 4.14-9.16 6.68-2 1.85-3.55 4.36-4.78 6.84-2.22 4.47-.53 8.92 3.92 11.26 4.59 2.41 9.38 2.8 14.44 1.76 1.69-.35 3.58.27 5.39.44-2.83 2.29-5.67 4.57-8.5 6.86-4.82 3.9-10.51 5.52-16.33 4.01-4.81-1.25-9.69-3.41-13.69-6.33-4.27-3.11-5.39-8.53-4.12-13.52 1.08-4.23 3.3-8.28 5.61-12.05 1.09-1.77 3.41-3.43 5.45-3.85 6.52-1.35 13.16-2.13 19.77-3.02.61-.08 1.33.59 2 .92zM401.14 463.28c3.12.33 6.37.23 9.34 1.09 6.91 1.99 13.08.08 18.94-3.14 4.92-2.71 5.88-8.64 1.7-12.48-3.61-3.31-8.1-5.67-12.24-8.39-2.18-1.43-4.43-2.74-6.65-4.11 7.42 1.79 15.05 2.4 22.31 5.35 3.49 1.42 7.15 2.32 9.98 4.88 2.15 1.94 4.41 4.02 5.76 6.51 4.34 8.05-.98 18.36-10.11 19.17-13.56 1.21-26.45-1.63-38.47-8.12-.26-.13-.38-.5-.56-.76z"/><path class="st24" d="M375.2 111.81c-2.11-4.02-4.35-7.99-6.22-12.12-.33-.72.89-2.14 1.39-3.23 4.47 6.69 8.95 13.38 13.81 20.66-3.1-.04-3.45-2.42-4.7-3.61-1.21-1.16-1.91-3.49-4.28-1.7z"/><path class="st25" d="M201.2 93.05c-.53 1.69 3.01 3.65-.35 5.15-2.34-.95-2.34.39-2.02 2.06-1.46 1.87-1.3 5.03-4.45 5.55l-4.53-.86c3.71-3.9 7.53-7.9 11.35-11.9z"/><path class="st24" d="M368.58 93.05c-1.03-.28-2.82-.34-2.98-.87-.78-2.69-3.34-5.23-1.13-8.33 1.37 3.07 2.74 6.14 4.11 9.2z"/><path class="st25" d="M207.26 87.21c.55 3.61-2.04 2.89-4.07 2.96 1-1.37 2-2.74 2.99-4.11.36.37.72.76 1.08 1.15z"/><path class="st19" d="M207.26 87.21c-.36-.39-.72-.77-1.07-1.16.27-.38.54-.76.8-1.14l.29.29c0 .66.01 1.32.01 1.97l-.03.04z"/><path d="M270.69 147.09c.32-6.77-.26-13.46-2.24-19.95-1.05-3.44-2.16-6.93-3.78-10.12-3.34-6.58-8.31-11.47-15.67-13.56-6.33-1.8-8.5-6.97-9.68-12.67-.64-3.06-.74-6.23-1.06-9.35-.28-2.69.89-4.51 3.48-5.24 2.42-.68 4.2.45 5.51 2.43.68 1.03 1.25 2.13 2.81 3.07v-8.16c5.36-.5 10.11-1.03 14.87-1.33 2.23-.14 4.31-.23 6.51 1.45 2.81 2.14 12.47-.51 14.45-3.87 1.21-2.05 2.75-2.49 4.64-3.07 5.38-1.66 10.74-3.39 16.08-5.18 7.86-2.64 14.63-7.06 20.63-12.73 1.68-1.59 3.49-3.03 5.59-4.84 2.93 6.22 4.79 12.5 5.31 19 .72 8.93 1.42 17.94 1.03 26.87-.47 10.75-5.57 19.74-13.88 26.52-4.22 3.44-9.16 6-13.77 8.95-.41.32-.81.64-1.22.95l.04-.03c-8.13.55-16.25 1.09-25.24 1.69 1.9 1.24 3.16 2.23 4.56 2.95 4.4 2.26 8.8 4.55 13.31 6.58 2.58 1.16 5.39 1.83 8.09 2.73l.51 2.68c-4.43 3.46-9.61 5.03-15.08 5.27-6.14.27-12.31.15-18.46 0-2.46-.06-4.9-.67-7.34-1.04zm46.54-54.85c-6.03 5.61-12.93 4.77-19.45 6.34 9.45 4.78 16.1 3.32 19.45-6.34zm17.74-28.25c-3.96-3.83-7.56-5.33-11.98-4.84-3.44.38-3.73.71-3.05 4.84h15.03zm-52.13 40.99c3.86 6.1 9.32 8.62 12.83 6.72-3.91-2.04-7.92-4.14-12.83-6.72zm46.65-23.88c-1.53-1.65-.73-2.69-1.82-3.86-.8.85-2.02 1.59-2.32 2.59-.52 1.75 1.55 4.64 2.92 4.27.97-.25-.21-1.61 1.22-3zm-46.34 2.01c-2.49 2.98-2.49 2.98-.91 7.56 1.08-.68 2.6-1.1 2.84-1.91.6-1.97.92-4.23-1.93-5.65z" style="fill:#f1b881"/><path d="M366.25 271.04c-1.98 0-3.96-.01-5.95-.01-.35-9.1-.61-18.2-1.07-27.3-.21-4.04-.8-8.07-1.25-12.34 4.36.06 4.1 2.67 4.28 4.86.38 4.77.51 9.56 1.05 14.31.54 4.73 1.5 9.41 2.22 14.12.32 2.11.48 4.24.72 6.36z" style="fill:#da7753;stroke:#d97652;stroke-miterlimit:10"/><path d="M233.23 271.94c-1.64.04-3.29.08-4.93.11.59-12.82 1.17-25.64 1.77-38.7 3.71.59 3.18 2.83 3.19 4.68.01 11.31-.02 22.61-.03 33.91z" style="fill:#d97652;stroke:#d97652;stroke-miterlimit:10"/><path class="st29" d="M311.06 140.18c-2.7-.89-5.51-1.56-8.09-2.73-4.51-2.03-8.91-4.32-13.31-6.58-1.4-.72-2.66-1.71-4.56-2.95 8.99-.6 17.11-1.15 25.24-1.69l.72 13.95z"/><path class="st25" d="M203.69 91.95c.31-.24.51-.39.71-.54.22.34.46.66.65 1.02.03.05-.26.35-.28.34-.35-.25-.7-.52-1.08-.82z"/><path class="st30" d="M198.83 100.26c-.32-1.66-.32-3.01 2.02-2.06-.67.69-1.35 1.37-2.02 2.06z"/><path class="st25" d="M207.29 87.18c0-.66-.01-1.32-.01-1.97.32.01.64 0 .96-.05l.09.09c-.35.64-.7 1.28-1.04 1.93z"/><path d="M310.29 126.26c.41-.32.81-.64 1.22-.95-.4.32-.81.64-1.22.95z" style="fill:#eca863"/><path class="st25" d="m208.24 85.16.58-.49-.49.58-.09-.09z"/><path d="M222.28 374.17c-.34-4.78-.91-9.55-.97-14.33-.14-11.82.07-23.65-.09-35.48-.19-14.44-.66-28.88-.93-43.32-.09-5.15.18-5.22 5.12-5.86 12.51-1.63 25.07-2.03 37.68-2 36.64.08 73.29.03 109.93.03 1.33 0 2.66.01 4 .01 2.3 0 3.19 1.21 3.27 3.45.27 7.45.88 14.89.93 22.34.13 22.65.05 45.3.06 67.96 0 1.83.13 3.65.2 5.48-2.49.7-4.97 1.43-7.48 2.08-9.09 2.33-18.17 4.68-27.28 6.92-2.06.51-4.21.64-6.32.95-19.3-.06-38.59-.15-57.89-.16-8.81-.01-17.63.13-26.44.2-9.14-2.19-18.28-4.4-27.43-6.57-1.44-.34-2.92-.49-4.38-.73-.38-.26-.77-.52-1.15-.78-.28-.07-.56-.12-.83-.19zm79.35-57.98c-8.39-.02-14.54 5.08-14.29 12.4.32 9.33 5.65 13.79 13.91 14.47 6.51.53 12.96-6.64 13.03-13.67.08-7.98-4.55-13.6-12.65-13.2z" style="fill:#e2e2de"/><path d="M296.43 393.77c-10.91-3.15-21.82-6.29-32.73-9.44 10.29.26 20.58.63 30.87.77 12.49.17 24.98.14 37.47.2-5.49 1.51-10.99 3.02-16.48 4.52-5.07 1.39-10.11 2.85-15.21 4.11-1.23.29-2.61-.1-3.92-.16z" style="fill:#d57a57"/><path d="M332.03 385.29c-12.49-.06-24.98-.03-37.47-.2-10.29-.14-20.58-.5-30.87-.77-2.54-.64-5.08-1.28-7.62-1.91 8.81-.07 17.63-.21 26.44-.2 19.3.02 38.59.1 57.89.16-2.79.98-5.58 1.95-8.37 2.92z" style="fill:#c4c2ba"/><path d="M223.11 374.33c.38.26.77.52 1.15.78-.38-.26-.76-.52-1.15-.78z" style="fill:#c5c1b8"/><path class="st29" d="M317.23 92.24c-3.35 9.67-10 11.13-19.45 6.34 6.51-1.57 13.42-.73 19.45-6.34z"/><path d="M334.97 63.99h-15.04c-.68-4.13-.39-4.45 3.05-4.84 4.43-.49 8.03 1.01 11.99 4.84z" style="fill:#193748"/><path d="M282.84 104.98c4.91 2.57 8.93 4.68 12.83 6.72-3.51 1.9-8.98-.61-12.83-6.72z" style="fill:#343e40"/><path d="M329.71 80.69c-1.43 1.39-.47 3.16-1.43 3.42-1.38.37-3.44-2.52-2.92-4.27.3-1 1.51-1.74 2.32-2.59 1.08 1.17.51 1.79 2.03 3.44z" style="fill:#142b37"/><path class="st39" d="M283.15 83.11c2.84 1.43 2.53 3.68 1.93 5.65-.24.81-1.77 1.23-2.84 1.91-1.58-4.58-1.58-4.58.91-7.56z"/><path class="st30" d="M301.63 316.19c8.11-.4 12.73 5.22 12.65 13.2-.07 7.02-6.52 14.2-13.03 13.67-8.26-.67-13.59-5.13-13.91-14.47-.25-7.32 5.89-12.42 14.29-12.4z"/><path d="M222.28 374.17c-1.03-.23-2.06-.47-3.09-.7 0-17.96.11-35.92-.05-53.87-.11-12.93-.64-25.87-.87-38.8-.12-6.77-.02-6.79 6.57-8.31 1.12-.26 2.3-.29 3.45-.43 1.64-.04 3.29-.08 4.93-.11 28.89-.25 57.78-.53 86.67-.75 13.47-.1 26.93-.11 40.4-.16 1.98 0 3.96.01 5.95.01 3.98.05 7.97.2 11.95.12 2.93-.05 4.11 1.06 4.15 4.1.17 11.9.72 23.8.81 35.7.16 20.42.08 40.84.09 61.25l-1.76.21c-.07-1.83-.2-3.65-.2-5.48-.02-22.65.07-45.3-.06-67.96-.04-7.45-.66-14.89-.93-22.34-.08-2.24-.97-3.44-3.27-3.45-1.33 0-2.66-.01-4-.01-36.64 0-73.29.06-109.93-.03-12.6-.03-25.16.38-37.68 2-4.95.64-5.22.71-5.12 5.86.27 14.44.73 28.88.93 43.32.16 11.82-.05 23.65.09 35.48.06 4.79.63 9.57.97 14.35z" style="fill:#c5c1b8;stroke:#c5c1b8;stroke-miterlimit:10"/><ellipse transform="rotate(-6.536 282.786 86.827)" class="st39" cx="282.84" cy="86.89" rx="2.49" ry="3.99"/><ellipse transform="rotate(-6.536 327.726 80.098)" class="st39" cx="327.79" cy="80.17" rx="2.49" ry="3.99"/></svg>