<?xml version="1.0" encoding="utf-8"?>
<!-- Generator: Adobe Illustrator 23.0.4, SVG Export Plug-In . SVG Version: 6.00 Build 0)  -->
<svg version="1.1" id="Layer_1" xmlns="http://www.w3.org/2000/svg" xmlns:xlink="http://www.w3.org/1999/xlink" x="0px" y="0px"
	 viewBox="0 0 951 962.2" style="enable-background:new 0 0 951 962.2;" xml:space="preserve">
<style type="text/css">
	.st0{fill:#E98561;}
	.st1{fill:#E98561;stroke:#E98561;stroke-miterlimit:10;}
	.st2{fill:#D87653;stroke:#D87653;stroke-miterlimit:10;}
	.st3{fill:#E78562;stroke:#E78562;stroke-miterlimit:10;}
	.st4{fill:#64C5A8;}
	.st5{fill:#123345;}
	.st6{fill:#D8D8D3;}
	.st7{fill:#F1B980;}
	.st8{fill:#F2B980;}
	.st9{fill:#133448;}
	.st10{fill:#F2BA83;}
	.st11{fill:#D9D8D3;}
	.st12{fill:#113346;}
	.st13{fill:#F0B882;}
	.st14{fill:#FCFCFB;}
	.st15{fill:#EFB67E;}
	.st16{fill:#DBDAD6;}
	.st17{fill:#A4E978;}
	.st18{fill:#A9EF7D;}
	.st19{fill:#FDFDFC;}
	.st20{fill:#FBFBFB;}
</style>
<path class="st0" d="M791.6,366.8c1.8-4.1,3.8-8,5.2-12.2c1.1-3.4,1.4-7,2.1-10.4l-8.9-5.1l0.4-1l6.1,1.8c0.1-0.2,0.2-0.4,0.4-0.6
	c-6.5-5.4-13.4-10.4-19.3-16.4s-11.1-13.1-16.6-19.8c6.1-0.3,12.3,0.6,18,2.8c10.1,3.6,20.2,7.3,30,11.7s16.4,12.7,21.7,21.9
	c4.3,7.1,7.4,14.8,9.2,22.9c0.2,0.6,0.6,1.2,1,1.8l1,4.1l3.3,20c0.8,5,1.8,10.1,2.4,15.1c1.6,14,3,28,4.4,42
	c1,10.5,1.9,21.1,2.9,31.6c0.1,1.4,0.5,2.9,0.8,4.3c0,1,0.1,2,0.1,2.9c0.7,7.7,1.3,15.3,2,23v3c0.4,8,0.9,15.9,1.3,23.9
	c0.2,1,0.4,2.1,0.6,3.1c0.3,8,0.6,16.1,1,24.1c0.2,4.8-0.3,5.8-4.6,7.5c-2.1,0.8-4.2,1.6-6.3,2.4c-1.5,0-3,0-4.5,0.3
	c-8.9,2-17.3,0.1-25.5-3.3c-0.5-1.7-0.9-3.5-1.1-5.2c-0.1-6.3,0-12.6-0.1-19c-0.1-3.6-0.7-7.2-0.7-10.9c0-4.6,0.7-9.2,0.7-13.9
	c0-3.6-0.7-7.2-0.8-10.9c-0.1-5.1,0-10.2,0-15.3c0-3.1,0.2-6.3-1.6-9.1c-0.5-0.8-0.3-2.2-0.2-3.3c0.2-2.1,0.8-4.2,0.7-6.3
	c-0.2-4.5-0.5-9-1-13.4c-1-8.7-2-17.4-3.5-26c-1.5-9.1-3.6-18.2-5.5-27.2c-2.4-11.1-4.5-22.4-8.6-33.1
	C796.8,370.9,795,368.3,791.6,366.8z"/>
<path class="st1" d="M620.7,503.9c-1-6.7-1.9-13.5-3-20.2c-0.2-1-0.5-1.9-0.8-2.8c-0.1-1-0.2-2-0.3-3c-0.9-6.8-1.9-13.5-2.7-20.3
	c-0.8-6.2-1.5-12.4-2.2-18.5l-0.1-3.1c-0.4-5.7-0.8-11.4-1.3-17.1c-0.4-4.4-0.8-8.8-1.3-13.2c1.9,0.6,3.7,1.3,5.5,2.1
	c8.4,4.2,16.8,8.4,26.4,9.6s19.1,1.2,28.5-1.9c0.8-0.2,1.6-0.3,2.4-0.4c1,0.4,2,0.8,3,1c3.7,0.5,7.5,0.8,11.3,0.8
	c3.7,0,7.4-0.7,11.3-1.1c-0.3,1.4-0.4,2-0.5,2.6c-5,0.6-10.1,1.3-15.1,1.6c-3.8,0.3-7.6,0-11.5,0.1c-5.5,0-10.2,2.6-14.8,5.1
	c-0.7,0.4-1.2,1.1-1.5,1.9c-1.4,5-3.8,9.8-2.4,15.4c1,4.1,0.8,8.5,1.2,12.8c0.8,7.6,1.6,15.1,2.4,22.7c-1,2.7,1,3.5,2.9,4
	c1.5,0.4,3.2,0.7,4.8,1c11.5,2.1,23,4.2,34.5,6.2c13.5,2.4,27,4.5,40.4,7.1c3,0.6,6.8-0.6,8.9,2.9c-0.3,6.2-0.7,12.4-0.9,18.6
	c-0.2,5.6-0.9,11.1-5,15.4c-5.1-0.8-10.1-1.5-15.2-2.3c-4.6-0.6-9.1-1.1-13.7-1.8c-5.1-0.7-10.1-1.6-15.2-2.4l-3-0.6
	c-8.2-1.1-16.4-2.1-24.5-3.5c-9.6-1.6-19.2-3.4-28.7-5.6c-4.8-1.2-9.5-3-13.9-5.2c-1.9-0.9-3.2-3.2-4.8-4.9L620.7,503.9z"/>
<path class="st2" d="M683.3,386.2c9.9-0.2,19.6,0.5,28.5,5.7c6.6,3.9,13.2,1.2,15.5-6.2c2.6-8,8.7-13,14.9-18
	c1.7-1.3,3.4-2.5,5.2-3.8c1.1,7,2.3,13.9,3.4,20.9c0.7,4.1,2.2,5,6.2,3.3c2.4-1,4.7-2.1,7-3.2c-8.7,8.1-18.4,15.1-28.9,20.8
	c-10,5.5-20.8,9.5-31.9,11.8c-2.1,0.4-4.3,0.4-6.4,0.6c0.1-0.6,0.2-1.3,0.5-2.6c-3.9,0.4-7.6,1-11.3,1.1c-3.7-0.1-7.5-0.3-11.2-0.8
	c-1-0.2-2-0.6-3-1c4.1-2.1,8.3-4.1,12.2-6.4c4.6-2.7,4.5-2.9,3.1-8C685.8,395.8,684.6,391,683.3,386.2z"/>
<title>profile_1</title>
<path class="st3" d="M430.8,517c0.5,3.9,1.1,7.7,1.6,11.6c0.4,2.7,1.1,5.5-0.8,8c-9,0.5-17.9,1.2-26.9,1.3
	c-10.5,0.2-20.9,1.6-31.2,1.8c-17.2,0.2-34.5,1.9-51.8,0.5c-10.2-0.8-20.5-0.8-30.8-1.2c-0.5-1.5-0.9-3.1-1.1-4.7
	c-0.5-11.1-0.8-22.2-1.2-33.3c0-1.4,0-2.8-0.1-4.1l-1.2-29.9c2.6,0.4,4.6-0.5,6.6-2.4c2.7-2.7,4.6-5.5,5-9.4
	c0.4-3.6,1.5-7.1,1.8-10.6c0.5-7.9,0.8-15.9,1-23.8c0.1-4.3-0.1-8.7,0-13c0.4-13.6-1.1-27.2,1-40.8c0.1-1.1,0.1-2.2,0-3.4
	c-1.5,0.7-2.7,1.6-2.9,2.7c-0.9,5.2-1.7,10.4-2.1,15.6c-0.5,7.1-0.7,14.2-1.1,21.3c-0.2,3.9-0.6,7.9-1.1,11.8
	c-0.9,7.8-2.4,15.6-2.7,23.5c0,5.8-1.1,11.5-3.1,16.9c-1.1,2.9-2.1,5.9-3.1,8.8c-1.7-0.5-3.4-0.8-5.1-1.1c-3.1-0.4-6.2-0.4-9.3-0.8
	c-8.5-1.1-16.9-2.3-25.3-3.5l-7.2-1.6c-3.3-0.4-6.5-0.8-9.8-1.2c-7.8-1.2-15.6-2.2-23.4-3.6c-9.5-1.7-18.9-4.6-28.7-4.5v0.1
	l-0.9-0.7l-4-0.5c-3.7-0.6-7.4-1.1-11.1-1.8c-5.3-0.9-10.6-1.9-15.9-2.8c0.6-3.5,1.1-6.2,1.6-8.9l2.4-20.2c3.5-2.2,7.3-0.8,11-0.9
	l3.1,0.4c5.2,0.8,10.3,1.4,15.5,2.3c4.8,0.8,9.6,1.9,14.4,2.9l11.1,2l8,0.3c0.6,0.3,1.2,0.5,1.8,0.7c9.3,0.9,18.7,1.8,28,2.7
	l1.1,0.3l4,0.1l6,0.1c2.3,0.2,4.8,0.6,4.6-3l1.2-25c0.3-2.3,0.6-4.6,0.9-7l1.2-12c0-0.3,0.1-0.6,0.1-1c0.2-1.4,0.5-2.7,0.7-4.1
	c0.4-5.1,1-10.1,1.1-15.2c0.2-7.8,2.5-14.5,8-20.1c6.8-6.8,13.4-13.7,20.1-20.5l4-3.9c3.6-3.2,7.1-6.4,10.7-9.5
	c2.1-1.6,3.5-4,3.9-6.6c0-1.8-0.2-3.6-0.5-5.4c-0.6-2.5,0.6-2.9,2.6-2.8c2.3,1.6,4.7,2.5,7.4,1c1.4,0.2,2.9,0.8,4.2,0.5
	c5-0.9,10-2.1,14.9-3.3c6.9-1.7,13.7-3.5,20.5-5.2c0.8,8.8,5.4,8.6,11.1,6.6c3.4-1.2,6.8-2.6,10.3-3.6c9.9-3.1,20-5.9,29.9-9.1
	c9.6-3.1,19.1-6.6,28.7-9.7c7.5-2.4,15.2-4.5,22.8-6.8c0.2-0.9,0.3-1.9,0.2-2.8c-7.6-35.3-15.3-70.6-23.1-106.2l2.4-1.3
	c4.3-0.9,8.5-1.7,12.8-2.6c2.3-0.4,4.7-0.8,7-1.2l11-1.6c1.4,6.3,2.8,12.1,4,17.9c3.3,16.5,6.6,33,9.8,49.6
	c3.5,18.3,6.9,36.7,10.3,55c0.3,1.6,0.8,3.2,1.2,4.8c0,3.7,0,7.4,0,11.1c0.3,5.4-1.8,8.9-8.2,10.8c-4.1,1.2-8.3,2.3-12.3,3.9
	c-16.8,6.6-33.6,13.2-50.3,20c-3.8,1.5-7.4,3.6-11.2,5.3c-2.6,1.2-3.5,3.1-3.2,6c0.5,6.9,0.8,13.9,1.2,20.9c0.3,1.7,0.6,3.4,0.9,5.1
	c0.7,10.5,1.3,21.1,2.1,31.6c0.3,4.2,1,8.4,1.6,12.7c0.1,1.6,0.3,3.2,0.4,4.8c-0.1,0.7-0.1,1.3-0.1,2c0.8,7.6,1.6,15.1,2.3,22.7
	c0.4,3.6,0.5,7.3,0.8,10.9c0.9,10.9,1.9,21.7,2.9,32.6c0.4,4.3,0.6,8.6,1.2,12.8c1.2,9.7,2.6,19.3,3.9,29L430.8,517z"/>
<path class="st4" d="M290.9,538.9c10.3,0.4,20.6,0.3,30.8,1.2c17.3,1.4,34.5-0.2,51.8-0.5c10.4-0.2,20.8-1.6,31.2-1.8
	c9-0.1,17.9-0.8,26.9-1.3c0,8.5,1.9,16.7,3,25.1c1.1,8.7,1.5,17.5,2.2,26.2c0.3,3.8,0.7,7.6,1,11.4c0.3,3.5,0.6,6.9,0.8,10.4
	c0.5,13.1,0.6,26.2,1.3,39.3c0.5,9.9,1.8,19.8,2.6,29.6c0.3,3.5,0,7,0.3,10.5c0.4,3.8,0.7,7.6,2,11.2c5.5,15.4,11.2,30.8,16.9,46.1
	c9,24.2,17.9,48.4,26.9,72.6c1.5,4.2,2.8,8.4,4.6,12.5c1,1.7,0.4,3.8-1.2,4.8c-3.4,2.6-6.9,5.1-10.3,7.7c-8,2.9-15.9,6.4-24.6,6.4
	c-3.1,0-6.2,0-9.3,0c-3.5,0.2-4.3-2.2-5.1-4.8c-4.7-14.8-9.1-29.7-14.3-44.4c-4.5-12.5-9.9-24.6-14.9-36.9
	c-5.1-12.6-10.8-25-15.2-37.9c-4.6-13.5-8.7-27.1-9.7-41.5c-0.9-12.7-2.3-25.4-4-38.1c-1.7-13.1-3.8-26.2-5.7-39.3
	c-0.5-3.6-0.8-7.2-1.3-11.6l-25.2,1.5c-0.5,3.4-1.3,6.8-1.5,10.2c-0.8,15.1-2.1,30.2-2.4,45.3c-0.3,14.8-2.2,29.5-1.9,44.3
	c0.1,7.1-0.2,14.3-1,21.4c-0.5,5.8-0.5,11.5-0.2,17.3c0.5,14.3,3.8,28.2,5.9,42.2c1.2,8.3,2.3,16.7,3.5,25
	c1.4,9.3,2.8,18.7,4.4,27.9c1.4,7.8,3.1,15.5,4.5,23.3c0.6,3.2,0,4.5-3.2,5.7c-4.2,1.5-8.5,2.7-12.7,4.1l-33,4.7
	c-2.5-0.9-3.7-2.6-4.2-5.3c-2.4-12.7-5.2-25.2-7.6-37.9c-1.9-9.6-3.5-19.2-5-28.8c-0.7-4.4-0.7-8.9-1.2-13.4
	c-1.4-12.5-2.9-25-4.3-37.5c-0.5-4.1-1.2-8.2-1.5-12.3c-0.5-9.5-1-18.9-1-28.4c0-13.5,0.7-26.9,0.8-40.4c0.1-30,0-60,0-90
	c0-2-0.1-4-0.1-6c0-1-0.1-2.1-0.1-3.2L290.9,538.9z"/>
<path class="st5" d="M615.1,364.1c2.8-7.4,6-14.7,8.5-22.2c3.5-10.9,6.5-21.9,12.5-31.8c1.4-2.6,2.6-5.4,3.8-8.1
	c10.5-22.4,27.8-34.7,52.5-37.2c13.5-1.4,25.7,2.2,37.6,7.5c2.1,1,4.1,2.3,5.8,3.8c8.5,7.5,16.8,15.2,23.3,24.6
	c0.6,0.8,1.2,1.5,1.9,2.2c5.5,6.6,10.6,13.7,16.6,19.8s12.8,11,19.3,16.4c-0.1,0.2-0.2,0.4-0.4,0.6l-6.1-1.8l-0.4,1l8.9,5.1
	c-0.6,3.4-0.9,7-2.1,10.4c-1.4,4.2-3.5,8.2-5.2,12.2c-5,6.9-12.2,10.8-19.8,14.2c-2.7,1.2-5.2,2.8-7.8,4.1c-2.3,1.1-4.7,2.1-7,3.2
	c-3.9,1.7-5.5,0.8-6.2-3.3c-1.1-7-2.3-13.9-3.4-20.9c-1.3-12.4-5.5-24.4-12.1-34.9c-7.7,7.9-16.5,13.2-25.5,18.6
	s-17.6,11.1-28.5,12.9c-1.1-3.4-2.2-6.4-3.4-10c-0.8,1.1-1.8,1.9-1.8,2.6c0.4,11.5,1.8,22.8,7.2,33.2c1.2,4.8,2.4,9.6,3.7,14.4
	c1.4,5.1,1.5,5.2-3.1,8c-4,2.3-8.1,4.3-12.2,6.4c-0.8,0.1-1.6,0.2-2.4,0.4c-9.3,3.1-18.8,3.1-28.5,1.9s-18-5.3-26.4-9.6
	c-1.8-0.8-3.6-1.5-5.5-2.1l-6-3.5c0-0.7-0.1-1.5-0.1-2.2c4.8-10,9.6-20.1,14.4-30.1c0.6-1.7,1.2-3.4,1.8-5.2s1.3-3.4,1.8-5.1
	c0.5-1.5,0.8-3,1.2-4.5c-2,3.5-3.8,7.1-5.3,10.8c-0.6,0.9-1.2,1.6-2,2.3C614.8,366.7,615,365.4,615.1,364.1z"/>
<path class="st6" d="M841.8,368l-1-4.1c5.7,0,11.3-0.1,17,0.1c4.4,0.2,8.8,1.1,13.2,1.5c5.1,0.5,10.2,1.3,15.3,1.3
	c17,0.2,34,0.2,51,0c3.2,0,6.5-1,10.2-1.5c1.5,0.7,2.3,2.3,2.4,4.5c0.2,7.1,1.2,14.3,0.8,21.3c-1.9,29.9-0.5,59.9-0.8,89.8
	c-0.1,15.8,1.4,31.6,0.6,47.3c-0.8,15-0.5,29.9-0.7,44.8c-0.1,9.4,1.2,18.9,0.8,28.3c-1.9,42.8-0.2,85.5-0.9,128.3
	c-0.2,15.1-0.9,30.2-0.9,45.3c0,14.3-0.1,28.6,1.1,42.8c1.1,13.5,0.3,26.9,0.8,40.3c0.2,6,0.6,11.9,1,17.8c0.2,2.9-0.5,4.9-3.9,4.9
	c-2,0-3.9,0.8-5.8,0.8c-8.2,0.1-16.3,0.3-24.5-0.1c-6.7-0.3-13.5-1.2-20.2-1.8c-5.1-0.4-10.2-1-15.3-1c-13-0.2-26,0-39-0.1
	c-8.8-0.1-17.6-1.4-26.3-0.7c-20.5,1.5-40.9-0.3-61.3,1c-14.6,1-29.2,0.5-43.8,0.7c-9.3,0.1-18.5-0.8-27.8-0.8
	c-12.4,0-24.9,0.6-37.3,0.9c-10,0.3-19.9,1-29.8,0.8c-7.7-0.1-15.5-1.5-23.2-1.7c-10.9-0.2-21.9-0.9-32.8,1
	c-2.2,0.5-4.5,0.7-6.8,0.8c-8.1,0.1-16.2,0-24.9,0c0-2.3,0-4.1,0-5.9c0.3-28.3,0.8-56.5,0.9-84.8c0-11.6-0.8-23.2-0.8-34.8
	c0-13.5,0.1-26.9,1-40.3c1.7-25.6,1.4-51.2,0.6-76.8c-1.4-49.5-0.2-98.9-0.8-148.3c0-1.5,0-2.9,0-5.2c-2.3,0.8-4.1,1.5-5.9,2
	c-7.9,2.4-15.8,4.6-23.6,7.1c-10.2,3.3-20.3,7-30.4,10.4c-8.9,3-17.9,5.7-26.8,8.6c-4.1,1.3-8.1,2.7-12.2,4c-0.3-1.7-0.6-3.3-1-5
	c4-1,8-1.8,11.9-3c8.5-2.6,17.1-5,25.4-8.2c10.8-4.1,21.5-8.4,32.8-10.9c3-0.6,6-1.5,9-2.5c5.8-2,11.4-4.5,17.2-6.3
	c13.1-4.1,26.3-8,40.2-12.2c-2.9-8.3-5.5-16.8-8.7-25c-3.8-10-8.3-19.8-11.9-29.9c-5.3-14.7-10-29.7-15-44.5
	c-3.7-11.1-7.8-22.1-11.3-33.2c-2.7-8.7-5.4-17.3-9.7-25.4c-1.3-2.9-2.3-5.8-3-8.9c-2.1-7.3-5.1-14.2-8.9-20.8c0-3.7,0-7.4,0-11.1
	c2.2,5,4.6,9.8,6.6,14.9c3.2,8.1,5.6,16.6,9.2,24.5c8,17.5,12.7,36,19.4,54c1.1,2.9,2.4,4,5.3,3.7c8.2-0.7,16.5-1.3,24.7-2
	c1-0.1,2,0,3-0.1c14.4-0.3,28.9-0.7,43.3-1c1.8,0,3.7,0.1,5.5,0.2c-0.1,1.3-0.2,2.6-0.4,3.9l0.1-0.1l-1.8,1h-43.5c-0.7,0-1.3,0-2,0
	c-9.2,0.7-18.5,1.3-27.7,2c-1.1,0.1-2.3,0.1-3.8,0.2c1.7,5,3.2,9.6,4.8,14.3c3.4,10.3,6.5,20.8,10.3,31
	c5.3,14.2,11.1,28.3,16.6,42.4c0.9,2.5,1.6,5,2,7.6c0.3,1.9,0.7,4.1-1.6,5.3c-5.8,3.1-12,5.5-18.5,7.1c-4.6,1.1-9.2,2.3-13.8,3.5
	c-2.5,0.7-3.4,2.3-2.8,5c0.4,1.8,0.7,3.5,0.7,5.4c0.6,26-0.3,51.9,0.8,77.9c1.4,31.6-0.6,63.2,1.1,94.8c0.5,10.6-0.8,21.2-0.8,31.8
	c-0.1,58.5-0.1,117-0.1,175.5c0,1.3,0.2,2.5,0.3,4.1c8.6-0.1,16.8,0.6,25-1.1c2.1-0.5,4.2-0.8,6.3-0.8c14.8,0.3,29.5-0.2,44.4,0.7
	c13.2,0.8,26.5-0.6,39.8-0.7c51.8-0.4,103.5-0.8,155.3-1c1.3,0,2.7,0,4,0c1,0,2-0.1,3-0.1c3.6-0.2,7.2-0.8,10.9-0.7
	c5.1,0.1,10.2,0.8,15.3,0.8c14.7,0.1,29.3,0,44,0.1c5.1,0,10.2,0.6,15.3,1.1c6.7,0.6,13.4,1.5,20.2,1.8c8,0.3,16,0.1,24,0.1
	c1.3,0,2.5-0.2,4.2-0.4c-0.4-4.4-0.9-8.5-1-12.6c-0.6-21.8,0.8-43.6-0.9-65.3c-0.9-11.2-1-22.5-1-33.8c0-9.1,0.6-18.2,0.9-27.3
	c0.6-23.4-0.5-46.9,0.8-70.3c1.3-22.4-0.7-44.9,1-67.3c0.7-8.7-0.8-17.5-0.8-26.3c0.1-14.6,0.9-29.2,0.8-43.8
	c-0.1-18.5-0.2-36.9-0.6-55.3c-0.6-26.9-1.5-53.9,0.6-80.8c0.5-6.6,0.1-13.3,0.1-20c0-0.9-0.2-1.9-0.3-2.8c-4.1,0.4-7.8,1-11.5,1.1
	c-2.6,0.1-5.2-0.8-7.8-0.7c-4.3,0.1-8.6,0.9-12.8,0.8c-12.6-0.2-25.2-0.6-37.8-0.9c-0.3,0-0.7,0-1,0c-8.3-2.1-16.7-1.9-25.2-2
	C847.4,368.8,844.6,368.5,841.8,368z"/>
<path class="st6" d="M91.8,400.1c-4.4-11.6-8.7-23.2-13.2-34.7c-4.8-12.1-10.2-24-14.7-36.2c-8.2-21.9-14.4-44.5-20.1-67.1
	c-0.9-3-2-5.9-3.2-8.7c-0.9-2.1-2-4.2-2.8-6.4c-8.1-21.1-16.2-42.2-22.9-63.8c-3.5-11.1-8.1-21.9-12.3-32.9
	c-0.4-1.1-0.8-2.2-1.2-3.3c-1-3.4-0.7-3.4,2.3-5.2c6-3.5,12.4-6.2,19-8c8.8-2.7,17.5-5.9,26.2-9c9.6-3.4,19.2-7,28.9-10.3
	c8.4-2.9,16.9-5.6,25.3-8.5c7.9-2.8,15.7-6,23.6-8.9c2.6-1,5.4-1.6,8-2.6c13-4.9,25.9-9.9,39.1-14.2c17.9-5.7,35.4-12.7,53.2-18.9
	c20.6-7.1,41.2-14.1,61.9-20.9c14.9-4.9,30-9,44.8-14.1c12.8-4.4,25.3-9.6,38-14.4c10.3-4,20.6-8,31-11.9c0.9-0.2,1.8-0.2,2.7-0.2
	c1.8,5.1,3.7,10.2,5.5,15.3c4.1,11.9,8,23.8,12.2,35.6c3.1,8.7,6.5,17.3,9.8,25.9c0.3,0.9,1.4,1.5,2.1,2.2l-3.1,3
	c-0.5-0.6-1-1.3-1.4-2c-3.6-9.1-7.2-18.1-10.5-27.3c-3.9-10.8-7.4-21.8-11.2-32.8c-1.8-5.1-3.7-10.1-5.5-15.1
	c-0.7,0.1-1.3,0.2-2,0.4c-12,4.8-23.8,9.9-35.9,14.3c-16.6,6-33.3,11.5-50.1,17.1c-9.4,3.1-19,5.7-28.3,8.8
	c-11.4,3.8-22.7,8.1-34.1,12c-10.2,3.5-20.7,6.5-30.9,10c-15.6,5.4-31.1,11.2-46.6,16.7c-3.2,1.2-6.7,1.8-9.9,3
	c-9.4,3.4-18.8,7.1-28.3,10.6c-8,3-16.1,5.8-24.2,8.6c-7.3,2.6-14.6,5.2-21.9,7.6c-10.6,3.5-21.3,6.8-31.9,10.4
	c-13.2,4.6-26.2,9.9-39.6,14c-5.6,1.8-10.5,4.6-15.6,7.3c0.1,0.7,0.3,1.4,0.5,2.1c7.6,16.9,13.5,34.4,19.9,51.8
	c4.6,12.7,9.4,25.4,14.1,38.1c1.5,4,3.1,8,4.7,12c0.9,2.3,2.3,4.4,2.9,6.7c4.3,15.3,8.2,30.8,12.8,46.1c2.9,9.8,6.6,19.3,10.2,28.9
	c3.5,9.3,7.4,18.4,10.9,27.6c5.4,14,10.8,28,16.2,42L91.8,400.1z"/>
<path class="st7" d="M314.8,868.8l33-4.7c0.6,5.5,1.1,11.1,1.7,16.7c0.4,3.3,0.9,6.5,1.1,9.8c0.4,5.1,0.7,10.2,1.1,15.3
	c0.3,3.6,0.7,7.2,1,10.8c-4.7,6.5-11.4,10.3-18.5,13.6c-2.4,1-4.8,2.2-7,3.6c-8,5.2-16.8,7.4-26.2,7.9c-3,0.2-6.1-0.5-9.2-0.7
	c-0.1-0.4-0.3-0.8-0.4-1.2c1.2-1.1,2.6-2.1,4-2.9c6.9-3.1,13.9-6.1,20.9-9c2.8-1.2,5.2-2.5,6-5.7c2.1-1.1,2.6-2.8,2.1-5
	c-2.2-10-4.4-20-6.5-30C316.8,881.2,315.9,875,314.8,868.8z"/>
<path class="st8" d="M447.8,850.3c3.1,0,6.2,0,9.3,0c8.8,0,16.6-3.5,24.6-6.4c1.4,7.2,2.6,14.5,4.1,21.7c2.5,12,5.3,24,8,35.9
	c0.5,1.9,1.2,3.7,2,5.5H494c0.9,4.8,0.9,5.5-3.2,7.2c-3.5,1.6-7.2,2.6-11,2.8c-4.4,0.1-9.4,1.2-13-3c1.4-2.7,3.4-5.2,1-8.2
	c-1.2-3.6-2.2-7.2-3.5-10.7c-3.5-9.8-7-19.5-10.5-29.2C452,860.7,449.8,855.5,447.8,850.3z"/>
<path class="st9" d="M322.5,922.3c-0.8,3.2-3.2,4.5-6,5.7c-7,3-13.9,5.9-20.9,9c-1.5,0.8-2.8,1.8-4,2.9c0.1,0.4,0.3,0.8,0.4,1.2
	c3.1,0.3,6.2,0.9,9.2,0.7c9.3-0.5,18.2-2.7,26.2-7.9c2.2-1.4,4.6-2.6,7-3.6c7.1-3.2,13.7-7.1,18.5-13.6c3.2,3.7,3.7,8.5,4.5,12.9
	c0.3,2.1-1,5.1-2.5,6.7c-3.2,3.3-6.9,6.2-10.8,8.6c-16.8,9.5-35.1,14.3-54.2,16.6c-6.5,0.8-12.9,1.5-19.2-0.4
	c-1.2-0.4-2.4-0.9-3.5-1.7c-3.2-2.3-3.7-5-1.1-8c2.5-3.1,5.4-5.8,8.6-8.2c7.5-5.3,15.9-9.5,24.6-12.3
	C307.1,928.3,314.7,925.2,322.5,922.3z"/>
<path class="st10" d="M91.8,400.1l4,0.7l8.5,1.4c-1.2-2.3-2.3-4.7-3.3-7.1c-0.6-2,0.6-3.1,2.8-2.6c2.1,0.4,4.1,1.1,6,2.1
	c4.9,2.8,9.5,6,14.3,9c8,4.9,16,9.4,25.7,9.5l-2.4,20.2c-6.1-1.2-12.2-2.6-18.3-3.6c-5.3-0.9-10.5-2.4-16-0.7
	c-2.3,0.7-4.8,0.8-7.3,1.1l-4-0.2c-10.4-4.5-16.2-13.1-20.5-23.1c-1.5-3.6-0.7-5.2,3.1-6.1C86.9,400.4,89.3,400.2,91.8,400.1z"/>
<path class="st10" d="M431.7,82l3.1-3c2.4-1.7,4.4-1.5,6.5,0.8c4.5,5,9.3,9.8,13.6,15c3.1,3.6,3.2,7.9,2.4,12.6
	c-0.8,4.6-1.9,9.2-0.6,14.1c1.5,6,2,12.3,3.2,18.4c0.3,1.5,1.3,2.9,1.9,4.4c-2.3,0.4-4.7,0.8-7,1.2c-4.3,0.8-8.5,1.7-12.8,2.6
	c-1.7-6-3.2-12.1-5.1-18.1c-2.8-8.6-7.6-15.8-15.8-20.2c-1-0.5-2-1.2-2.9-1.9c-1.8-1.4-3.1-3.1-1.9-5.6c1-2.1,2.9-2.6,6-1.6
	s6.1,2.1,9.5,3.2L431.7,82z"/>
<path class="st11" d="M101.8,429.9l4,0.2c3.5,10.3,6.8,20.6,10.4,30.9c7.6,21.6,15.2,43.2,22.9,64.8c4.6,12.9,9.2,25.8,13.8,38.6
	c2,5.6,3.7,11.3,5.9,16.8c2.9,7.2,6.1,14.3,9.2,21.4c0.6,1.4,1.3,2.9,1.9,4.3c5.1-2.1,9.6-4.2,14.2-6c6.4-2.5,12.9-5.2,19.4-7.3
	c9.5-3.1,19.2-6,28.8-8.7c6.2-1.8,12.6-2.7,18.6-4.8c11.1-3.8,21.9-8.2,32.9-12.3c2.1-0.8,4.4-1.3,6.6-2l0.1,3.2
	c-6,2.2-12.2,4-18.1,6.6c-11.4,5-23.4,8.8-35.6,11.3c-14.7,3-28.7,8.4-42.7,13.8c-8.1,3.2-16.8,5.2-24.4,9.6c-1.8,1.1-3.2,0.5-4-1.4
	c-4.8-12.3-10.4-24.2-14.6-36.8c-6.2-18.6-13.4-36.9-20-55.3c-6.5-18.3-12.8-36.7-19.1-55.1C108.6,451.2,105.3,440.5,101.8,429.9z"
	/>
<path class="st9" d="M467.9,905.8c2.4,3,0.4,5.5-1,8.2c3.6,4.2,8.6,3.1,13,3c3.8-0.2,7.5-1.2,11-2.8c4.1-1.7,4.1-2.4,3.2-7.2h1.8
	c3.2,4.9,3.7,10.5,4.4,16c0.3,2.8-1.2,5.2-4.1,6.7c-8.1,4.2-16.9,4.4-25.3,3c-9.8-1.6-15-14-8.2-21
	C464.4,909.8,466.1,907.8,467.9,905.8z"/>
<path class="st12" d="M265.8,163c12.4-9.5,26.7-15,41.8-17.9c16.5-3.2,32,0.4,46.9,7.7c11.7,5.6,21.2,14.1,30.9,22.3
	c5.8,5,11.3,10.4,17.3,15s12.9,8.7,19.4,13.1c1.2,0.8,2.3,1.7,3.3,2.8c-5.3-0.4-8.6-4.9-13.1-6.7h-1.5l0.9,0.8
	c2.6,2.3,5.2,4.6,7.8,6.8c1.4,1.2,2.8,2.3,4.3,3.5c-6.3,9.8-12.5,19.3-18.7,28.9c-3.3,5.1-6.4,10.5-9.9,15.5
	c-8.5,12-20.3,19.8-33.8,25.3c-0.6,0.3-1.1,0.6-1.7,1c-6.8,1.7-13.6,3.5-20.5,5.2c-5,1.2-9.9,2.3-14.9,3.3c-1.3,0.2-2.8-0.3-4.2-0.5
	c-0.4-2.6-1.2-5.2-1.1-7.9c0.1-5.9-0.5-12.2,1.1-17.7c2.3-7.4,5.4-14.6,9.4-21.3c2.8-5.1,5-10.5,6.8-16c1.6-4.9-0.7-12.6-4.6-15.4
	c-1.1-0.8-3.4-1.6-3.9-1.1c-1.1,1.2-1.6,2.7-1.6,4.3c0.1,1.9,1.4,3.8,1.4,5.8c0,1.6-0.6,3.1-1.8,4.1c-1.6,1-3.1-0.1-4-1.8
	c-1-1.9-1.9-3.9-3-5.7c-1.5-2.7-4.3-4.3-7.4-4.2c-8.3-0.1-16.6-0.3-24.9-0.6c-8.6-0.3-17.2-0.7-25.8-1.2c-3.3-0.2-6.6-0.6-9.8-0.9
	c-1.6-0.4-3.2-1.1-4.8-1c-3.3,0.1-4.8-1.4-4.4-5l-2.3,3.2l-0.7-0.4c1.5-3.6,2.9-7.1,4.4-10.7l5.1-10.1c4.3-6.9,8.8-13.5,14.7-19.1
	L265.8,163z"/>
<path class="st11" d="M265.8,163l-3,3l-3.8-12c-1,1.3-1.9,2.6-2.7,4c-1.9,4.2-3.7,8.5-5.6,12.7c-0.4,0.9-1.3,1.5-2.5,2.9
	c-0.2-1.8-0.5-2.7-0.2-3.4c2.3-5.6,4.5-11.4,7.1-16.8c1.3-2.7,2.2-4.9,1.1-7.9c-2.4-6.8-4.3-13.8-6.5-20.8c-0.6-1.2-1.2-2.2-2-3.2
	c-7,2-14.1,3.8-20.9,6.1c-7.8,2.7-15.3,5.9-23,8.9c-2.3,0.9-4.6,1.9-6.8,2.9c-5.3,2.2-10.6,4.7-16,6.6c-13.5,4.6-27.3,8.6-40.8,13.4
	c-17.7,6.3-35.3,13-52.9,19.6c-2.8,1.1-2.9,1.5-1.5,4.9c5.1,12.7,10.9,25.1,14.2,38.5c1.1,4.5,2.1,9,3.9,13.2
	c3.4,8.2,6,16.7,7.9,25.4c0.7,3,1.4,3.3,4.1,2.3c25.7-9.3,51.4-18.7,77.2-28.1c10.2-3.7,20.5-7.3,30.8-10.9c4.5-1.6,9-3.1,13.5-4.7
	c4-1.5,8-3.3,12.4-2.8c0,1,0,2,0,3c-2.3,0.2-4.6,0.6-6.8,1.1c-7.5,2.4-15,5-22.4,7.5c-5.1,1.8-10.3,3.5-15.4,5.4
	c-12.8,4.8-25.6,9.8-38.4,14.4c-12.6,4.5-25.3,8.4-38,12.7c-5,1.7-9.9,3.5-15.4,5.4l30.8,86.7c5.9-1.9,11.4-3.5,16.8-5.4
	c0.8-0.3,1.6-2.1,1.5-3.1c-0.1-1.6-1.2-3.1-1.6-4.7c-0.9-3.8-1.6-7.6-2.4-11.2c2.4-1.2,4.2-2.1,6-2.8c11.6-4.6,23.3-9.3,35-13.8
	c5.5-2.1,11.2-4,16.8-5.9c2.8-0.9,3.2-0.3,2.9,3l-8.9,3.3c2.1,5.2,3.9,9.7,5.8,14.3c3.4-1.2,6.6-2.2,9.6-3.5s6.1-3.1,9.3-4.7
	c-1.6-5.1-2.9-9.7-4.6-14.2c-1-2.7-0.6-3.8,2.2-4.7c15.5-5.3,30.6-11.8,45.1-19.3c3.1-1.6,6.3-2.9,10-2.6l8,1c0.5,2.5,0.3,2.9-2.3,3
	c-2.8,0.1-5.5,0-8.9,0c0.9,6.2,3.8,10.9,5.8,16.5l13.7-5.7l0.9,1.7c-3.4,3.9-9,4.5-13.7,7.5l4.6,10.1l-4,3.9c-0.2-1.6-0.6-3.2-1-4.8
	c-2.8-8.3-5.6-16.6-8.4-24.8c-0.4-0.9-1-1.8-1.6-2.6c-15.1,8.5-31.1,15.2-47.6,20l20,54.7l4.5,1.5l-3.3,4.4l3.7,8.5l4.4-1
	c-0.2,1.4-0.5,2.7-0.7,4.1l-1,0.1l-5.1,1.6l-3.9-9.6c-0.5-3.5-0.9-3.6-4-2l-12,3.9c-3.4,0.6-3.6,0.9-2,4.1l1,3c0,1.4,0.6,2.1,2,1.9
	c1.7,0.1,2.7,1.3,1.7,2.5c-1.6,1.8-1.2,3.4-0.7,5.3c0.2,0.9-0.2,2-0.5,3.8l-3.4-3.6c-1.4-3.4-1.4-3.4-6-1l-14,5l-5,2
	c-1.1,0.2-2.2,0.4-3.3,0.7c-4.9,1.7-9.8,3.5-14.7,5.3c-3.3,0.9-3.5,1.4-2,4l-0.4,4l-1.2,0.3l-3.3-4.4l-2-1.9c-2.2,0-2-1.5-2-3
	c1.3-0.2,2.8-0.4,1-2.1c-0.4-1.3-0.7-2.6-1.1-4c-3-14.8-9.8-28.1-15.8-42l-18.3,6.3c4.3,12.3,8.4,24,12.4,35.5
	c6.7-1.2,12-5.1,19.3-4.6l-2.5,2.8l-13,4.1l-3.1,1.6l2.1,4.3c1,4.2,2.1,8.4,3.1,12.6l-3.1-0.4c-2-6.5-3.9-12.9-6-19.3
	c-4-11.7-8.2-23.2-12.3-34.9c-1.6-4.5-3.1-9-4.6-13.5c-4.5-12.9-9.1-25.8-13.6-38.7c-3.7-10.6-7.7-21.1-11.2-31.7
	c-3.2-9.8-5.9-19.9-9-29.7s-6.3-19.8-9.8-29.5c-3.7-9.9-7.6-19.7-11.5-29.5c-2.3-5.9-1.4-8,4.4-10.3c16.8-6.4,33.5-13,50.4-19.3
	c7.9-2.9,15.9-5.4,23.9-8c7.2-2.3,14.6-4.1,21.7-6.5c4.5-1.5,8.7-3.9,13-5.9c0.8-0.3,1.5-0.8,2.2-1.1c6.9-2.7,13.8-5.3,20.6-8.2
	c7.8-3.2,16-4.9,24.1-7c2.2-0.6,4.4-1.3,7.2-2.2c3.2,9.3,6.4,18.6,9.8,28.5c9.5-10.7,19.7-19.5,32.5-25.2c-0.9-2.2-4.9-3-1.8-6.3
	c4.1,2.9,10.1,1.4,14.2,6.1l-7.9,9.5c-0.9-2.3-1.5-3.8-2.3-5.6c-6.1,1.9-11.4,5.4-16.4,9.1c-4.5,3.3-8.4,7.5-12.5,11.3
	c-3.4,3.1-5.3,6.5-2.6,11.3C264.7,157.7,265,160.5,265.8,163z M231.2,379.5l-4.5-12.6c-5.9-16.6-11.9-33.2-17.8-49.8
	c-1.2-3.5-1.5-3.4-5-2.2c-13.9,5-27.8,10-42.1,15.1c-0.1,0.8,0,1.7,0.2,2.5c3.7,9.9,7.2,19.8,11.3,29.5c3.8,8.4,6.9,17.1,9.4,26
	c0.9,2.8,1.9,5.5,3.1,8.1L231.2,379.5z M250.2,360.9c-4.8-13.4-9.4-26.1-13.8-38.6c-5.5,2.3-10.4,4.5-15.4,6.5
	c-3.4,1.4-3.4,1.3-2.3,4.9c0.7,2.2,1.5,4.4,2.3,6.5c2.9,8,6,16,8.8,24.1c0.7,1.8,1.4,3.1,3.5,2.4C238.7,364.9,244,363,250.2,360.9
	L250.2,360.9z"/>
<path class="st13" d="M293.5,276.1c-10.2-1.4-19.6-6.4-26.5-14c-3-3.5-4-4.3-6.6-5c-3.3-1-6.6-1.8-9.9-2.7c-1.6-0.4-3.1-1-4.6-1.4
	l-1.3-2.9c1.1-3,2.1-6.1,3.1-9.1c0.4-1,0.8-2,1.2-3c0-0.3,0.1-0.6,0.1-0.9c0.2-1.4,0.4-2.8,0.7-4.1l0.1-12.9c0-1,0-2,0-3l0,0
	l0.9-1.1c0.1-2.2,0.1-4.5,0.1-6.8c3.3,0.3,6.6,0.8,9.8,0.9c8.6,0.5,17.2,0.9,25.8,1.2c8.3,0.3,16.6,0.5,24.9,0.6
	c3.1-0.1,5.9,1.6,7.4,4.2c1.1,1.8,2.1,3.8,3,5.7c0.9,1.7,2.4,2.9,4,1.8c1.2-1,1.8-2.5,1.8-4.1c0-1.9-1.3-3.8-1.4-5.8
	c0-1.6,0.5-3.1,1.6-4.3c0.5-0.5,2.8,0.3,3.9,1.1c3.9,2.8,6.2,10.5,4.6,15.4c-1.7,5.5-4,10.9-6.8,16c-3.9,6.7-7.1,13.9-9.4,21.3
	c-1.6,5.6-1,11.8-1.1,17.7c0,2.6,0.7,5.2,1.1,7.9c-2.7,1.4-5.1,0.6-7.4-1c2.6-6.1-1.1-11.9-7.5-11.8c-0.8,0-1.6,0.1-2.5,0.1
	l-6.9-0.1L293.5,276.1z M277.1,220.3c0.1-0.3,0.6-1,0.5-1.5c-0.9-4.5-10.6-7.8-14.1-4.8c-0.7,0.6-1.1,1.5-1,2.5
	c0.4,1,1.3,1.9,2.3,2.2C268.8,219.4,272.8,219.8,277.1,220.3z M292.9,247.6l-11.3,13C286.5,259.9,292.4,253.4,292.9,247.6
	L292.9,247.6z M269.6,232.1c-1.5,5.6-0.5,7.4,3.8,7.4C274,234.6,273.9,234.4,269.6,232.1z"/>
<path class="st11" d="M177.8,447.8c1.9,6.1,3.7,12.2,5.6,18.3c0.6,1.9,1.5,3.7,2.2,5.5c1.4,3.6,2,3.9,5.4,2.6c3.5-1.4,7-3,10.6-4.2
	c10.2-3.2,20.5-6.1,30.7-9.2c2.1-0.6,4.1-1.3,6.1-2.1c0.6-0.2,0.9-1.1,1.3-1.7l7.2,1.6c-9.8,4.1-19.9,6.8-30.2,9.3
	c-8,1.9-15.7,5-23.5,7.6c-1.4,0.5-2.8,1-4.2,1.5c-0.9,4.2,1.1,7.6,2.8,10.9c5.6,11.1,7.4,23.6,11.9,35.1c0.2,0.5,0.2,1,0.4,1.4
	c1.7,4.8,1.6,4.8,6.6,2.8c14.1-5.6,28.3-11.1,42.4-16.8c7.5-3,14.8-6.6,22.3-9.6c4.3-1.7,8.7-2.9,13.1-4.3c0,1.4,0,2.8,0.1,4.1
	c-6.3,2-12.6,3.7-18.8,6c-9.4,3.5-18.7,7.4-28.1,11c-11.5,4.5-23,8.9-34.6,13.4c0.6,2.4,1.2,4.7,1.9,7.7c-5-0.9-4.7-6.4-8.4-6.8
	c0.3-1.5,1.1-3,0.7-4c-4.5-13.2-7.3-27.1-13.6-39.7c-2.4-4.7-3.8-9.9-5.6-14.8c-3-8.4-6.1-16.7-9.1-25.1c-0.1-0.6-0.2-1.3-0.2-1.9
	l4,0.5L177.8,447.8L177.8,447.8z"/>
<path class="st2" d="M287.3,466.9c-0.2-0.9-0.4-1.8-0.6-2.8c1-3,2-5.9,3.1-8.8c2-5.4,3.1-11.1,3.1-16.9c0.3-7.8,1.8-15.6,2.7-23.5
	c0.5-3.9,0.9-7.9,1.1-11.8c0.4-7.1,0.5-14.2,1.1-21.3c0.4-5.2,1.2-10.4,2.1-15.6c0.2-1.1,1.4-2,2.9-2.7c0.1,1.1,0.1,2.2,0,3.4
	c-2,13.6-0.5,27.2-1,40.8c-0.1,4.3,0.1,8.7,0,13c-0.2,7.9-0.5,15.9-1,23.8c-0.2,3.6-1.4,7.1-1.8,10.6c-0.4,3.9-2.3,6.7-5,9.4
	C291.9,466.5,289.9,467.3,287.3,466.9z"/>
<path class="st11" d="M418.5,397.2c3.6-1,7.4-1.8,10.8-3.1c8.1-3.2,16.1-6.8,24.2-9.9c3.4-1.3,7.1-1.6,10.7-2.4l0.5,1.1
	c-0.7,0.8-1.4,1.5-2.3,2c-5.5,2.5-11.1,5-16.7,7.4c-4.5,2-9,4.1-13.6,5.8c-4.3,1.5-8.8,2.6-13.2,3.8
	C418.8,400.4,418.7,398.8,418.5,397.2z"/>
<path class="st11" d="M233.8,406l-16,7c-4.1,1.7-8.2,3.4-12.2,5.2c-0.4,0.2-0.5,1.1-0.8,1.7l-11.1-2l2-0.9l2-0.9l11-4l2-1l11-5l5-2
	l7-3c1.8,0,2.4,1,1.7,2.6C235,404.4,234.5,405.2,233.8,406z"/>
<path class="st11" d="M414,347.9c3-0.8,6-1.6,8.9-2.5c5.2-1.5,10.4-3.1,15.5-4.8c1.6-0.5,2.7-0.3,3.2,1.2c0.6,1.8-0.9,2.4-2.1,2.8
	c-4.3,1.5-8.7,2.9-13.1,4.4c-3.9,1.3-7.8,2.7-11.6,4C414.5,351.3,414.3,349.6,414,347.9z"/>
<path class="st11" d="M242.8,420.9c-1.1-3.6-2.2-7.1-3.3-10.7c-0.3-1.1-0.5-2.2-0.7-3.3c-0.3-2.3-0.6-4.7-0.9-7c2.3,0,2.4,1.9,3,3.4
	c2.4,6.8,4.7,13.7,7.1,20.5l-4.1,0C243.4,422.9,243.1,421.9,242.8,420.9z"/>
<path class="st14" d="M177.8,447.9l-0.9-0.7L177.8,447.9z"/>
<path class="st15" d="M683.3,386.2c-5.4-10.4-6.8-21.7-7.2-33.2c0-0.7,1-1.5,1.8-2.6c1.2,3.6,2.3,6.7,3.4,10
	c10.9-1.8,19.5-7.5,28.5-12.9s17.9-10.7,25.5-18.5c6.7,10.5,10.8,22.5,12.1,34.9c-1.7,1.2-3.5,2.5-5.2,3.8c-6.2,5-12.3,10-14.9,18
	c-2.4,7.4-8.9,10.1-15.5,6.2C702.9,386.7,693.2,386,683.3,386.2z M739.9,352.2c-4.4,1.5-2.2,5.4-3.8,8.3l-5.7-4.6
	c-0.4,4.3,3.6,8.7,7.2,8c1.1-0.5,1.9-1.4,2.2-2.6C740.1,358.4,739.9,355.4,739.9,352.2L739.9,352.2z M684.3,372.8
	c-0.1,4.5,2.6,7.9,6.2,8.3c2.4,0.2,4-0.7,4.2-3.1s0-4.7,0-7.4c-5.1,1-1.3,5.6-4.4,7.5L684.3,372.8z M724,344.3l14.7-1.7
	c-3.9-4.4-7.8-2.6-11.2-2.5C725.9,340.2,723.2,340.2,724,344.3L724,344.3z"/>
<path class="st11" d="M617.2,369.7l-2.6,1.2l0.1-3l-0.1,0.1c0.8-0.7,1.4-1.5,2-2.3c1.5-3.7,3.2-7.3,5.3-10.7c-0.4,1.5-0.7,3-1.2,4.5
	c-0.5,1.7-1.2,3.4-1.8,5.1S617.8,368,617.2,369.7z"/>
<path class="st5" d="M603,402.1c-1.4-0.7-1.5-1.4-0.1-2.2C602.9,400.6,602.9,401.3,603,402.1z"/>
<path class="st8" d="M849.8,571c0,2.3,0,4.5,0,6.8c-0.7,4.8-0.2,9.9-3,14.2l-7.2,8.9c-3,1.1-5.3,2.8-5.8,6.2c-0.7,0.7-1.3,1.3-2,2
	c-4.9-0.1-7.6,3-10.1,6.6c-0.7,0.4-1.3,0.9-1.8,1.5c-1.5,2.2-3.3,2.1-5.3,0.8c0.3-6.9,0.6-13.8,1.1-20.7c0.2-2.7-0.6-4.4-3-5.5
	c0-1.3,0-2.5-0.1-3.8l6-15c0.4-1.7,0.8-3.3,1.1-5c8.2,3.3,16.6,5.3,25.5,3.3C846.9,571,848.3,570.9,849.8,571z"/>
<path class="st16" d="M857.8,506.9c9.3-1,18.7-0.8,28-2.6c6.8-1.3,13.7-0.8,20.3,1.4c-0.7,0.9-1,2.1-1.7,2.4
	c-1.5,0.5-3.2,0.8-4.8,0.8c-8.3,0.1-16.6-0.1-24.9,0.1c-5.6,0.1-11.2,0.6-16.8,1C857.8,508.9,857.8,507.9,857.8,506.9z"/>
<path class="st11" d="M859.1,533.8c14-0.3,28.1-0.6,42.1-0.9c1.9,0,4.1-0.7,5.3,1.9c-1.4,2.3-3.8,2-6,2.1h-40.8
	C859.6,535.9,859.4,534.9,859.1,533.8z"/>
<path class="st16" d="M855.7,481c7.9-0.4,15.9-0.9,23.8-1c5.8,0,11.5,0.6,17.3,0.9c3.2,0.1,6.4,0,9.8,0c-0.1,2.5-1.4,2.9-3,3
	c-3.8,0.3-7.6,1-11.3,0.9c-7.1-0.3-14.1-1.2-21.2-1.7c-2.8-0.2-5.6-0.2-8.5,0c-2.3,0.1-4.6,0.5-6.8,0.8
	C855.7,483,855.7,482,855.7,481z"/>
<path class="st5" d="M614.8,367.9l-0.1,3l-7.1,10.3l-0.9-0.5L613,369L614.8,367.9z"/>
<path class="st11" d="M357.8,100.7c-0.4,0.7-0.5,1.8-1.1,2.2c-1.5,0.8-3,1.5-4.5,2.1c-4.2,2-8.6,3.6-12.4,6.1
	c-6.8,4.5-14.7,5.6-22.2,7.8c-0.4,0.1-0.9-0.2-1.3-0.4c-0.9-1.9,0.1-3,1.6-3.6c1.8-0.8,3.7-1.5,5.6-1.9c5.8-0.9,10.9-3.5,16.1-6.1
	c5.5-2.8,11.5-4.8,17.3-7.2L357.8,100.7z"/>
<path class="st11" d="M243,195.3c-0.8-0.3-1.7-0.9-2.3-0.7c-6.1,1.9-12.2,3.9-18.5,5.8c-0.3,1.1-0.7,2.3-1.1,3.9l-3.1-1.8
	c-2.1,1.1-0.7,5.2-4.6,5.4c-1.3-3.3,0.1-6.5,1.2-9.2s0.7-4.6-0.4-7c-1.6-3.4-3-7-4.4-10.5c-1.3-3-2.5-6-5.7-7.8
	c-2.4-1.4-3.6-3.8-3.1-7.2c9.3,0.3,17.1-4.4,25.4-7.3c1.7-0.5,3.4-1.3,4.9-2.4c3-2.2,6.6-2.4,9.9-3.5c0.3-0.1,0.8,0.3,2,0.8
	l-6.3,5.6c2.9,7.7,5.7,15.3,8.5,22.8c0.5,1.4,0.7,3,2.8,2.9L243,195.3z M213.8,180c0-0.2-0.1-0.3-0.2-0.4c-0.1-0.1-0.2-0.1-0.3-0.1
	L213.8,180c0.2,3.6,1.6,6.6,3.9,10.2c1.2-3,2.1-5.3,3.4-8.4L213.8,180z M209,169.6c1.9,4.5,7.9,8.6,12,8.4c0.8,0,1.6-0.3,2.1-0.9
	c2.7-4.8,5-9.8,6.7-15.1L209,169.6z M234.3,161.2l-7.3,18.2l15.3,4C239.4,175.6,237,168.9,234.3,161.2L234.3,161.2z M243.3,189
	c0-0.4,0-0.7-0.1-1.1l-18.4-4.9l-5.4,13.7L243.3,189z"/>
<path class="st14" d="M183.8,402.9l-2-1.9L183.8,402.9z"/>
<path class="st9" d="M277.1,220.3c-4.3-0.5-8.3-0.9-12.3-1.6c-1.1-0.4-1.9-1.2-2.3-2.2c-0.1-0.9,0.3-1.9,1-2.5
	c3.5-3,13.2,0.3,14.1,4.8C277.7,219.4,277.2,220,277.1,220.3z"/>
<path class="st11" d="M265.8,261.9c-0.9-0.3-1.8-0.7-2.6-1.1c-4-3-8.1-2.7-11.6,1.3c-4.5-1.4-4.7-5.6-5.7-9.2c1.6,0.5,3.1,1,4.6,1.4
	c3.3,0.9,6.6,1.8,9.9,2.7C262.9,257.8,265.3,258.8,265.8,261.9z"/>
<path class="st11" d="M244.5,250c-0.5-0.3-1.4-0.5-1.5-1c-0.8-2.5-1.3-5-2-7.6c-0.5-1.4,0.1-2.9,1.5-3.4c0.1-0.1,0.2-0.1,0.4-0.1h2
	c-0.3,2.3,0.5,3.3,2.9,3C246.7,243.9,245.6,247,244.5,250z"/>
<path class="st5" d="M292.9,247.6c-0.5,5.8-6.4,12.3-11.3,13L292.9,247.6z"/>
<path class="st5" d="M269.6,232.1c4.3,2.2,4.4,2.5,3.8,7.4C269.1,239.5,268.1,237.7,269.6,232.1z"/>
<path class="st11" d="M244.8,238h-2c0.8-3.6,2.2-4.6,6.9-5.1c-0.2,1.4-0.5,2.8-0.7,4.1l-2.2,0.9L244.8,238z"/>
<path class="st11" d="M248.8,237.9h-2.1l2.2-0.9C249,237.3,248.9,237.6,248.8,237.9z"/>
<path class="st11" d="M249.8,217l0.9-1.1L249.8,217z"/>
<path class="st11" d="M259.6,464.1c-0.1,2.9-2.3,3.1-3.7,3.7c-4.6,1.8-9.3,3.4-13.9,5c-9.7,3.2-19.4,6.4-29.1,9.6
	c-2.8,0.9-5.6,1.6-8.4,2.4c-1.5-2.4,0.3-2.9,1.6-3.5c3.2-1.3,6.5-2.4,9.8-3.5c12.7-4.2,25.3-8.3,38-12.4
	C255.6,464.9,257.5,464.6,259.6,464.1z"/>
<path class="st16" d="M269.1,493.7c-6.5,5-14,7.5-21.4,10.1c-7.1,2.5-14.5,4.2-21.7,6.6c-4,1.3-7.7,3.4-12,5.3
	c0.1-2.5,1.9-3.6,3.4-4.5c2.3-1.4,4.7-2.5,7.2-3.3c11.7-4,23.4-7.9,35.1-11.8C262.7,495.1,265.9,494.5,269.1,493.7z"/>
<path class="st11" d="M257.5,489c-16.9,4.5-32.9,11.2-50,18.2c0.7-1.6,0.9-2.9,1.5-3.2c3.6-1.8,7.3-3.6,11.1-5.1
	c9-3.5,18.2-6.8,27.2-10.2C250.7,487.4,254,487.9,257.5,489z"/>
<path class="st11" d="M212.2,493.8c-1-2.7,0.9-3.1,2.1-3.6c5.6-2.4,11.2-4.8,16.9-6.9c6.3-2.4,12.8-4.3,19.1-6.7
	c2.3-1,5.1-0.7,7.1,0.9L212.2,493.8z"/>
<path class="st11" d="M237.8,399.9c0.3,2.3,0.6,4.7,0.9,7l-4.9-1c0.6-0.8,1.2-1.6,1.7-2.4c0.7-1.6,0.1-2.5-1.7-2.6
	C234.8,398.5,235.3,398.4,237.8,399.9z"/>
<path class="st11" d="M670.8,718.9l-3-0.3c0,3.6-0.1,7.1,0.1,10.7c0,0.6,1.2,1.1,1.9,1.7v1.1c-0.6,0.4-1.7,0.7-1.8,1.2
	c-0.8,3.2,0.2,15.9,1.5,19.9c2.5-0.3,5.2-0.7,8-1c4.3-0.4,8.5-0.8,12.8-1.2c0.6-0.1,1.7,0,1.8-0.4c2-3.7,5.4-2.5,8.4-2.6
	c6.3-0.1,12.7,0.1,19-0.1c5.1-0.2,10.2-0.8,15.1-1.3c3.6,4.2,1.5,8.6,2.3,13.1c-14.5,0.5-28.3,4.6-42.7,0.6c-0.2-1.3-0.4-3-0.7-5
	c-8.1-1.5-16.1,0.9-24,0.8c-1.9,3.9-0.3,6.5,2.4,8.8c0,0.4,0,0.7,0,1.1l-2.7,0.2v8.3h22c0.7-3.1,3.1-3.8,6.5-3.6
	c7,0.4,13.8-0.7,20.7-1.8c3.9-0.6,8,0,12-0.2c2.2-0.3,4.5-0.7,6.7-1.3c0.6,4.6,1.3,9.6,2.1,15c-0.6,0.1-1.6,0.3-2.7,0.3
	c-9.3,0.3-18.5,0.6-27.8,1c-4.3,0.2-8.5,0.7-12.8,0.9c-0.9,0-1.8-0.4-2.5-1c13.1-4,26.5-4.2,40.3-4v-6.7
	c-12.8-1.5-25.3,1.5-38.5,0.6c0.3,2.9,0.5,5.3,0.8,7.7l-1.2,0.5l-3.3-4.4h-22.1c-0.1,4.3-1.4,8.1,1.4,11.5l-1.7,1.9h-17.1
	c0.9-4.6,4-2.7,5.9-3c2.5-0.2,5.1-0.2,7.7-0.1c0.6-3.6,0.6-7.3-0.2-10.9c-0.7-3.3-0.1-6.9-0.1-11l-15.1,1l-1.4,0.6l1.4,0.3
	c0.4,3.4-1.9,3.9-4.3,4c-8.4,0.4-16.9,0.8-25.3,1s-17,0-25.5,0.1c-3.5,0.1-6.9,0.6-10.3,0.9c-2.5,0.2-2.7-1.3-2.5-3.2
	c2.3,0,4.7,0.2,7,0c6-0.5,12.1-1.6,18.1-1.8c9.6-0.3,19.3,0,28.9-0.1c2.6-0.2,5.1-0.5,7.6-1v-5.3c-8.2,0.8-16,1.9-23.8,2.3
	c-9.3,0.4-18.6,0.2-27.9,0c-2.6-0.2-5.2-0.5-7.8-0.9v-1.1c1.7-0.5,3.5-0.8,5.3-0.9c8-0.1,16,0,24-0.1c8.9-0.1,17.8-1,26.5-2.8
	c1.7-0.4,3.6,0,5.6,0c0.7,2.2,1.4,4.4,2,6.4l17.3-3V742c-5.3,0-10.6-0.2-15.8,0.1c-1.3,0.1-2.6,1.9-3.8,2.9l-2-1.1l-0.3-3.7
	c-1.1-0.2-2.3-0.3-3.4-0.3c-17.1,0-34.2,0-51.2,0c-1.4,0.2-2.8,0.5-4.1,0.9l-2-1.1c3.4-2,7.2-3.1,11.2-3c15.2,0.1,30.5,0.1,45.7,0
	c1.6,0,3.9,1,4.2-2h2l1,2c0.1,3,0.1,3,2,2l17-1.2c0-13.2,0.3-26.3-0.8-39.7c-1.7,0-3.6-0.1-5.6,0c-2.1,0.1-4.2,0.5-6.3,0.7
	s-4.3-0.7-5.9,1.5c-0.4,0.5-1.8,0.5-2.8,0.5c-15.1,0.4-30.1,0.6-45.2,1c-4.5,0-9,0.5-13.4,1.3c-2.3,0.5-4.2,2.1-6.3,0.5
	c0.4-3,0.9-5.8,1.2-8.6c0.1-1.4,0.6-2.2,2-2.2l0.1,1.1c0.4,2.2,0.8,4.5,1.2,6.6c0.6,0.2,1.2,0.3,1.9,0.3c7.1-1.5,14.4-2.1,21.6-2
	c8.3,0.1,16.7,0.2,25-0.1c3.5-0.1,7-1.2,10.4-1.9l1.9-1c7.2-0.3,14.3-0.7,21.5-0.9c1.5,0,3,0.6,4.5,1v1.9l-3.1,0.4
	c0.5,6,0.9,12,1.4,18.3l2.7,0.3V718.9z M732.5,751.3H697c0.5,2.4,0.9,4.4,1.4,7c10.3-0.5,20.3-0.9,30.4-1.5
	C732.2,756.7,732.7,755.8,732.5,751.3L732.5,751.3z"/>
<path class="st11" d="M699,570.7l-3.1,4c1.3,1.8,3.3,3.6,0.4,5.7c-0.4,0.3-0.4,1.2-0.3,1.8c0.2,3.5,0.7,6.9,0.8,10.3
	c0.4,15.1,0.6,30.2,1.1,45.3c0.1,3.1,1.1,6.1,1.5,9.2c0,1.4-0.1,2.8-0.4,4.2c-4.2-2.9-7.9-2.9-11.9-1.8c-2.2,0.6-4.6,0.3-7,0.2
	c-3.3-0.2-6.6-0.8-9.8-0.8c-10.3-0.1-20.7,0.1-31,0c-5.1-0.1-10.2-0.9-15.3-0.9c-5.4,0-10.9,0.6-16.3,1.1c-2.3,0.2-4.6,0.8-6.8,0.8
	c-7.5,0.1-15,0.1-22.5,0.1c-1.8,0-3.5-0.1-5.3-0.4c3.8-2.1,2.8-5.5,2.8-8.4c0-19.2,0-38.3,0-57.5v-5.8c1.1,0.6,1.8,0.8,1.8,1
	c0.5,4.4,1.1,8.8,1.2,13.3c0.1,15.2,0.1,30.3,0.1,45.5v5.9c4.8-2.6,9-4.5,12.8-6.9c9.2-5.9,18.1-12.2,27.2-18.2
	c3.2-2.1,6.5-3.9,9.8-5.9c1.4-0.8,2.7-1.8,4.6-3c-3.5-1.9-6.4-3.4-9.2-5.1c-6.3-3.6-12.5-7.4-18.9-10.9c-7.3-4-14.6-7.8-22-11.5
	c-2.5-1.2-4.8-2.3-4.3-5.8l-6.8-1.3c1.1-1.3,2.4-2.7,3.9-1.9c3.4,1.8,6.5-0.1,9.7-0.5c10.9-1.2,21.8-1.2,32.7,0.1
	c2.5,0.2,5,0.2,7.5,0.1c13.6-0.3,27.2-0.7,40.8-1c5.9-0.1,12-0.8,17.6,2c3.4,1.7,6,0.9,8.2-2C693.9,569.9,696,569.3,699,570.7z
	 M579.3,647l0.1,0.9c1.5,0,3,0.1,4.4,0c6.3-0.3,12.5-0.6,18.8-1c0.8,0,1.6-0.5,2.4-0.5c6.6-0.5,13.2-1.2,19.7-1.3
	c5.4-0.1,10.9,0.8,16.3,0.8c7.1,0,14.2-0.7,21.3-0.9c3.3-0.2,6.6-0.1,9.9,0.3c7.3,1.2,14.5,0.3,21.8,0.2c-5.3-3.3-11.1-5.7-16-9.2
	c-7.5-5.5-15.5-10.1-23.9-13.9c-4.8-2-9.1-5.3-13.5-8.3c-2-1.4-3.9-1.8-6-0.6c-6.1,3.6-12.2,7.3-18.3,11
	c-11.8,7.1-22.4,16.5-35.6,21.3C580.3,646.3,579.8,646.6,579.3,647z M686.4,578.7c-6.8-2.7-14.1-4-21.5-3.7
	c-5.8,0.2-11.6,1-17.3,0.9c-18-0.2-35.9-0.7-53.8-0.9c-4.3,0-8.6,0.9-12.8,1.4l-0.2,1.2c1.9,1.2,3.9,2.3,5.9,3.2
	c7.6,3.1,15,6.9,22,11.3c9.1,5.7,18.6,10.7,27.9,16C652.8,598,670,590,686.4,578.7L686.4,578.7z M693.5,641.2l1.2-0.7
	c0.6-20-0.1-40.1-2.2-60l-51.7,30.1c1.9,0.9,3.6,2,5.3,3.2c3.5,3,7.6,5.3,12,6.8c3,1,5.9,2.3,8.6,3.8
	C675.6,630,684.5,635.7,693.5,641.2L693.5,641.2z"/>
<path class="st11" d="M901.8,825c-0.4-1.7-0.7-3.5-0.9-5.3c-0.1-5.3,0-10.7-0.1-16c-0.3-10.9-0.6-21.8-1-32.8
	c-0.1-1.9-0.8-3.8-1.3-6.3c-6.6,0.6-13,1.1-19.3,1.7c-1.8,0.2-3.6,0.5-5.4,0.6c-8.7,0.3-17.5,0.5-26.8,0.7c0,4-0.1,7.2,0,10.5
	c0.1,2.5,0.7,4.9,0.8,7.3c0.4,12.8,0.7,25.5,1,38.3c0.1,0.8,0.2,1.6,0.4,2.3h11.5c10.7,0,21.5,0.3,32.1-1.9c3.1-0.7,6.4,0,9,1.9
	c-0.1,2.4-1.7,3.6-3.7,2.8c-4.3-1.6-8.4,0.6-12.7,0.3c-4.1-0.3-8.2,0.8-12.3,0.8c-7.3-0.1-14.5-0.7-21.8-0.8c-1.5,0-3,1-4.9,1.6
	c-1.5-1.3-3.1-2.7-1.8-5.5c0.3-1.1,0.4-2.3,0.2-3.5c-0.3-10.9-0.5-21.9-1-32.8c-0.3-6.4-1.3-12.8-1.8-19.2c-0.2-2.6,0-5.3,0-8
	c1.4-1,2.7-1.4,3.9,0.2c-0.1,1.4,0.5,2.1,2,2c12.3-1.7,24.7-1.8,37.1-2.2c5.4-0.2,10.8-1.1,17,1c0.5,3,1.7,6.6,1.8,10.3
	c0.5,15.8,0.8,31.5,1.1,47.3c0,1.3,0,2.6,0,4.3L901.8,825z"/>
<path class="st11" d="M901.6,754.1c-1.4-4.6-5-3.4-7.8-2.8c-3.7,0.8-7.5,0.8-11.2,0c-3.2-0.6-6.6-0.2-10-0.1
	c-9.3,0.2-18.5,0.5-27.8,0.7c-0.4-0.1-0.8-0.3-1-0.6c-0.3-4.4-0.8-8.3-0.9-12.1c-0.2-7.5,0-15-0.1-22.5c-0.2-10.1-0.7-20.2-0.9-30.3
	c0-2-2.4-4.1-0.4-5.5c6.4-0.4,12.3-0.8,18.1-1.2c1.8-0.1,3.6-0.6,5.4-0.6c5.3,0,10.5-0.6,15.7-1.7c4.3-0.8,9-0.2,13.4-0.4
	c2.7-0.1,5.3-0.7,8.4-1.2c0.2,0.9,0.3,1.8,0.3,2.8c0.4,23.2,0.7,46.5,1,69.8c-0.1,1.8-0.3,3.7-0.7,5.5L901.6,754.1z M899.4,746.2
	v-66c-9,1.4-17.7,0.9-26.4,2.5c-8.2,1.5-16.8,0.9-25.3,1.3c-1.1,0.1-2.2,0.3-3.3,0.6c0.4,3.7,1.1,7.1,1.2,10.5
	c0.4,14.9,0.7,29.8,1.1,44.8c-0.1,1-0.1,2,0,3c0.3,1.7,0.8,3.4,1.3,5.4L899.4,746.2z"/>
<path class="st10" d="M740.8,533c4.2-4.3,4.8-9.7,5-15.4c0.2-6.2,0.6-12.4,0.9-18.6l12,2l3.9,3.9c0,2.6,2.2,3.2,4,3.8
	s3.6,0.6,5.3,1.3c1.3,0.6,2.6,1.4,3.8,2.2c-0.8,4.3-4.2,3.2-6.3,3.9l10.1,4c0.2,3.5-1.6,4-3.8,3.8c-5.3-0.5-10.5-1-15.8-1.6
	c-1.5-0.2-3-0.3-4.5-0.2c4,3,9,2.5,13.5,4.2s9.1,2.7,14.6,4.2c-7.2,4.5-13.9-0.1-20.2,1.6c1.2,1.3,4.3,1.3,3.3,4
	c-0.8,2.4-3.3,1.9-5.2,1.8c-2.6-0.2-5.2-0.5-7.8-1c-3.4-0.6-6.8-1.3-10.1-2.1C742.5,534.4,741.6,533.8,740.8,533z M767.2,515.7
	c0-0.1,0-0.3,0-0.4h-3.8v0.4H767.2z"/>
<path class="st11" d="M785,823.7c-0.2-9.1,0.4-18.2-0.7-27.2c-1-8.7,1.4-17.9-3.1-25.9c0.5-2.2,1-4.1,1.5-6.4c2.2-1.4,2,2.2,3.6,1.9
	c7-0.7,14-1.6,21-2.1s14.2-0.5,21.3-0.6c0.2,0,0.3,0.2,0.5,0.1c4.7-0.7,4.7-0.7,4.7,3.8c0,19.7,0,39.3,0,59c0,1.5-0.2,2.9-0.2,4.3
	c-4.2,1-3.3-2.5-4.3-4.4c-0.9,0-1.9,0-2.8,0c-4.4,0.6-8.8,1.6-13.2,1.7c-6.3,0.1-12.5,0.7-18.7,1.9c-2.8,0.6-5.8-0.4-8.7-0.8
	c-0.7-0.1-1.3-1.2-2.7-2.7l46.5-4.4v-54.6c-14.2,2.6-28.5,0.7-43.1,4.1c0.4,5.6,0.7,11,1.1,16.3c0.1,0.8,0.2,1.7,0.2,2.5
	c0,10.2,0,20.3,0,30.5C787.8,822.2,788.2,824.2,785,823.7z"/>
<path class="st11" d="M782.8,755.8c0-3.2,0.1-6.1,0-9.1c-0.3-13.9-0.6-27.9-1-41.8c-0.2-5.5-0.5-10.9-1-16.3c-0.1-1.5-1-3-1.8-5.2
	c0.8-0.4,1.9-1.3,3-1.3c7.3-0.4,14.6-0.9,21.8-1c6.7-0.1,13.4-0.9,19.9-2.5c2.1-0.4,4.2-0.6,6.4-0.4c0.9,0,1.7,1.1,3.1,2l-6.7,2.5
	c0.6,6.1,1.1,12.3,1.7,18.5c0.1,1,0.3,2,0.4,2.9c0.7,10.5,1.3,21.1,2.1,31.7c0.4,5.6,1.3,11.1,1.9,16.7c0,1.1-0.1,2.2-0.4,3.3
	c-0.6-0.2-1.1-0.2-1.2-0.3c-1.2-5.1-1.2-5-6.5-4.4c-12,1.2-23.8,3.8-36,3.2C787.1,754,785.4,755,782.8,755.8z M783.8,685.9
	c0,5.1-0.2,9.2,0,13.4c0.5,9.1,1.4,18.1,1.8,27.2c0.3,6.5,0.1,13,0.1,19.5c0,1.3,0.2,2.5,0.4,4.3l42.7-4.6c-0.4-8-0.7-15.6-1.2-23.2
	s-1.3-15.1-1.9-22.7c-0.4-4.6-0.7-9.2-1-13.8c-0.2-2.4-1.6-3.5-3.7-2.8c-8.6,2.5-17.4,1.7-26.2,1.9
	C791.4,685.1,787.8,685.6,783.8,685.9z"/>
<path class="st11" d="M868.6,580.3c6.2-1.8,12.5-1.5,18.8-1.3c6,0.2,12.1-1.6,18.4,1c0,4-0.1,8.5,0,13c0.2,4.6,0.8,9.2,0.8,13.8
	c0,3.5-0.4,6.9-1.2,10.3c-0.2,0.9-2.3,1.8-3.5,1.8c-4.2,0.2-8.3-0.1-12.5,0.1c-3,0.1-5.9,0.8-8.8,0.8c-3.4,0-6.8-0.6-10.8-1
	c-0.5-2.4-0.8-4.8-1.1-7.2c-0.2-5.5-0.1-11-0.1-16.5l4.1,0.5v18c2.4-2.9,3.9-4.9,5.6-6.8c4.9-5.4,4.9-5.4,0.3-10.8l4.3-1.2
	c0.8,0.6,1.7,1,2.6,1.3c1.1,0.2,2.8,0.5,3.4-0.1c4.4-3.7,8.1-8.2,11-13.2l-16.2,0.2L868.6,580.3z M902.5,586.4
	c-3.7,4.1-7.1,8.1-10.6,11.9c-1.7,1.8-1.1,3.1,0.4,4.6c3.1,3,6,6,9.1,9c0.3,0.3,0.8,0.2,1.2,0.4V586.4z M886.7,603.5
	c-3.3,3.8-6.1,7.1-9.2,10.7c3.7,1.5,6.6,0,9.6-0.2s6.1-0.1,9-0.1L886.7,603.5z"/>
<path class="st11" d="M773.1,582.3c-0.5,4.1-1.3,7.1-1.2,10.1c0.1,6.6,0.6,13.2,0.8,19.8c0,1.7-0.8,3.5-1.1,4.8
	c-6.2,1.6-12.2,3.5-18.2,4.6c-4.2,0.7-8.6,0.2-12.9,0.1c-0.5,0-1-0.8-1.8-1.4c1.9-2.2,1.7-4.5,1.3-7.2c-0.8-6.7-0.8-13.5-1.2-20.3
	c-0.1-2.4-0.3-4.9-0.5-8c1.2-0.4,2.5-0.6,3.7-0.8c5.2-0.1,10.3-0.1,15.5,0c3.7,0.1,7.3-0.3,10.5-2.2
	C769.6,580.7,771.8,580.9,773.1,582.3z M766.8,587.9l-15.8,1c-1.2,0.1-2.4,0.1-4.9,0.2l13.3,11.5C762.1,596.1,764.5,592,766.8,587.9
	l0.4-0.6C767,587.5,766.9,587.7,766.8,587.9z M746.1,616.6l10.3-12.9L742,590.8c0.6,9.4,1.2,18,1.8,26.9c3.2,0,6,0.6,8.3-0.1
	c5.1-1.8,10.5-2.8,15.9-3c0.2,0,0.4-0.5,0.8-1.1c-3.3-2.5-6.6-5.1-9.9-7.7C752.6,613.7,749.6,616.2,746.1,616.6z M761.5,602.5
	l6.9,5.3v-15L761.5,602.5z"/>
<path class="st11" d="M812.7,587.9c0,1.3,0,2.5,0.1,3.8l1.1,26.2c-0.2,1.2-0.3,2.5-0.6,4.5c-0.8-0.8-1.6-1.6-2.5-2.3
	c-1.2-0.7-2.5-1.8-3.7-1.8c-7,0.4-14.1,1-21.1,1.6c-1.3,0.1-2.5,0.6-3.8,0.7c-1.7,0.1-3.4,0-6.2,0c3.8-4.2,2.9-8.3,2.8-12.3
	c-0.2-6.4-0.7-12.8-0.9-19.2c-0.1-4.5,0-4.5,4.3-5.3c2.3-0.4,4.5-0.7,6.8-1l7.8,3c-1.2,0.4-2.4,0.8-3.6,1c-3.3,0.4-6.6,0.7-10,1.1
	L783,589l14.4,9.6l6.4-11.7l2.1,0.3l-6.7,13l10.6,13.9v-26.1L812.7,587.9L812.7,587.9z M806.2,614.1c-3.4-4.6-5.5-8.8-9.8-11.2
	l-8,7.9l-0.8-0.7c0.4-1,0.9-1.9,1.5-2.8c1.1-1.3,2.2-2.5,3.5-3.6c1.7-1.6,1.7-3.2-0.2-4.6c-3.2-2.4-6.5-4.8-10.9-7.9
	c0.6,7.9,0.8,14.6,1.6,21.2c0.4,3.1,2.4,3.9,5.5,3.5c3.6-0.4,7.2-0.6,10.8-1C801.4,614.8,803.3,614.5,806.2,614.1L806.2,614.1
	L806.2,614.1z"/>
<path class="st17" d="M868.6,580.3l15.2,2.7l-0.8,11.9l-4.3,1.2l-5.9-0.5l-4.1-0.5l-12.8-1.3l-3.1-0.6l-5.8-1.2
	c2.8-4.4,2.3-9.4,3-14.2L868.6,580.3z"/>
<path class="st16" d="M739.8,641.8c0.7-0.6,1.3-1.5,2.1-1.7c2.2-0.6,4.5-1,6.8-1.1c15.1-0.4,30.3-1.5,45.3-0.8
	c10,0.5,19.9,0.7,29.8,0.6c6.7,0,13.4-1.2,20.2-1.8c0.3,0,0.7-0.1,1-0.1c18-0.3,35.9-0.7,53.8-1c2.2,0,4.4,0.9,6.6,1.4l0.1,1.1
	c-1.3,0.2-2.6,0.3-3.9,0.4c-12.5,0-25-0.1-37.5,0.1c-9.1,0.1-18.3,0.1-27.3,1.1c-11.8,1.4-23.8,2-35.7,1.8
	c-10.3-0.2-20.6-1-30.8-0.8c-8.1,0.1-16.1,1.2-24.2,1.8c-2,0.2-3.9,0-5.9,0L739.8,641.8z"/>
<path class="st18" d="M805.9,587.2l-2.1-0.3l-7-1l-7.8-3c-2.8-1.3-5.5-2.7-8.2-4.3c-1.5-1-2.4-2.8-3.9-4.6c2-0.9,3.1-1.7,4.3-1.9
	c9.7-1.6,19.5-1.6,29.2,0c2.8,0.5,5.6,0.5,8.4,0.8l-6,15l-2.9,0L805.9,587.2z"/>
<path class="st11" d="M579.8,725l1.4-9.3h-3.1c-0.6-3.1,1.2-3.7,3.6-3.7c5.3,0,10.6,0.2,15.9-0.1c9.7-0.5,19.3-1.5,29-1.8
	c5.3-0.1,10.7-1.3,16.1,0c0.7,0.2,1.4,0.6,2,1c-0.3,1.4-0.5,2.8-0.9,4.5l3,0.5v2.8c-0.3,0.1-0.8,0-0.9,0.2c-0.2,0.3-0.2,0.6-0.1,0.9
	c0.3,0.8,0.7,1.5,1.1,2.6c-5.5,0.5-10.6,1.2-15.6,1.3c-10.9,0.2-21.9,0-32.8,0.1C592.3,724.1,586,724.6,579.8,725L579.8,725z
	 M641.7,713c-3.7,0-7-0.4-10.2,0.1c-8.6,1.4-17.4,2-26.1,1.9c-5.8-0.1-11.6,0-17.5,0c-1.3,0-2.5,0.2-3.6,0.3v6.1
	c3.9-0.2,7.3-0.4,10.8-0.5c11.6-0.1,23.3,0.1,34.9-0.1c3.9-0.1,7.8-0.8,11.7-1.2L641.7,713z"/>
<path class="st16" d="M741.4,634c1.4-0.4,2.8-0.7,4.2-1c1.3-0.1,2.7-0.1,4,0c10.4,0.1,20.8-0.5,31.2-2c0.8-0.1,1.7-0.1,2.5,0
	c10.2,1.3,20.4-0.7,30.7-0.1c6.8,0.3,13.5-0.3,20.2-1.8c1.3-0.2,2.7-0.2,4-0.1c11.7,0,23.3,0,35,0c2.6-0.2,5.2-0.4,7.8-0.8
	c0.5-0.1,1-0.2,1.5-0.1c6.7,2.3,13.4-0.7,20.2-0.1c1.8,0.2,3.7-0.2,4.1,2.4c-0.5,0.3-0.9,0.5-1.5,0.6c-10.4,0.4-20.9,0.7-31.3,1.1
	c-2.6,0.1-5.2,0.6-7.8,0.8c-1.1,0.1-2.2-0.3-3.4-0.4c-9.6-0.1-19.3-0.5-28.9-0.2c-6.6,0.2-13.1,1.3-19.7,1.7
	c-2.9,0.2-5.9-0.9-8.8-0.8c-9.3,0.2-18.5,0.6-27.8,1c-7.9,0.3-15.9,0.6-23.8,1c-2.1,0.1-4.2,0.9-6.3,0.8c-2-0.2-3.9-0.6-5.8-1.1
	C741.5,634.5,741.4,634.2,741.4,634z"/>
<path class="st11" d="M669.8,732.1V731c0.5-0.3,1.1-0.9,1.6-0.9c6.4-0.4,12.8-0.8,19.6-1.1l3.1-4.7c4.5,3.1,9.3,1.7,13.9,1.7
	c5.3,0,10.5-0.7,15.8-0.9c3.8-0.2,7.6,0,11.6,0c0.5,3.1,1,5.8,1.4,8.5c0.3,2.2-0.8,3.4-3.1,3.5c-5.4,0.3-10.9,0.6-16.3,1
	c-6.2,0.5-12.4,1.3-18.6,1.8c-2.2,0.2-4.4-0.5-7.4-0.8c1.2-1.5,2-2.2,2.2-3c0.7-2-0.3-3.9-2.4-3.9c-3.1-0.1-6.3,0.1-9.4,0.4
	C677.7,732.9,673.7,733.8,669.8,732.1z M697,735.9c2.7,0,4.8,0.1,7,0c8.7-0.6,17.4-1.3,26.1-2c1.1-0.1,2.2-0.2,3.5-0.4l-1.5-6.1
	l-35.1,2.6L697,735.9z"/>
<path class="st11" d="M611.5,435.9l0.1,3.1c-3.8,0.2-7.4,3-11.5,1.2c-0.6-0.1-1.3,0.2-1.7,0.7c-1.7,2.3-3.8,2.2-6,1.1
	c-1.2,1.8-2.1,3.3-3.1,4.9c-3.5,5.2-6.5,5.4-10.4,0.6c-0.3-0.4-0.6-0.9-0.8-1.3c-2.1,0.2-4.5,2.1-6.3-1.2c0.4-0.5,0.7-1.3,1.4-1.7
	c3.3-2,4.2-5.2,4.6-8.8c0.5-4.6,1.2-9.1,2-13.6c0.3-1.2,1.1-2.2,2.2-2.7c1.8-0.5,2.3,1.2,2.8,2.7c1.6,4.2,1.3,9-0.7,13
	c-1.8,3.5-1.5,7-1.2,10.6c2.6,0.6,2.7-1.7,3.6-2.8c0.9-1.4,1.8-2.8,2.5-4.3c2.3-4.4,3.7-4.5,7.3-0.6L611.5,435.9z"/>
<path class="st11" d="M730.8,432.1c-4.3-0.4-8.8,2.9-12.1-2.6c1-0.6,2-1.1,3.2-1.6c2.8-0.9,5.8-1.3,8.5-2.4c1.7-0.7,3-2.4,4.5-3.6
	s2.5-2.7,4.1-3.4c1.3-0.5,2.8-0.3,4,0.4c1.5,1.1,1.1,3-0.1,4.4c-0.9,1-1.8,1.9-2.8,2.9c-4.3,4-4.3,4-4.1,9.7c1.9,1.1,4,2.1,6,3
	c1.3,0.5,2.8,0.7,4.1,0.4c6.2-1.7,11.3,1.4,16.7,3.3c0.6,0.2,0.8,1.6,1.3,2.7c-2.6,0.9-4.7,1.2-6.8-0.4c-3.4-2.4-6.8-2.9-10.6-0.6
	c-1.2,0.7-3.4,0.2-5.1-0.2c-1.2-0.3-2.2-1.3-3.6-2.2c-0.6,0.5-1.3,0.9-2,1.3c-3.3,1.6-5,0.7-5.1-3
	C730.7,437.5,730.8,434.9,730.8,432.1z"/>
<path class="st11" d="M808.8,796.1c2.7,4.5,4.8,8.3,7.2,12.1c0.7,0.8,1.6,1.4,2.7,1.8c1,0.5,2,0.8,3.9,1.5c-1.6,1.5-2.4,3-3.6,3.3
	c-4.8,1.3-9.6,2.3-14.4,3.2c-3.1,0.5-5-0.9-6.8-3.7c-4.1-6.3-3.6-12,1-17.7c0.6-0.9,1-2,1-3.2c0.2-1.7-0.1-3.3,0.1-5
	c0.2-3.2,2.2-4.7,5.4-4.3c0.3,0,0.7,0.1,1,0.2c6.2,1.3,7.4,4.2,4.1,9.8C809.7,794.8,809.2,795.5,808.8,796.1z M812.6,811.4
	c0.2-0.5,0.3-1,0.5-1.6c-2.5-3.7-4.8-7.4-7.5-10.9c-1.1-1.5-3.9-1.3-5.2,0.1c-2.4,2.5-2.3,10.1,0.3,12.3c0.9,0.9,2.1,1.4,3.4,1.5
	C807,812.5,809.8,812,812.6,811.4L812.6,811.4z M803.1,794c4-0.4,4.8-2.8,5.6-5.7l-5.6-1.4V794z"/>
<path class="st11" d="M733.8,714.9c-4.5,0-9-0.2-13.5,0.2c-5.1,0.3-10.1,1.1-15.2,1.7c-3.1,0.4-6.2,0.9-9.3,1.1
	c-0.9,0.1-1.8-0.6-2.8-0.9c0.2-1.6,0.4-3,0.6-4.5l-12.7-1.7v-1.3l12.6-0.8c-0.4-2.9-2.2-5.8,1.3-7.8l2.1,4c0.3,3,0.7,6,1,8.5
	l34.6-3.2c-0.1-1-0.3-2-0.4-3.1c-1,0.4-2.1,0.6-3.2,0.7c-8.6-0.3-17.1-0.6-25.7-1c-0.6,0-1.2-1.2-1.8-1.9h34.2v7
	C733.6,711.9,733.8,713.4,733.8,714.9z"/>
<path class="st11" d="M852.7,593.2l3.1,0.6c0.3,6.6,0.7,13.1,1,19.7c0.1,1.6,0,3.2,0,5.4c-2.4,0-4.3,0-6.2,0
	c-5.9-0.1-11.8,0.5-17.6,1.8c-1.9,0.4-3.9,0-5.9-0.2c-1.6-0.1-3.1-0.3-5.3-0.6v-4.3c2.5-3.6,5.2-6.7,10.1-6.6l-4.7,6.8
	c6.2,0.3,11.8-0.9,17.9-2.4l-8.5-7.8l-2.7,1.2c0.5-3.4,2.9-5.1,5.8-6.2c2.6,3.8,5.4,7.4,7.6,11.4c1.6,2.8,3.5,3.1,6.3,2.3
	C853.3,607.3,853,600.3,852.7,593.2z"/>
<path class="st11" d="M708.1,435.9c1.6,3.7-0.5,4.8-2.7,4.9c-3.7,0.2-7.6,0.9-11.2-1.1c-1.7-0.9-3.8-1.1-5.6-2
	c-1.9-1.1-4.3-0.9-5.9,0.6c-2.8,2.2-6.1,2.1-9.2,0.6c-4.2,5.2-6.6,5.4-10.4,1.3c-1,0.4-2.2,1.4-2.8,1.1s-1.3-1.8-1.5-2.8
	c-0.5-4.3,0.6-6.3,5-9.6c3,1.7,1.5,5.5,3.9,8c0.4-0.8,0.8-1.6,1.2-2.4c1.4-2,3.3-2.4,6-0.8c2.5,1.5,4.6,1.7,6.7-0.4
	c1.8-1.8,3.8-1.8,5.9-1C694.2,434.8,700.8,436.8,708.1,435.9z"/>
<path class="st11" d="M642.8,784c-2.2-0.3-4.6-1.2-6.7-0.8c-8.3,1.2-16.5,2.6-24.9,3c-8.8,0.3-17.7,1.6-26.9,2.5v6.1l2.6,0.2
	l0.1,1.1l-6.2,1.2v-11.9c1.8-0.6,3.6-1.1,5.5-1.4c10.9-0.8,21.8-1.2,32.6-2.2c6-0.6,12.1-1.5,18-2.8c3-0.6,4.9,1.6,7.4,2.3
	c0.4,0.1,0.5,1.7,0.7,2.7L642.8,784z"/>
<path class="st16" d="M665.5,532.9c-2,0.5-4.1,0.8-6.1,1c-14.6,0.1-29.2-0.1-43.9,0.1c-7.8,0.1-15.5,0.7-23.3,0.9
	c-1.4,0-3.7,0.8-3.2-2.4c0.6-0.2,1.1-0.4,1.7-0.5c3.9-0.3,7.9-0.7,11.8-1c2.7-0.2,5.4,0.3,8.2,0.2c17-0.8,34.1-0.9,51.2-1.2
	c1.2,0,2.5,0.8,3.8,1.2L665.5,532.9z"/>
<path class="st16" d="M706.9,478.4c1.6-0.5,3.2-1,4.8-1.4c0.3,0,0.7,0,1,0c14.2-0.3,28.5-0.9,42.7-0.9c8.9,0,17.8,0.6,26.8,1
	c0.5,0.1,0.9,0.3,1.4,0.6c-0.3,2-1.7,2.2-3.2,2.3c-3.9,0.3-7.9,1-11.8,0.9c-6.4-0.2-12.8-1-19.2-1.5c-2.6-0.2-5.4-0.7-7.9-0.3
	c-10.1,1.8-20.2,0.5-30.2,0.9c-1.4,0-2.8-0.1-4.1-0.3C707.1,479.2,707,478.8,706.9,478.4z"/>
<path class="st11" d="M642.8,744l2,1.1c-0.4,0.6-0.8,1.7-1.3,1.8c-3.6,0.5-7.2,0.9-10.8,1.1s-7-0.2-10.5,0.1
	c-6.2,0.5-12.4,1.2-18.6,1.8l-0.5,0c-7.4,0.3-14.8,0.7-22.3,1c-0.6-0.1-1.3-0.2-1.9-0.4c0.2-2.2,1.5-2.4,3.1-2.6
	c8.4-0.6,16.7-1.5,25.1-2s16.8-0.6,25.2-1.1C636,744.8,639.4,744.3,642.8,744z"/>
<path class="st11" d="M586.8,796.1v-1.2c6.4-2.2,13.1-3.2,19.8-3c6,0.1,12,0.1,17.9,0c3.6-0.1,7.2-0.7,10.8-0.9c2.3-0.1,4.6,0,6.7,0
	l2.8-3.3c2,2.9,0.9,5.9,0,9.1c-0.6-1.2-1.1-2.3-1.6-3.2c-5.1,0.5-10.2,1.1-15.2,1.3c-4.5,0.2-9-0.1-13.4,0.1
	C605.3,795.3,596.1,795.7,586.8,796.1z"/>
<path class="st11" d="M581.8,694v-1.1c0.4-0.3,0.8-0.8,1.1-0.8c8.4-0.4,16.8-1,25.2-1s16.8,0.7,25.2,0.8c2.9,0,5.8-0.6,8.8-0.8
	c1.4-0.1,2.9,0,4.7,0c-0.6,2.3-4.2,2.2-3,4.9l-1.9,1c-0.2-0.9-0.3-1.8-0.5-2.9L581.8,694z"/>
<path class="st16" d="M620.7,503.9l1.2,3c-6.5,0-12.9,0-19.4,0.1c-3.3,0.1-6.5,0.5-9.8,0.9c-2.3,0.2-3.9-0.3-3.8-3.4
	c7-1.8,14.3-2.1,21.4-0.9C613.7,504.2,617.2,503.8,620.7,503.9z"/>
<path class="st16" d="M762.6,504.9l-3.9-3.9c10-1.7,16.3-1.6,24,0.7c-0.4,2.8-2.4,3.1-4.6,3.1C772.9,504.9,767.8,504.9,762.6,504.9z
	"/>
<path class="st16" d="M616.6,477.9c0.1,1,0.2,2,0.3,3h-27.7l-0.1-1.1c1.9-1.5,4.2-1.8,6.6-1.8C602.6,477.9,609.6,477.9,616.6,477.9z
	"/>
<path class="st16" d="M819.3,779.3c-1.1,1.2-1.6,2.2-2.1,2.2c-8,0.1-15.9,0.1-23.9,0c-0.5,0-1-1-2.2-2.2L819.3,779.3z"/>
<path class="st11" d="M693.8,526l3,0.6c2.6,4.5,2.7,5.1,0.5,7.4c-1.1,1.2-2.4,2.9-4.2,1.4c-1.5-1.2-2.9-3-1.9-5.2
	C692,528.8,692.8,527.4,693.8,526z"/>
<path class="st11" d="M576.7,527.9c2.2,0.1,4,1.9,4,4.1c0,1.8-2.6,4.7-4.2,4.9s-3.7-2.5-3.6-4.5S574.9,528,576.7,527.9z"/>
<path class="st16" d="M662.8,482.8c-1.6-0.3-3.2-0.5-4.8-1c-2-0.5-3.9-1.3-2.9-4l11.2,0.1L662.8,482.8z"/>
<path class="st16" d="M574.3,508.7c-0.7-5.2-0.3-6.4,2.1-6.7c1.9-0.2,3.2,0.5,3.4,2.6C580,507.2,578.2,508.5,574.3,508.7z"/>
<path class="st11" d="M573.9,481.8v-5.1c1.9-1,3.8-1.4,5.3,0.4c0.6,1,0.7,2.1,0.3,3.2C578.4,482.7,576.3,481.9,573.9,481.8z"/>
<path class="st11" d="M692.2,475.2c4.6-0.2,5.5,0.2,5.6,2.6c0.1,2.5-1.1,3.2-5.6,2.9V475.2z"/>
<path class="st11" d="M646.8,718.9v-2.8c4.1,0,8.2-0.1,12.2-0.1c1.2,0.1,2.4,0.2,3.5,0.5c0,0.3,0,0.7,0,1L646.8,718.9z"/>
<path class="st11" d="M581.7,739.9l2,1.1v6.2c-1.3-0.4-2.4-0.4-2.5-0.7c-0.5-1.9-0.9-3.8-1.2-5.7
	C580.1,740.5,581.2,740.2,581.7,739.9z"/>
<path class="st11" d="M583.8,764l-1,3.9l-1-0.1c0.6-1.7-1.5-4.5,2-5V764z"/>
<path class="st11" d="M677.5,709.5h-3.4v-1.1l3.4-0.2C677.5,708.6,677.5,709,677.5,709.5z"/>
<path class="st11" d="M733.8,714.9c0-1.4-0.2-3,2-2.9C735.7,713.3,736.2,715.1,733.8,714.9z"/>
<path class="st11" d="M647.8,739c-1.8,1-1.9,1-2-2L647.8,739z"/>
<path class="st19" d="M847.8,763.9c-1.5,0.1-2.1-0.6-2-2L847.8,763.9z"/>
<path class="st11" d="M670.8,718.9v-2l1.7,1L670.8,718.9z"/>
<path class="st11" d="M642.8,784h2l0.1,2.2L642.8,784z"/>
<path class="st11" d="M649.8,767.9l-1.4-0.3l1.4-0.6L649.8,767.9z"/>
<path class="st11" d="M669.8,697.9V696C670.9,696.6,671.1,697.2,669.8,697.9z"/>
<path class="st11" d="M644.8,734.9h-2C643.5,733.7,644.2,733.8,644.8,734.9z"/>
<path class="st11" d="M671.8,766c0-0.4,0-0.7,0-1.1C671.8,765.2,671.8,765.6,671.8,766z"/>
<path class="st11" d="M581.8,767.9h1.1l-1.1,1.1L581.8,767.9z"/>
<path class="st11" d="M579.8,724.9c-0.2,0.2-0.3,0.4-0.5,0.5c0-0.1,0-0.3,0.1-0.3C579.6,725,579.7,725,579.8,724.9L579.8,724.9z"/>
<path class="st5" d="M739.9,352.2c0,3.2,0.2,6.1-0.1,9c-0.3,1.2-1.1,2.1-2.2,2.6c-3.5,0.8-7.6-3.6-7.2-8l5.7,4.6
	C737.7,357.6,735.5,353.7,739.9,352.2z"/>
<path class="st5" d="M684.3,372.8l6,5.4c3.2-1.9-0.7-6.5,4.4-7.5c0,2.6,0.2,5,0,7.4s-1.8,3.3-4.2,3.1
	C687,380.7,684.3,377.3,684.3,372.8z"/>
<path class="st9" d="M724,344.3c-0.9-4.1,1.9-4.1,3.5-4.2c3.4-0.1,7.4-1.9,11.2,2.5L724,344.3z"/>
<path class="st11" d="M118.6,203.2l3.7,8.7c-1.7-0.2-2.8,0.1-3.2-0.4c-3.1-3.4-3.9-7.7-4.9-12.4l2.8,1.3c3.2-1,6.2-1.7,9-2.7
	c7.6-2.7,15.3-5.3,22.7-8.4c12.8-5.3,25.5-10.9,38.3-16.4c2.1-0.9,4.1-2.1,6.2-3c1.8-0.6,3.6-1,5.4-1.3c-0.5,4.1-4.2,3.3-5.7,6.2
	c1.9,4,0.5,10.6,7.5,12.8c-0.7,1.9-1.4,3.8-2.1,5.6c-1.7,0.1-3.4,0.3-5.1,0.7c-10.8,3.9-21.6,8-32.4,11.9
	c-11.1,4.1-22.3,8.2-33.5,12.2c-2,0.6-4.2,0.7-6.2,0.2c23.7-11,48.2-19.9,72.8-28.8c-1.2-4.6-2.4-8.8-3.7-13.4
	c-4.9,0.4-9.3,2.7-13.8,4.6c-8.5,3.6-16.8,7.7-25.3,11.5c-8.9,3.9-17.9,7.6-27.7,8.9C121.8,201.3,120.3,202.4,118.6,203.2z"/>
<path class="st11" d="M122.2,236.2l5.6-3.9l-5-2c0.1-0.6,0-1.5,0.3-1.8c1.1-1,2.3-1.8,3.7-2.3c7.1-2.7,14.3-5.1,21.4-7.9
	c7.2-2.8,14.3-5.9,21.5-8.8c7.1-2.8,14.1-5.5,21.3-8.1c1.3-0.3,2.6-0.4,4-0.4c0.2,3,0.4,5.6,0.6,8.5c-16.1,6.5-32.2,13.1-48.4,19.4
	c-7.5,2.9-15.3,5.2-22.9,7.8c-0.6,0.1-1.2,0.2-1.9,0.2L122.2,236.2z M192.7,206.8c0.1-1.6-0.7-2.2-2.6-1.5c-5.7,2.2-11.5,4.1-17,6.6
	c-13.2,6-26.5,11.9-40.4,16c-1.3,0.5-2.6,1.1-3.8,1.7c1.1,2.6,2.5,2.4,4.3,1.7c6.4-2.6,12.9-4.9,19.4-7.4c9.9-4,19.9-8.1,29.8-12.2
	C185.7,210.3,189,208.6,192.7,206.8z"/>
<polygon class="st11" points="120.3,237.6 120.2,237.4 120.4,237.4 "/>
<path class="st20" d="M213.8,179.9l-0.5-0.5c0.1,0,0.3,0,0.3,0.1C213.7,179.6,213.8,179.8,213.8,179.9L213.8,179.9z"/>
<path class="st11" d="M231.7,241.4c3.9,7.5,4.2,15.5,9.2,22.2c-1.3,0.9-2.6,1.6-4,2.3c-6.6,2.5-13.2,4.9-19.8,7.4
	c-1.5,0.7-3.3,0.1-4-1.4c-0.1-0.1-0.1-0.3-0.2-0.4c-2-5.4-3.9-10.8-5.9-16.1c-0.6-1.6-0.2-2.9,1.6-3.6s3.6-1.6,5.5-2.3
	C220,247.2,226.4,246.2,231.7,241.4z M235.6,262.1c-1.8-4.7-3.6-9.5-5.4-14.3l-18.4,7c-0.3,5.1,3.1,9.2,4.4,13.9L235.6,262.1z"/>
<path class="st11" d="M149,298.6c-2.8-7.1-5.7-14.4-8.6-21.6c6.1-3,12.9-3.4,17.4-8.7l5.9,1c-2.8,3.6-1.2,7,0.4,10.4
	c1.2,2.5,2,5.2,3,8l5.1,0.3C169.3,292.9,155.8,299.2,149,298.6z M158.1,274.6l-13.1,4.8c1.7,4.7,3.4,9.1,5,13.6
	c0.6,1.7,2,2.5,3.5,1.9c3.6-1.3,7.1-3,10.9-4.6C162.1,284.7,160.1,279.9,158.1,274.6z"/>
<path class="st11" d="M201.6,275c-2.1,1.5-3.4,2.8-4.9,3.5c-3.4,1.6-7,3-10.6,4.2c-3.6,1.2-5,0.3-6.7-3.5s-3.6-7.3-5.3-11
	c-0.8-1.7-0.4-3.5,1.4-4.1c4.9-1.6,9.5-3.8,13.7-6.7c1.5-1,4.1-0.4,7.3-0.5c-3.9,4-2.3,7.1-0.7,10.2
	C197.3,269.8,196.8,273.7,201.6,275z M194.8,274.5c-1.6-4.1-3-7.8-4.6-12l-11.6,5.4c1.1,3.2,2.1,6.4,3.5,9.3c0.7,1,1.9,1.5,3.1,1.4
	C188.4,277.5,191.5,276,194.8,274.5z"/>
<path class="st11" d="M882.2,819.6l-3-3.2c-6,0.5-12.2,1.6-18.1-0.7c-0.6-5.7-0.5-10.7,2-15.5c0.6-1.2,0.2-2.8,0.3-4.2
	c0-2.2,0.1-4.5,0.5-6.7c0.2-1,1.7-2,2.8-2.2c2.4-0.6,4.8-0.9,7.3-0.9c1.2,0.2,2.2,1,2.7,2.1c0.4,1.5,0.3,3-0.2,4.4
	c-1,2.3-0.6,5,1.2,6.9c1.7,1.8,3,3.9,4.1,6.2c1.3,3.2,3.1,5,7.1,4.2c-0.2,1.3-0.1,2.5-0.6,3c-1.1,0.9-2.8,1.2-3.7,2.2
	S883.1,817.6,882.2,819.6z M866.5,812.9c1.9,0.1,3.8,0.1,5.7,0c7.1-1,7.4-1.8,4-8.1c-2-3.6-4.6-5.4-9-4.7
	C865.4,804.2,863.1,808.2,866.5,812.9z M867,794.7c4.7,0,5.2-0.5,5.3-4.5H867V794.7z"/>
<path class="st11" d="M858.1,779.1c3.4-3.6,7.8-1.6,11.7-2c4.1-0.4,8.3-0.3,13.4-0.5c-4,5.3-8.9,2.2-12.5,3.6
	C866.3,781.9,862.4,779.9,858.1,779.1z"/>
<path class="st20" d="M766.8,587.9c0.1-0.2,0.3-0.4,0.4-0.7L766.8,587.9L766.8,587.9z"/>
<path class="st11" d="M875.3,719.2c1.7,4,3.1,7.5,4.6,10.8c0.5,0.8,1.2,1.4,2.1,1.9c0.9,0.6,1.8,1.1,3.5,2
	c-4.2,1.8-7.6,2.9-11.4,2.3c-2-0.2-4-0.2-5.9,0.1c-2.8,0.2-5.5,0.6-8.1,0.9c-3.3-4.9-3-7.2,1.8-15.9c-0.2-0.6-0.5-1.1-0.9-1.6
	c-2.8-3-2.4-6.4-0.7-9.6s5.2-4.7,9.3-4.1c1.4,0.2,2.8,0.2,4.2,0c4.9-0.4,7.1,2.7,5.2,7.3c-0.5,1.2-1.1,2.4-1.8,3.5
	C876.7,717.6,876,718.4,875.3,719.2z M875.9,730.2c-0.9-1.8-1.6-3.3-2.3-4.7c-0.3-0.6-0.8-1.1-1.3-1.5c-2.5-2.7-6-2.7-8,0.3
	c-1.8,2.5-2.7,5.7-2.3,8.8C866.5,730.7,871.5,733.5,875.9,730.2L875.9,730.2z M876,711.5c-0.2-0.5-0.4-0.9-0.6-1.3
	c-0.9,0.2-1.8,0.3-2.7,0.3c-1,0-2.2,0-2.9-0.6c-2.1-1.7-3.8-1-5,0.7s-3,3.4-1.1,5.7c1.5,1.8,3.4,2.3,5.2,1
	C871.4,715.5,873.6,713.4,876,711.5L876,711.5z"/>
<path class="st11" d="M855.1,702.2c-0.4-3.5,1-4.3,3.1-4.2c7.7,0.3,15.5-1,23.5,1.4c-1.9,1.7-3.4,2.7-6.2,2.1
	c-3.3-0.7-6.9-0.3-10.3-0.1C861.9,701.5,858.7,701.9,855.1,702.2z"/>
<path class="st11" d="M809.8,721.2c2.8,1.5,3.7,3.8,4.2,6.6c0.4,2.3,1.5,4.5,2.4,7c-3.2,3.2-7.7,2.6-11.8,2.8
	c-1.8,0.1-3.6-0.5-5.7,0.2c-2.8,0.9-4.2-0.8-3.5-3.9c0.8-3.7,1.8-7.3,3-11.5c-1.3-1.5-3.5-3.5-2.4-6.8c1.4-3.8,3.1-7.3,6.7-9.5
	c2.9-1.8,4.2-1.4,6.4,1.6C813.3,713.3,813.4,715.1,809.8,721.2z M798.8,734.2l11.1-1.3c0.1-1.7,0.1-3.4-0.1-5.1
	c-0.1-1-0.6-1.8-1.3-2.5c-3.7-2.7-7.5-1.3-8.6,3.2C799.4,730.2,799.2,731.8,798.8,734.2L798.8,734.2z M803.7,709.8
	c-1.1,1.6-2,2.9-2.9,4.3c-0.3,0.4-0.5,0.8-0.7,1.3c-0.6,2,0.1,3.2,2.2,3.5c2.3,0.5,4.7-0.8,5.5-3.1
	C808.5,713.3,807.5,711.8,803.7,709.8L803.7,709.8z"/>
<path class="st16" d="M816.2,696.8c-9.6,3.2-18.2,4.4-27.5,1.4C793.2,695.7,811.5,694.6,816.2,696.8z"/>
<ellipse transform="matrix(0.9182 -0.3961 0.3961 0.9182 -71.2134 126.7555)" class="st12" cx="271.3" cy="235.8" rx="2.8" ry="4.2"/>
</svg>
