<svg width="564" height="333" viewBox="0 0 564 333" fill="none" xmlns="http://www.w3.org/2000/svg">
<line x1="282.5" y1="223" x2="282.5" y2="290" stroke="#0A2535"/>
<line x1="90.5" y1="224" x2="90.5" y2="257" stroke="#0A2535"/>
<line x1="474.5" y1="224" x2="474.5" y2="257" stroke="#0A2535"/>
<line x1="475" y1="257.5" x2="90" y2="257.5" stroke="#0A2535"/>
<line x1="281.5" y1="110" x2="281.5" y2="43" stroke="#0A2535"/>
<line x1="473.5" y1="109" x2="473.5" y2="76" stroke="#0A2535"/>
<line x1="89.5" y1="109" x2="89.5" y2="76" stroke="#0A2535"/>
<line x1="89" y1="75.5" x2="474" y2="75.5" stroke="#0A2535"/>
<rect x="201" y="290" width="163" height="42" fill="white" stroke="#68C6A4" stroke-width="2"/>
<path d="M263.07 317H260.781L255.164 307.898H255.102L255.141 308.406C255.214 309.375 255.25 310.26 255.25 311.062V317H253.555V305.578H255.82L261.422 314.633H261.469C261.458 314.513 261.438 314.078 261.406 313.328C261.375 312.573 261.359 311.984 261.359 311.562V305.578H263.07V317ZM269.664 317.156C268.32 317.156 267.268 316.766 266.508 315.984C265.753 315.198 265.375 314.117 265.375 312.742C265.375 311.331 265.727 310.221 266.43 309.414C267.133 308.607 268.099 308.203 269.328 308.203C270.469 308.203 271.37 308.549 272.031 309.242C272.693 309.935 273.023 310.888 273.023 312.102V313.094H267.266C267.292 313.932 267.518 314.578 267.945 315.031C268.372 315.479 268.974 315.703 269.75 315.703C270.26 315.703 270.734 315.656 271.172 315.562C271.615 315.464 272.089 315.302 272.594 315.078V316.57C272.146 316.784 271.693 316.935 271.234 317.023C270.776 317.112 270.253 317.156 269.664 317.156ZM269.328 309.594C268.745 309.594 268.276 309.779 267.922 310.148C267.573 310.518 267.365 311.057 267.297 311.766H271.219C271.208 311.052 271.036 310.513 270.703 310.148C270.37 309.779 269.911 309.594 269.328 309.594ZM278.328 315.672C278.776 315.672 279.224 315.602 279.672 315.461V316.844C279.469 316.932 279.206 317.005 278.883 317.062C278.565 317.125 278.234 317.156 277.891 317.156C276.151 317.156 275.281 316.24 275.281 314.406V309.75H274.102V308.938L275.367 308.266L275.992 306.438H277.125V308.359H279.586V309.75H277.125V314.375C277.125 314.818 277.234 315.146 277.453 315.359C277.677 315.568 277.969 315.672 278.328 315.672ZM293.32 309.031C293.32 310.224 292.93 311.138 292.148 311.773C291.367 312.409 290.255 312.727 288.812 312.727H287.625V317H285.758V305.578H289.047C290.474 305.578 291.542 305.87 292.25 306.453C292.964 307.036 293.32 307.896 293.32 309.031ZM287.625 311.156H288.617C289.576 311.156 290.279 310.99 290.727 310.656C291.174 310.323 291.398 309.802 291.398 309.094C291.398 308.438 291.198 307.948 290.797 307.625C290.396 307.302 289.771 307.141 288.922 307.141H287.625V311.156ZM300.812 317L300.445 315.797H300.383C299.966 316.323 299.547 316.682 299.125 316.875C298.703 317.062 298.161 317.156 297.5 317.156C296.651 317.156 295.987 316.927 295.508 316.469C295.034 316.01 294.797 315.362 294.797 314.523C294.797 313.633 295.128 312.961 295.789 312.508C296.451 312.055 297.458 311.807 298.812 311.766L300.305 311.719V311.258C300.305 310.706 300.174 310.294 299.914 310.023C299.659 309.747 299.26 309.609 298.719 309.609C298.276 309.609 297.852 309.674 297.445 309.805C297.039 309.935 296.648 310.089 296.273 310.266L295.68 308.953C296.148 308.708 296.661 308.523 297.219 308.398C297.776 308.268 298.302 308.203 298.797 308.203C299.896 308.203 300.724 308.443 301.281 308.922C301.844 309.401 302.125 310.154 302.125 311.18V317H300.812ZM298.078 315.75C298.745 315.75 299.279 315.565 299.68 315.195C300.086 314.82 300.289 314.297 300.289 313.625V312.875L299.18 312.922C298.315 312.953 297.685 313.099 297.289 313.359C296.898 313.615 296.703 314.008 296.703 314.539C296.703 314.924 296.818 315.224 297.047 315.438C297.276 315.646 297.62 315.75 298.078 315.75ZM303.375 308.359H305.375L307.133 313.258C307.398 313.956 307.576 314.612 307.664 315.227H307.727C307.773 314.94 307.859 314.594 307.984 314.188C308.109 313.776 308.771 311.833 309.969 308.359H311.953L308.258 318.148C307.586 319.945 306.466 320.844 304.898 320.844C304.492 320.844 304.096 320.799 303.711 320.711V319.258C303.987 319.32 304.302 319.352 304.656 319.352C305.542 319.352 306.164 318.839 306.523 317.812L306.844 317L303.375 308.359Z" fill="#0A2535"/>
<rect x="1" y="109" width="178" height="115" fill="white" stroke="#68C6A4" stroke-width="2"/>
<path d="M77.375 139H75.3438L73.4062 132.188C73.3229 131.891 73.2188 131.464 73.0938 130.906C72.9688 130.344 72.8932 129.953 72.8672 129.734C72.8151 130.068 72.7292 130.5 72.6094 131.031C72.4948 131.562 72.3984 131.958 72.3203 132.219L70.4297 139H68.3984L66.9219 133.281L65.4219 127.578H67.3281L68.9609 134.234C69.2161 135.302 69.3984 136.245 69.5078 137.062C69.5651 136.62 69.651 136.125 69.7656 135.578C69.8802 135.031 69.9844 134.589 70.0781 134.25L71.9375 127.578H73.7891L75.6953 134.281C75.8776 134.901 76.0703 135.828 76.2734 137.062C76.3516 136.318 76.5391 135.37 76.8359 134.219L78.4609 127.578H80.3516L77.375 139ZM87.1875 139L86.8203 137.797H86.7578C86.3411 138.323 85.9219 138.682 85.5 138.875C85.0781 139.062 84.5365 139.156 83.875 139.156C83.026 139.156 82.362 138.927 81.8828 138.469C81.4089 138.01 81.1719 137.362 81.1719 136.523C81.1719 135.633 81.5026 134.961 82.1641 134.508C82.8255 134.055 83.8333 133.807 85.1875 133.766L86.6797 133.719V133.258C86.6797 132.706 86.5495 132.294 86.2891 132.023C86.0339 131.747 85.6354 131.609 85.0938 131.609C84.651 131.609 84.2266 131.674 83.8203 131.805C83.4141 131.935 83.0234 132.089 82.6484 132.266L82.0547 130.953C82.5234 130.708 83.0365 130.523 83.5938 130.398C84.151 130.268 84.6771 130.203 85.1719 130.203C86.2708 130.203 87.099 130.443 87.6562 130.922C88.2188 131.401 88.5 132.154 88.5 133.18V139H87.1875ZM84.4531 137.75C85.1198 137.75 85.6536 137.565 86.0547 137.195C86.4609 136.82 86.6641 136.297 86.6641 135.625V134.875L85.5547 134.922C84.6901 134.953 84.0599 135.099 83.6641 135.359C83.2734 135.615 83.0781 136.008 83.0781 136.539C83.0781 136.924 83.1927 137.224 83.4219 137.438C83.651 137.646 83.9948 137.75 84.4531 137.75ZM98.3594 130.359V131.367L96.8828 131.641C97.0182 131.823 97.1302 132.047 97.2188 132.312C97.3073 132.578 97.3516 132.859 97.3516 133.156C97.3516 134.047 97.0443 134.747 96.4297 135.258C95.8151 135.768 94.9688 136.023 93.8906 136.023C93.6146 136.023 93.3646 136.003 93.1406 135.961C92.7448 136.206 92.5469 136.492 92.5469 136.82C92.5469 137.018 92.638 137.167 92.8203 137.266C93.0078 137.365 93.349 137.414 93.8438 137.414H95.3516C96.3047 137.414 97.0286 137.617 97.5234 138.023C98.0182 138.43 98.2656 139.016 98.2656 139.781C98.2656 140.76 97.862 141.516 97.0547 142.047C96.2474 142.578 95.0807 142.844 93.5547 142.844C92.3776 142.844 91.4792 142.635 90.8594 142.219C90.2396 141.802 89.9297 141.208 89.9297 140.438C89.9297 139.906 90.0964 139.458 90.4297 139.094C90.7682 138.734 91.2396 138.484 91.8438 138.344C91.599 138.24 91.3958 138.073 91.2344 137.844C91.0781 137.609 91 137.365 91 137.109C91 136.786 91.0911 136.513 91.2734 136.289C91.4557 136.065 91.7266 135.844 92.0859 135.625C91.638 135.432 91.2734 135.12 90.9922 134.688C90.7161 134.25 90.5781 133.74 90.5781 133.156C90.5781 132.219 90.8724 131.492 91.4609 130.977C92.0547 130.461 92.8984 130.203 93.9922 130.203C94.237 130.203 94.4922 130.221 94.7578 130.258C95.0286 130.289 95.2318 130.323 95.3672 130.359H98.3594ZM91.5703 140.344C91.5703 140.74 91.7474 141.044 92.1016 141.258C92.4609 141.471 92.9635 141.578 93.6094 141.578C94.6094 141.578 95.3542 141.435 95.8438 141.148C96.3333 140.862 96.5781 140.482 96.5781 140.008C96.5781 139.633 96.4427 139.365 96.1719 139.203C95.9062 139.047 95.4089 138.969 94.6797 138.969H93.2891C92.763 138.969 92.3438 139.091 92.0312 139.336C91.724 139.586 91.5703 139.922 91.5703 140.344ZM92.3594 133.156C92.3594 133.698 92.4974 134.115 92.7734 134.406C93.0547 134.698 93.4557 134.844 93.9766 134.844C95.0391 134.844 95.5703 134.276 95.5703 133.141C95.5703 132.578 95.4375 132.146 95.1719 131.844C94.9115 131.536 94.513 131.383 93.9766 131.383C93.4453 131.383 93.0417 131.534 92.7656 131.836C92.4948 132.138 92.3594 132.578 92.3594 133.156ZM103.742 139.156C102.398 139.156 101.346 138.766 100.586 137.984C99.8307 137.198 99.4531 136.117 99.4531 134.742C99.4531 133.331 99.8047 132.221 100.508 131.414C101.211 130.607 102.177 130.203 103.406 130.203C104.547 130.203 105.448 130.549 106.109 131.242C106.771 131.935 107.102 132.888 107.102 134.102V135.094H101.344C101.37 135.932 101.596 136.578 102.023 137.031C102.451 137.479 103.052 137.703 103.828 137.703C104.339 137.703 104.812 137.656 105.25 137.562C105.693 137.464 106.167 137.302 106.672 137.078V138.57C106.224 138.784 105.771 138.935 105.312 139.023C104.854 139.112 104.331 139.156 103.742 139.156ZM103.406 131.594C102.823 131.594 102.354 131.779 102 132.148C101.651 132.518 101.443 133.057 101.375 133.766H105.297C105.286 133.052 105.115 132.513 104.781 132.148C104.448 131.779 103.99 131.594 103.406 131.594ZM114.992 136.539C114.992 137.383 114.685 138.031 114.07 138.484C113.456 138.932 112.576 139.156 111.43 139.156C110.279 139.156 109.354 138.982 108.656 138.633V137.047C109.672 137.516 110.617 137.75 111.492 137.75C112.622 137.75 113.188 137.409 113.188 136.727C113.188 136.508 113.125 136.326 113 136.18C112.875 136.034 112.669 135.883 112.383 135.727C112.096 135.57 111.698 135.393 111.188 135.195C110.193 134.81 109.518 134.424 109.164 134.039C108.815 133.654 108.641 133.154 108.641 132.539C108.641 131.799 108.938 131.227 109.531 130.82C110.13 130.409 110.943 130.203 111.969 130.203C112.984 130.203 113.945 130.409 114.852 130.82L114.258 132.203C113.326 131.818 112.542 131.625 111.906 131.625C110.938 131.625 110.453 131.901 110.453 132.453C110.453 132.724 110.578 132.953 110.828 133.141C111.083 133.328 111.635 133.586 112.484 133.914C113.198 134.19 113.716 134.443 114.039 134.672C114.362 134.901 114.602 135.167 114.758 135.469C114.914 135.766 114.992 136.122 114.992 136.539Z" fill="#0A2535"/>
<path d="M26.4141 157.438V161H25.418V152.434H27.7676C28.8184 152.434 29.5938 152.635 30.0938 153.037C30.5977 153.439 30.8496 154.045 30.8496 154.854C30.8496 155.986 30.2754 156.752 29.127 157.15L31.4531 161H30.2754L28.2012 157.438H26.4141ZM26.4141 156.582H27.7793C28.4824 156.582 28.998 156.443 29.3262 156.166C29.6543 155.885 29.8184 155.465 29.8184 154.906C29.8184 154.34 29.6504 153.932 29.3145 153.682C28.9824 153.432 28.4473 153.307 27.709 153.307H26.4141V156.582ZM35.4023 161.117C34.4531 161.117 33.7031 160.828 33.1523 160.25C32.6055 159.672 32.332 158.869 32.332 157.842C32.332 156.807 32.5859 155.984 33.0938 155.375C33.6055 154.766 34.291 154.461 35.1504 154.461C35.9551 154.461 36.5918 154.727 37.0605 155.258C37.5293 155.785 37.7637 156.482 37.7637 157.35V157.965H33.3398C33.3594 158.719 33.5488 159.291 33.9082 159.682C34.2715 160.072 34.7812 160.268 35.4375 160.268C36.1289 160.268 36.8125 160.123 37.4883 159.834V160.701C37.1445 160.85 36.8184 160.955 36.5098 161.018C36.2051 161.084 35.8359 161.117 35.4023 161.117ZM35.1387 155.275C34.623 155.275 34.2109 155.443 33.9023 155.779C33.5977 156.115 33.418 156.58 33.3633 157.174H36.7207C36.7207 156.561 36.584 156.092 36.3105 155.768C36.0371 155.439 35.6465 155.275 35.1387 155.275ZM44.6836 154.578V155.193L43.4941 155.334C43.6035 155.471 43.7012 155.65 43.7871 155.873C43.873 156.092 43.916 156.34 43.916 156.617C43.916 157.246 43.7012 157.748 43.2715 158.123C42.8418 158.498 42.252 158.686 41.502 158.686C41.3105 158.686 41.1309 158.67 40.9629 158.639C40.5488 158.857 40.3418 159.133 40.3418 159.465C40.3418 159.641 40.4141 159.771 40.5586 159.857C40.7031 159.939 40.9512 159.98 41.3027 159.98H42.4395C43.1348 159.98 43.668 160.127 44.0391 160.42C44.4141 160.713 44.6016 161.139 44.6016 161.697C44.6016 162.408 44.3164 162.949 43.7461 163.32C43.1758 163.695 42.3438 163.883 41.25 163.883C40.4102 163.883 39.7617 163.727 39.3047 163.414C38.8516 163.102 38.625 162.66 38.625 162.09C38.625 161.699 38.75 161.361 39 161.076C39.25 160.791 39.6016 160.598 40.0547 160.496C39.8906 160.422 39.752 160.307 39.6387 160.15C39.5293 159.994 39.4746 159.812 39.4746 159.605C39.4746 159.371 39.5371 159.166 39.6621 158.99C39.7871 158.814 39.9844 158.645 40.2539 158.48C39.9219 158.344 39.6504 158.111 39.4395 157.783C39.2324 157.455 39.1289 157.08 39.1289 156.658C39.1289 155.955 39.3398 155.414 39.7617 155.035C40.1836 154.652 40.7812 154.461 41.5547 154.461C41.8906 154.461 42.1934 154.5 42.4629 154.578H44.6836ZM39.5625 162.078C39.5625 162.426 39.709 162.689 40.002 162.869C40.2949 163.049 40.7148 163.139 41.2617 163.139C42.0781 163.139 42.6816 163.016 43.0723 162.77C43.4668 162.527 43.6641 162.197 43.6641 161.779C43.6641 161.432 43.5566 161.189 43.3418 161.053C43.127 160.92 42.7227 160.854 42.1289 160.854H40.9629C40.5215 160.854 40.1777 160.959 39.9316 161.17C39.6855 161.381 39.5625 161.684 39.5625 162.078ZM40.0898 156.635C40.0898 157.084 40.2168 157.424 40.4707 157.654C40.7246 157.885 41.0781 158 41.5312 158C42.4805 158 42.9551 157.539 42.9551 156.617C42.9551 155.652 42.4746 155.17 41.5137 155.17C41.0566 155.17 40.7051 155.293 40.459 155.539C40.2129 155.785 40.0898 156.15 40.0898 156.635ZM46.916 154.578V158.744C46.916 159.268 47.0352 159.658 47.2734 159.916C47.5117 160.174 47.8848 160.303 48.3926 160.303C49.0645 160.303 49.5547 160.119 49.8633 159.752C50.1758 159.385 50.332 158.785 50.332 157.953V154.578H51.3047V161H50.502L50.3613 160.139H50.3086C50.1094 160.455 49.832 160.697 49.4766 160.865C49.125 161.033 48.7227 161.117 48.2695 161.117C47.4883 161.117 46.9023 160.932 46.5117 160.561C46.125 160.189 45.9316 159.596 45.9316 158.779V154.578H46.916ZM54.3457 161H53.373V151.883H54.3457V161ZM60.3574 161L60.1641 160.086H60.1172C59.7969 160.488 59.4766 160.762 59.1562 160.906C58.8398 161.047 58.4434 161.117 57.9668 161.117C57.3301 161.117 56.8301 160.953 56.4668 160.625C56.1074 160.297 55.9277 159.83 55.9277 159.225C55.9277 157.928 56.9648 157.248 59.0391 157.186L60.1289 157.15V156.752C60.1289 156.248 60.0195 155.877 59.8008 155.639C59.5859 155.396 59.2402 155.275 58.7637 155.275C58.2285 155.275 57.623 155.439 56.9473 155.768L56.6484 155.023C56.9648 154.852 57.3105 154.717 57.6855 154.619C58.0645 154.521 58.4434 154.473 58.8223 154.473C59.5879 154.473 60.1543 154.643 60.5215 154.982C60.8926 155.322 61.0781 155.867 61.0781 156.617V161H60.3574ZM58.1602 160.314C58.7656 160.314 59.2402 160.148 59.584 159.816C59.9316 159.484 60.1055 159.02 60.1055 158.422V157.842L59.1328 157.883C58.3594 157.91 57.8008 158.031 57.457 158.246C57.1172 158.457 56.9473 158.787 56.9473 159.236C56.9473 159.588 57.0527 159.855 57.2637 160.039C57.4785 160.223 57.7773 160.314 58.1602 160.314ZM66.0176 154.461C66.3027 154.461 66.5586 154.484 66.7852 154.531L66.6504 155.434C66.3848 155.375 66.1504 155.346 65.9473 155.346C65.4277 155.346 64.9824 155.557 64.6113 155.979C64.2441 156.4 64.0605 156.926 64.0605 157.555V161H63.0879V154.578H63.8906L64.002 155.768H64.0488C64.2871 155.35 64.5742 155.027 64.9102 154.801C65.2461 154.574 65.6152 154.461 66.0176 154.461ZM77.7539 161H76.7578V156.969H72.2461V161H71.25V152.434H72.2461V156.078H76.7578V152.434H77.7539V161ZM85.5059 157.783C85.5059 158.83 85.2422 159.648 84.7148 160.238C84.1875 160.824 83.459 161.117 82.5293 161.117C81.9551 161.117 81.4453 160.982 81 160.713C80.5547 160.443 80.2109 160.057 79.9688 159.553C79.7266 159.049 79.6055 158.459 79.6055 157.783C79.6055 156.736 79.8672 155.922 80.3906 155.34C80.9141 154.754 81.6406 154.461 82.5703 154.461C83.4688 154.461 84.1816 154.76 84.709 155.357C85.2402 155.955 85.5059 156.764 85.5059 157.783ZM80.6133 157.783C80.6133 158.604 80.7773 159.229 81.1055 159.658C81.4336 160.088 81.916 160.303 82.5527 160.303C83.1895 160.303 83.6719 160.09 84 159.664C84.332 159.234 84.498 158.607 84.498 157.783C84.498 156.967 84.332 156.348 84 155.926C83.6719 155.5 83.1855 155.287 82.541 155.287C81.9043 155.287 81.4238 155.496 81.0996 155.914C80.7754 156.332 80.6133 156.955 80.6133 157.783ZM88.1309 154.578V158.744C88.1309 159.268 88.25 159.658 88.4883 159.916C88.7266 160.174 89.0996 160.303 89.6074 160.303C90.2793 160.303 90.7695 160.119 91.0781 159.752C91.3906 159.385 91.5469 158.785 91.5469 157.953V154.578H92.5195V161H91.7168L91.5762 160.139H91.5234C91.3242 160.455 91.0469 160.697 90.6914 160.865C90.3398 161.033 89.9375 161.117 89.4844 161.117C88.7031 161.117 88.1172 160.932 87.7266 160.561C87.3398 160.189 87.1465 159.596 87.1465 158.779V154.578H88.1309ZM97.5176 154.461C97.8027 154.461 98.0586 154.484 98.2852 154.531L98.1504 155.434C97.8848 155.375 97.6504 155.346 97.4473 155.346C96.9277 155.346 96.4824 155.557 96.1113 155.979C95.7441 156.4 95.5605 156.926 95.5605 157.555V161H94.5879V154.578H95.3906L95.502 155.768H95.5488C95.7871 155.35 96.0742 155.027 96.4102 154.801C96.7461 154.574 97.1152 154.461 97.5176 154.461ZM103.629 159.248C103.629 159.846 103.406 160.307 102.961 160.631C102.516 160.955 101.891 161.117 101.086 161.117C100.234 161.117 99.5703 160.982 99.0938 160.713V159.811C99.4023 159.967 99.7324 160.09 100.084 160.18C100.439 160.27 100.781 160.314 101.109 160.314C101.617 160.314 102.008 160.234 102.281 160.074C102.555 159.91 102.691 159.662 102.691 159.33C102.691 159.08 102.582 158.867 102.363 158.691C102.148 158.512 101.727 158.301 101.098 158.059C100.5 157.836 100.074 157.643 99.8203 157.479C99.5703 157.311 99.3828 157.121 99.2578 156.91C99.1367 156.699 99.0762 156.447 99.0762 156.154C99.0762 155.631 99.2891 155.219 99.7148 154.918C100.141 154.613 100.725 154.461 101.467 154.461C102.158 154.461 102.834 154.602 103.494 154.883L103.148 155.674C102.504 155.408 101.92 155.275 101.396 155.275C100.936 155.275 100.588 155.348 100.354 155.492C100.119 155.637 100.002 155.836 100.002 156.09C100.002 156.262 100.045 156.408 100.131 156.529C100.221 156.65 100.363 156.766 100.559 156.875C100.754 156.984 101.129 157.143 101.684 157.35C102.445 157.627 102.959 157.906 103.225 158.188C103.494 158.469 103.629 158.822 103.629 159.248ZM107.783 157.713C107.783 156.678 107.934 155.709 108.234 154.807C108.539 153.904 108.977 153.113 109.547 152.434H110.496C109.934 153.188 109.51 154.016 109.225 154.918C108.943 155.82 108.803 156.748 108.803 157.701C108.803 158.639 108.947 159.555 109.236 160.449C109.525 161.344 109.941 162.16 110.484 162.898H109.547C108.973 162.234 108.535 161.459 108.234 160.572C107.934 159.686 107.783 158.732 107.783 157.713ZM115.043 161H114.094V154.895C114.094 154.387 114.109 153.906 114.141 153.453C114.059 153.535 113.967 153.621 113.865 153.711C113.764 153.801 113.299 154.182 112.471 154.854L111.955 154.186L114.223 152.434H115.043V161ZM120.299 157.713L118.066 154.578H119.174L120.867 157.039L122.555 154.578H123.65L121.418 157.713L123.768 161H122.666L120.867 158.398L119.051 161H117.949L120.299 157.713ZM129.305 157.438V161H128.309V152.434H130.658C131.709 152.434 132.484 152.635 132.984 153.037C133.488 153.439 133.74 154.045 133.74 154.854C133.74 155.986 133.166 156.752 132.018 157.15L134.344 161H133.166L131.092 157.438H129.305ZM129.305 156.582H130.67C131.373 156.582 131.889 156.443 132.217 156.166C132.545 155.885 132.709 155.465 132.709 154.906C132.709 154.34 132.541 153.932 132.205 153.682C131.873 153.432 131.338 153.307 130.6 153.307H129.305V156.582ZM139.529 161L139.336 160.086H139.289C138.969 160.488 138.648 160.762 138.328 160.906C138.012 161.047 137.615 161.117 137.139 161.117C136.502 161.117 136.002 160.953 135.639 160.625C135.279 160.297 135.1 159.83 135.1 159.225C135.1 157.928 136.137 157.248 138.211 157.186L139.301 157.15V156.752C139.301 156.248 139.191 155.877 138.973 155.639C138.758 155.396 138.412 155.275 137.936 155.275C137.4 155.275 136.795 155.439 136.119 155.768L135.82 155.023C136.137 154.852 136.482 154.717 136.857 154.619C137.236 154.521 137.615 154.473 137.994 154.473C138.76 154.473 139.326 154.643 139.693 154.982C140.064 155.322 140.25 155.867 140.25 156.617V161H139.529ZM137.332 160.314C137.938 160.314 138.412 160.148 138.756 159.816C139.104 159.484 139.277 159.02 139.277 158.422V157.842L138.305 157.883C137.531 157.91 136.973 158.031 136.629 158.246C136.289 158.457 136.119 158.787 136.119 159.236C136.119 159.588 136.225 159.855 136.436 160.039C136.65 160.223 136.949 160.314 137.332 160.314ZM144.334 160.314C144.506 160.314 144.672 160.303 144.832 160.279C144.992 160.252 145.119 160.225 145.213 160.197V160.941C145.107 160.992 144.951 161.033 144.744 161.064C144.541 161.1 144.357 161.117 144.193 161.117C142.951 161.117 142.33 160.463 142.33 159.154V155.334H141.41V154.865L142.33 154.461L142.74 153.09H143.303V154.578H145.166V155.334H143.303V159.113C143.303 159.5 143.395 159.797 143.578 160.004C143.762 160.211 144.014 160.314 144.334 160.314ZM149.215 161.117C148.266 161.117 147.516 160.828 146.965 160.25C146.418 159.672 146.145 158.869 146.145 157.842C146.145 156.807 146.398 155.984 146.906 155.375C147.418 154.766 148.104 154.461 148.963 154.461C149.768 154.461 150.404 154.727 150.873 155.258C151.342 155.785 151.576 156.482 151.576 157.35V157.965H147.152C147.172 158.719 147.361 159.291 147.721 159.682C148.084 160.072 148.594 160.268 149.25 160.268C149.941 160.268 150.625 160.123 151.301 159.834V160.701C150.957 160.85 150.631 160.955 150.322 161.018C150.018 161.084 149.648 161.117 149.215 161.117ZM148.951 155.275C148.436 155.275 148.023 155.443 147.715 155.779C147.41 156.115 147.23 156.58 147.176 157.174H150.533C150.533 156.561 150.396 156.092 150.123 155.768C149.85 155.439 149.459 155.275 148.951 155.275ZM155.279 157.713C155.279 158.74 155.127 159.697 154.822 160.584C154.521 161.471 154.086 162.242 153.516 162.898H152.578C153.121 162.164 153.537 161.35 153.826 160.455C154.115 159.557 154.26 158.639 154.26 157.701C154.26 156.748 154.117 155.82 153.832 154.918C153.551 154.016 153.129 153.188 152.566 152.434H153.516C154.09 153.117 154.527 153.912 154.828 154.818C155.129 155.721 155.279 156.686 155.279 157.713Z" fill="#0A2535"/>
<path d="M23.0859 178.705C23.0859 180.076 22.7383 181.154 22.043 181.939C21.3516 182.725 20.3887 183.117 19.1543 183.117C17.8926 183.117 16.918 182.732 16.2305 181.963C15.5469 181.189 15.2051 180.1 15.2051 178.693C15.2051 177.299 15.5488 176.219 16.2363 175.453C16.9238 174.684 17.9004 174.299 19.166 174.299C20.3965 174.299 21.3574 174.689 22.0488 175.471C22.7402 176.252 23.0859 177.33 23.0859 178.705ZM16.2598 178.705C16.2598 179.865 16.5059 180.746 16.998 181.348C17.4941 181.945 18.2129 182.244 19.1543 182.244C20.1035 182.244 20.8203 181.945 21.3047 181.348C21.7891 180.75 22.0312 179.869 22.0312 178.705C22.0312 177.553 21.7891 176.68 21.3047 176.086C20.8242 175.488 20.1113 175.189 19.166 175.189C18.2168 175.189 17.4941 175.49 16.998 176.092C16.5059 176.689 16.2598 177.561 16.2598 178.705ZM26.2617 183L23.8242 176.578H24.8672L26.25 180.387C26.5625 181.277 26.7461 181.855 26.8008 182.121H26.8477C26.8906 181.914 27.0254 181.486 27.252 180.838C27.4824 180.186 27.9961 178.766 28.793 176.578H29.8359L27.3984 183H26.2617ZM33.5801 183.117C32.6309 183.117 31.8809 182.828 31.3301 182.25C30.7832 181.672 30.5098 180.869 30.5098 179.842C30.5098 178.807 30.7637 177.984 31.2715 177.375C31.7832 176.766 32.4688 176.461 33.3281 176.461C34.1328 176.461 34.7695 176.727 35.2383 177.258C35.707 177.785 35.9414 178.482 35.9414 179.35V179.965H31.5176C31.5371 180.719 31.7266 181.291 32.0859 181.682C32.4492 182.072 32.959 182.268 33.6152 182.268C34.3066 182.268 34.9902 182.123 35.666 181.834V182.701C35.3223 182.85 34.9961 182.955 34.6875 183.018C34.3828 183.084 34.0137 183.117 33.5801 183.117ZM33.3164 177.275C32.8008 177.275 32.3887 177.443 32.0801 177.779C31.7754 178.115 31.5957 178.58 31.541 179.174H34.8984C34.8984 178.561 34.7617 178.092 34.4883 177.768C34.2148 177.439 33.8242 177.275 33.3164 177.275ZM40.5352 176.461C40.8203 176.461 41.0762 176.484 41.3027 176.531L41.168 177.434C40.9023 177.375 40.668 177.346 40.4648 177.346C39.9453 177.346 39.5 177.557 39.1289 177.979C38.7617 178.4 38.5781 178.926 38.5781 179.555V183H37.6055V176.578H38.4082L38.5195 177.768H38.5664C38.8047 177.35 39.0918 177.027 39.4277 176.801C39.7637 176.574 40.1328 176.461 40.5352 176.461ZM44.5781 182.314C44.75 182.314 44.916 182.303 45.0762 182.279C45.2363 182.252 45.3633 182.225 45.457 182.197V182.941C45.3516 182.992 45.1953 183.033 44.9883 183.064C44.7852 183.1 44.6016 183.117 44.4375 183.117C43.1953 183.117 42.5742 182.463 42.5742 181.154V177.334H41.6543V176.865L42.5742 176.461L42.9844 175.09H43.5469V176.578H45.4102V177.334H43.5469V181.113C43.5469 181.5 43.6387 181.797 43.8223 182.004C44.0059 182.211 44.2578 182.314 44.5781 182.314ZM47.7188 183H46.7461V176.578H47.7188V183ZM46.6641 174.838C46.6641 174.615 46.7188 174.453 46.8281 174.352C46.9375 174.246 47.0742 174.193 47.2383 174.193C47.3945 174.193 47.5293 174.246 47.6426 174.352C47.7559 174.457 47.8125 174.619 47.8125 174.838C47.8125 175.057 47.7559 175.221 47.6426 175.33C47.5293 175.436 47.3945 175.488 47.2383 175.488C47.0742 175.488 46.9375 175.436 46.8281 175.33C46.7188 175.221 46.6641 175.057 46.6641 174.838ZM57.9668 183V178.822C57.9668 178.311 57.8574 177.928 57.6387 177.674C57.4199 177.416 57.0801 177.287 56.6191 177.287C56.0137 177.287 55.5664 177.461 55.2773 177.809C54.9883 178.156 54.8438 178.691 54.8438 179.414V183H53.8711V178.822C53.8711 178.311 53.7617 177.928 53.543 177.674C53.3242 177.416 52.9824 177.287 52.5176 177.287C51.9082 177.287 51.4609 177.471 51.1758 177.838C50.8945 178.201 50.7539 178.799 50.7539 179.631V183H49.7812V176.578H50.5723L50.7305 177.457H50.7773C50.9609 177.145 51.2188 176.9 51.5508 176.725C51.8867 176.549 52.2617 176.461 52.6758 176.461C53.6797 176.461 54.3359 176.824 54.6445 177.551H54.6914C54.8828 177.215 55.1602 176.949 55.5234 176.754C55.8867 176.559 56.3008 176.461 56.7656 176.461C57.4922 176.461 58.0352 176.648 58.3945 177.023C58.7578 177.395 58.9395 177.99 58.9395 178.811V183H57.9668ZM63.6621 183.117C62.7129 183.117 61.9629 182.828 61.4121 182.25C60.8652 181.672 60.5918 180.869 60.5918 179.842C60.5918 178.807 60.8457 177.984 61.3535 177.375C61.8652 176.766 62.5508 176.461 63.4102 176.461C64.2148 176.461 64.8516 176.727 65.3203 177.258C65.7891 177.785 66.0234 178.482 66.0234 179.35V179.965H61.5996C61.6191 180.719 61.8086 181.291 62.168 181.682C62.5312 182.072 63.041 182.268 63.6973 182.268C64.3887 182.268 65.0723 182.123 65.748 181.834V182.701C65.4043 182.85 65.0781 182.955 64.7695 183.018C64.4648 183.084 64.0957 183.117 63.6621 183.117ZM63.3984 177.275C62.8828 177.275 62.4707 177.443 62.1621 177.779C61.8574 178.115 61.6777 178.58 61.623 179.174H64.9805C64.9805 178.561 64.8438 178.092 64.5703 177.768C64.2969 177.439 63.9062 177.275 63.3984 177.275ZM77.4551 183H76.459V178.969H71.9473V183H70.9512V174.434H71.9473V178.078H76.459V174.434H77.4551V183ZM85.207 179.783C85.207 180.83 84.9434 181.648 84.416 182.238C83.8887 182.824 83.1602 183.117 82.2305 183.117C81.6562 183.117 81.1465 182.982 80.7012 182.713C80.2559 182.443 79.9121 182.057 79.6699 181.553C79.4277 181.049 79.3066 180.459 79.3066 179.783C79.3066 178.736 79.5684 177.922 80.0918 177.34C80.6152 176.754 81.3418 176.461 82.2715 176.461C83.1699 176.461 83.8828 176.76 84.4102 177.357C84.9414 177.955 85.207 178.764 85.207 179.783ZM80.3145 179.783C80.3145 180.604 80.4785 181.229 80.8066 181.658C81.1348 182.088 81.6172 182.303 82.2539 182.303C82.8906 182.303 83.373 182.09 83.7012 181.664C84.0332 181.234 84.1992 180.607 84.1992 179.783C84.1992 178.967 84.0332 178.348 83.7012 177.926C83.373 177.5 82.8867 177.287 82.2422 177.287C81.6055 177.287 81.125 177.496 80.8008 177.914C80.4766 178.332 80.3145 178.955 80.3145 179.783ZM87.832 176.578V180.744C87.832 181.268 87.9512 181.658 88.1895 181.916C88.4277 182.174 88.8008 182.303 89.3086 182.303C89.9805 182.303 90.4707 182.119 90.7793 181.752C91.0918 181.385 91.248 180.785 91.248 179.953V176.578H92.2207V183H91.418L91.2773 182.139H91.2246C91.0254 182.455 90.748 182.697 90.3926 182.865C90.041 183.033 89.6387 183.117 89.1855 183.117C88.4043 183.117 87.8184 182.932 87.4277 182.561C87.041 182.189 86.8477 181.596 86.8477 180.779V176.578H87.832ZM97.2188 176.461C97.5039 176.461 97.7598 176.484 97.9863 176.531L97.8516 177.434C97.5859 177.375 97.3516 177.346 97.1484 177.346C96.6289 177.346 96.1836 177.557 95.8125 177.979C95.4453 178.4 95.2617 178.926 95.2617 179.555V183H94.2891V176.578H95.0918L95.2031 177.768H95.25C95.4883 177.35 95.7754 177.027 96.1113 176.801C96.4473 176.574 96.8164 176.461 97.2188 176.461ZM103.33 181.248C103.33 181.846 103.107 182.307 102.662 182.631C102.217 182.955 101.592 183.117 100.787 183.117C99.9355 183.117 99.2715 182.982 98.7949 182.713V181.811C99.1035 181.967 99.4336 182.09 99.7852 182.18C100.141 182.27 100.482 182.314 100.811 182.314C101.318 182.314 101.709 182.234 101.982 182.074C102.256 181.91 102.393 181.662 102.393 181.33C102.393 181.08 102.283 180.867 102.064 180.691C101.85 180.512 101.428 180.301 100.799 180.059C100.201 179.836 99.7754 179.643 99.5215 179.479C99.2715 179.311 99.084 179.121 98.959 178.91C98.8379 178.699 98.7773 178.447 98.7773 178.154C98.7773 177.631 98.9902 177.219 99.416 176.918C99.8418 176.613 100.426 176.461 101.168 176.461C101.859 176.461 102.535 176.602 103.195 176.883L102.85 177.674C102.205 177.408 101.621 177.275 101.098 177.275C100.637 177.275 100.289 177.348 100.055 177.492C99.8203 177.637 99.7031 177.836 99.7031 178.09C99.7031 178.262 99.7461 178.408 99.832 178.529C99.9219 178.65 100.064 178.766 100.26 178.875C100.455 178.984 100.83 179.143 101.385 179.35C102.146 179.627 102.66 179.906 102.926 180.188C103.195 180.469 103.33 180.822 103.33 181.248ZM107.484 179.713C107.484 178.678 107.635 177.709 107.936 176.807C108.24 175.904 108.678 175.113 109.248 174.434H110.197C109.635 175.188 109.211 176.016 108.926 176.918C108.645 177.82 108.504 178.748 108.504 179.701C108.504 180.639 108.648 181.555 108.938 182.449C109.227 183.344 109.643 184.16 110.186 184.898H109.248C108.674 184.234 108.236 183.459 107.936 182.572C107.635 181.686 107.484 180.732 107.484 179.713ZM114.744 183H113.795V176.895C113.795 176.387 113.811 175.906 113.842 175.453C113.76 175.535 113.668 175.621 113.566 175.711C113.465 175.801 113 176.182 112.172 176.854L111.656 176.186L113.924 174.434H114.744V183ZM118.312 182.379C118.312 182.117 118.371 181.92 118.488 181.787C118.609 181.65 118.781 181.582 119.004 181.582C119.23 181.582 119.406 181.65 119.531 181.787C119.66 181.92 119.725 182.117 119.725 182.379C119.725 182.633 119.66 182.828 119.531 182.965C119.402 183.102 119.227 183.17 119.004 183.17C118.805 183.17 118.639 183.109 118.506 182.988C118.377 182.863 118.312 182.66 118.312 182.379ZM123.885 177.768C124.787 177.768 125.496 177.992 126.012 178.441C126.531 178.887 126.791 179.498 126.791 180.275C126.791 181.162 126.508 181.857 125.941 182.361C125.379 182.865 124.602 183.117 123.609 183.117C122.645 183.117 121.908 182.963 121.4 182.654V181.717C121.674 181.893 122.014 182.031 122.42 182.133C122.826 182.23 123.227 182.279 123.621 182.279C124.309 182.279 124.842 182.117 125.221 181.793C125.604 181.469 125.795 181 125.795 180.387C125.795 179.191 125.062 178.594 123.598 178.594C123.227 178.594 122.73 178.65 122.109 178.764L121.605 178.441L121.928 174.434H126.188V175.33H122.76L122.543 177.902C122.992 177.812 123.439 177.768 123.885 177.768ZM130.066 179.713L127.834 176.578H128.941L130.635 179.039L132.322 176.578H133.418L131.186 179.713L133.535 183H132.434L130.635 180.398L128.818 183H127.717L130.066 179.713ZM139.072 179.438V183H138.076V174.434H140.426C141.477 174.434 142.252 174.635 142.752 175.037C143.256 175.439 143.508 176.045 143.508 176.854C143.508 177.986 142.934 178.752 141.785 179.15L144.111 183H142.934L140.859 179.438H139.072ZM139.072 178.582H140.438C141.141 178.582 141.656 178.443 141.984 178.166C142.312 177.885 142.477 177.465 142.477 176.906C142.477 176.34 142.309 175.932 141.973 175.682C141.641 175.432 141.105 175.307 140.367 175.307H139.072V178.582ZM149.297 183L149.104 182.086H149.057C148.736 182.488 148.416 182.762 148.096 182.906C147.779 183.047 147.383 183.117 146.906 183.117C146.27 183.117 145.77 182.953 145.406 182.625C145.047 182.297 144.867 181.83 144.867 181.225C144.867 179.928 145.904 179.248 147.979 179.186L149.068 179.15V178.752C149.068 178.248 148.959 177.877 148.74 177.639C148.525 177.396 148.18 177.275 147.703 177.275C147.168 177.275 146.562 177.439 145.887 177.768L145.588 177.023C145.904 176.852 146.25 176.717 146.625 176.619C147.004 176.521 147.383 176.473 147.762 176.473C148.527 176.473 149.094 176.643 149.461 176.982C149.832 177.322 150.018 177.867 150.018 178.617V183H149.297ZM147.1 182.314C147.705 182.314 148.18 182.148 148.523 181.816C148.871 181.484 149.045 181.02 149.045 180.422V179.842L148.072 179.883C147.299 179.91 146.74 180.031 146.396 180.246C146.057 180.457 145.887 180.787 145.887 181.236C145.887 181.588 145.992 181.855 146.203 182.039C146.418 182.223 146.717 182.314 147.1 182.314ZM154.102 182.314C154.273 182.314 154.439 182.303 154.6 182.279C154.76 182.252 154.887 182.225 154.98 182.197V182.941C154.875 182.992 154.719 183.033 154.512 183.064C154.309 183.1 154.125 183.117 153.961 183.117C152.719 183.117 152.098 182.463 152.098 181.154V177.334H151.178V176.865L152.098 176.461L152.508 175.09H153.07V176.578H154.934V177.334H153.07V181.113C153.07 181.5 153.162 181.797 153.346 182.004C153.529 182.211 153.781 182.314 154.102 182.314ZM158.982 183.117C158.033 183.117 157.283 182.828 156.732 182.25C156.186 181.672 155.912 180.869 155.912 179.842C155.912 178.807 156.166 177.984 156.674 177.375C157.186 176.766 157.871 176.461 158.73 176.461C159.535 176.461 160.172 176.727 160.641 177.258C161.109 177.785 161.344 178.482 161.344 179.35V179.965H156.92C156.939 180.719 157.129 181.291 157.488 181.682C157.852 182.072 158.361 182.268 159.018 182.268C159.709 182.268 160.393 182.123 161.068 181.834V182.701C160.725 182.85 160.398 182.955 160.09 183.018C159.785 183.084 159.416 183.117 158.982 183.117ZM158.719 177.275C158.203 177.275 157.791 177.443 157.482 177.779C157.178 178.115 156.998 178.58 156.943 179.174H160.301C160.301 178.561 160.164 178.092 159.891 177.768C159.617 177.439 159.227 177.275 158.719 177.275ZM165.047 179.713C165.047 180.74 164.895 181.697 164.59 182.584C164.289 183.471 163.854 184.242 163.283 184.898H162.346C162.889 184.164 163.305 183.35 163.594 182.455C163.883 181.557 164.027 180.639 164.027 179.701C164.027 178.748 163.885 177.82 163.6 176.918C163.318 176.016 162.896 175.188 162.334 174.434H163.283C163.857 175.117 164.295 175.912 164.596 176.818C164.896 177.721 165.047 178.686 165.047 179.713Z" fill="#0A2535"/>
<path d="M21.2656 200.635C21.2656 202.049 20.8809 203.131 20.1113 203.881C19.3457 204.627 18.2422 205 16.8008 205H14.4277V196.434H17.0527C18.3848 196.434 19.4199 196.803 20.1582 197.541C20.8965 198.279 21.2656 199.311 21.2656 200.635ZM20.2109 200.67C20.2109 199.553 19.9297 198.711 19.3672 198.145C18.8086 197.578 17.9766 197.295 16.8711 197.295H15.4238V204.139H16.6367C17.8242 204.139 18.7168 203.848 19.3145 203.266C19.9121 202.68 20.2109 201.814 20.2109 200.67ZM28.5781 201.783C28.5781 202.83 28.3145 203.648 27.7871 204.238C27.2598 204.824 26.5312 205.117 25.6016 205.117C25.0273 205.117 24.5176 204.982 24.0723 204.713C23.627 204.443 23.2832 204.057 23.041 203.553C22.7988 203.049 22.6777 202.459 22.6777 201.783C22.6777 200.736 22.9395 199.922 23.4629 199.34C23.9863 198.754 24.7129 198.461 25.6426 198.461C26.541 198.461 27.2539 198.76 27.7812 199.357C28.3125 199.955 28.5781 200.764 28.5781 201.783ZM23.6855 201.783C23.6855 202.604 23.8496 203.229 24.1777 203.658C24.5059 204.088 24.9883 204.303 25.625 204.303C26.2617 204.303 26.7441 204.09 27.0723 203.664C27.4043 203.234 27.5703 202.607 27.5703 201.783C27.5703 200.967 27.4043 200.348 27.0723 199.926C26.7441 199.5 26.2578 199.287 25.6133 199.287C24.9766 199.287 24.4961 199.496 24.1719 199.914C23.8477 200.332 23.6855 200.955 23.6855 201.783ZM31.2031 198.578V202.744C31.2031 203.268 31.3223 203.658 31.5605 203.916C31.7988 204.174 32.1719 204.303 32.6797 204.303C33.3516 204.303 33.8418 204.119 34.1504 203.752C34.4629 203.385 34.6191 202.785 34.6191 201.953V198.578H35.5918V205H34.7891L34.6484 204.139H34.5957C34.3965 204.455 34.1191 204.697 33.7637 204.865C33.4121 205.033 33.0098 205.117 32.5566 205.117C31.7754 205.117 31.1895 204.932 30.7988 204.561C30.4121 204.189 30.2188 203.596 30.2188 202.779V198.578H31.2031ZM40.6484 198.473C41.4922 198.473 42.1465 198.762 42.6113 199.34C43.0801 199.914 43.3145 200.729 43.3145 201.783C43.3145 202.838 43.0781 203.658 42.6055 204.244C42.1367 204.826 41.4844 205.117 40.6484 205.117C40.2305 205.117 39.8477 205.041 39.5 204.889C39.1562 204.732 38.8672 204.494 38.6328 204.174H38.5625L38.3574 205H37.6602V195.883H38.6328V198.098C38.6328 198.594 38.6172 199.039 38.5859 199.434H38.6328C39.0859 198.793 39.7578 198.473 40.6484 198.473ZM40.5078 199.287C39.8438 199.287 39.3652 199.479 39.0723 199.861C38.7793 200.24 38.6328 200.881 38.6328 201.783C38.6328 202.686 38.7832 203.332 39.084 203.723C39.3848 204.109 39.8672 204.303 40.5312 204.303C41.1289 204.303 41.5742 204.086 41.8672 203.652C42.1602 203.215 42.3066 202.588 42.3066 201.771C42.3066 200.936 42.1602 200.312 41.8672 199.902C41.5742 199.492 41.1211 199.287 40.5078 199.287ZM45.9922 205H45.0195V195.883H45.9922V205ZM50.7676 205.117C49.8184 205.117 49.0684 204.828 48.5176 204.25C47.9707 203.672 47.6973 202.869 47.6973 201.842C47.6973 200.807 47.9512 199.984 48.459 199.375C48.9707 198.766 49.6562 198.461 50.5156 198.461C51.3203 198.461 51.957 198.727 52.4258 199.258C52.8945 199.785 53.1289 200.482 53.1289 201.35V201.965H48.7051C48.7246 202.719 48.9141 203.291 49.2734 203.682C49.6367 204.072 50.1465 204.268 50.8027 204.268C51.4941 204.268 52.1777 204.123 52.8535 203.834V204.701C52.5098 204.85 52.1836 204.955 51.875 205.018C51.5703 205.084 51.2012 205.117 50.7676 205.117ZM50.5039 199.275C49.9883 199.275 49.5762 199.443 49.2676 199.779C48.9629 200.115 48.7832 200.58 48.7285 201.174H52.0859C52.0859 200.561 51.9492 200.092 51.6758 199.768C51.4023 199.439 51.0117 199.275 50.5039 199.275ZM56.8672 204.314C57.0391 204.314 57.2051 204.303 57.3652 204.279C57.5254 204.252 57.6523 204.225 57.7461 204.197V204.941C57.6406 204.992 57.4844 205.033 57.2773 205.064C57.0742 205.1 56.8906 205.117 56.7266 205.117C55.4844 205.117 54.8633 204.463 54.8633 203.154V199.334H53.9434V198.865L54.8633 198.461L55.2734 197.09H55.8359V198.578H57.6992V199.334H55.8359V203.113C55.8359 203.5 55.9277 203.797 56.1113 204.004C56.2949 204.211 56.5469 204.314 56.8672 204.314ZM60.0078 205H59.0352V198.578H60.0078V205ZM58.9531 196.838C58.9531 196.615 59.0078 196.453 59.1172 196.352C59.2266 196.246 59.3633 196.193 59.5273 196.193C59.6836 196.193 59.8184 196.246 59.9316 196.352C60.0449 196.457 60.1016 196.619 60.1016 196.838C60.1016 197.057 60.0449 197.221 59.9316 197.33C59.8184 197.436 59.6836 197.488 59.5273 197.488C59.3633 197.488 59.2266 197.436 59.1172 197.33C59.0078 197.221 58.9531 197.057 58.9531 196.838ZM70.2559 205V200.822C70.2559 200.311 70.1465 199.928 69.9277 199.674C69.709 199.416 69.3691 199.287 68.9082 199.287C68.3027 199.287 67.8555 199.461 67.5664 199.809C67.2773 200.156 67.1328 200.691 67.1328 201.414V205H66.1602V200.822C66.1602 200.311 66.0508 199.928 65.832 199.674C65.6133 199.416 65.2715 199.287 64.8066 199.287C64.1973 199.287 63.75 199.471 63.4648 199.838C63.1836 200.201 63.043 200.799 63.043 201.631V205H62.0703V198.578H62.8613L63.0195 199.457H63.0664C63.25 199.145 63.5078 198.9 63.8398 198.725C64.1758 198.549 64.5508 198.461 64.9648 198.461C65.9688 198.461 66.625 198.824 66.9336 199.551H66.9805C67.1719 199.215 67.4492 198.949 67.8125 198.754C68.1758 198.559 68.5898 198.461 69.0547 198.461C69.7812 198.461 70.3242 198.648 70.6836 199.023C71.0469 199.395 71.2285 199.99 71.2285 200.811V205H70.2559ZM75.9512 205.117C75.002 205.117 74.252 204.828 73.7012 204.25C73.1543 203.672 72.8809 202.869 72.8809 201.842C72.8809 200.807 73.1348 199.984 73.6426 199.375C74.1543 198.766 74.8398 198.461 75.6992 198.461C76.5039 198.461 77.1406 198.727 77.6094 199.258C78.0781 199.785 78.3125 200.482 78.3125 201.35V201.965H73.8887C73.9082 202.719 74.0977 203.291 74.457 203.682C74.8203 204.072 75.3301 204.268 75.9863 204.268C76.6777 204.268 77.3613 204.123 78.0371 203.834V204.701C77.6934 204.85 77.3672 204.955 77.0586 205.018C76.7539 205.084 76.3848 205.117 75.9512 205.117ZM75.6875 199.275C75.1719 199.275 74.7598 199.443 74.4512 199.779C74.1465 200.115 73.9668 200.58 73.9121 201.174H77.2695C77.2695 200.561 77.1328 200.092 76.8594 199.768C76.5859 199.439 76.1953 199.275 75.6875 199.275ZM89.7441 205H88.748V200.969H84.2363V205H83.2402V196.434H84.2363V200.078H88.748V196.434H89.7441V205ZM97.4961 201.783C97.4961 202.83 97.2324 203.648 96.7051 204.238C96.1777 204.824 95.4492 205.117 94.5195 205.117C93.9453 205.117 93.4355 204.982 92.9902 204.713C92.5449 204.443 92.2012 204.057 91.959 203.553C91.7168 203.049 91.5957 202.459 91.5957 201.783C91.5957 200.736 91.8574 199.922 92.3809 199.34C92.9043 198.754 93.6309 198.461 94.5605 198.461C95.459 198.461 96.1719 198.76 96.6992 199.357C97.2305 199.955 97.4961 200.764 97.4961 201.783ZM92.6035 201.783C92.6035 202.604 92.7676 203.229 93.0957 203.658C93.4238 204.088 93.9062 204.303 94.543 204.303C95.1797 204.303 95.6621 204.09 95.9902 203.664C96.3223 203.234 96.4883 202.607 96.4883 201.783C96.4883 200.967 96.3223 200.348 95.9902 199.926C95.6621 199.5 95.1758 199.287 94.5312 199.287C93.8945 199.287 93.4141 199.496 93.0898 199.914C92.7656 200.332 92.6035 200.955 92.6035 201.783ZM100.121 198.578V202.744C100.121 203.268 100.24 203.658 100.479 203.916C100.717 204.174 101.09 204.303 101.598 204.303C102.27 204.303 102.76 204.119 103.068 203.752C103.381 203.385 103.537 202.785 103.537 201.953V198.578H104.51V205H103.707L103.566 204.139H103.514C103.314 204.455 103.037 204.697 102.682 204.865C102.33 205.033 101.928 205.117 101.475 205.117C100.693 205.117 100.107 204.932 99.7168 204.561C99.3301 204.189 99.1367 203.596 99.1367 202.779V198.578H100.121ZM109.508 198.461C109.793 198.461 110.049 198.484 110.275 198.531L110.141 199.434C109.875 199.375 109.641 199.346 109.438 199.346C108.918 199.346 108.473 199.557 108.102 199.979C107.734 200.4 107.551 200.926 107.551 201.555V205H106.578V198.578H107.381L107.492 199.768H107.539C107.777 199.35 108.064 199.027 108.4 198.801C108.736 198.574 109.105 198.461 109.508 198.461ZM115.619 203.248C115.619 203.846 115.396 204.307 114.951 204.631C114.506 204.955 113.881 205.117 113.076 205.117C112.225 205.117 111.561 204.982 111.084 204.713V203.811C111.393 203.967 111.723 204.09 112.074 204.18C112.43 204.27 112.771 204.314 113.1 204.314C113.607 204.314 113.998 204.234 114.271 204.074C114.545 203.91 114.682 203.662 114.682 203.33C114.682 203.08 114.572 202.867 114.354 202.691C114.139 202.512 113.717 202.301 113.088 202.059C112.49 201.836 112.064 201.643 111.811 201.479C111.561 201.311 111.373 201.121 111.248 200.91C111.127 200.699 111.066 200.447 111.066 200.154C111.066 199.631 111.279 199.219 111.705 198.918C112.131 198.613 112.715 198.461 113.457 198.461C114.148 198.461 114.824 198.602 115.484 198.883L115.139 199.674C114.494 199.408 113.91 199.275 113.387 199.275C112.926 199.275 112.578 199.348 112.344 199.492C112.109 199.637 111.992 199.836 111.992 200.09C111.992 200.262 112.035 200.408 112.121 200.529C112.211 200.65 112.354 200.766 112.549 200.875C112.744 200.984 113.119 201.143 113.674 201.35C114.436 201.627 114.949 201.906 115.215 202.188C115.484 202.469 115.619 202.822 115.619 203.248ZM119.773 201.713C119.773 200.678 119.924 199.709 120.225 198.807C120.529 197.904 120.967 197.113 121.537 196.434H122.486C121.924 197.188 121.5 198.016 121.215 198.918C120.934 199.82 120.793 200.748 120.793 201.701C120.793 202.639 120.938 203.555 121.227 204.449C121.516 205.344 121.932 206.16 122.475 206.898H121.537C120.963 206.234 120.525 205.459 120.225 204.572C119.924 203.686 119.773 202.732 119.773 201.713ZM129.061 205H123.43V204.162L125.686 201.895C126.373 201.199 126.826 200.703 127.045 200.406C127.264 200.109 127.428 199.82 127.537 199.539C127.646 199.258 127.701 198.955 127.701 198.631C127.701 198.174 127.562 197.812 127.285 197.547C127.008 197.277 126.623 197.143 126.131 197.143C125.775 197.143 125.438 197.201 125.117 197.318C124.801 197.436 124.447 197.648 124.057 197.957L123.541 197.295C124.33 196.639 125.189 196.311 126.119 196.311C126.924 196.311 127.555 196.518 128.012 196.932C128.469 197.342 128.697 197.895 128.697 198.59C128.697 199.133 128.545 199.67 128.24 200.201C127.936 200.732 127.365 201.404 126.529 202.217L124.654 204.051V204.098H129.061V205ZM132.289 201.713L130.057 198.578H131.164L132.857 201.039L134.545 198.578H135.641L133.408 201.713L135.758 205H134.656L132.857 202.398L131.041 205H129.939L132.289 201.713ZM141.295 201.438V205H140.299V196.434H142.648C143.699 196.434 144.475 196.635 144.975 197.037C145.479 197.439 145.73 198.045 145.73 198.854C145.73 199.986 145.156 200.752 144.008 201.15L146.334 205H145.156L143.082 201.438H141.295ZM141.295 200.582H142.66C143.363 200.582 143.879 200.443 144.207 200.166C144.535 199.885 144.699 199.465 144.699 198.906C144.699 198.34 144.531 197.932 144.195 197.682C143.863 197.432 143.328 197.307 142.59 197.307H141.295V200.582ZM151.52 205L151.326 204.086H151.279C150.959 204.488 150.639 204.762 150.318 204.906C150.002 205.047 149.605 205.117 149.129 205.117C148.492 205.117 147.992 204.953 147.629 204.625C147.27 204.297 147.09 203.83 147.09 203.225C147.09 201.928 148.127 201.248 150.201 201.186L151.291 201.15V200.752C151.291 200.248 151.182 199.877 150.963 199.639C150.748 199.396 150.402 199.275 149.926 199.275C149.391 199.275 148.785 199.439 148.109 199.768L147.811 199.023C148.127 198.852 148.473 198.717 148.848 198.619C149.227 198.521 149.605 198.473 149.984 198.473C150.75 198.473 151.316 198.643 151.684 198.982C152.055 199.322 152.24 199.867 152.24 200.617V205H151.52ZM149.322 204.314C149.928 204.314 150.402 204.148 150.746 203.816C151.094 203.484 151.268 203.02 151.268 202.422V201.842L150.295 201.883C149.521 201.91 148.963 202.031 148.619 202.246C148.279 202.457 148.109 202.787 148.109 203.236C148.109 203.588 148.215 203.855 148.426 204.039C148.641 204.223 148.939 204.314 149.322 204.314ZM156.324 204.314C156.496 204.314 156.662 204.303 156.822 204.279C156.982 204.252 157.109 204.225 157.203 204.197V204.941C157.098 204.992 156.941 205.033 156.734 205.064C156.531 205.1 156.348 205.117 156.184 205.117C154.941 205.117 154.32 204.463 154.32 203.154V199.334H153.4V198.865L154.32 198.461L154.73 197.09H155.293V198.578H157.156V199.334H155.293V203.113C155.293 203.5 155.385 203.797 155.568 204.004C155.752 204.211 156.004 204.314 156.324 204.314ZM161.205 205.117C160.256 205.117 159.506 204.828 158.955 204.25C158.408 203.672 158.135 202.869 158.135 201.842C158.135 200.807 158.389 199.984 158.896 199.375C159.408 198.766 160.094 198.461 160.953 198.461C161.758 198.461 162.395 198.727 162.863 199.258C163.332 199.785 163.566 200.482 163.566 201.35V201.965H159.143C159.162 202.719 159.352 203.291 159.711 203.682C160.074 204.072 160.584 204.268 161.24 204.268C161.932 204.268 162.615 204.123 163.291 203.834V204.701C162.947 204.85 162.621 204.955 162.312 205.018C162.008 205.084 161.639 205.117 161.205 205.117ZM160.941 199.275C160.426 199.275 160.014 199.443 159.705 199.779C159.4 200.115 159.221 200.58 159.166 201.174H162.523C162.523 200.561 162.387 200.092 162.113 199.768C161.84 199.439 161.449 199.275 160.941 199.275ZM167.27 201.713C167.27 202.74 167.117 203.697 166.812 204.584C166.512 205.471 166.076 206.242 165.506 206.898H164.568C165.111 206.164 165.527 205.35 165.816 204.455C166.105 203.557 166.25 202.639 166.25 201.701C166.25 200.748 166.107 199.82 165.822 198.918C165.541 198.016 165.119 197.188 164.557 196.434H165.506C166.08 197.117 166.518 197.912 166.818 198.818C167.119 199.721 167.27 200.686 167.27 201.713Z" fill="#0A2535"/>
<rect x="193" y="109" width="178" height="115" fill="white" stroke="#68C6A4" stroke-width="2"/>
<path d="M271.805 139H269.938V129.18H266.578V127.578H275.164V129.18H271.805V139ZM278.562 139H276.727V130.359H278.562V139ZM276.617 128.07C276.617 127.742 276.706 127.49 276.883 127.312C277.065 127.135 277.323 127.047 277.656 127.047C277.979 127.047 278.229 127.135 278.406 127.312C278.589 127.49 278.68 127.742 278.68 128.07C278.68 128.383 278.589 128.63 278.406 128.812C278.229 128.99 277.979 129.078 277.656 129.078C277.323 129.078 277.065 128.99 276.883 128.812C276.706 128.63 276.617 128.383 276.617 128.07ZM285.578 139.156C284.484 139.156 283.635 138.763 283.031 137.977H282.922C282.995 138.706 283.031 139.148 283.031 139.305V142.844H281.195V130.359H282.68C282.721 130.521 282.807 130.906 282.938 131.516H283.031C283.604 130.641 284.464 130.203 285.609 130.203C286.688 130.203 287.526 130.594 288.125 131.375C288.729 132.156 289.031 133.253 289.031 134.664C289.031 136.076 288.724 137.177 288.109 137.969C287.5 138.76 286.656 139.156 285.578 139.156ZM285.133 131.703C284.404 131.703 283.87 131.917 283.531 132.344C283.198 132.771 283.031 133.453 283.031 134.391V134.664C283.031 135.716 283.198 136.479 283.531 136.953C283.865 137.422 284.409 137.656 285.164 137.656C285.799 137.656 286.289 137.396 286.633 136.875C286.977 136.354 287.148 135.612 287.148 134.648C287.148 133.68 286.977 132.948 286.633 132.453C286.294 131.953 285.794 131.703 285.133 131.703ZM296.969 136.539C296.969 137.383 296.661 138.031 296.047 138.484C295.432 138.932 294.552 139.156 293.406 139.156C292.255 139.156 291.331 138.982 290.633 138.633V137.047C291.648 137.516 292.594 137.75 293.469 137.75C294.599 137.75 295.164 137.409 295.164 136.727C295.164 136.508 295.102 136.326 294.977 136.18C294.852 136.034 294.646 135.883 294.359 135.727C294.073 135.57 293.674 135.393 293.164 135.195C292.169 134.81 291.495 134.424 291.141 134.039C290.792 133.654 290.617 133.154 290.617 132.539C290.617 131.799 290.914 131.227 291.508 130.82C292.107 130.409 292.919 130.203 293.945 130.203C294.961 130.203 295.922 130.409 296.828 130.82L296.234 132.203C295.302 131.818 294.518 131.625 293.883 131.625C292.914 131.625 292.43 131.901 292.43 132.453C292.43 132.724 292.555 132.953 292.805 133.141C293.06 133.328 293.612 133.586 294.461 133.914C295.174 134.19 295.693 134.443 296.016 134.672C296.339 134.901 296.578 135.167 296.734 135.469C296.891 135.766 296.969 136.122 296.969 136.539Z" fill="#0A2535"/>
<path d="M249.762 154.93C249.762 155.797 249.465 156.465 248.871 156.934C248.281 157.398 247.436 157.631 246.334 157.631H245.326V161H244.33V152.434H246.551C248.691 152.434 249.762 153.266 249.762 154.93ZM245.326 156.775H246.223C247.105 156.775 247.744 156.633 248.139 156.348C248.533 156.062 248.73 155.605 248.73 154.977C248.73 154.41 248.545 153.988 248.174 153.711C247.803 153.434 247.225 153.295 246.439 153.295H245.326V156.775ZM255.363 161L255.17 160.086H255.123C254.803 160.488 254.482 160.762 254.162 160.906C253.846 161.047 253.449 161.117 252.973 161.117C252.336 161.117 251.836 160.953 251.473 160.625C251.113 160.297 250.934 159.83 250.934 159.225C250.934 157.928 251.971 157.248 254.045 157.186L255.135 157.15V156.752C255.135 156.248 255.025 155.877 254.807 155.639C254.592 155.396 254.246 155.275 253.77 155.275C253.234 155.275 252.629 155.439 251.953 155.768L251.654 155.023C251.971 154.852 252.316 154.717 252.691 154.619C253.07 154.521 253.449 154.473 253.828 154.473C254.594 154.473 255.16 154.643 255.527 154.982C255.898 155.322 256.084 155.867 256.084 156.617V161H255.363ZM253.166 160.314C253.771 160.314 254.246 160.148 254.59 159.816C254.938 159.484 255.111 159.02 255.111 158.422V157.842L254.139 157.883C253.365 157.91 252.807 158.031 252.463 158.246C252.123 158.457 251.953 158.787 251.953 159.236C251.953 159.588 252.059 159.855 252.27 160.039C252.484 160.223 252.783 160.314 253.166 160.314ZM257.074 154.578H258.117L259.523 158.24C259.832 159.076 260.023 159.68 260.098 160.051H260.145C260.195 159.852 260.301 159.512 260.461 159.031C260.625 158.547 261.156 157.062 262.055 154.578H263.098L260.338 161.891C260.064 162.613 259.744 163.125 259.377 163.426C259.014 163.73 258.566 163.883 258.035 163.883C257.738 163.883 257.445 163.85 257.156 163.783V163.004C257.371 163.051 257.611 163.074 257.877 163.074C258.545 163.074 259.021 162.699 259.307 161.949L259.664 161.035L257.074 154.578ZM266.707 161.117C265.777 161.117 265.057 160.832 264.545 160.262C264.037 159.688 263.783 158.877 263.783 157.83C263.783 156.756 264.041 155.926 264.557 155.34C265.076 154.754 265.814 154.461 266.771 154.461C267.08 154.461 267.389 154.494 267.697 154.561C268.006 154.627 268.248 154.705 268.424 154.795L268.125 155.621C267.91 155.535 267.676 155.465 267.422 155.41C267.168 155.352 266.943 155.322 266.748 155.322C265.443 155.322 264.791 156.154 264.791 157.818C264.791 158.607 264.949 159.213 265.266 159.635C265.586 160.057 266.059 160.268 266.684 160.268C267.219 160.268 267.768 160.152 268.33 159.922V160.783C267.9 161.006 267.359 161.117 266.707 161.117ZM274.254 161V156.846C274.254 156.322 274.135 155.932 273.896 155.674C273.658 155.416 273.285 155.287 272.777 155.287C272.102 155.287 271.607 155.471 271.295 155.838C270.986 156.205 270.832 156.807 270.832 157.643V161H269.859V151.883H270.832V154.643C270.832 154.975 270.816 155.25 270.785 155.469H270.844C271.035 155.16 271.307 154.918 271.658 154.742C272.014 154.562 272.418 154.473 272.871 154.473C273.656 154.473 274.244 154.66 274.635 155.035C275.029 155.406 275.227 155.998 275.227 156.811V161H274.254ZM279.943 161.117C278.994 161.117 278.244 160.828 277.693 160.25C277.146 159.672 276.873 158.869 276.873 157.842C276.873 156.807 277.127 155.984 277.635 155.375C278.146 154.766 278.832 154.461 279.691 154.461C280.496 154.461 281.133 154.727 281.602 155.258C282.07 155.785 282.305 156.482 282.305 157.35V157.965H277.881C277.9 158.719 278.09 159.291 278.449 159.682C278.812 160.072 279.322 160.268 279.979 160.268C280.67 160.268 281.354 160.123 282.029 159.834V160.701C281.686 160.85 281.359 160.955 281.051 161.018C280.746 161.084 280.377 161.117 279.943 161.117ZM279.68 155.275C279.164 155.275 278.752 155.443 278.443 155.779C278.139 156.115 277.959 156.58 277.904 157.174H281.262C281.262 156.561 281.125 156.092 280.852 155.768C280.578 155.439 280.188 155.275 279.68 155.275ZM286.535 161.117C285.605 161.117 284.885 160.832 284.373 160.262C283.865 159.688 283.611 158.877 283.611 157.83C283.611 156.756 283.869 155.926 284.385 155.34C284.904 154.754 285.643 154.461 286.6 154.461C286.908 154.461 287.217 154.494 287.525 154.561C287.834 154.627 288.076 154.705 288.252 154.795L287.953 155.621C287.738 155.535 287.504 155.465 287.25 155.41C286.996 155.352 286.771 155.322 286.576 155.322C285.271 155.322 284.619 156.154 284.619 157.818C284.619 158.607 284.777 159.213 285.094 159.635C285.414 160.057 285.887 160.268 286.512 160.268C287.047 160.268 287.596 160.152 288.158 159.922V160.783C287.729 161.006 287.188 161.117 286.535 161.117ZM290.648 157.713C290.816 157.475 291.072 157.162 291.416 156.775L293.49 154.578H294.645L292.043 157.314L294.826 161H293.648L291.381 157.965L290.648 158.598V161H289.688V151.883H290.648V156.717C290.648 156.932 290.633 157.264 290.602 157.713H290.648ZM301.893 161H300.896V153.318H298.184V152.434H304.605V153.318H301.893V161ZM306.727 161H305.754V154.578H306.727V161ZM305.672 152.838C305.672 152.615 305.727 152.453 305.836 152.352C305.945 152.246 306.082 152.193 306.246 152.193C306.402 152.193 306.537 152.246 306.65 152.352C306.764 152.457 306.82 152.619 306.82 152.838C306.82 153.057 306.764 153.221 306.65 153.33C306.537 153.436 306.402 153.488 306.246 153.488C306.082 153.488 305.945 153.436 305.836 153.33C305.727 153.221 305.672 153.057 305.672 152.838ZM311.777 161.117C311.359 161.117 310.977 161.041 310.629 160.889C310.285 160.732 309.996 160.494 309.762 160.174H309.691C309.738 160.549 309.762 160.904 309.762 161.24V163.883H308.789V154.578H309.58L309.715 155.457H309.762C310.012 155.105 310.303 154.852 310.635 154.695C310.967 154.539 311.348 154.461 311.777 154.461C312.629 154.461 313.285 154.752 313.746 155.334C314.211 155.916 314.443 156.732 314.443 157.783C314.443 158.838 314.207 159.658 313.734 160.244C313.266 160.826 312.613 161.117 311.777 161.117ZM311.637 155.287C310.98 155.287 310.506 155.469 310.213 155.832C309.92 156.195 309.77 156.773 309.762 157.566V157.783C309.762 158.686 309.912 159.332 310.213 159.723C310.514 160.109 310.996 160.303 311.66 160.303C312.215 160.303 312.648 160.078 312.961 159.629C313.277 159.18 313.436 158.561 313.436 157.771C313.436 156.971 313.277 156.357 312.961 155.932C312.648 155.502 312.207 155.287 311.637 155.287ZM320.291 159.248C320.291 159.846 320.068 160.307 319.623 160.631C319.178 160.955 318.553 161.117 317.748 161.117C316.896 161.117 316.232 160.982 315.756 160.713V159.811C316.064 159.967 316.395 160.09 316.746 160.18C317.102 160.27 317.443 160.314 317.771 160.314C318.279 160.314 318.67 160.234 318.943 160.074C319.217 159.91 319.354 159.662 319.354 159.33C319.354 159.08 319.244 158.867 319.025 158.691C318.811 158.512 318.389 158.301 317.76 158.059C317.162 157.836 316.736 157.643 316.482 157.479C316.232 157.311 316.045 157.121 315.92 156.91C315.799 156.699 315.738 156.447 315.738 156.154C315.738 155.631 315.951 155.219 316.377 154.918C316.803 154.613 317.387 154.461 318.129 154.461C318.82 154.461 319.496 154.602 320.156 154.883L319.811 155.674C319.166 155.408 318.582 155.275 318.059 155.275C317.598 155.275 317.25 155.348 317.016 155.492C316.781 155.637 316.664 155.836 316.664 156.09C316.664 156.262 316.707 156.408 316.793 156.529C316.883 156.65 317.025 156.766 317.221 156.875C317.416 156.984 317.791 157.143 318.346 157.35C319.107 157.627 319.621 157.906 319.887 158.188C320.156 158.469 320.291 158.822 320.291 159.248Z" fill="#0A2535"/>
<path d="M260.227 175.201C259.285 175.201 258.541 175.516 257.994 176.145C257.451 176.77 257.18 177.627 257.18 178.717C257.18 179.838 257.441 180.705 257.965 181.318C258.492 181.928 259.242 182.232 260.215 182.232C260.812 182.232 261.494 182.125 262.26 181.91V182.783C261.666 183.006 260.934 183.117 260.062 183.117C258.801 183.117 257.826 182.734 257.139 181.969C256.455 181.203 256.113 180.115 256.113 178.705C256.113 177.822 256.277 177.049 256.605 176.385C256.938 175.721 257.414 175.209 258.035 174.85C258.66 174.49 259.395 174.311 260.238 174.311C261.137 174.311 261.922 174.475 262.594 174.803L262.172 175.658C261.523 175.354 260.875 175.201 260.227 175.201ZM267.932 183L267.738 182.086H267.691C267.371 182.488 267.051 182.762 266.73 182.906C266.414 183.047 266.018 183.117 265.541 183.117C264.904 183.117 264.404 182.953 264.041 182.625C263.682 182.297 263.502 181.83 263.502 181.225C263.502 179.928 264.539 179.248 266.613 179.186L267.703 179.15V178.752C267.703 178.248 267.594 177.877 267.375 177.639C267.16 177.396 266.814 177.275 266.338 177.275C265.803 177.275 265.197 177.439 264.521 177.768L264.223 177.023C264.539 176.852 264.885 176.717 265.26 176.619C265.639 176.521 266.018 176.473 266.396 176.473C267.162 176.473 267.729 176.643 268.096 176.982C268.467 177.322 268.652 177.867 268.652 178.617V183H267.932ZM265.734 182.314C266.34 182.314 266.814 182.148 267.158 181.816C267.506 181.484 267.68 181.02 267.68 180.422V179.842L266.707 179.883C265.934 179.91 265.375 180.031 265.031 180.246C264.691 180.457 264.521 180.787 264.521 181.236C264.521 181.588 264.627 181.855 264.838 182.039C265.053 182.223 265.352 182.314 265.734 182.314ZM274.805 181.248C274.805 181.846 274.582 182.307 274.137 182.631C273.691 182.955 273.066 183.117 272.262 183.117C271.41 183.117 270.746 182.982 270.27 182.713V181.811C270.578 181.967 270.908 182.09 271.26 182.18C271.615 182.27 271.957 182.314 272.285 182.314C272.793 182.314 273.184 182.234 273.457 182.074C273.73 181.91 273.867 181.662 273.867 181.33C273.867 181.08 273.758 180.867 273.539 180.691C273.324 180.512 272.902 180.301 272.273 180.059C271.676 179.836 271.25 179.643 270.996 179.479C270.746 179.311 270.559 179.121 270.434 178.91C270.312 178.699 270.252 178.447 270.252 178.154C270.252 177.631 270.465 177.219 270.891 176.918C271.316 176.613 271.9 176.461 272.643 176.461C273.334 176.461 274.01 176.602 274.67 176.883L274.324 177.674C273.68 177.408 273.096 177.275 272.572 177.275C272.111 177.275 271.764 177.348 271.529 177.492C271.295 177.637 271.178 177.836 271.178 178.09C271.178 178.262 271.221 178.408 271.307 178.529C271.396 178.65 271.539 178.766 271.734 178.875C271.93 178.984 272.305 179.143 272.859 179.35C273.621 179.627 274.135 179.906 274.4 180.188C274.67 180.469 274.805 180.822 274.805 181.248ZM280.787 183V178.846C280.787 178.322 280.668 177.932 280.43 177.674C280.191 177.416 279.818 177.287 279.311 177.287C278.635 177.287 278.141 177.471 277.828 177.838C277.52 178.205 277.365 178.807 277.365 179.643V183H276.393V173.883H277.365V176.643C277.365 176.975 277.35 177.25 277.318 177.469H277.377C277.568 177.16 277.84 176.918 278.191 176.742C278.547 176.562 278.951 176.473 279.404 176.473C280.189 176.473 280.777 176.66 281.168 177.035C281.562 177.406 281.76 177.998 281.76 178.811V183H280.787ZM289.664 183H288.668V175.318H285.955V174.434H292.377V175.318H289.664V183ZM294.498 183H293.525V176.578H294.498V183ZM293.443 174.838C293.443 174.615 293.498 174.453 293.607 174.352C293.717 174.246 293.854 174.193 294.018 174.193C294.174 174.193 294.309 174.246 294.422 174.352C294.535 174.457 294.592 174.619 294.592 174.838C294.592 175.057 294.535 175.221 294.422 175.33C294.309 175.436 294.174 175.488 294.018 175.488C293.854 175.488 293.717 175.436 293.607 175.33C293.498 175.221 293.443 175.057 293.443 174.838ZM299.549 183.117C299.131 183.117 298.748 183.041 298.4 182.889C298.057 182.732 297.768 182.494 297.533 182.174H297.463C297.51 182.549 297.533 182.904 297.533 183.24V185.883H296.561V176.578H297.352L297.486 177.457H297.533C297.783 177.105 298.074 176.852 298.406 176.695C298.738 176.539 299.119 176.461 299.549 176.461C300.4 176.461 301.057 176.752 301.518 177.334C301.982 177.916 302.215 178.732 302.215 179.783C302.215 180.838 301.979 181.658 301.506 182.244C301.037 182.826 300.385 183.117 299.549 183.117ZM299.408 177.287C298.752 177.287 298.277 177.469 297.984 177.832C297.691 178.195 297.541 178.773 297.533 179.566V179.783C297.533 180.686 297.684 181.332 297.984 181.723C298.285 182.109 298.768 182.303 299.432 182.303C299.986 182.303 300.42 182.078 300.732 181.629C301.049 181.18 301.207 180.561 301.207 179.771C301.207 178.971 301.049 178.357 300.732 177.932C300.42 177.502 299.979 177.287 299.408 177.287ZM308.062 181.248C308.062 181.846 307.84 182.307 307.395 182.631C306.949 182.955 306.324 183.117 305.52 183.117C304.668 183.117 304.004 182.982 303.527 182.713V181.811C303.836 181.967 304.166 182.09 304.518 182.18C304.873 182.27 305.215 182.314 305.543 182.314C306.051 182.314 306.441 182.234 306.715 182.074C306.988 181.91 307.125 181.662 307.125 181.33C307.125 181.08 307.016 180.867 306.797 180.691C306.582 180.512 306.16 180.301 305.531 180.059C304.934 179.836 304.508 179.643 304.254 179.479C304.004 179.311 303.816 179.121 303.691 178.91C303.57 178.699 303.51 178.447 303.51 178.154C303.51 177.631 303.723 177.219 304.148 176.918C304.574 176.613 305.158 176.461 305.9 176.461C306.592 176.461 307.268 176.602 307.928 176.883L307.582 177.674C306.938 177.408 306.354 177.275 305.83 177.275C305.369 177.275 305.021 177.348 304.787 177.492C304.553 177.637 304.436 177.836 304.436 178.09C304.436 178.262 304.479 178.408 304.564 178.529C304.654 178.65 304.797 178.766 304.992 178.875C305.188 178.984 305.562 179.143 306.117 179.35C306.879 179.627 307.393 179.906 307.658 180.188C307.928 180.469 308.062 180.822 308.062 181.248Z" fill="#0A2535"/>
<rect x="385" y="109" width="178" height="115" fill="white" stroke="#68C6A4" stroke-width="2"/>
<path d="M457.867 139H456V129.18H452.641V127.578H461.227V129.18H457.867V139ZM468.195 139L467.828 137.797H467.766C467.349 138.323 466.93 138.682 466.508 138.875C466.086 139.062 465.544 139.156 464.883 139.156C464.034 139.156 463.37 138.927 462.891 138.469C462.417 138.01 462.18 137.362 462.18 136.523C462.18 135.633 462.51 134.961 463.172 134.508C463.833 134.055 464.841 133.807 466.195 133.766L467.688 133.719V133.258C467.688 132.706 467.557 132.294 467.297 132.023C467.042 131.747 466.643 131.609 466.102 131.609C465.659 131.609 465.234 131.674 464.828 131.805C464.422 131.935 464.031 132.089 463.656 132.266L463.062 130.953C463.531 130.708 464.044 130.523 464.602 130.398C465.159 130.268 465.685 130.203 466.18 130.203C467.279 130.203 468.107 130.443 468.664 130.922C469.227 131.401 469.508 132.154 469.508 133.18V139H468.195ZM465.461 137.75C466.128 137.75 466.661 137.565 467.062 137.195C467.469 136.82 467.672 136.297 467.672 135.625V134.875L466.562 134.922C465.698 134.953 465.068 135.099 464.672 135.359C464.281 135.615 464.086 136.008 464.086 136.539C464.086 136.924 464.201 137.224 464.43 137.438C464.659 137.646 465.003 137.75 465.461 137.75ZM473.992 134.586L471.094 130.359H473.188L475.156 133.383L477.141 130.359H479.219L476.312 134.586L479.367 139H477.289L475.156 135.766L473.031 139H470.953L473.992 134.586ZM484.656 139.156C483.312 139.156 482.26 138.766 481.5 137.984C480.745 137.198 480.367 136.117 480.367 134.742C480.367 133.331 480.719 132.221 481.422 131.414C482.125 130.607 483.091 130.203 484.32 130.203C485.461 130.203 486.362 130.549 487.023 131.242C487.685 131.935 488.016 132.888 488.016 134.102V135.094H482.258C482.284 135.932 482.51 136.578 482.938 137.031C483.365 137.479 483.966 137.703 484.742 137.703C485.253 137.703 485.727 137.656 486.164 137.562C486.607 137.464 487.081 137.302 487.586 137.078V138.57C487.138 138.784 486.685 138.935 486.227 139.023C485.768 139.112 485.245 139.156 484.656 139.156ZM484.32 131.594C483.737 131.594 483.268 131.779 482.914 132.148C482.565 132.518 482.357 133.057 482.289 133.766H486.211C486.201 133.052 486.029 132.513 485.695 132.148C485.362 131.779 484.904 131.594 484.32 131.594ZM495.906 136.539C495.906 137.383 495.599 138.031 494.984 138.484C494.37 138.932 493.49 139.156 492.344 139.156C491.193 139.156 490.268 138.982 489.57 138.633V137.047C490.586 137.516 491.531 137.75 492.406 137.75C493.536 137.75 494.102 137.409 494.102 136.727C494.102 136.508 494.039 136.326 493.914 136.18C493.789 136.034 493.583 135.883 493.297 135.727C493.01 135.57 492.612 135.393 492.102 135.195C491.107 134.81 490.432 134.424 490.078 134.039C489.729 133.654 489.555 133.154 489.555 132.539C489.555 131.799 489.852 131.227 490.445 130.82C491.044 130.409 491.857 130.203 492.883 130.203C493.898 130.203 494.859 130.409 495.766 130.82L495.172 132.203C494.24 131.818 493.456 131.625 492.82 131.625C491.852 131.625 491.367 131.901 491.367 132.453C491.367 132.724 491.492 132.953 491.742 133.141C491.997 133.328 492.549 133.586 493.398 133.914C494.112 134.19 494.63 134.443 494.953 134.672C495.276 134.901 495.516 135.167 495.672 135.469C495.828 135.766 495.906 136.122 495.906 136.539Z" fill="#0A2535"/>
<path d="M444.107 161H443.123L441.395 155.264C441.312 155.01 441.221 154.689 441.119 154.303C441.018 153.916 440.965 153.684 440.961 153.605C440.875 154.121 440.738 154.686 440.551 155.299L438.875 161H437.891L435.611 152.434H436.666L438.02 157.725C438.207 158.467 438.344 159.139 438.43 159.74C438.535 159.025 438.691 158.326 438.898 157.643L440.434 152.434H441.488L443.1 157.689C443.287 158.295 443.445 158.979 443.574 159.74C443.648 159.186 443.789 158.51 443.996 157.713L445.344 152.434H446.398L444.107 161ZM453.137 157.783C453.137 158.83 452.873 159.648 452.346 160.238C451.818 160.824 451.09 161.117 450.16 161.117C449.586 161.117 449.076 160.982 448.631 160.713C448.186 160.443 447.842 160.057 447.6 159.553C447.357 159.049 447.236 158.459 447.236 157.783C447.236 156.736 447.498 155.922 448.021 155.34C448.545 154.754 449.271 154.461 450.201 154.461C451.1 154.461 451.812 154.76 452.34 155.357C452.871 155.955 453.137 156.764 453.137 157.783ZM448.244 157.783C448.244 158.604 448.408 159.229 448.736 159.658C449.064 160.088 449.547 160.303 450.184 160.303C450.82 160.303 451.303 160.09 451.631 159.664C451.963 159.234 452.129 158.607 452.129 157.783C452.129 156.967 451.963 156.348 451.631 155.926C451.303 155.5 450.816 155.287 450.172 155.287C449.535 155.287 449.055 155.496 448.73 155.914C448.406 156.332 448.244 156.955 448.244 157.783ZM457.777 154.461C458.062 154.461 458.318 154.484 458.545 154.531L458.41 155.434C458.145 155.375 457.91 155.346 457.707 155.346C457.188 155.346 456.742 155.557 456.371 155.979C456.004 156.4 455.82 156.926 455.82 157.555V161H454.848V154.578H455.65L455.762 155.768H455.809C456.047 155.35 456.334 155.027 456.67 154.801C457.006 154.574 457.375 154.461 457.777 154.461ZM460.707 157.713C460.875 157.475 461.131 157.162 461.475 156.775L463.549 154.578H464.703L462.102 157.314L464.885 161H463.707L461.439 157.965L460.707 158.598V161H459.746V151.883H460.707V156.717C460.707 156.932 460.691 157.264 460.66 157.713H460.707ZM474.699 161L473.633 158.275H470.199L469.145 161H468.137L471.523 152.398H472.361L475.73 161H474.699ZM473.322 157.379L472.326 154.725C472.197 154.389 472.064 153.977 471.928 153.488C471.842 153.863 471.719 154.275 471.559 154.725L470.551 157.379H473.322ZM481.133 160.139H481.08C480.631 160.791 479.959 161.117 479.064 161.117C478.225 161.117 477.57 160.83 477.102 160.256C476.637 159.682 476.404 158.865 476.404 157.807C476.404 156.748 476.639 155.926 477.107 155.34C477.576 154.754 478.229 154.461 479.064 154.461C479.936 154.461 480.604 154.777 481.068 155.41H481.145L481.104 154.947L481.08 154.496V151.883H482.053V161H481.262L481.133 160.139ZM479.188 160.303C479.852 160.303 480.332 160.123 480.629 159.764C480.93 159.4 481.08 158.816 481.08 158.012V157.807C481.08 156.896 480.928 156.248 480.623 155.861C480.322 155.471 479.84 155.275 479.176 155.275C478.605 155.275 478.168 155.498 477.863 155.943C477.562 156.385 477.412 157.01 477.412 157.818C477.412 158.639 477.562 159.258 477.863 159.676C478.164 160.094 478.605 160.303 479.188 160.303ZM488.492 160.139H488.439C487.99 160.791 487.318 161.117 486.424 161.117C485.584 161.117 484.93 160.83 484.461 160.256C483.996 159.682 483.764 158.865 483.764 157.807C483.764 156.748 483.998 155.926 484.467 155.34C484.936 154.754 485.588 154.461 486.424 154.461C487.295 154.461 487.963 154.777 488.428 155.41H488.504L488.463 154.947L488.439 154.496V151.883H489.412V161H488.621L488.492 160.139ZM486.547 160.303C487.211 160.303 487.691 160.123 487.988 159.764C488.289 159.4 488.439 158.816 488.439 158.012V157.807C488.439 156.896 488.287 156.248 487.982 155.861C487.682 155.471 487.199 155.275 486.535 155.275C485.965 155.275 485.527 155.498 485.223 155.943C484.922 156.385 484.771 157.01 484.771 157.818C484.771 158.639 484.922 159.258 485.223 159.676C485.523 160.094 485.965 160.303 486.547 160.303ZM494.41 154.461C494.695 154.461 494.951 154.484 495.178 154.531L495.043 155.434C494.777 155.375 494.543 155.346 494.34 155.346C493.82 155.346 493.375 155.557 493.004 155.979C492.637 156.4 492.453 156.926 492.453 157.555V161H491.48V154.578H492.283L492.395 155.768H492.441C492.68 155.35 492.967 155.027 493.303 154.801C493.639 154.574 494.008 154.461 494.41 154.461ZM499.092 161.117C498.143 161.117 497.393 160.828 496.842 160.25C496.295 159.672 496.021 158.869 496.021 157.842C496.021 156.807 496.275 155.984 496.783 155.375C497.295 154.766 497.98 154.461 498.84 154.461C499.645 154.461 500.281 154.727 500.75 155.258C501.219 155.785 501.453 156.482 501.453 157.35V157.965H497.029C497.049 158.719 497.238 159.291 497.598 159.682C497.961 160.072 498.471 160.268 499.127 160.268C499.818 160.268 500.502 160.123 501.178 159.834V160.701C500.834 160.85 500.508 160.955 500.199 161.018C499.895 161.084 499.525 161.117 499.092 161.117ZM498.828 155.275C498.312 155.275 497.9 155.443 497.592 155.779C497.287 156.115 497.107 156.58 497.053 157.174H500.41C500.41 156.561 500.273 156.092 500 155.768C499.727 155.439 499.336 155.275 498.828 155.275ZM507.26 159.248C507.26 159.846 507.037 160.307 506.592 160.631C506.146 160.955 505.521 161.117 504.717 161.117C503.865 161.117 503.201 160.982 502.725 160.713V159.811C503.033 159.967 503.363 160.09 503.715 160.18C504.07 160.27 504.412 160.314 504.74 160.314C505.248 160.314 505.639 160.234 505.912 160.074C506.186 159.91 506.322 159.662 506.322 159.33C506.322 159.08 506.213 158.867 505.994 158.691C505.779 158.512 505.357 158.301 504.729 158.059C504.131 157.836 503.705 157.643 503.451 157.479C503.201 157.311 503.014 157.121 502.889 156.91C502.768 156.699 502.707 156.447 502.707 156.154C502.707 155.631 502.92 155.219 503.346 154.918C503.771 154.613 504.355 154.461 505.098 154.461C505.789 154.461 506.465 154.602 507.125 154.883L506.779 155.674C506.135 155.408 505.551 155.275 505.027 155.275C504.566 155.275 504.219 155.348 503.984 155.492C503.75 155.637 503.633 155.836 503.633 156.09C503.633 156.262 503.676 156.408 503.762 156.529C503.852 156.65 503.994 156.766 504.189 156.875C504.385 156.984 504.76 157.143 505.314 157.35C506.076 157.627 506.59 157.906 506.855 158.188C507.125 158.469 507.26 158.822 507.26 159.248ZM512.99 159.248C512.99 159.846 512.768 160.307 512.322 160.631C511.877 160.955 511.252 161.117 510.447 161.117C509.596 161.117 508.932 160.982 508.455 160.713V159.811C508.764 159.967 509.094 160.09 509.445 160.18C509.801 160.27 510.143 160.314 510.471 160.314C510.979 160.314 511.369 160.234 511.643 160.074C511.916 159.91 512.053 159.662 512.053 159.33C512.053 159.08 511.943 158.867 511.725 158.691C511.51 158.512 511.088 158.301 510.459 158.059C509.861 157.836 509.436 157.643 509.182 157.479C508.932 157.311 508.744 157.121 508.619 156.91C508.498 156.699 508.438 156.447 508.438 156.154C508.438 155.631 508.65 155.219 509.076 154.918C509.502 154.613 510.086 154.461 510.828 154.461C511.52 154.461 512.195 154.602 512.855 154.883L512.51 155.674C511.865 155.408 511.281 155.275 510.758 155.275C510.297 155.275 509.949 155.348 509.715 155.492C509.48 155.637 509.363 155.836 509.363 156.09C509.363 156.262 509.406 156.408 509.492 156.529C509.582 156.65 509.725 156.766 509.92 156.875C510.115 156.984 510.49 157.143 511.045 157.35C511.807 157.627 512.32 157.906 512.586 158.188C512.855 158.469 512.99 158.822 512.99 159.248Z" fill="#0A2535"/>
<path d="M440.908 183H439.912V178.969H435.4V183H434.404V174.434H435.4V178.078H439.912V174.434H440.908V183ZM448.66 179.783C448.66 180.83 448.396 181.648 447.869 182.238C447.342 182.824 446.613 183.117 445.684 183.117C445.109 183.117 444.6 182.982 444.154 182.713C443.709 182.443 443.365 182.057 443.123 181.553C442.881 181.049 442.76 180.459 442.76 179.783C442.76 178.736 443.021 177.922 443.545 177.34C444.068 176.754 444.795 176.461 445.725 176.461C446.623 176.461 447.336 176.76 447.863 177.357C448.395 177.955 448.66 178.764 448.66 179.783ZM443.768 179.783C443.768 180.604 443.932 181.229 444.26 181.658C444.588 182.088 445.07 182.303 445.707 182.303C446.344 182.303 446.826 182.09 447.154 181.664C447.486 181.234 447.652 180.607 447.652 179.783C447.652 178.967 447.486 178.348 447.154 177.926C446.826 177.5 446.34 177.287 445.695 177.287C445.059 177.287 444.578 177.496 444.254 177.914C443.93 178.332 443.768 178.955 443.768 179.783ZM458.557 183V178.822C458.557 178.311 458.447 177.928 458.229 177.674C458.01 177.416 457.67 177.287 457.209 177.287C456.604 177.287 456.156 177.461 455.867 177.809C455.578 178.156 455.434 178.691 455.434 179.414V183H454.461V178.822C454.461 178.311 454.352 177.928 454.133 177.674C453.914 177.416 453.572 177.287 453.107 177.287C452.498 177.287 452.051 177.471 451.766 177.838C451.484 178.201 451.344 178.799 451.344 179.631V183H450.371V176.578H451.162L451.32 177.457H451.367C451.551 177.145 451.809 176.9 452.141 176.725C452.477 176.549 452.852 176.461 453.266 176.461C454.27 176.461 454.926 176.824 455.234 177.551H455.281C455.473 177.215 455.75 176.949 456.113 176.754C456.477 176.559 456.891 176.461 457.355 176.461C458.082 176.461 458.625 176.648 458.984 177.023C459.348 177.395 459.529 177.99 459.529 178.811V183H458.557ZM464.252 183.117C463.303 183.117 462.553 182.828 462.002 182.25C461.455 181.672 461.182 180.869 461.182 179.842C461.182 178.807 461.436 177.984 461.943 177.375C462.455 176.766 463.141 176.461 464 176.461C464.805 176.461 465.441 176.727 465.91 177.258C466.379 177.785 466.613 178.482 466.613 179.35V179.965H462.189C462.209 180.719 462.398 181.291 462.758 181.682C463.121 182.072 463.631 182.268 464.287 182.268C464.979 182.268 465.662 182.123 466.338 181.834V182.701C465.994 182.85 465.668 182.955 465.359 183.018C465.055 183.084 464.686 183.117 464.252 183.117ZM463.988 177.275C463.473 177.275 463.061 177.443 462.752 177.779C462.447 178.115 462.268 178.58 462.213 179.174H465.57C465.57 178.561 465.434 178.092 465.16 177.768C464.887 177.439 464.496 177.275 463.988 177.275ZM476.926 183L475.859 180.275H472.426L471.371 183H470.363L473.75 174.398H474.588L477.957 183H476.926ZM475.549 179.379L474.553 176.725C474.424 176.389 474.291 175.977 474.154 175.488C474.068 175.863 473.945 176.275 473.785 176.725L472.777 179.379H475.549ZM483.359 182.139H483.307C482.857 182.791 482.186 183.117 481.291 183.117C480.451 183.117 479.797 182.83 479.328 182.256C478.863 181.682 478.631 180.865 478.631 179.807C478.631 178.748 478.865 177.926 479.334 177.34C479.803 176.754 480.455 176.461 481.291 176.461C482.162 176.461 482.83 176.777 483.295 177.41H483.371L483.33 176.947L483.307 176.496V173.883H484.279V183H483.488L483.359 182.139ZM481.414 182.303C482.078 182.303 482.559 182.123 482.855 181.764C483.156 181.4 483.307 180.816 483.307 180.012V179.807C483.307 178.896 483.154 178.248 482.85 177.861C482.549 177.471 482.066 177.275 481.402 177.275C480.832 177.275 480.395 177.498 480.09 177.943C479.789 178.385 479.639 179.01 479.639 179.818C479.639 180.639 479.789 181.258 480.09 181.676C480.391 182.094 480.832 182.303 481.414 182.303ZM490.719 182.139H490.666C490.217 182.791 489.545 183.117 488.65 183.117C487.811 183.117 487.156 182.83 486.688 182.256C486.223 181.682 485.99 180.865 485.99 179.807C485.99 178.748 486.225 177.926 486.693 177.34C487.162 176.754 487.814 176.461 488.65 176.461C489.521 176.461 490.189 176.777 490.654 177.41H490.73L490.689 176.947L490.666 176.496V173.883H491.639V183H490.848L490.719 182.139ZM488.773 182.303C489.438 182.303 489.918 182.123 490.215 181.764C490.516 181.4 490.666 180.816 490.666 180.012V179.807C490.666 178.896 490.514 178.248 490.209 177.861C489.908 177.471 489.426 177.275 488.762 177.275C488.191 177.275 487.754 177.498 487.449 177.943C487.148 178.385 486.998 179.01 486.998 179.818C486.998 180.639 487.148 181.258 487.449 181.676C487.75 182.094 488.191 182.303 488.773 182.303ZM496.637 176.461C496.922 176.461 497.178 176.484 497.404 176.531L497.27 177.434C497.004 177.375 496.77 177.346 496.566 177.346C496.047 177.346 495.602 177.557 495.23 177.979C494.863 178.4 494.68 178.926 494.68 179.555V183H493.707V176.578H494.51L494.621 177.768H494.668C494.906 177.35 495.193 177.027 495.529 176.801C495.865 176.574 496.234 176.461 496.637 176.461ZM501.318 183.117C500.369 183.117 499.619 182.828 499.068 182.25C498.521 181.672 498.248 180.869 498.248 179.842C498.248 178.807 498.502 177.984 499.01 177.375C499.521 176.766 500.207 176.461 501.066 176.461C501.871 176.461 502.508 176.727 502.977 177.258C503.445 177.785 503.68 178.482 503.68 179.35V179.965H499.256C499.275 180.719 499.465 181.291 499.824 181.682C500.188 182.072 500.697 182.268 501.354 182.268C502.045 182.268 502.729 182.123 503.404 181.834V182.701C503.061 182.85 502.734 182.955 502.426 183.018C502.121 183.084 501.752 183.117 501.318 183.117ZM501.055 177.275C500.539 177.275 500.127 177.443 499.818 177.779C499.514 178.115 499.334 178.58 499.279 179.174H502.637C502.637 178.561 502.5 178.092 502.227 177.768C501.953 177.439 501.562 177.275 501.055 177.275ZM509.486 181.248C509.486 181.846 509.264 182.307 508.818 182.631C508.373 182.955 507.748 183.117 506.943 183.117C506.092 183.117 505.428 182.982 504.951 182.713V181.811C505.26 181.967 505.59 182.09 505.941 182.18C506.297 182.27 506.639 182.314 506.967 182.314C507.475 182.314 507.865 182.234 508.139 182.074C508.412 181.91 508.549 181.662 508.549 181.33C508.549 181.08 508.439 180.867 508.221 180.691C508.006 180.512 507.584 180.301 506.955 180.059C506.357 179.836 505.932 179.643 505.678 179.479C505.428 179.311 505.24 179.121 505.115 178.91C504.994 178.699 504.934 178.447 504.934 178.154C504.934 177.631 505.146 177.219 505.572 176.918C505.998 176.613 506.582 176.461 507.324 176.461C508.016 176.461 508.691 176.602 509.352 176.883L509.006 177.674C508.361 177.408 507.777 177.275 507.254 177.275C506.793 177.275 506.445 177.348 506.211 177.492C505.977 177.637 505.859 177.836 505.859 178.09C505.859 178.262 505.902 178.408 505.988 178.529C506.078 178.65 506.221 178.766 506.416 178.875C506.611 178.984 506.986 179.143 507.541 179.35C508.303 179.627 508.816 179.906 509.082 180.188C509.352 180.469 509.486 180.822 509.486 181.248ZM515.217 181.248C515.217 181.846 514.994 182.307 514.549 182.631C514.104 182.955 513.479 183.117 512.674 183.117C511.822 183.117 511.158 182.982 510.682 182.713V181.811C510.99 181.967 511.32 182.09 511.672 182.18C512.027 182.27 512.369 182.314 512.697 182.314C513.205 182.314 513.596 182.234 513.869 182.074C514.143 181.91 514.279 181.662 514.279 181.33C514.279 181.08 514.17 180.867 513.951 180.691C513.736 180.512 513.314 180.301 512.686 180.059C512.088 179.836 511.662 179.643 511.408 179.479C511.158 179.311 510.971 179.121 510.846 178.91C510.725 178.699 510.664 178.447 510.664 178.154C510.664 177.631 510.877 177.219 511.303 176.918C511.729 176.613 512.312 176.461 513.055 176.461C513.746 176.461 514.422 176.602 515.082 176.883L514.736 177.674C514.092 177.408 513.508 177.275 512.984 177.275C512.523 177.275 512.176 177.348 511.941 177.492C511.707 177.637 511.59 177.836 511.59 178.09C511.59 178.262 511.633 178.408 511.719 178.529C511.809 178.65 511.951 178.766 512.146 178.875C512.342 178.984 512.717 179.143 513.271 179.35C514.033 179.627 514.547 179.906 514.812 180.188C515.082 180.469 515.217 180.822 515.217 181.248Z" fill="#0A2535"/>
<rect x="201" y="1" width="163" height="42" fill="white" stroke="#68C6A4" stroke-width="2"/>
<path d="M247.492 28H245.625V18.1797H242.266V16.5781H250.852V18.1797H247.492V28ZM254.25 28H252.414V19.3594H254.25V28ZM252.305 17.0703C252.305 16.7422 252.393 16.4896 252.57 16.3125C252.753 16.1354 253.01 16.0469 253.344 16.0469C253.667 16.0469 253.917 16.1354 254.094 16.3125C254.276 16.4896 254.367 16.7422 254.367 17.0703C254.367 17.3828 254.276 17.6302 254.094 17.8125C253.917 17.9896 253.667 18.0781 253.344 18.0781C253.01 18.0781 252.753 17.9896 252.57 17.8125C252.393 17.6302 252.305 17.3828 252.305 17.0703ZM264.164 28H262.32V22.6719C262.32 22.0104 262.195 21.5182 261.945 21.1953C261.695 20.8672 261.305 20.7031 260.773 20.7031C260.065 20.7031 259.544 20.9349 259.211 21.3984C258.883 21.8568 258.719 22.6224 258.719 23.6953V28H256.883V19.3594H258.32L258.578 20.4922H258.672C258.911 20.0807 259.258 19.763 259.711 19.5391C260.169 19.3151 260.672 19.2031 261.219 19.2031C262.547 19.2031 263.427 19.6562 263.859 20.5625H263.984C264.24 20.1354 264.599 19.8021 265.062 19.5625C265.526 19.3229 266.057 19.2031 266.656 19.2031C267.688 19.2031 268.438 19.4635 268.906 19.9844C269.38 20.5052 269.617 21.2995 269.617 22.3672V28H267.781V22.6719C267.781 22.0104 267.654 21.5182 267.398 21.1953C267.148 20.8672 266.758 20.7031 266.227 20.7031C265.513 20.7031 264.99 20.9271 264.656 21.375C264.328 21.8177 264.164 22.5 264.164 23.4219V28ZM275.953 28.1562C274.609 28.1562 273.557 27.7656 272.797 26.9844C272.042 26.1979 271.664 25.1172 271.664 23.7422C271.664 22.3307 272.016 21.2214 272.719 20.4141C273.422 19.6068 274.388 19.2031 275.617 19.2031C276.758 19.2031 277.659 19.5495 278.32 20.2422C278.982 20.9349 279.312 21.888 279.312 23.1016V24.0938H273.555C273.581 24.9323 273.807 25.5781 274.234 26.0312C274.661 26.4792 275.263 26.7031 276.039 26.7031C276.549 26.7031 277.023 26.6562 277.461 26.5625C277.904 26.4635 278.378 26.3021 278.883 26.0781V27.5703C278.435 27.7839 277.982 27.9349 277.523 28.0234C277.065 28.112 276.542 28.1562 275.953 28.1562ZM275.617 20.5938C275.034 20.5938 274.565 20.7786 274.211 21.1484C273.862 21.5182 273.654 22.0573 273.586 22.7656H277.508C277.497 22.0521 277.326 21.513 276.992 21.1484C276.659 20.7786 276.201 20.5938 275.617 20.5938ZM284.883 28.1562C283.576 28.1562 282.581 27.776 281.898 27.0156C281.221 26.25 280.883 25.1536 280.883 23.7266C280.883 22.2734 281.237 21.1562 281.945 20.375C282.659 19.5938 283.688 19.2031 285.031 19.2031C285.943 19.2031 286.763 19.3724 287.492 19.7109L286.938 21.1875C286.161 20.8854 285.521 20.7344 285.016 20.7344C283.521 20.7344 282.773 21.7266 282.773 23.7109C282.773 24.6797 282.958 25.4089 283.328 25.8984C283.703 26.3828 284.25 26.625 284.969 26.625C285.786 26.625 286.56 26.4219 287.289 26.0156V27.6172C286.961 27.8099 286.609 27.9479 286.234 28.0312C285.865 28.1146 285.414 28.1562 284.883 28.1562ZM294.727 28L294.359 26.7969H294.297C293.88 27.3229 293.461 27.6823 293.039 27.875C292.617 28.0625 292.076 28.1562 291.414 28.1562C290.565 28.1562 289.901 27.9271 289.422 27.4688C288.948 27.0104 288.711 26.362 288.711 25.5234C288.711 24.6328 289.042 23.9609 289.703 23.5078C290.365 23.0547 291.372 22.8073 292.727 22.7656L294.219 22.7188V22.2578C294.219 21.7057 294.089 21.2943 293.828 21.0234C293.573 20.7474 293.174 20.6094 292.633 20.6094C292.19 20.6094 291.766 20.6745 291.359 20.8047C290.953 20.9349 290.562 21.0885 290.188 21.2656L289.594 19.9531C290.062 19.7083 290.576 19.5234 291.133 19.3984C291.69 19.2682 292.216 19.2031 292.711 19.2031C293.81 19.2031 294.638 19.4427 295.195 19.9219C295.758 20.401 296.039 21.1536 296.039 22.1797V28H294.727ZM291.992 26.75C292.659 26.75 293.193 26.5651 293.594 26.1953C294 25.8203 294.203 25.2969 294.203 24.625V23.875L293.094 23.9219C292.229 23.9531 291.599 24.099 291.203 24.3594C290.812 24.6146 290.617 25.0078 290.617 25.5391C290.617 25.9245 290.732 26.224 290.961 26.4375C291.19 26.6458 291.534 26.75 291.992 26.75ZM302.984 19.2031C303.354 19.2031 303.659 19.2292 303.898 19.2812L303.719 20.9922C303.458 20.9297 303.188 20.8984 302.906 20.8984C302.172 20.8984 301.576 21.138 301.117 21.6172C300.664 22.0964 300.438 22.7188 300.438 23.4844V28H298.602V19.3594H300.039L300.281 20.8828H300.375C300.661 20.3672 301.034 19.9583 301.492 19.6562C301.956 19.3542 302.453 19.2031 302.984 19.2031ZM308.422 28.1562C307.344 28.1562 306.503 27.7656 305.898 26.9844C305.294 26.2031 304.992 25.1068 304.992 23.6953C304.992 22.2786 305.297 21.1771 305.906 20.3906C306.521 19.599 307.37 19.2031 308.453 19.2031C309.589 19.2031 310.453 19.6224 311.047 20.4609H311.141C311.052 19.8411 311.008 19.3516 311.008 18.9922V15.8438H312.852V28H311.414L311.094 26.8672H311.008C310.419 27.7266 309.557 28.1562 308.422 28.1562ZM308.914 26.6719C309.669 26.6719 310.219 26.4609 310.562 26.0391C310.906 25.612 311.083 24.9219 311.094 23.9688V23.7109C311.094 22.6224 310.917 21.849 310.562 21.3906C310.208 20.9323 309.654 20.7031 308.898 20.7031C308.253 20.7031 307.755 20.9661 307.406 21.4922C307.057 22.013 306.883 22.7578 306.883 23.7266C306.883 24.6849 307.052 25.4167 307.391 25.9219C307.729 26.4219 308.237 26.6719 308.914 26.6719ZM321.281 25.5391C321.281 26.3828 320.974 27.0312 320.359 27.4844C319.745 27.9323 318.865 28.1562 317.719 28.1562C316.568 28.1562 315.643 27.9818 314.945 27.6328V26.0469C315.961 26.5156 316.906 26.75 317.781 26.75C318.911 26.75 319.477 26.4089 319.477 25.7266C319.477 25.5078 319.414 25.3255 319.289 25.1797C319.164 25.0339 318.958 24.8828 318.672 24.7266C318.385 24.5703 317.987 24.3932 317.477 24.1953C316.482 23.8099 315.807 23.4245 315.453 23.0391C315.104 22.6536 314.93 22.1536 314.93 21.5391C314.93 20.7995 315.227 20.2266 315.82 19.8203C316.419 19.4089 317.232 19.2031 318.258 19.2031C319.273 19.2031 320.234 19.4089 321.141 19.8203L320.547 21.2031C319.615 20.8177 318.831 20.625 318.195 20.625C317.227 20.625 316.742 20.901 316.742 21.4531C316.742 21.724 316.867 21.9531 317.117 22.1406C317.372 22.3281 317.924 22.5859 318.773 22.9141C319.487 23.1901 320.005 23.4427 320.328 23.6719C320.651 23.901 320.891 24.1667 321.047 24.4688C321.203 24.7656 321.281 25.1224 321.281 25.5391Z" fill="#0A2535"/>
</svg>
