<svg width="564" height="328" viewBox="0 0 564 328" fill="none" xmlns="http://www.w3.org/2000/svg">
<line x1="134.5" y1="257" x2="134.5" y2="224" stroke="#0A2535"/>
<line x1="428.5" y1="257" x2="428.5" y2="224" stroke="#0A2535"/>
<rect x="200" y="1" width="163" height="42" fill="white" stroke="#68C6A4" stroke-width="2"/>
<path d="M249.297 21.8047H253.5V27.5391C252.812 27.763 252.151 27.9219 251.516 28.0156C250.885 28.1094 250.203 28.1562 249.469 28.1562C247.74 28.1562 246.406 27.6458 245.469 26.625C244.531 25.599 244.062 24.1536 244.062 22.2891C244.062 20.4505 244.591 19.013 245.648 17.9766C246.706 16.9349 248.161 16.4141 250.016 16.4141C251.208 16.4141 252.339 16.6432 253.406 17.1016L252.75 18.6562C251.823 18.2292 250.896 18.0156 249.969 18.0156C248.75 18.0156 247.786 18.3984 247.078 19.1641C246.37 19.9297 246.016 20.9766 246.016 22.3047C246.016 23.7005 246.333 24.763 246.969 25.4922C247.609 26.2161 248.529 26.5781 249.727 26.5781C250.331 26.5781 250.977 26.5026 251.664 26.3516V23.4062H249.297V21.8047ZM260.438 19.2031C260.807 19.2031 261.112 19.2292 261.352 19.2812L261.172 20.9922C260.911 20.9297 260.641 20.8984 260.359 20.8984C259.625 20.8984 259.029 21.138 258.57 21.6172C258.117 22.0964 257.891 22.7188 257.891 23.4844V28H256.055V19.3594H257.492L257.734 20.8828H257.828C258.115 20.3672 258.487 19.9583 258.945 19.6562C259.409 19.3542 259.906 19.2031 260.438 19.2031ZM270.625 23.6641C270.625 25.0755 270.263 26.1771 269.539 26.9688C268.815 27.7604 267.807 28.1562 266.516 28.1562C265.708 28.1562 264.995 27.974 264.375 27.6094C263.755 27.2448 263.279 26.7214 262.945 26.0391C262.612 25.3568 262.445 24.5651 262.445 23.6641C262.445 22.263 262.805 21.1693 263.523 20.3828C264.242 19.5964 265.255 19.2031 266.562 19.2031C267.812 19.2031 268.802 19.6068 269.531 20.4141C270.26 21.2161 270.625 22.2995 270.625 23.6641ZM264.336 23.6641C264.336 25.6589 265.073 26.6562 266.547 26.6562C268.005 26.6562 268.734 25.6589 268.734 23.6641C268.734 21.6901 268 20.7031 266.531 20.7031C265.76 20.7031 265.201 20.9583 264.852 21.4688C264.508 21.9792 264.336 22.7109 264.336 23.6641ZM278.547 25.5391C278.547 26.3828 278.24 27.0312 277.625 27.4844C277.01 27.9323 276.13 28.1562 274.984 28.1562C273.833 28.1562 272.909 27.9818 272.211 27.6328V26.0469C273.227 26.5156 274.172 26.75 275.047 26.75C276.177 26.75 276.742 26.4089 276.742 25.7266C276.742 25.5078 276.68 25.3255 276.555 25.1797C276.43 25.0339 276.224 24.8828 275.938 24.7266C275.651 24.5703 275.253 24.3932 274.742 24.1953C273.747 23.8099 273.073 23.4245 272.719 23.0391C272.37 22.6536 272.195 22.1536 272.195 21.5391C272.195 20.7995 272.492 20.2266 273.086 19.8203C273.685 19.4089 274.497 19.2031 275.523 19.2031C276.539 19.2031 277.5 19.4089 278.406 19.8203L277.812 21.2031C276.88 20.8177 276.096 20.625 275.461 20.625C274.492 20.625 274.008 20.901 274.008 21.4531C274.008 21.724 274.133 21.9531 274.383 22.1406C274.638 22.3281 275.19 22.5859 276.039 22.9141C276.753 23.1901 277.271 23.4427 277.594 23.6719C277.917 23.901 278.156 24.1667 278.312 24.4688C278.469 24.7656 278.547 25.1224 278.547 25.5391ZM286.344 25.5391C286.344 26.3828 286.036 27.0312 285.422 27.4844C284.807 27.9323 283.927 28.1562 282.781 28.1562C281.63 28.1562 280.706 27.9818 280.008 27.6328V26.0469C281.023 26.5156 281.969 26.75 282.844 26.75C283.974 26.75 284.539 26.4089 284.539 25.7266C284.539 25.5078 284.477 25.3255 284.352 25.1797C284.227 25.0339 284.021 24.8828 283.734 24.7266C283.448 24.5703 283.049 24.3932 282.539 24.1953C281.544 23.8099 280.87 23.4245 280.516 23.0391C280.167 22.6536 279.992 22.1536 279.992 21.5391C279.992 20.7995 280.289 20.2266 280.883 19.8203C281.482 19.4089 282.294 19.2031 283.32 19.2031C284.336 19.2031 285.297 19.4089 286.203 19.8203L285.609 21.2031C284.677 20.8177 283.893 20.625 283.258 20.625C282.289 20.625 281.805 20.901 281.805 21.4531C281.805 21.724 281.93 21.9531 282.18 22.1406C282.435 22.3281 282.987 22.5859 283.836 22.9141C284.549 23.1901 285.068 23.4427 285.391 23.6719C285.714 23.901 285.953 24.1667 286.109 24.4688C286.266 24.7656 286.344 25.1224 286.344 25.5391ZM300.25 20.0312C300.25 21.224 299.859 22.138 299.078 22.7734C298.297 23.4089 297.185 23.7266 295.742 23.7266H294.555V28H292.688V16.5781H295.977C297.404 16.5781 298.471 16.8698 299.18 17.4531C299.893 18.0365 300.25 18.8958 300.25 20.0312ZM294.555 22.1562H295.547C296.505 22.1562 297.208 21.9896 297.656 21.6562C298.104 21.3229 298.328 20.8021 298.328 20.0938C298.328 19.4375 298.128 18.9479 297.727 18.625C297.326 18.3021 296.701 18.1406 295.852 18.1406H294.555V22.1562ZM307.742 28L307.375 26.7969H307.312C306.896 27.3229 306.477 27.6823 306.055 27.875C305.633 28.0625 305.091 28.1562 304.43 28.1562C303.581 28.1562 302.917 27.9271 302.438 27.4688C301.964 27.0104 301.727 26.362 301.727 25.5234C301.727 24.6328 302.057 23.9609 302.719 23.5078C303.38 23.0547 304.388 22.8073 305.742 22.7656L307.234 22.7188V22.2578C307.234 21.7057 307.104 21.2943 306.844 21.0234C306.589 20.7474 306.19 20.6094 305.648 20.6094C305.206 20.6094 304.781 20.6745 304.375 20.8047C303.969 20.9349 303.578 21.0885 303.203 21.2656L302.609 19.9531C303.078 19.7083 303.591 19.5234 304.148 19.3984C304.706 19.2682 305.232 19.2031 305.727 19.2031C306.826 19.2031 307.654 19.4427 308.211 19.9219C308.773 20.401 309.055 21.1536 309.055 22.1797V28H307.742ZM305.008 26.75C305.674 26.75 306.208 26.5651 306.609 26.1953C307.016 25.8203 307.219 25.2969 307.219 24.625V23.875L306.109 23.9219C305.245 23.9531 304.615 24.099 304.219 24.3594C303.828 24.6146 303.633 25.0078 303.633 25.5391C303.633 25.9245 303.747 26.224 303.977 26.4375C304.206 26.6458 304.549 26.75 305.008 26.75ZM310.305 19.3594H312.305L314.062 24.2578C314.328 24.9557 314.505 25.612 314.594 26.2266H314.656C314.703 25.9401 314.789 25.5938 314.914 25.1875C315.039 24.776 315.701 22.8333 316.898 19.3594H318.883L315.188 29.1484C314.516 30.9453 313.396 31.8438 311.828 31.8438C311.422 31.8438 311.026 31.7995 310.641 31.7109V30.2578C310.917 30.3203 311.232 30.3516 311.586 30.3516C312.471 30.3516 313.094 29.8385 313.453 28.8125L313.773 28L310.305 19.3594Z" fill="#0A2535"/>
<line x1="280.5" y1="77" x2="280.5" y2="44" stroke="#0A2535"/>
<line x1="428.5" y1="110" x2="428.5" y2="77" stroke="#0A2535"/>
<line x1="134.5" y1="110" x2="134.5" y2="77" stroke="#0A2535"/>
<line x1="134" y1="76.5" x2="429" y2="76.5" stroke="#0A2535"/>
<rect x="1" y="111" width="268" height="115" fill="white" stroke="#68C6A4" stroke-width="2"/>
<path d="M122.375 141H120.344L118.406 134.188C118.323 133.891 118.219 133.464 118.094 132.906C117.969 132.344 117.893 131.953 117.867 131.734C117.815 132.068 117.729 132.5 117.609 133.031C117.495 133.562 117.398 133.958 117.32 134.219L115.43 141H113.398L111.922 135.281L110.422 129.578H112.328L113.961 136.234C114.216 137.302 114.398 138.245 114.508 139.062C114.565 138.62 114.651 138.125 114.766 137.578C114.88 137.031 114.984 136.589 115.078 136.25L116.938 129.578H118.789L120.695 136.281C120.878 136.901 121.07 137.828 121.273 139.062C121.352 138.318 121.539 137.37 121.836 136.219L123.461 129.578H125.352L122.375 141ZM132.188 141L131.82 139.797H131.758C131.341 140.323 130.922 140.682 130.5 140.875C130.078 141.062 129.536 141.156 128.875 141.156C128.026 141.156 127.362 140.927 126.883 140.469C126.409 140.01 126.172 139.362 126.172 138.523C126.172 137.633 126.503 136.961 127.164 136.508C127.826 136.055 128.833 135.807 130.188 135.766L131.68 135.719V135.258C131.68 134.706 131.549 134.294 131.289 134.023C131.034 133.747 130.635 133.609 130.094 133.609C129.651 133.609 129.227 133.674 128.82 133.805C128.414 133.935 128.023 134.089 127.648 134.266L127.055 132.953C127.523 132.708 128.036 132.523 128.594 132.398C129.151 132.268 129.677 132.203 130.172 132.203C131.271 132.203 132.099 132.443 132.656 132.922C133.219 133.401 133.5 134.154 133.5 135.18V141H132.188ZM129.453 139.75C130.12 139.75 130.654 139.565 131.055 139.195C131.461 138.82 131.664 138.297 131.664 137.625V136.875L130.555 136.922C129.69 136.953 129.06 137.099 128.664 137.359C128.273 137.615 128.078 138.008 128.078 138.539C128.078 138.924 128.193 139.224 128.422 139.438C128.651 139.646 128.995 139.75 129.453 139.75ZM143.359 132.359V133.367L141.883 133.641C142.018 133.823 142.13 134.047 142.219 134.312C142.307 134.578 142.352 134.859 142.352 135.156C142.352 136.047 142.044 136.747 141.43 137.258C140.815 137.768 139.969 138.023 138.891 138.023C138.615 138.023 138.365 138.003 138.141 137.961C137.745 138.206 137.547 138.492 137.547 138.82C137.547 139.018 137.638 139.167 137.82 139.266C138.008 139.365 138.349 139.414 138.844 139.414H140.352C141.305 139.414 142.029 139.617 142.523 140.023C143.018 140.43 143.266 141.016 143.266 141.781C143.266 142.76 142.862 143.516 142.055 144.047C141.247 144.578 140.081 144.844 138.555 144.844C137.378 144.844 136.479 144.635 135.859 144.219C135.24 143.802 134.93 143.208 134.93 142.438C134.93 141.906 135.096 141.458 135.43 141.094C135.768 140.734 136.24 140.484 136.844 140.344C136.599 140.24 136.396 140.073 136.234 139.844C136.078 139.609 136 139.365 136 139.109C136 138.786 136.091 138.513 136.273 138.289C136.456 138.065 136.727 137.844 137.086 137.625C136.638 137.432 136.273 137.12 135.992 136.688C135.716 136.25 135.578 135.74 135.578 135.156C135.578 134.219 135.872 133.492 136.461 132.977C137.055 132.461 137.898 132.203 138.992 132.203C139.237 132.203 139.492 132.221 139.758 132.258C140.029 132.289 140.232 132.323 140.367 132.359H143.359ZM136.57 142.344C136.57 142.74 136.747 143.044 137.102 143.258C137.461 143.471 137.964 143.578 138.609 143.578C139.609 143.578 140.354 143.435 140.844 143.148C141.333 142.862 141.578 142.482 141.578 142.008C141.578 141.633 141.443 141.365 141.172 141.203C140.906 141.047 140.409 140.969 139.68 140.969H138.289C137.763 140.969 137.344 141.091 137.031 141.336C136.724 141.586 136.57 141.922 136.57 142.344ZM137.359 135.156C137.359 135.698 137.497 136.115 137.773 136.406C138.055 136.698 138.456 136.844 138.977 136.844C140.039 136.844 140.57 136.276 140.57 135.141C140.57 134.578 140.438 134.146 140.172 133.844C139.911 133.536 139.513 133.383 138.977 133.383C138.445 133.383 138.042 133.534 137.766 133.836C137.495 134.138 137.359 134.578 137.359 135.156ZM148.742 141.156C147.398 141.156 146.346 140.766 145.586 139.984C144.831 139.198 144.453 138.117 144.453 136.742C144.453 135.331 144.805 134.221 145.508 133.414C146.211 132.607 147.177 132.203 148.406 132.203C149.547 132.203 150.448 132.549 151.109 133.242C151.771 133.935 152.102 134.888 152.102 136.102V137.094H146.344C146.37 137.932 146.596 138.578 147.023 139.031C147.451 139.479 148.052 139.703 148.828 139.703C149.339 139.703 149.812 139.656 150.25 139.562C150.693 139.464 151.167 139.302 151.672 139.078V140.57C151.224 140.784 150.771 140.935 150.312 141.023C149.854 141.112 149.331 141.156 148.742 141.156ZM148.406 133.594C147.823 133.594 147.354 133.779 147 134.148C146.651 134.518 146.443 135.057 146.375 135.766H150.297C150.286 135.052 150.115 134.513 149.781 134.148C149.448 133.779 148.99 133.594 148.406 133.594ZM159.992 138.539C159.992 139.383 159.685 140.031 159.07 140.484C158.456 140.932 157.576 141.156 156.43 141.156C155.279 141.156 154.354 140.982 153.656 140.633V139.047C154.672 139.516 155.617 139.75 156.492 139.75C157.622 139.75 158.188 139.409 158.188 138.727C158.188 138.508 158.125 138.326 158 138.18C157.875 138.034 157.669 137.883 157.383 137.727C157.096 137.57 156.698 137.393 156.188 137.195C155.193 136.81 154.518 136.424 154.164 136.039C153.815 135.654 153.641 135.154 153.641 134.539C153.641 133.799 153.938 133.227 154.531 132.82C155.13 132.409 155.943 132.203 156.969 132.203C157.984 132.203 158.945 132.409 159.852 132.82L159.258 134.203C158.326 133.818 157.542 133.625 156.906 133.625C155.938 133.625 155.453 133.901 155.453 134.453C155.453 134.724 155.578 134.953 155.828 135.141C156.083 135.328 156.635 135.586 157.484 135.914C158.198 136.19 158.716 136.443 159.039 136.672C159.362 136.901 159.602 137.167 159.758 137.469C159.914 137.766 159.992 138.122 159.992 138.539Z" fill="#0A2535"/>
<path d="M71.4141 159.438V163H70.418V154.434H72.7676C73.8184 154.434 74.5938 154.635 75.0938 155.037C75.5977 155.439 75.8496 156.045 75.8496 156.854C75.8496 157.986 75.2754 158.752 74.127 159.15L76.4531 163H75.2754L73.2012 159.438H71.4141ZM71.4141 158.582H72.7793C73.4824 158.582 73.998 158.443 74.3262 158.166C74.6543 157.885 74.8184 157.465 74.8184 156.906C74.8184 156.34 74.6504 155.932 74.3145 155.682C73.9824 155.432 73.4473 155.307 72.709 155.307H71.4141V158.582ZM80.4023 163.117C79.4531 163.117 78.7031 162.828 78.1523 162.25C77.6055 161.672 77.332 160.869 77.332 159.842C77.332 158.807 77.5859 157.984 78.0938 157.375C78.6055 156.766 79.291 156.461 80.1504 156.461C80.9551 156.461 81.5918 156.727 82.0605 157.258C82.5293 157.785 82.7637 158.482 82.7637 159.35V159.965H78.3398C78.3594 160.719 78.5488 161.291 78.9082 161.682C79.2715 162.072 79.7812 162.268 80.4375 162.268C81.1289 162.268 81.8125 162.123 82.4883 161.834V162.701C82.1445 162.85 81.8184 162.955 81.5098 163.018C81.2051 163.084 80.8359 163.117 80.4023 163.117ZM80.1387 157.275C79.623 157.275 79.2109 157.443 78.9023 157.779C78.5977 158.115 78.418 158.58 78.3633 159.174H81.7207C81.7207 158.561 81.584 158.092 81.3105 157.768C81.0371 157.439 80.6465 157.275 80.1387 157.275ZM89.6836 156.578V157.193L88.4941 157.334C88.6035 157.471 88.7012 157.65 88.7871 157.873C88.873 158.092 88.916 158.34 88.916 158.617C88.916 159.246 88.7012 159.748 88.2715 160.123C87.8418 160.498 87.252 160.686 86.502 160.686C86.3105 160.686 86.1309 160.67 85.9629 160.639C85.5488 160.857 85.3418 161.133 85.3418 161.465C85.3418 161.641 85.4141 161.771 85.5586 161.857C85.7031 161.939 85.9512 161.98 86.3027 161.98H87.4395C88.1348 161.98 88.668 162.127 89.0391 162.42C89.4141 162.713 89.6016 163.139 89.6016 163.697C89.6016 164.408 89.3164 164.949 88.7461 165.32C88.1758 165.695 87.3438 165.883 86.25 165.883C85.4102 165.883 84.7617 165.727 84.3047 165.414C83.8516 165.102 83.625 164.66 83.625 164.09C83.625 163.699 83.75 163.361 84 163.076C84.25 162.791 84.6016 162.598 85.0547 162.496C84.8906 162.422 84.752 162.307 84.6387 162.15C84.5293 161.994 84.4746 161.812 84.4746 161.605C84.4746 161.371 84.5371 161.166 84.6621 160.99C84.7871 160.814 84.9844 160.645 85.2539 160.48C84.9219 160.344 84.6504 160.111 84.4395 159.783C84.2324 159.455 84.1289 159.08 84.1289 158.658C84.1289 157.955 84.3398 157.414 84.7617 157.035C85.1836 156.652 85.7812 156.461 86.5547 156.461C86.8906 156.461 87.1934 156.5 87.4629 156.578H89.6836ZM84.5625 164.078C84.5625 164.426 84.709 164.689 85.002 164.869C85.2949 165.049 85.7148 165.139 86.2617 165.139C87.0781 165.139 87.6816 165.016 88.0723 164.77C88.4668 164.527 88.6641 164.197 88.6641 163.779C88.6641 163.432 88.5566 163.189 88.3418 163.053C88.127 162.92 87.7227 162.854 87.1289 162.854H85.9629C85.5215 162.854 85.1777 162.959 84.9316 163.17C84.6855 163.381 84.5625 163.684 84.5625 164.078ZM85.0898 158.635C85.0898 159.084 85.2168 159.424 85.4707 159.654C85.7246 159.885 86.0781 160 86.5312 160C87.4805 160 87.9551 159.539 87.9551 158.617C87.9551 157.652 87.4746 157.17 86.5137 157.17C86.0566 157.17 85.7051 157.293 85.459 157.539C85.2129 157.785 85.0898 158.15 85.0898 158.635ZM91.916 156.578V160.744C91.916 161.268 92.0352 161.658 92.2734 161.916C92.5117 162.174 92.8848 162.303 93.3926 162.303C94.0645 162.303 94.5547 162.119 94.8633 161.752C95.1758 161.385 95.332 160.785 95.332 159.953V156.578H96.3047V163H95.502L95.3613 162.139H95.3086C95.1094 162.455 94.832 162.697 94.4766 162.865C94.125 163.033 93.7227 163.117 93.2695 163.117C92.4883 163.117 91.9023 162.932 91.5117 162.561C91.125 162.189 90.9316 161.596 90.9316 160.779V156.578H91.916ZM99.3457 163H98.373V153.883H99.3457V163ZM105.357 163L105.164 162.086H105.117C104.797 162.488 104.477 162.762 104.156 162.906C103.84 163.047 103.443 163.117 102.967 163.117C102.33 163.117 101.83 162.953 101.467 162.625C101.107 162.297 100.928 161.83 100.928 161.225C100.928 159.928 101.965 159.248 104.039 159.186L105.129 159.15V158.752C105.129 158.248 105.02 157.877 104.801 157.639C104.586 157.396 104.24 157.275 103.764 157.275C103.229 157.275 102.623 157.439 101.947 157.768L101.648 157.023C101.965 156.852 102.311 156.717 102.686 156.619C103.064 156.521 103.443 156.473 103.822 156.473C104.588 156.473 105.154 156.643 105.521 156.982C105.893 157.322 106.078 157.867 106.078 158.617V163H105.357ZM103.16 162.314C103.766 162.314 104.24 162.148 104.584 161.816C104.932 161.484 105.105 161.02 105.105 160.422V159.842L104.133 159.883C103.359 159.91 102.801 160.031 102.457 160.246C102.117 160.457 101.947 160.787 101.947 161.236C101.947 161.588 102.053 161.855 102.264 162.039C102.479 162.223 102.777 162.314 103.16 162.314ZM111.018 156.461C111.303 156.461 111.559 156.484 111.785 156.531L111.65 157.434C111.385 157.375 111.15 157.346 110.947 157.346C110.428 157.346 109.982 157.557 109.611 157.979C109.244 158.4 109.061 158.926 109.061 159.555V163H108.088V156.578H108.891L109.002 157.768H109.049C109.287 157.35 109.574 157.027 109.91 156.801C110.246 156.574 110.615 156.461 111.018 156.461ZM122.754 163H121.758V158.969H117.246V163H116.25V154.434H117.246V158.078H121.758V154.434H122.754V163ZM130.506 159.783C130.506 160.83 130.242 161.648 129.715 162.238C129.188 162.824 128.459 163.117 127.529 163.117C126.955 163.117 126.445 162.982 126 162.713C125.555 162.443 125.211 162.057 124.969 161.553C124.727 161.049 124.605 160.459 124.605 159.783C124.605 158.736 124.867 157.922 125.391 157.34C125.914 156.754 126.641 156.461 127.57 156.461C128.469 156.461 129.182 156.76 129.709 157.357C130.24 157.955 130.506 158.764 130.506 159.783ZM125.613 159.783C125.613 160.604 125.777 161.229 126.105 161.658C126.434 162.088 126.916 162.303 127.553 162.303C128.189 162.303 128.672 162.09 129 161.664C129.332 161.234 129.498 160.607 129.498 159.783C129.498 158.967 129.332 158.348 129 157.926C128.672 157.5 128.186 157.287 127.541 157.287C126.904 157.287 126.424 157.496 126.1 157.914C125.775 158.332 125.613 158.955 125.613 159.783ZM133.131 156.578V160.744C133.131 161.268 133.25 161.658 133.488 161.916C133.727 162.174 134.1 162.303 134.607 162.303C135.279 162.303 135.77 162.119 136.078 161.752C136.391 161.385 136.547 160.785 136.547 159.953V156.578H137.52V163H136.717L136.576 162.139H136.523C136.324 162.455 136.047 162.697 135.691 162.865C135.34 163.033 134.938 163.117 134.484 163.117C133.703 163.117 133.117 162.932 132.727 162.561C132.34 162.189 132.146 161.596 132.146 160.779V156.578H133.131ZM142.518 156.461C142.803 156.461 143.059 156.484 143.285 156.531L143.15 157.434C142.885 157.375 142.65 157.346 142.447 157.346C141.928 157.346 141.482 157.557 141.111 157.979C140.744 158.4 140.561 158.926 140.561 159.555V163H139.588V156.578H140.391L140.502 157.768H140.549C140.787 157.35 141.074 157.027 141.41 156.801C141.746 156.574 142.115 156.461 142.518 156.461ZM148.629 161.248C148.629 161.846 148.406 162.307 147.961 162.631C147.516 162.955 146.891 163.117 146.086 163.117C145.234 163.117 144.57 162.982 144.094 162.713V161.811C144.402 161.967 144.732 162.09 145.084 162.18C145.439 162.27 145.781 162.314 146.109 162.314C146.617 162.314 147.008 162.234 147.281 162.074C147.555 161.91 147.691 161.662 147.691 161.33C147.691 161.08 147.582 160.867 147.363 160.691C147.148 160.512 146.727 160.301 146.098 160.059C145.5 159.836 145.074 159.643 144.82 159.479C144.57 159.311 144.383 159.121 144.258 158.91C144.137 158.699 144.076 158.447 144.076 158.154C144.076 157.631 144.289 157.219 144.715 156.918C145.141 156.613 145.725 156.461 146.467 156.461C147.158 156.461 147.834 156.602 148.494 156.883L148.148 157.674C147.504 157.408 146.92 157.275 146.396 157.275C145.936 157.275 145.588 157.348 145.354 157.492C145.119 157.637 145.002 157.836 145.002 158.09C145.002 158.262 145.045 158.408 145.131 158.529C145.221 158.65 145.363 158.766 145.559 158.875C145.754 158.984 146.129 159.143 146.684 159.35C147.445 159.627 147.959 159.906 148.225 160.188C148.494 160.469 148.629 160.822 148.629 161.248ZM152.783 159.713C152.783 158.678 152.934 157.709 153.234 156.807C153.539 155.904 153.977 155.113 154.547 154.434H155.496C154.934 155.188 154.51 156.016 154.225 156.918C153.943 157.82 153.803 158.748 153.803 159.701C153.803 160.639 153.947 161.555 154.236 162.449C154.525 163.344 154.941 164.16 155.484 164.898H154.547C153.973 164.234 153.535 163.459 153.234 162.572C152.934 161.686 152.783 160.732 152.783 159.713ZM160.043 163H159.094V156.895C159.094 156.387 159.109 155.906 159.141 155.453C159.059 155.535 158.967 155.621 158.865 155.711C158.764 155.801 158.299 156.182 157.471 156.854L156.955 156.186L159.223 154.434H160.043V163ZM165.299 159.713L163.066 156.578H164.174L165.867 159.039L167.555 156.578H168.65L166.418 159.713L168.768 163H167.666L165.867 160.398L164.051 163H162.949L165.299 159.713ZM174.305 159.438V163H173.309V154.434H175.658C176.709 154.434 177.484 154.635 177.984 155.037C178.488 155.439 178.74 156.045 178.74 156.854C178.74 157.986 178.166 158.752 177.018 159.15L179.344 163H178.166L176.092 159.438H174.305ZM174.305 158.582H175.67C176.373 158.582 176.889 158.443 177.217 158.166C177.545 157.885 177.709 157.465 177.709 156.906C177.709 156.34 177.541 155.932 177.205 155.682C176.873 155.432 176.338 155.307 175.6 155.307H174.305V158.582ZM184.529 163L184.336 162.086H184.289C183.969 162.488 183.648 162.762 183.328 162.906C183.012 163.047 182.615 163.117 182.139 163.117C181.502 163.117 181.002 162.953 180.639 162.625C180.279 162.297 180.1 161.83 180.1 161.225C180.1 159.928 181.137 159.248 183.211 159.186L184.301 159.15V158.752C184.301 158.248 184.191 157.877 183.973 157.639C183.758 157.396 183.412 157.275 182.936 157.275C182.4 157.275 181.795 157.439 181.119 157.768L180.82 157.023C181.137 156.852 181.482 156.717 181.857 156.619C182.236 156.521 182.615 156.473 182.994 156.473C183.76 156.473 184.326 156.643 184.693 156.982C185.064 157.322 185.25 157.867 185.25 158.617V163H184.529ZM182.332 162.314C182.938 162.314 183.412 162.148 183.756 161.816C184.104 161.484 184.277 161.02 184.277 160.422V159.842L183.305 159.883C182.531 159.91 181.973 160.031 181.629 160.246C181.289 160.457 181.119 160.787 181.119 161.236C181.119 161.588 181.225 161.855 181.436 162.039C181.65 162.223 181.949 162.314 182.332 162.314ZM189.334 162.314C189.506 162.314 189.672 162.303 189.832 162.279C189.992 162.252 190.119 162.225 190.213 162.197V162.941C190.107 162.992 189.951 163.033 189.744 163.064C189.541 163.1 189.357 163.117 189.193 163.117C187.951 163.117 187.33 162.463 187.33 161.154V157.334H186.41V156.865L187.33 156.461L187.74 155.09H188.303V156.578H190.166V157.334H188.303V161.113C188.303 161.5 188.395 161.797 188.578 162.004C188.762 162.211 189.014 162.314 189.334 162.314ZM194.215 163.117C193.266 163.117 192.516 162.828 191.965 162.25C191.418 161.672 191.145 160.869 191.145 159.842C191.145 158.807 191.398 157.984 191.906 157.375C192.418 156.766 193.104 156.461 193.963 156.461C194.768 156.461 195.404 156.727 195.873 157.258C196.342 157.785 196.576 158.482 196.576 159.35V159.965H192.152C192.172 160.719 192.361 161.291 192.721 161.682C193.084 162.072 193.594 162.268 194.25 162.268C194.941 162.268 195.625 162.123 196.301 161.834V162.701C195.957 162.85 195.631 162.955 195.322 163.018C195.018 163.084 194.648 163.117 194.215 163.117ZM193.951 157.275C193.436 157.275 193.023 157.443 192.715 157.779C192.41 158.115 192.23 158.58 192.176 159.174H195.533C195.533 158.561 195.396 158.092 195.123 157.768C194.85 157.439 194.459 157.275 193.951 157.275ZM200.279 159.713C200.279 160.74 200.127 161.697 199.822 162.584C199.521 163.471 199.086 164.242 198.516 164.898H197.578C198.121 164.164 198.537 163.35 198.826 162.455C199.115 161.557 199.26 160.639 199.26 159.701C199.26 158.748 199.117 157.82 198.832 156.918C198.551 156.016 198.129 155.188 197.566 154.434H198.516C199.09 155.117 199.527 155.912 199.828 156.818C200.129 157.721 200.279 158.686 200.279 159.713Z" fill="#0A2535"/>
<path d="M68.0859 180.705C68.0859 182.076 67.7383 183.154 67.043 183.939C66.3516 184.725 65.3887 185.117 64.1543 185.117C62.8926 185.117 61.918 184.732 61.2305 183.963C60.5469 183.189 60.2051 182.1 60.2051 180.693C60.2051 179.299 60.5488 178.219 61.2363 177.453C61.9238 176.684 62.9004 176.299 64.166 176.299C65.3965 176.299 66.3574 176.689 67.0488 177.471C67.7402 178.252 68.0859 179.33 68.0859 180.705ZM61.2598 180.705C61.2598 181.865 61.5059 182.746 61.998 183.348C62.4941 183.945 63.2129 184.244 64.1543 184.244C65.1035 184.244 65.8203 183.945 66.3047 183.348C66.7891 182.75 67.0312 181.869 67.0312 180.705C67.0312 179.553 66.7891 178.68 66.3047 178.086C65.8242 177.488 65.1113 177.189 64.166 177.189C63.2168 177.189 62.4941 177.49 61.998 178.092C61.5059 178.689 61.2598 179.561 61.2598 180.705ZM71.2617 185L68.8242 178.578H69.8672L71.25 182.387C71.5625 183.277 71.7461 183.855 71.8008 184.121H71.8477C71.8906 183.914 72.0254 183.486 72.252 182.838C72.4824 182.186 72.9961 180.766 73.793 178.578H74.8359L72.3984 185H71.2617ZM78.5801 185.117C77.6309 185.117 76.8809 184.828 76.3301 184.25C75.7832 183.672 75.5098 182.869 75.5098 181.842C75.5098 180.807 75.7637 179.984 76.2715 179.375C76.7832 178.766 77.4688 178.461 78.3281 178.461C79.1328 178.461 79.7695 178.727 80.2383 179.258C80.707 179.785 80.9414 180.482 80.9414 181.35V181.965H76.5176C76.5371 182.719 76.7266 183.291 77.0859 183.682C77.4492 184.072 77.959 184.268 78.6152 184.268C79.3066 184.268 79.9902 184.123 80.666 183.834V184.701C80.3223 184.85 79.9961 184.955 79.6875 185.018C79.3828 185.084 79.0137 185.117 78.5801 185.117ZM78.3164 179.275C77.8008 179.275 77.3887 179.443 77.0801 179.779C76.7754 180.115 76.5957 180.58 76.541 181.174H79.8984C79.8984 180.561 79.7617 180.092 79.4883 179.768C79.2148 179.439 78.8242 179.275 78.3164 179.275ZM85.5352 178.461C85.8203 178.461 86.0762 178.484 86.3027 178.531L86.168 179.434C85.9023 179.375 85.668 179.346 85.4648 179.346C84.9453 179.346 84.5 179.557 84.1289 179.979C83.7617 180.4 83.5781 180.926 83.5781 181.555V185H82.6055V178.578H83.4082L83.5195 179.768H83.5664C83.8047 179.35 84.0918 179.027 84.4277 178.801C84.7637 178.574 85.1328 178.461 85.5352 178.461ZM89.5781 184.314C89.75 184.314 89.916 184.303 90.0762 184.279C90.2363 184.252 90.3633 184.225 90.457 184.197V184.941C90.3516 184.992 90.1953 185.033 89.9883 185.064C89.7852 185.1 89.6016 185.117 89.4375 185.117C88.1953 185.117 87.5742 184.463 87.5742 183.154V179.334H86.6543V178.865L87.5742 178.461L87.9844 177.09H88.5469V178.578H90.4102V179.334H88.5469V183.113C88.5469 183.5 88.6387 183.797 88.8223 184.004C89.0059 184.211 89.2578 184.314 89.5781 184.314ZM92.7188 185H91.7461V178.578H92.7188V185ZM91.6641 176.838C91.6641 176.615 91.7188 176.453 91.8281 176.352C91.9375 176.246 92.0742 176.193 92.2383 176.193C92.3945 176.193 92.5293 176.246 92.6426 176.352C92.7559 176.457 92.8125 176.619 92.8125 176.838C92.8125 177.057 92.7559 177.221 92.6426 177.33C92.5293 177.436 92.3945 177.488 92.2383 177.488C92.0742 177.488 91.9375 177.436 91.8281 177.33C91.7188 177.221 91.6641 177.057 91.6641 176.838ZM102.967 185V180.822C102.967 180.311 102.857 179.928 102.639 179.674C102.42 179.416 102.08 179.287 101.619 179.287C101.014 179.287 100.566 179.461 100.277 179.809C99.9883 180.156 99.8438 180.691 99.8438 181.414V185H98.8711V180.822C98.8711 180.311 98.7617 179.928 98.543 179.674C98.3242 179.416 97.9824 179.287 97.5176 179.287C96.9082 179.287 96.4609 179.471 96.1758 179.838C95.8945 180.201 95.7539 180.799 95.7539 181.631V185H94.7812V178.578H95.5723L95.7305 179.457H95.7773C95.9609 179.145 96.2188 178.9 96.5508 178.725C96.8867 178.549 97.2617 178.461 97.6758 178.461C98.6797 178.461 99.3359 178.824 99.6445 179.551H99.6914C99.8828 179.215 100.16 178.949 100.523 178.754C100.887 178.559 101.301 178.461 101.766 178.461C102.492 178.461 103.035 178.648 103.395 179.023C103.758 179.395 103.939 179.99 103.939 180.811V185H102.967ZM108.662 185.117C107.713 185.117 106.963 184.828 106.412 184.25C105.865 183.672 105.592 182.869 105.592 181.842C105.592 180.807 105.846 179.984 106.354 179.375C106.865 178.766 107.551 178.461 108.41 178.461C109.215 178.461 109.852 178.727 110.32 179.258C110.789 179.785 111.023 180.482 111.023 181.35V181.965H106.6C106.619 182.719 106.809 183.291 107.168 183.682C107.531 184.072 108.041 184.268 108.697 184.268C109.389 184.268 110.072 184.123 110.748 183.834V184.701C110.404 184.85 110.078 184.955 109.77 185.018C109.465 185.084 109.096 185.117 108.662 185.117ZM108.398 179.275C107.883 179.275 107.471 179.443 107.162 179.779C106.857 180.115 106.678 180.58 106.623 181.174H109.98C109.98 180.561 109.844 180.092 109.57 179.768C109.297 179.439 108.906 179.275 108.398 179.275ZM122.455 185H121.459V180.969H116.947V185H115.951V176.434H116.947V180.078H121.459V176.434H122.455V185ZM130.207 181.783C130.207 182.83 129.943 183.648 129.416 184.238C128.889 184.824 128.16 185.117 127.23 185.117C126.656 185.117 126.146 184.982 125.701 184.713C125.256 184.443 124.912 184.057 124.67 183.553C124.428 183.049 124.307 182.459 124.307 181.783C124.307 180.736 124.568 179.922 125.092 179.34C125.615 178.754 126.342 178.461 127.271 178.461C128.17 178.461 128.883 178.76 129.41 179.357C129.941 179.955 130.207 180.764 130.207 181.783ZM125.314 181.783C125.314 182.604 125.479 183.229 125.807 183.658C126.135 184.088 126.617 184.303 127.254 184.303C127.891 184.303 128.373 184.09 128.701 183.664C129.033 183.234 129.199 182.607 129.199 181.783C129.199 180.967 129.033 180.348 128.701 179.926C128.373 179.5 127.887 179.287 127.242 179.287C126.605 179.287 126.125 179.496 125.801 179.914C125.477 180.332 125.314 180.955 125.314 181.783ZM132.832 178.578V182.744C132.832 183.268 132.951 183.658 133.189 183.916C133.428 184.174 133.801 184.303 134.309 184.303C134.98 184.303 135.471 184.119 135.779 183.752C136.092 183.385 136.248 182.785 136.248 181.953V178.578H137.221V185H136.418L136.277 184.139H136.225C136.025 184.455 135.748 184.697 135.393 184.865C135.041 185.033 134.639 185.117 134.186 185.117C133.404 185.117 132.818 184.932 132.428 184.561C132.041 184.189 131.848 183.596 131.848 182.779V178.578H132.832ZM142.219 178.461C142.504 178.461 142.76 178.484 142.986 178.531L142.852 179.434C142.586 179.375 142.352 179.346 142.148 179.346C141.629 179.346 141.184 179.557 140.812 179.979C140.445 180.4 140.262 180.926 140.262 181.555V185H139.289V178.578H140.092L140.203 179.768H140.25C140.488 179.35 140.775 179.027 141.111 178.801C141.447 178.574 141.816 178.461 142.219 178.461ZM148.33 183.248C148.33 183.846 148.107 184.307 147.662 184.631C147.217 184.955 146.592 185.117 145.787 185.117C144.936 185.117 144.271 184.982 143.795 184.713V183.811C144.104 183.967 144.434 184.09 144.785 184.18C145.141 184.27 145.482 184.314 145.811 184.314C146.318 184.314 146.709 184.234 146.982 184.074C147.256 183.91 147.393 183.662 147.393 183.33C147.393 183.08 147.283 182.867 147.064 182.691C146.85 182.512 146.428 182.301 145.799 182.059C145.201 181.836 144.775 181.643 144.521 181.479C144.271 181.311 144.084 181.121 143.959 180.91C143.838 180.699 143.777 180.447 143.777 180.154C143.777 179.631 143.99 179.219 144.416 178.918C144.842 178.613 145.426 178.461 146.168 178.461C146.859 178.461 147.535 178.602 148.195 178.883L147.85 179.674C147.205 179.408 146.621 179.275 146.098 179.275C145.637 179.275 145.289 179.348 145.055 179.492C144.82 179.637 144.703 179.836 144.703 180.09C144.703 180.262 144.746 180.408 144.832 180.529C144.922 180.65 145.064 180.766 145.26 180.875C145.455 180.984 145.83 181.143 146.385 181.35C147.146 181.627 147.66 181.906 147.926 182.188C148.195 182.469 148.33 182.822 148.33 183.248ZM152.484 181.713C152.484 180.678 152.635 179.709 152.936 178.807C153.24 177.904 153.678 177.113 154.248 176.434H155.197C154.635 177.188 154.211 178.016 153.926 178.918C153.645 179.82 153.504 180.748 153.504 181.701C153.504 182.639 153.648 183.555 153.938 184.449C154.227 185.344 154.643 186.16 155.186 186.898H154.248C153.674 186.234 153.236 185.459 152.936 184.572C152.635 183.686 152.484 182.732 152.484 181.713ZM159.744 185H158.795V178.895C158.795 178.387 158.811 177.906 158.842 177.453C158.76 177.535 158.668 177.621 158.566 177.711C158.465 177.801 158 178.182 157.172 178.854L156.656 178.186L158.924 176.434H159.744V185ZM163.312 184.379C163.312 184.117 163.371 183.92 163.488 183.787C163.609 183.65 163.781 183.582 164.004 183.582C164.23 183.582 164.406 183.65 164.531 183.787C164.66 183.92 164.725 184.117 164.725 184.379C164.725 184.633 164.66 184.828 164.531 184.965C164.402 185.102 164.227 185.17 164.004 185.17C163.805 185.17 163.639 185.109 163.506 184.988C163.377 184.863 163.312 184.66 163.312 184.379ZM168.885 179.768C169.787 179.768 170.496 179.992 171.012 180.441C171.531 180.887 171.791 181.498 171.791 182.275C171.791 183.162 171.508 183.857 170.941 184.361C170.379 184.865 169.602 185.117 168.609 185.117C167.645 185.117 166.908 184.963 166.4 184.654V183.717C166.674 183.893 167.014 184.031 167.42 184.133C167.826 184.23 168.227 184.279 168.621 184.279C169.309 184.279 169.842 184.117 170.221 183.793C170.604 183.469 170.795 183 170.795 182.387C170.795 181.191 170.062 180.594 168.598 180.594C168.227 180.594 167.73 180.65 167.109 180.764L166.605 180.441L166.928 176.434H171.188V177.33H167.76L167.543 179.902C167.992 179.812 168.439 179.768 168.885 179.768ZM175.066 181.713L172.834 178.578H173.941L175.635 181.039L177.322 178.578H178.418L176.186 181.713L178.535 185H177.434L175.635 182.398L173.818 185H172.717L175.066 181.713ZM184.072 181.438V185H183.076V176.434H185.426C186.477 176.434 187.252 176.635 187.752 177.037C188.256 177.439 188.508 178.045 188.508 178.854C188.508 179.986 187.934 180.752 186.785 181.15L189.111 185H187.934L185.859 181.438H184.072ZM184.072 180.582H185.438C186.141 180.582 186.656 180.443 186.984 180.166C187.312 179.885 187.477 179.465 187.477 178.906C187.477 178.34 187.309 177.932 186.973 177.682C186.641 177.432 186.105 177.307 185.367 177.307H184.072V180.582ZM194.297 185L194.104 184.086H194.057C193.736 184.488 193.416 184.762 193.096 184.906C192.779 185.047 192.383 185.117 191.906 185.117C191.27 185.117 190.77 184.953 190.406 184.625C190.047 184.297 189.867 183.83 189.867 183.225C189.867 181.928 190.904 181.248 192.979 181.186L194.068 181.15V180.752C194.068 180.248 193.959 179.877 193.74 179.639C193.525 179.396 193.18 179.275 192.703 179.275C192.168 179.275 191.562 179.439 190.887 179.768L190.588 179.023C190.904 178.852 191.25 178.717 191.625 178.619C192.004 178.521 192.383 178.473 192.762 178.473C193.527 178.473 194.094 178.643 194.461 178.982C194.832 179.322 195.018 179.867 195.018 180.617V185H194.297ZM192.1 184.314C192.705 184.314 193.18 184.148 193.523 183.816C193.871 183.484 194.045 183.02 194.045 182.422V181.842L193.072 181.883C192.299 181.91 191.74 182.031 191.396 182.246C191.057 182.457 190.887 182.787 190.887 183.236C190.887 183.588 190.992 183.855 191.203 184.039C191.418 184.223 191.717 184.314 192.1 184.314ZM199.102 184.314C199.273 184.314 199.439 184.303 199.6 184.279C199.76 184.252 199.887 184.225 199.98 184.197V184.941C199.875 184.992 199.719 185.033 199.512 185.064C199.309 185.1 199.125 185.117 198.961 185.117C197.719 185.117 197.098 184.463 197.098 183.154V179.334H196.178V178.865L197.098 178.461L197.508 177.09H198.07V178.578H199.934V179.334H198.07V183.113C198.07 183.5 198.162 183.797 198.346 184.004C198.529 184.211 198.781 184.314 199.102 184.314ZM203.982 185.117C203.033 185.117 202.283 184.828 201.732 184.25C201.186 183.672 200.912 182.869 200.912 181.842C200.912 180.807 201.166 179.984 201.674 179.375C202.186 178.766 202.871 178.461 203.73 178.461C204.535 178.461 205.172 178.727 205.641 179.258C206.109 179.785 206.344 180.482 206.344 181.35V181.965H201.92C201.939 182.719 202.129 183.291 202.488 183.682C202.852 184.072 203.361 184.268 204.018 184.268C204.709 184.268 205.393 184.123 206.068 183.834V184.701C205.725 184.85 205.398 184.955 205.09 185.018C204.785 185.084 204.416 185.117 203.982 185.117ZM203.719 179.275C203.203 179.275 202.791 179.443 202.482 179.779C202.178 180.115 201.998 180.58 201.943 181.174H205.301C205.301 180.561 205.164 180.092 204.891 179.768C204.617 179.439 204.227 179.275 203.719 179.275ZM210.047 181.713C210.047 182.74 209.895 183.697 209.59 184.584C209.289 185.471 208.854 186.242 208.283 186.898H207.346C207.889 186.164 208.305 185.35 208.594 184.455C208.883 183.557 209.027 182.639 209.027 181.701C209.027 180.748 208.885 179.82 208.6 178.918C208.318 178.016 207.896 177.188 207.334 176.434H208.283C208.857 177.117 209.295 177.912 209.596 178.818C209.896 179.721 210.047 180.686 210.047 181.713Z" fill="#0A2535"/>
<path d="M66.2656 202.635C66.2656 204.049 65.8809 205.131 65.1113 205.881C64.3457 206.627 63.2422 207 61.8008 207H59.4277V198.434H62.0527C63.3848 198.434 64.4199 198.803 65.1582 199.541C65.8965 200.279 66.2656 201.311 66.2656 202.635ZM65.2109 202.67C65.2109 201.553 64.9297 200.711 64.3672 200.145C63.8086 199.578 62.9766 199.295 61.8711 199.295H60.4238V206.139H61.6367C62.8242 206.139 63.7168 205.848 64.3145 205.266C64.9121 204.68 65.2109 203.814 65.2109 202.67ZM73.5781 203.783C73.5781 204.83 73.3145 205.648 72.7871 206.238C72.2598 206.824 71.5312 207.117 70.6016 207.117C70.0273 207.117 69.5176 206.982 69.0723 206.713C68.627 206.443 68.2832 206.057 68.041 205.553C67.7988 205.049 67.6777 204.459 67.6777 203.783C67.6777 202.736 67.9395 201.922 68.4629 201.34C68.9863 200.754 69.7129 200.461 70.6426 200.461C71.541 200.461 72.2539 200.76 72.7812 201.357C73.3125 201.955 73.5781 202.764 73.5781 203.783ZM68.6855 203.783C68.6855 204.604 68.8496 205.229 69.1777 205.658C69.5059 206.088 69.9883 206.303 70.625 206.303C71.2617 206.303 71.7441 206.09 72.0723 205.664C72.4043 205.234 72.5703 204.607 72.5703 203.783C72.5703 202.967 72.4043 202.348 72.0723 201.926C71.7441 201.5 71.2578 201.287 70.6133 201.287C69.9766 201.287 69.4961 201.496 69.1719 201.914C68.8477 202.332 68.6855 202.955 68.6855 203.783ZM76.2031 200.578V204.744C76.2031 205.268 76.3223 205.658 76.5605 205.916C76.7988 206.174 77.1719 206.303 77.6797 206.303C78.3516 206.303 78.8418 206.119 79.1504 205.752C79.4629 205.385 79.6191 204.785 79.6191 203.953V200.578H80.5918V207H79.7891L79.6484 206.139H79.5957C79.3965 206.455 79.1191 206.697 78.7637 206.865C78.4121 207.033 78.0098 207.117 77.5566 207.117C76.7754 207.117 76.1895 206.932 75.7988 206.561C75.4121 206.189 75.2188 205.596 75.2188 204.779V200.578H76.2031ZM85.6484 200.473C86.4922 200.473 87.1465 200.762 87.6113 201.34C88.0801 201.914 88.3145 202.729 88.3145 203.783C88.3145 204.838 88.0781 205.658 87.6055 206.244C87.1367 206.826 86.4844 207.117 85.6484 207.117C85.2305 207.117 84.8477 207.041 84.5 206.889C84.1562 206.732 83.8672 206.494 83.6328 206.174H83.5625L83.3574 207H82.6602V197.883H83.6328V200.098C83.6328 200.594 83.6172 201.039 83.5859 201.434H83.6328C84.0859 200.793 84.7578 200.473 85.6484 200.473ZM85.5078 201.287C84.8438 201.287 84.3652 201.479 84.0723 201.861C83.7793 202.24 83.6328 202.881 83.6328 203.783C83.6328 204.686 83.7832 205.332 84.084 205.723C84.3848 206.109 84.8672 206.303 85.5312 206.303C86.1289 206.303 86.5742 206.086 86.8672 205.652C87.1602 205.215 87.3066 204.588 87.3066 203.771C87.3066 202.936 87.1602 202.312 86.8672 201.902C86.5742 201.492 86.1211 201.287 85.5078 201.287ZM90.9922 207H90.0195V197.883H90.9922V207ZM95.7676 207.117C94.8184 207.117 94.0684 206.828 93.5176 206.25C92.9707 205.672 92.6973 204.869 92.6973 203.842C92.6973 202.807 92.9512 201.984 93.459 201.375C93.9707 200.766 94.6562 200.461 95.5156 200.461C96.3203 200.461 96.957 200.727 97.4258 201.258C97.8945 201.785 98.1289 202.482 98.1289 203.35V203.965H93.7051C93.7246 204.719 93.9141 205.291 94.2734 205.682C94.6367 206.072 95.1465 206.268 95.8027 206.268C96.4941 206.268 97.1777 206.123 97.8535 205.834V206.701C97.5098 206.85 97.1836 206.955 96.875 207.018C96.5703 207.084 96.2012 207.117 95.7676 207.117ZM95.5039 201.275C94.9883 201.275 94.5762 201.443 94.2676 201.779C93.9629 202.115 93.7832 202.58 93.7285 203.174H97.0859C97.0859 202.561 96.9492 202.092 96.6758 201.768C96.4023 201.439 96.0117 201.275 95.5039 201.275ZM101.867 206.314C102.039 206.314 102.205 206.303 102.365 206.279C102.525 206.252 102.652 206.225 102.746 206.197V206.941C102.641 206.992 102.484 207.033 102.277 207.064C102.074 207.1 101.891 207.117 101.727 207.117C100.484 207.117 99.8633 206.463 99.8633 205.154V201.334H98.9434V200.865L99.8633 200.461L100.273 199.09H100.836V200.578H102.699V201.334H100.836V205.113C100.836 205.5 100.928 205.797 101.111 206.004C101.295 206.211 101.547 206.314 101.867 206.314ZM105.008 207H104.035V200.578H105.008V207ZM103.953 198.838C103.953 198.615 104.008 198.453 104.117 198.352C104.227 198.246 104.363 198.193 104.527 198.193C104.684 198.193 104.818 198.246 104.932 198.352C105.045 198.457 105.102 198.619 105.102 198.838C105.102 199.057 105.045 199.221 104.932 199.33C104.818 199.436 104.684 199.488 104.527 199.488C104.363 199.488 104.227 199.436 104.117 199.33C104.008 199.221 103.953 199.057 103.953 198.838ZM115.256 207V202.822C115.256 202.311 115.146 201.928 114.928 201.674C114.709 201.416 114.369 201.287 113.908 201.287C113.303 201.287 112.855 201.461 112.566 201.809C112.277 202.156 112.133 202.691 112.133 203.414V207H111.16V202.822C111.16 202.311 111.051 201.928 110.832 201.674C110.613 201.416 110.271 201.287 109.807 201.287C109.197 201.287 108.75 201.471 108.465 201.838C108.184 202.201 108.043 202.799 108.043 203.631V207H107.07V200.578H107.861L108.02 201.457H108.066C108.25 201.145 108.508 200.9 108.84 200.725C109.176 200.549 109.551 200.461 109.965 200.461C110.969 200.461 111.625 200.824 111.934 201.551H111.98C112.172 201.215 112.449 200.949 112.812 200.754C113.176 200.559 113.59 200.461 114.055 200.461C114.781 200.461 115.324 200.648 115.684 201.023C116.047 201.395 116.229 201.99 116.229 202.811V207H115.256ZM120.951 207.117C120.002 207.117 119.252 206.828 118.701 206.25C118.154 205.672 117.881 204.869 117.881 203.842C117.881 202.807 118.135 201.984 118.643 201.375C119.154 200.766 119.84 200.461 120.699 200.461C121.504 200.461 122.141 200.727 122.609 201.258C123.078 201.785 123.312 202.482 123.312 203.35V203.965H118.889C118.908 204.719 119.098 205.291 119.457 205.682C119.82 206.072 120.33 206.268 120.986 206.268C121.678 206.268 122.361 206.123 123.037 205.834V206.701C122.693 206.85 122.367 206.955 122.059 207.018C121.754 207.084 121.385 207.117 120.951 207.117ZM120.688 201.275C120.172 201.275 119.76 201.443 119.451 201.779C119.146 202.115 118.967 202.58 118.912 203.174H122.27C122.27 202.561 122.133 202.092 121.859 201.768C121.586 201.439 121.195 201.275 120.688 201.275ZM134.744 207H133.748V202.969H129.236V207H128.24V198.434H129.236V202.078H133.748V198.434H134.744V207ZM142.496 203.783C142.496 204.83 142.232 205.648 141.705 206.238C141.178 206.824 140.449 207.117 139.52 207.117C138.945 207.117 138.436 206.982 137.99 206.713C137.545 206.443 137.201 206.057 136.959 205.553C136.717 205.049 136.596 204.459 136.596 203.783C136.596 202.736 136.857 201.922 137.381 201.34C137.904 200.754 138.631 200.461 139.561 200.461C140.459 200.461 141.172 200.76 141.699 201.357C142.23 201.955 142.496 202.764 142.496 203.783ZM137.604 203.783C137.604 204.604 137.768 205.229 138.096 205.658C138.424 206.088 138.906 206.303 139.543 206.303C140.18 206.303 140.662 206.09 140.99 205.664C141.322 205.234 141.488 204.607 141.488 203.783C141.488 202.967 141.322 202.348 140.99 201.926C140.662 201.5 140.176 201.287 139.531 201.287C138.895 201.287 138.414 201.496 138.09 201.914C137.766 202.332 137.604 202.955 137.604 203.783ZM145.121 200.578V204.744C145.121 205.268 145.24 205.658 145.479 205.916C145.717 206.174 146.09 206.303 146.598 206.303C147.27 206.303 147.76 206.119 148.068 205.752C148.381 205.385 148.537 204.785 148.537 203.953V200.578H149.51V207H148.707L148.566 206.139H148.514C148.314 206.455 148.037 206.697 147.682 206.865C147.33 207.033 146.928 207.117 146.475 207.117C145.693 207.117 145.107 206.932 144.717 206.561C144.33 206.189 144.137 205.596 144.137 204.779V200.578H145.121ZM154.508 200.461C154.793 200.461 155.049 200.484 155.275 200.531L155.141 201.434C154.875 201.375 154.641 201.346 154.438 201.346C153.918 201.346 153.473 201.557 153.102 201.979C152.734 202.4 152.551 202.926 152.551 203.555V207H151.578V200.578H152.381L152.492 201.768H152.539C152.777 201.35 153.064 201.027 153.4 200.801C153.736 200.574 154.105 200.461 154.508 200.461ZM160.619 205.248C160.619 205.846 160.396 206.307 159.951 206.631C159.506 206.955 158.881 207.117 158.076 207.117C157.225 207.117 156.561 206.982 156.084 206.713V205.811C156.393 205.967 156.723 206.09 157.074 206.18C157.43 206.27 157.771 206.314 158.1 206.314C158.607 206.314 158.998 206.234 159.271 206.074C159.545 205.91 159.682 205.662 159.682 205.33C159.682 205.08 159.572 204.867 159.354 204.691C159.139 204.512 158.717 204.301 158.088 204.059C157.49 203.836 157.064 203.643 156.811 203.479C156.561 203.311 156.373 203.121 156.248 202.91C156.127 202.699 156.066 202.447 156.066 202.154C156.066 201.631 156.279 201.219 156.705 200.918C157.131 200.613 157.715 200.461 158.457 200.461C159.148 200.461 159.824 200.602 160.484 200.883L160.139 201.674C159.494 201.408 158.91 201.275 158.387 201.275C157.926 201.275 157.578 201.348 157.344 201.492C157.109 201.637 156.992 201.836 156.992 202.09C156.992 202.262 157.035 202.408 157.121 202.529C157.211 202.65 157.354 202.766 157.549 202.875C157.744 202.984 158.119 203.143 158.674 203.35C159.436 203.627 159.949 203.906 160.215 204.188C160.484 204.469 160.619 204.822 160.619 205.248ZM164.773 203.713C164.773 202.678 164.924 201.709 165.225 200.807C165.529 199.904 165.967 199.113 166.537 198.434H167.486C166.924 199.188 166.5 200.016 166.215 200.918C165.934 201.82 165.793 202.748 165.793 203.701C165.793 204.639 165.938 205.555 166.227 206.449C166.516 207.344 166.932 208.16 167.475 208.898H166.537C165.963 208.234 165.525 207.459 165.225 206.572C164.924 205.686 164.773 204.732 164.773 203.713ZM174.061 207H168.43V206.162L170.686 203.895C171.373 203.199 171.826 202.703 172.045 202.406C172.264 202.109 172.428 201.82 172.537 201.539C172.646 201.258 172.701 200.955 172.701 200.631C172.701 200.174 172.562 199.812 172.285 199.547C172.008 199.277 171.623 199.143 171.131 199.143C170.775 199.143 170.438 199.201 170.117 199.318C169.801 199.436 169.447 199.648 169.057 199.957L168.541 199.295C169.33 198.639 170.189 198.311 171.119 198.311C171.924 198.311 172.555 198.518 173.012 198.932C173.469 199.342 173.697 199.895 173.697 200.59C173.697 201.133 173.545 201.67 173.24 202.201C172.936 202.732 172.365 203.404 171.529 204.217L169.654 206.051V206.098H174.061V207ZM177.289 203.713L175.057 200.578H176.164L177.857 203.039L179.545 200.578H180.641L178.408 203.713L180.758 207H179.656L177.857 204.398L176.041 207H174.939L177.289 203.713ZM186.295 203.438V207H185.299V198.434H187.648C188.699 198.434 189.475 198.635 189.975 199.037C190.479 199.439 190.73 200.045 190.73 200.854C190.73 201.986 190.156 202.752 189.008 203.15L191.334 207H190.156L188.082 203.438H186.295ZM186.295 202.582H187.66C188.363 202.582 188.879 202.443 189.207 202.166C189.535 201.885 189.699 201.465 189.699 200.906C189.699 200.34 189.531 199.932 189.195 199.682C188.863 199.432 188.328 199.307 187.59 199.307H186.295V202.582ZM196.52 207L196.326 206.086H196.279C195.959 206.488 195.639 206.762 195.318 206.906C195.002 207.047 194.605 207.117 194.129 207.117C193.492 207.117 192.992 206.953 192.629 206.625C192.27 206.297 192.09 205.83 192.09 205.225C192.09 203.928 193.127 203.248 195.201 203.186L196.291 203.15V202.752C196.291 202.248 196.182 201.877 195.963 201.639C195.748 201.396 195.402 201.275 194.926 201.275C194.391 201.275 193.785 201.439 193.109 201.768L192.811 201.023C193.127 200.852 193.473 200.717 193.848 200.619C194.227 200.521 194.605 200.473 194.984 200.473C195.75 200.473 196.316 200.643 196.684 200.982C197.055 201.322 197.24 201.867 197.24 202.617V207H196.52ZM194.322 206.314C194.928 206.314 195.402 206.148 195.746 205.816C196.094 205.484 196.268 205.02 196.268 204.422V203.842L195.295 203.883C194.521 203.91 193.963 204.031 193.619 204.246C193.279 204.457 193.109 204.787 193.109 205.236C193.109 205.588 193.215 205.855 193.426 206.039C193.641 206.223 193.939 206.314 194.322 206.314ZM201.324 206.314C201.496 206.314 201.662 206.303 201.822 206.279C201.982 206.252 202.109 206.225 202.203 206.197V206.941C202.098 206.992 201.941 207.033 201.734 207.064C201.531 207.1 201.348 207.117 201.184 207.117C199.941 207.117 199.32 206.463 199.32 205.154V201.334H198.4V200.865L199.32 200.461L199.73 199.09H200.293V200.578H202.156V201.334H200.293V205.113C200.293 205.5 200.385 205.797 200.568 206.004C200.752 206.211 201.004 206.314 201.324 206.314ZM206.205 207.117C205.256 207.117 204.506 206.828 203.955 206.25C203.408 205.672 203.135 204.869 203.135 203.842C203.135 202.807 203.389 201.984 203.896 201.375C204.408 200.766 205.094 200.461 205.953 200.461C206.758 200.461 207.395 200.727 207.863 201.258C208.332 201.785 208.566 202.482 208.566 203.35V203.965H204.143C204.162 204.719 204.352 205.291 204.711 205.682C205.074 206.072 205.584 206.268 206.24 206.268C206.932 206.268 207.615 206.123 208.291 205.834V206.701C207.947 206.85 207.621 206.955 207.312 207.018C207.008 207.084 206.639 207.117 206.205 207.117ZM205.941 201.275C205.426 201.275 205.014 201.443 204.705 201.779C204.4 202.115 204.221 202.58 204.166 203.174H207.523C207.523 202.561 207.387 202.092 207.113 201.768C206.84 201.439 206.449 201.275 205.941 201.275ZM212.27 203.713C212.27 204.74 212.117 205.697 211.812 206.584C211.512 207.471 211.076 208.242 210.506 208.898H209.568C210.111 208.164 210.527 207.35 210.816 206.455C211.105 205.557 211.25 204.639 211.25 203.701C211.25 202.748 211.107 201.82 210.822 200.918C210.541 200.016 210.119 199.188 209.557 198.434H210.506C211.08 199.117 211.518 199.912 211.818 200.818C212.119 201.721 212.27 202.686 212.27 203.713Z" fill="#0A2535"/>
<rect x="1" y="258" width="562" height="69" fill="white" stroke="#68C6A4" stroke-width="2"/>
<path d="M225.484 288H223.617V278.18H220.258V276.578H228.844V278.18H225.484V288ZM232.242 288H230.406V279.359H232.242V288ZM230.297 277.07C230.297 276.742 230.385 276.49 230.562 276.312C230.745 276.135 231.003 276.047 231.336 276.047C231.659 276.047 231.909 276.135 232.086 276.312C232.268 276.49 232.359 276.742 232.359 277.07C232.359 277.383 232.268 277.63 232.086 277.812C231.909 277.99 231.659 278.078 231.336 278.078C231.003 278.078 230.745 277.99 230.562 277.812C230.385 277.63 230.297 277.383 230.297 277.07ZM242.156 288H240.312V282.672C240.312 282.01 240.188 281.518 239.938 281.195C239.688 280.867 239.297 280.703 238.766 280.703C238.057 280.703 237.536 280.935 237.203 281.398C236.875 281.857 236.711 282.622 236.711 283.695V288H234.875V279.359H236.312L236.57 280.492H236.664C236.904 280.081 237.25 279.763 237.703 279.539C238.161 279.315 238.664 279.203 239.211 279.203C240.539 279.203 241.419 279.656 241.852 280.562H241.977C242.232 280.135 242.591 279.802 243.055 279.562C243.518 279.323 244.049 279.203 244.648 279.203C245.68 279.203 246.43 279.464 246.898 279.984C247.372 280.505 247.609 281.299 247.609 282.367V288H245.773V282.672C245.773 282.01 245.646 281.518 245.391 281.195C245.141 280.867 244.75 280.703 244.219 280.703C243.505 280.703 242.982 280.927 242.648 281.375C242.32 281.818 242.156 282.5 242.156 283.422V288ZM253.945 288.156C252.602 288.156 251.549 287.766 250.789 286.984C250.034 286.198 249.656 285.117 249.656 283.742C249.656 282.331 250.008 281.221 250.711 280.414C251.414 279.607 252.38 279.203 253.609 279.203C254.75 279.203 255.651 279.549 256.312 280.242C256.974 280.935 257.305 281.888 257.305 283.102V284.094H251.547C251.573 284.932 251.799 285.578 252.227 286.031C252.654 286.479 253.255 286.703 254.031 286.703C254.542 286.703 255.016 286.656 255.453 286.562C255.896 286.464 256.37 286.302 256.875 286.078V287.57C256.427 287.784 255.974 287.935 255.516 288.023C255.057 288.112 254.534 288.156 253.945 288.156ZM253.609 280.594C253.026 280.594 252.557 280.779 252.203 281.148C251.854 281.518 251.646 282.057 251.578 282.766H255.5C255.49 282.052 255.318 281.513 254.984 281.148C254.651 280.779 254.193 280.594 253.609 280.594ZM262.875 288.156C261.568 288.156 260.573 287.776 259.891 287.016C259.214 286.25 258.875 285.154 258.875 283.727C258.875 282.273 259.229 281.156 259.938 280.375C260.651 279.594 261.68 279.203 263.023 279.203C263.935 279.203 264.755 279.372 265.484 279.711L264.93 281.188C264.154 280.885 263.513 280.734 263.008 280.734C261.513 280.734 260.766 281.727 260.766 283.711C260.766 284.68 260.951 285.409 261.32 285.898C261.695 286.383 262.242 286.625 262.961 286.625C263.779 286.625 264.552 286.422 265.281 286.016V287.617C264.953 287.81 264.602 287.948 264.227 288.031C263.857 288.115 263.406 288.156 262.875 288.156ZM272.719 288L272.352 286.797H272.289C271.872 287.323 271.453 287.682 271.031 287.875C270.609 288.062 270.068 288.156 269.406 288.156C268.557 288.156 267.893 287.927 267.414 287.469C266.94 287.01 266.703 286.362 266.703 285.523C266.703 284.633 267.034 283.961 267.695 283.508C268.357 283.055 269.365 282.807 270.719 282.766L272.211 282.719V282.258C272.211 281.706 272.081 281.294 271.82 281.023C271.565 280.747 271.167 280.609 270.625 280.609C270.182 280.609 269.758 280.674 269.352 280.805C268.945 280.935 268.555 281.089 268.18 281.266L267.586 279.953C268.055 279.708 268.568 279.523 269.125 279.398C269.682 279.268 270.208 279.203 270.703 279.203C271.802 279.203 272.63 279.443 273.188 279.922C273.75 280.401 274.031 281.154 274.031 282.18V288H272.719ZM269.984 286.75C270.651 286.75 271.185 286.565 271.586 286.195C271.992 285.82 272.195 285.297 272.195 284.625V283.875L271.086 283.922C270.221 283.953 269.591 284.099 269.195 284.359C268.805 284.615 268.609 285.008 268.609 285.539C268.609 285.924 268.724 286.224 268.953 286.438C269.182 286.646 269.526 286.75 269.984 286.75ZM280.977 279.203C281.346 279.203 281.651 279.229 281.891 279.281L281.711 280.992C281.451 280.93 281.18 280.898 280.898 280.898C280.164 280.898 279.568 281.138 279.109 281.617C278.656 282.096 278.43 282.719 278.43 283.484V288H276.594V279.359H278.031L278.273 280.883H278.367C278.654 280.367 279.026 279.958 279.484 279.656C279.948 279.354 280.445 279.203 280.977 279.203ZM286.414 288.156C285.336 288.156 284.495 287.766 283.891 286.984C283.286 286.203 282.984 285.107 282.984 283.695C282.984 282.279 283.289 281.177 283.898 280.391C284.513 279.599 285.362 279.203 286.445 279.203C287.581 279.203 288.445 279.622 289.039 280.461H289.133C289.044 279.841 289 279.352 289 278.992V275.844H290.844V288H289.406L289.086 286.867H289C288.411 287.727 287.549 288.156 286.414 288.156ZM286.906 286.672C287.661 286.672 288.211 286.461 288.555 286.039C288.898 285.612 289.076 284.922 289.086 283.969V283.711C289.086 282.622 288.909 281.849 288.555 281.391C288.201 280.932 287.646 280.703 286.891 280.703C286.245 280.703 285.747 280.966 285.398 281.492C285.049 282.013 284.875 282.758 284.875 283.727C284.875 284.685 285.044 285.417 285.383 285.922C285.721 286.422 286.229 286.672 286.906 286.672ZM306.828 288H304.953V282.852H299.688V288H297.82V276.578H299.688V281.25H304.953V276.578H306.828V288ZM317.305 283.664C317.305 285.076 316.943 286.177 316.219 286.969C315.495 287.76 314.487 288.156 313.195 288.156C312.388 288.156 311.674 287.974 311.055 287.609C310.435 287.245 309.958 286.721 309.625 286.039C309.292 285.357 309.125 284.565 309.125 283.664C309.125 282.263 309.484 281.169 310.203 280.383C310.922 279.596 311.935 279.203 313.242 279.203C314.492 279.203 315.482 279.607 316.211 280.414C316.94 281.216 317.305 282.299 317.305 283.664ZM311.016 283.664C311.016 285.659 311.753 286.656 313.227 286.656C314.685 286.656 315.414 285.659 315.414 283.664C315.414 281.69 314.68 280.703 313.211 280.703C312.44 280.703 311.88 280.958 311.531 281.469C311.188 281.979 311.016 282.711 311.016 283.664ZM325.516 288L325.258 286.867H325.164C324.909 287.268 324.544 287.583 324.07 287.812C323.602 288.042 323.065 288.156 322.461 288.156C321.414 288.156 320.633 287.896 320.117 287.375C319.602 286.854 319.344 286.065 319.344 285.008V279.359H321.195V284.688C321.195 285.349 321.331 285.846 321.602 286.18C321.872 286.508 322.297 286.672 322.875 286.672C323.646 286.672 324.211 286.443 324.57 285.984C324.935 285.521 325.117 284.747 325.117 283.664V279.359H326.961V288H325.516ZM333.961 279.203C334.331 279.203 334.635 279.229 334.875 279.281L334.695 280.992C334.435 280.93 334.164 280.898 333.883 280.898C333.148 280.898 332.552 281.138 332.094 281.617C331.641 282.096 331.414 282.719 331.414 283.484V288H329.578V279.359H331.016L331.258 280.883H331.352C331.638 280.367 332.01 279.958 332.469 279.656C332.932 279.354 333.43 279.203 333.961 279.203ZM342.289 285.539C342.289 286.383 341.982 287.031 341.367 287.484C340.753 287.932 339.872 288.156 338.727 288.156C337.576 288.156 336.651 287.982 335.953 287.633V286.047C336.969 286.516 337.914 286.75 338.789 286.75C339.919 286.75 340.484 286.409 340.484 285.727C340.484 285.508 340.422 285.326 340.297 285.18C340.172 285.034 339.966 284.883 339.68 284.727C339.393 284.57 338.995 284.393 338.484 284.195C337.49 283.81 336.815 283.424 336.461 283.039C336.112 282.654 335.938 282.154 335.938 281.539C335.938 280.799 336.234 280.227 336.828 279.82C337.427 279.409 338.24 279.203 339.266 279.203C340.281 279.203 341.242 279.409 342.148 279.82L341.555 281.203C340.622 280.818 339.839 280.625 339.203 280.625C338.234 280.625 337.75 280.901 337.75 281.453C337.75 281.724 337.875 281.953 338.125 282.141C338.38 282.328 338.932 282.586 339.781 282.914C340.495 283.19 341.013 283.443 341.336 283.672C341.659 283.901 341.898 284.167 342.055 284.469C342.211 284.766 342.289 285.122 342.289 285.539Z" fill="#0A2535"/>
<path d="M213.965 302.201C213.023 302.201 212.279 302.516 211.732 303.145C211.189 303.77 210.918 304.627 210.918 305.717C210.918 306.838 211.18 307.705 211.703 308.318C212.23 308.928 212.98 309.232 213.953 309.232C214.551 309.232 215.232 309.125 215.998 308.91V309.783C215.404 310.006 214.672 310.117 213.801 310.117C212.539 310.117 211.564 309.734 210.877 308.969C210.193 308.203 209.852 307.115 209.852 305.705C209.852 304.822 210.016 304.049 210.344 303.385C210.676 302.721 211.152 302.209 211.773 301.85C212.398 301.49 213.133 301.311 213.977 301.311C214.875 301.311 215.66 301.475 216.332 301.803L215.91 302.658C215.262 302.354 214.613 302.201 213.965 302.201ZM218.693 310H217.721V300.883H218.693V310ZM226.299 306.783C226.299 307.83 226.035 308.648 225.508 309.238C224.98 309.824 224.252 310.117 223.322 310.117C222.748 310.117 222.238 309.982 221.793 309.713C221.348 309.443 221.004 309.057 220.762 308.553C220.52 308.049 220.398 307.459 220.398 306.783C220.398 305.736 220.66 304.922 221.184 304.34C221.707 303.754 222.434 303.461 223.363 303.461C224.262 303.461 224.975 303.76 225.502 304.357C226.033 304.955 226.299 305.764 226.299 306.783ZM221.406 306.783C221.406 307.604 221.57 308.229 221.898 308.658C222.227 309.088 222.709 309.303 223.346 309.303C223.982 309.303 224.465 309.09 224.793 308.664C225.125 308.234 225.291 307.607 225.291 306.783C225.291 305.967 225.125 305.348 224.793 304.926C224.465 304.5 223.979 304.287 223.334 304.287C222.697 304.287 222.217 304.496 221.893 304.914C221.568 305.332 221.406 305.955 221.406 306.783ZM230.576 310.117C229.646 310.117 228.926 309.832 228.414 309.262C227.906 308.688 227.652 307.877 227.652 306.83C227.652 305.756 227.91 304.926 228.426 304.34C228.945 303.754 229.684 303.461 230.641 303.461C230.949 303.461 231.258 303.494 231.566 303.561C231.875 303.627 232.117 303.705 232.293 303.795L231.994 304.621C231.779 304.535 231.545 304.465 231.291 304.41C231.037 304.352 230.812 304.322 230.617 304.322C229.312 304.322 228.66 305.154 228.66 306.818C228.66 307.607 228.818 308.213 229.135 308.635C229.455 309.057 229.928 309.268 230.553 309.268C231.088 309.268 231.637 309.152 232.199 308.922V309.783C231.77 310.006 231.229 310.117 230.576 310.117ZM234.689 306.713C234.857 306.475 235.113 306.162 235.457 305.775L237.531 303.578H238.686L236.084 306.314L238.867 310H237.689L235.422 306.965L234.689 307.598V310H233.729V300.883H234.689V305.717C234.689 305.932 234.674 306.264 234.643 306.713H234.689ZM243.297 310V301.434H244.293V310H243.297ZM250.896 310V305.846C250.896 305.322 250.777 304.932 250.539 304.674C250.301 304.416 249.928 304.287 249.42 304.287C248.748 304.287 248.256 304.469 247.943 304.832C247.631 305.195 247.475 305.795 247.475 306.631V310H246.502V303.578H247.293L247.451 304.457H247.498C247.697 304.141 247.977 303.896 248.336 303.725C248.695 303.549 249.096 303.461 249.537 303.461C250.311 303.461 250.893 303.648 251.283 304.023C251.674 304.395 251.869 304.99 251.869 305.811V310H250.896ZM260.242 301.434L257.049 310H256.076L259.27 301.434H260.242ZM268.328 302.201C267.387 302.201 266.643 302.516 266.096 303.145C265.553 303.77 265.281 304.627 265.281 305.717C265.281 306.838 265.543 307.705 266.066 308.318C266.594 308.928 267.344 309.232 268.316 309.232C268.914 309.232 269.596 309.125 270.361 308.91V309.783C269.768 310.006 269.035 310.117 268.164 310.117C266.902 310.117 265.928 309.734 265.24 308.969C264.557 308.203 264.215 307.115 264.215 305.705C264.215 304.822 264.379 304.049 264.707 303.385C265.039 302.721 265.516 302.209 266.137 301.85C266.762 301.49 267.496 301.311 268.34 301.311C269.238 301.311 270.023 301.475 270.695 301.803L270.273 302.658C269.625 302.354 268.977 302.201 268.328 302.201ZM273.057 310H272.084V300.883H273.057V310ZM280.662 306.783C280.662 307.83 280.398 308.648 279.871 309.238C279.344 309.824 278.615 310.117 277.686 310.117C277.111 310.117 276.602 309.982 276.156 309.713C275.711 309.443 275.367 309.057 275.125 308.553C274.883 308.049 274.762 307.459 274.762 306.783C274.762 305.736 275.023 304.922 275.547 304.34C276.07 303.754 276.797 303.461 277.727 303.461C278.625 303.461 279.338 303.76 279.865 304.357C280.396 304.955 280.662 305.764 280.662 306.783ZM275.77 306.783C275.77 307.604 275.934 308.229 276.262 308.658C276.59 309.088 277.072 309.303 277.709 309.303C278.346 309.303 278.828 309.09 279.156 308.664C279.488 308.234 279.654 307.607 279.654 306.783C279.654 305.967 279.488 305.348 279.156 304.926C278.828 304.5 278.342 304.287 277.697 304.287C277.061 304.287 276.58 304.496 276.256 304.914C275.932 305.332 275.77 305.955 275.77 306.783ZM284.939 310.117C284.01 310.117 283.289 309.832 282.777 309.262C282.27 308.688 282.016 307.877 282.016 306.83C282.016 305.756 282.273 304.926 282.789 304.34C283.309 303.754 284.047 303.461 285.004 303.461C285.312 303.461 285.621 303.494 285.93 303.561C286.238 303.627 286.48 303.705 286.656 303.795L286.357 304.621C286.143 304.535 285.908 304.465 285.654 304.41C285.4 304.352 285.176 304.322 284.98 304.322C283.676 304.322 283.023 305.154 283.023 306.818C283.023 307.607 283.182 308.213 283.498 308.635C283.818 309.057 284.291 309.268 284.916 309.268C285.451 309.268 286 309.152 286.562 308.922V309.783C286.133 310.006 285.592 310.117 284.939 310.117ZM289.053 306.713C289.221 306.475 289.477 306.162 289.82 305.775L291.895 303.578H293.049L290.447 306.314L293.23 310H292.053L289.785 306.965L289.053 307.598V310H288.092V300.883H289.053V305.717C289.053 305.932 289.037 306.264 289.006 306.713H289.053ZM305.096 305.705C305.096 307.076 304.748 308.154 304.053 308.939C303.361 309.725 302.398 310.117 301.164 310.117C299.902 310.117 298.928 309.732 298.24 308.963C297.557 308.189 297.215 307.1 297.215 305.693C297.215 304.299 297.559 303.219 298.246 302.453C298.934 301.684 299.91 301.299 301.176 301.299C302.406 301.299 303.367 301.689 304.059 302.471C304.75 303.252 305.096 304.33 305.096 305.705ZM298.27 305.705C298.27 306.865 298.516 307.746 299.008 308.348C299.504 308.945 300.223 309.244 301.164 309.244C302.113 309.244 302.83 308.945 303.314 308.348C303.799 307.75 304.041 306.869 304.041 305.705C304.041 304.553 303.799 303.68 303.314 303.086C302.834 302.488 302.121 302.189 301.176 302.189C300.227 302.189 299.504 302.49 299.008 303.092C298.516 303.689 298.27 304.561 298.27 305.705ZM307.779 303.578V307.744C307.779 308.268 307.898 308.658 308.137 308.916C308.375 309.174 308.748 309.303 309.256 309.303C309.928 309.303 310.418 309.119 310.727 308.752C311.039 308.385 311.195 307.785 311.195 306.953V303.578H312.168V310H311.365L311.225 309.139H311.172C310.973 309.455 310.695 309.697 310.34 309.865C309.988 310.033 309.586 310.117 309.133 310.117C308.352 310.117 307.766 309.932 307.375 309.561C306.988 309.189 306.795 308.596 306.795 307.779V303.578H307.779ZM316.311 309.314C316.482 309.314 316.648 309.303 316.809 309.279C316.969 309.252 317.096 309.225 317.189 309.197V309.941C317.084 309.992 316.928 310.033 316.721 310.064C316.518 310.1 316.334 310.117 316.17 310.117C314.928 310.117 314.307 309.463 314.307 308.154V304.334H313.387V303.865L314.307 303.461L314.717 302.09H315.279V303.578H317.143V304.334H315.279V308.113C315.279 308.5 315.371 308.797 315.555 309.004C315.738 309.211 315.99 309.314 316.311 309.314ZM324.379 310H323.383V302.318H320.67V301.434H327.092V302.318H324.379V310ZM329.213 310H328.24V303.578H329.213V310ZM328.158 301.838C328.158 301.615 328.213 301.453 328.322 301.352C328.432 301.246 328.568 301.193 328.732 301.193C328.889 301.193 329.023 301.246 329.137 301.352C329.25 301.457 329.307 301.619 329.307 301.838C329.307 302.057 329.25 302.221 329.137 302.33C329.023 302.436 328.889 302.488 328.732 302.488C328.568 302.488 328.432 302.436 328.322 302.33C328.213 302.221 328.158 302.057 328.158 301.838ZM339.461 310V305.822C339.461 305.311 339.352 304.928 339.133 304.674C338.914 304.416 338.574 304.287 338.113 304.287C337.508 304.287 337.061 304.461 336.771 304.809C336.482 305.156 336.338 305.691 336.338 306.414V310H335.365V305.822C335.365 305.311 335.256 304.928 335.037 304.674C334.818 304.416 334.477 304.287 334.012 304.287C333.402 304.287 332.955 304.471 332.67 304.838C332.389 305.201 332.248 305.799 332.248 306.631V310H331.275V303.578H332.066L332.225 304.457H332.271C332.455 304.145 332.713 303.9 333.045 303.725C333.381 303.549 333.756 303.461 334.17 303.461C335.174 303.461 335.83 303.824 336.139 304.551H336.186C336.377 304.215 336.654 303.949 337.018 303.754C337.381 303.559 337.795 303.461 338.26 303.461C338.986 303.461 339.529 303.648 339.889 304.023C340.252 304.395 340.434 304.99 340.434 305.811V310H339.461ZM345.156 310.117C344.207 310.117 343.457 309.828 342.906 309.25C342.359 308.672 342.086 307.869 342.086 306.842C342.086 305.807 342.34 304.984 342.848 304.375C343.359 303.766 344.045 303.461 344.904 303.461C345.709 303.461 346.346 303.727 346.814 304.258C347.283 304.785 347.518 305.482 347.518 306.35V306.965H343.094C343.113 307.719 343.303 308.291 343.662 308.682C344.025 309.072 344.535 309.268 345.191 309.268C345.883 309.268 346.566 309.123 347.242 308.834V309.701C346.898 309.85 346.572 309.955 346.264 310.018C345.959 310.084 345.59 310.117 345.156 310.117ZM344.893 304.275C344.377 304.275 343.965 304.443 343.656 304.779C343.352 305.115 343.172 305.58 343.117 306.174H346.475C346.475 305.561 346.338 305.092 346.064 304.768C345.791 304.439 345.4 304.275 344.893 304.275ZM353.324 308.248C353.324 308.846 353.102 309.307 352.656 309.631C352.211 309.955 351.586 310.117 350.781 310.117C349.93 310.117 349.266 309.982 348.789 309.713V308.811C349.098 308.967 349.428 309.09 349.779 309.18C350.135 309.27 350.477 309.314 350.805 309.314C351.312 309.314 351.703 309.234 351.977 309.074C352.25 308.91 352.387 308.662 352.387 308.33C352.387 308.08 352.277 307.867 352.059 307.691C351.844 307.512 351.422 307.301 350.793 307.059C350.195 306.836 349.77 306.643 349.516 306.479C349.266 306.311 349.078 306.121 348.953 305.91C348.832 305.699 348.771 305.447 348.771 305.154C348.771 304.631 348.984 304.219 349.41 303.918C349.836 303.613 350.42 303.461 351.162 303.461C351.854 303.461 352.529 303.602 353.189 303.883L352.844 304.674C352.199 304.408 351.615 304.275 351.092 304.275C350.631 304.275 350.283 304.348 350.049 304.492C349.814 304.637 349.697 304.836 349.697 305.09C349.697 305.262 349.74 305.408 349.826 305.529C349.916 305.65 350.059 305.766 350.254 305.875C350.449 305.984 350.824 306.143 351.379 306.35C352.141 306.627 352.654 306.906 352.92 307.188C353.189 307.469 353.324 307.822 353.324 308.248Z" fill="#0A2535"/>
<rect x="295" y="111" width="268" height="115" fill="white" stroke="#68C6A4" stroke-width="2"/>
<path d="M418.805 141H416.938V131.18H413.578V129.578H422.164V131.18H418.805V141ZM425.562 141H423.727V132.359H425.562V141ZM423.617 130.07C423.617 129.742 423.706 129.49 423.883 129.312C424.065 129.135 424.323 129.047 424.656 129.047C424.979 129.047 425.229 129.135 425.406 129.312C425.589 129.49 425.68 129.742 425.68 130.07C425.68 130.383 425.589 130.63 425.406 130.812C425.229 130.99 424.979 131.078 424.656 131.078C424.323 131.078 424.065 130.99 423.883 130.812C423.706 130.63 423.617 130.383 423.617 130.07ZM432.578 141.156C431.484 141.156 430.635 140.763 430.031 139.977H429.922C429.995 140.706 430.031 141.148 430.031 141.305V144.844H428.195V132.359H429.68C429.721 132.521 429.807 132.906 429.938 133.516H430.031C430.604 132.641 431.464 132.203 432.609 132.203C433.688 132.203 434.526 132.594 435.125 133.375C435.729 134.156 436.031 135.253 436.031 136.664C436.031 138.076 435.724 139.177 435.109 139.969C434.5 140.76 433.656 141.156 432.578 141.156ZM432.133 133.703C431.404 133.703 430.87 133.917 430.531 134.344C430.198 134.771 430.031 135.453 430.031 136.391V136.664C430.031 137.716 430.198 138.479 430.531 138.953C430.865 139.422 431.409 139.656 432.164 139.656C432.799 139.656 433.289 139.396 433.633 138.875C433.977 138.354 434.148 137.612 434.148 136.648C434.148 135.68 433.977 134.948 433.633 134.453C433.294 133.953 432.794 133.703 432.133 133.703ZM443.969 138.539C443.969 139.383 443.661 140.031 443.047 140.484C442.432 140.932 441.552 141.156 440.406 141.156C439.255 141.156 438.331 140.982 437.633 140.633V139.047C438.648 139.516 439.594 139.75 440.469 139.75C441.599 139.75 442.164 139.409 442.164 138.727C442.164 138.508 442.102 138.326 441.977 138.18C441.852 138.034 441.646 137.883 441.359 137.727C441.073 137.57 440.674 137.393 440.164 137.195C439.169 136.81 438.495 136.424 438.141 136.039C437.792 135.654 437.617 135.154 437.617 134.539C437.617 133.799 437.914 133.227 438.508 132.82C439.107 132.409 439.919 132.203 440.945 132.203C441.961 132.203 442.922 132.409 443.828 132.82L443.234 134.203C442.302 133.818 441.518 133.625 440.883 133.625C439.914 133.625 439.43 133.901 439.43 134.453C439.43 134.724 439.555 134.953 439.805 135.141C440.06 135.328 440.612 135.586 441.461 135.914C442.174 136.19 442.693 136.443 443.016 136.672C443.339 136.901 443.578 137.167 443.734 137.469C443.891 137.766 443.969 138.122 443.969 138.539Z" fill="#0A2535"/>
<path d="M396.762 156.93C396.762 157.797 396.465 158.465 395.871 158.934C395.281 159.398 394.436 159.631 393.334 159.631H392.326V163H391.33V154.434H393.551C395.691 154.434 396.762 155.266 396.762 156.93ZM392.326 158.775H393.223C394.105 158.775 394.744 158.633 395.139 158.348C395.533 158.062 395.73 157.605 395.73 156.977C395.73 156.41 395.545 155.988 395.174 155.711C394.803 155.434 394.225 155.295 393.439 155.295H392.326V158.775ZM402.363 163L402.17 162.086H402.123C401.803 162.488 401.482 162.762 401.162 162.906C400.846 163.047 400.449 163.117 399.973 163.117C399.336 163.117 398.836 162.953 398.473 162.625C398.113 162.297 397.934 161.83 397.934 161.225C397.934 159.928 398.971 159.248 401.045 159.186L402.135 159.15V158.752C402.135 158.248 402.025 157.877 401.807 157.639C401.592 157.396 401.246 157.275 400.77 157.275C400.234 157.275 399.629 157.439 398.953 157.768L398.654 157.023C398.971 156.852 399.316 156.717 399.691 156.619C400.07 156.521 400.449 156.473 400.828 156.473C401.594 156.473 402.16 156.643 402.527 156.982C402.898 157.322 403.084 157.867 403.084 158.617V163H402.363ZM400.166 162.314C400.771 162.314 401.246 162.148 401.59 161.816C401.938 161.484 402.111 161.02 402.111 160.422V159.842L401.139 159.883C400.365 159.91 399.807 160.031 399.463 160.246C399.123 160.457 398.953 160.787 398.953 161.236C398.953 161.588 399.059 161.855 399.27 162.039C399.484 162.223 399.783 162.314 400.166 162.314ZM404.074 156.578H405.117L406.523 160.24C406.832 161.076 407.023 161.68 407.098 162.051H407.145C407.195 161.852 407.301 161.512 407.461 161.031C407.625 160.547 408.156 159.062 409.055 156.578H410.098L407.338 163.891C407.064 164.613 406.744 165.125 406.377 165.426C406.014 165.73 405.566 165.883 405.035 165.883C404.738 165.883 404.445 165.85 404.156 165.783V165.004C404.371 165.051 404.611 165.074 404.877 165.074C405.545 165.074 406.021 164.699 406.307 163.949L406.664 163.035L404.074 156.578ZM413.707 163.117C412.777 163.117 412.057 162.832 411.545 162.262C411.037 161.688 410.783 160.877 410.783 159.83C410.783 158.756 411.041 157.926 411.557 157.34C412.076 156.754 412.814 156.461 413.771 156.461C414.08 156.461 414.389 156.494 414.697 156.561C415.006 156.627 415.248 156.705 415.424 156.795L415.125 157.621C414.91 157.535 414.676 157.465 414.422 157.41C414.168 157.352 413.943 157.322 413.748 157.322C412.443 157.322 411.791 158.154 411.791 159.818C411.791 160.607 411.949 161.213 412.266 161.635C412.586 162.057 413.059 162.268 413.684 162.268C414.219 162.268 414.768 162.152 415.33 161.922V162.783C414.9 163.006 414.359 163.117 413.707 163.117ZM421.254 163V158.846C421.254 158.322 421.135 157.932 420.896 157.674C420.658 157.416 420.285 157.287 419.777 157.287C419.102 157.287 418.607 157.471 418.295 157.838C417.986 158.205 417.832 158.807 417.832 159.643V163H416.859V153.883H417.832V156.643C417.832 156.975 417.816 157.25 417.785 157.469H417.844C418.035 157.16 418.307 156.918 418.658 156.742C419.014 156.562 419.418 156.473 419.871 156.473C420.656 156.473 421.244 156.66 421.635 157.035C422.029 157.406 422.227 157.998 422.227 158.811V163H421.254ZM426.943 163.117C425.994 163.117 425.244 162.828 424.693 162.25C424.146 161.672 423.873 160.869 423.873 159.842C423.873 158.807 424.127 157.984 424.635 157.375C425.146 156.766 425.832 156.461 426.691 156.461C427.496 156.461 428.133 156.727 428.602 157.258C429.07 157.785 429.305 158.482 429.305 159.35V159.965H424.881C424.9 160.719 425.09 161.291 425.449 161.682C425.812 162.072 426.322 162.268 426.979 162.268C427.67 162.268 428.354 162.123 429.029 161.834V162.701C428.686 162.85 428.359 162.955 428.051 163.018C427.746 163.084 427.377 163.117 426.943 163.117ZM426.68 157.275C426.164 157.275 425.752 157.443 425.443 157.779C425.139 158.115 424.959 158.58 424.904 159.174H428.262C428.262 158.561 428.125 158.092 427.852 157.768C427.578 157.439 427.188 157.275 426.68 157.275ZM433.535 163.117C432.605 163.117 431.885 162.832 431.373 162.262C430.865 161.688 430.611 160.877 430.611 159.83C430.611 158.756 430.869 157.926 431.385 157.34C431.904 156.754 432.643 156.461 433.6 156.461C433.908 156.461 434.217 156.494 434.525 156.561C434.834 156.627 435.076 156.705 435.252 156.795L434.953 157.621C434.738 157.535 434.504 157.465 434.25 157.41C433.996 157.352 433.771 157.322 433.576 157.322C432.271 157.322 431.619 158.154 431.619 159.818C431.619 160.607 431.777 161.213 432.094 161.635C432.414 162.057 432.887 162.268 433.512 162.268C434.047 162.268 434.596 162.152 435.158 161.922V162.783C434.729 163.006 434.188 163.117 433.535 163.117ZM437.648 159.713C437.816 159.475 438.072 159.162 438.416 158.775L440.49 156.578H441.645L439.043 159.314L441.826 163H440.648L438.381 159.965L437.648 160.598V163H436.688V153.883H437.648V158.717C437.648 158.932 437.633 159.264 437.602 159.713H437.648ZM448.893 163H447.896V155.318H445.184V154.434H451.605V155.318H448.893V163ZM453.727 163H452.754V156.578H453.727V163ZM452.672 154.838C452.672 154.615 452.727 154.453 452.836 154.352C452.945 154.246 453.082 154.193 453.246 154.193C453.402 154.193 453.537 154.246 453.65 154.352C453.764 154.457 453.82 154.619 453.82 154.838C453.82 155.057 453.764 155.221 453.65 155.33C453.537 155.436 453.402 155.488 453.246 155.488C453.082 155.488 452.945 155.436 452.836 155.33C452.727 155.221 452.672 155.057 452.672 154.838ZM458.777 163.117C458.359 163.117 457.977 163.041 457.629 162.889C457.285 162.732 456.996 162.494 456.762 162.174H456.691C456.738 162.549 456.762 162.904 456.762 163.24V165.883H455.789V156.578H456.58L456.715 157.457H456.762C457.012 157.105 457.303 156.852 457.635 156.695C457.967 156.539 458.348 156.461 458.777 156.461C459.629 156.461 460.285 156.752 460.746 157.334C461.211 157.916 461.443 158.732 461.443 159.783C461.443 160.838 461.207 161.658 460.734 162.244C460.266 162.826 459.613 163.117 458.777 163.117ZM458.637 157.287C457.98 157.287 457.506 157.469 457.213 157.832C456.92 158.195 456.77 158.773 456.762 159.566V159.783C456.762 160.686 456.912 161.332 457.213 161.723C457.514 162.109 457.996 162.303 458.66 162.303C459.215 162.303 459.648 162.078 459.961 161.629C460.277 161.18 460.436 160.561 460.436 159.771C460.436 158.971 460.277 158.357 459.961 157.932C459.648 157.502 459.207 157.287 458.637 157.287ZM467.291 161.248C467.291 161.846 467.068 162.307 466.623 162.631C466.178 162.955 465.553 163.117 464.748 163.117C463.896 163.117 463.232 162.982 462.756 162.713V161.811C463.064 161.967 463.395 162.09 463.746 162.18C464.102 162.27 464.443 162.314 464.771 162.314C465.279 162.314 465.67 162.234 465.943 162.074C466.217 161.91 466.354 161.662 466.354 161.33C466.354 161.08 466.244 160.867 466.025 160.691C465.811 160.512 465.389 160.301 464.76 160.059C464.162 159.836 463.736 159.643 463.482 159.479C463.232 159.311 463.045 159.121 462.92 158.91C462.799 158.699 462.738 158.447 462.738 158.154C462.738 157.631 462.951 157.219 463.377 156.918C463.803 156.613 464.387 156.461 465.129 156.461C465.82 156.461 466.496 156.602 467.156 156.883L466.811 157.674C466.166 157.408 465.582 157.275 465.059 157.275C464.598 157.275 464.25 157.348 464.016 157.492C463.781 157.637 463.664 157.836 463.664 158.09C463.664 158.262 463.707 158.408 463.793 158.529C463.883 158.65 464.025 158.766 464.221 158.875C464.416 158.984 464.791 159.143 465.346 159.35C466.107 159.627 466.621 159.906 466.887 160.188C467.156 160.469 467.291 160.822 467.291 161.248Z" fill="#0A2535"/>
<path d="M407.227 177.201C406.285 177.201 405.541 177.516 404.994 178.145C404.451 178.77 404.18 179.627 404.18 180.717C404.18 181.838 404.441 182.705 404.965 183.318C405.492 183.928 406.242 184.232 407.215 184.232C407.812 184.232 408.494 184.125 409.26 183.91V184.783C408.666 185.006 407.934 185.117 407.062 185.117C405.801 185.117 404.826 184.734 404.139 183.969C403.455 183.203 403.113 182.115 403.113 180.705C403.113 179.822 403.277 179.049 403.605 178.385C403.938 177.721 404.414 177.209 405.035 176.85C405.66 176.49 406.395 176.311 407.238 176.311C408.137 176.311 408.922 176.475 409.594 176.803L409.172 177.658C408.523 177.354 407.875 177.201 407.227 177.201ZM414.932 185L414.738 184.086H414.691C414.371 184.488 414.051 184.762 413.73 184.906C413.414 185.047 413.018 185.117 412.541 185.117C411.904 185.117 411.404 184.953 411.041 184.625C410.682 184.297 410.502 183.83 410.502 183.225C410.502 181.928 411.539 181.248 413.613 181.186L414.703 181.15V180.752C414.703 180.248 414.594 179.877 414.375 179.639C414.16 179.396 413.814 179.275 413.338 179.275C412.803 179.275 412.197 179.439 411.521 179.768L411.223 179.023C411.539 178.852 411.885 178.717 412.26 178.619C412.639 178.521 413.018 178.473 413.396 178.473C414.162 178.473 414.729 178.643 415.096 178.982C415.467 179.322 415.652 179.867 415.652 180.617V185H414.932ZM412.734 184.314C413.34 184.314 413.814 184.148 414.158 183.816C414.506 183.484 414.68 183.02 414.68 182.422V181.842L413.707 181.883C412.934 181.91 412.375 182.031 412.031 182.246C411.691 182.457 411.521 182.787 411.521 183.236C411.521 183.588 411.627 183.855 411.838 184.039C412.053 184.223 412.352 184.314 412.734 184.314ZM421.805 183.248C421.805 183.846 421.582 184.307 421.137 184.631C420.691 184.955 420.066 185.117 419.262 185.117C418.41 185.117 417.746 184.982 417.27 184.713V183.811C417.578 183.967 417.908 184.09 418.26 184.18C418.615 184.27 418.957 184.314 419.285 184.314C419.793 184.314 420.184 184.234 420.457 184.074C420.73 183.91 420.867 183.662 420.867 183.33C420.867 183.08 420.758 182.867 420.539 182.691C420.324 182.512 419.902 182.301 419.273 182.059C418.676 181.836 418.25 181.643 417.996 181.479C417.746 181.311 417.559 181.121 417.434 180.91C417.312 180.699 417.252 180.447 417.252 180.154C417.252 179.631 417.465 179.219 417.891 178.918C418.316 178.613 418.9 178.461 419.643 178.461C420.334 178.461 421.01 178.602 421.67 178.883L421.324 179.674C420.68 179.408 420.096 179.275 419.572 179.275C419.111 179.275 418.764 179.348 418.529 179.492C418.295 179.637 418.178 179.836 418.178 180.09C418.178 180.262 418.221 180.408 418.307 180.529C418.396 180.65 418.539 180.766 418.734 180.875C418.93 180.984 419.305 181.143 419.859 181.35C420.621 181.627 421.135 181.906 421.4 182.188C421.67 182.469 421.805 182.822 421.805 183.248ZM427.787 185V180.846C427.787 180.322 427.668 179.932 427.43 179.674C427.191 179.416 426.818 179.287 426.311 179.287C425.635 179.287 425.141 179.471 424.828 179.838C424.52 180.205 424.365 180.807 424.365 181.643V185H423.393V175.883H424.365V178.643C424.365 178.975 424.35 179.25 424.318 179.469H424.377C424.568 179.16 424.84 178.918 425.191 178.742C425.547 178.562 425.951 178.473 426.404 178.473C427.189 178.473 427.777 178.66 428.168 179.035C428.562 179.406 428.76 179.998 428.76 180.811V185H427.787ZM436.664 185H435.668V177.318H432.955V176.434H439.377V177.318H436.664V185ZM441.498 185H440.525V178.578H441.498V185ZM440.443 176.838C440.443 176.615 440.498 176.453 440.607 176.352C440.717 176.246 440.854 176.193 441.018 176.193C441.174 176.193 441.309 176.246 441.422 176.352C441.535 176.457 441.592 176.619 441.592 176.838C441.592 177.057 441.535 177.221 441.422 177.33C441.309 177.436 441.174 177.488 441.018 177.488C440.854 177.488 440.717 177.436 440.607 177.33C440.498 177.221 440.443 177.057 440.443 176.838ZM446.549 185.117C446.131 185.117 445.748 185.041 445.4 184.889C445.057 184.732 444.768 184.494 444.533 184.174H444.463C444.51 184.549 444.533 184.904 444.533 185.24V187.883H443.561V178.578H444.352L444.486 179.457H444.533C444.783 179.105 445.074 178.852 445.406 178.695C445.738 178.539 446.119 178.461 446.549 178.461C447.4 178.461 448.057 178.752 448.518 179.334C448.982 179.916 449.215 180.732 449.215 181.783C449.215 182.838 448.979 183.658 448.506 184.244C448.037 184.826 447.385 185.117 446.549 185.117ZM446.408 179.287C445.752 179.287 445.277 179.469 444.984 179.832C444.691 180.195 444.541 180.773 444.533 181.566V181.783C444.533 182.686 444.684 183.332 444.984 183.723C445.285 184.109 445.768 184.303 446.432 184.303C446.986 184.303 447.42 184.078 447.732 183.629C448.049 183.18 448.207 182.561 448.207 181.771C448.207 180.971 448.049 180.357 447.732 179.932C447.42 179.502 446.979 179.287 446.408 179.287ZM455.062 183.248C455.062 183.846 454.84 184.307 454.395 184.631C453.949 184.955 453.324 185.117 452.52 185.117C451.668 185.117 451.004 184.982 450.527 184.713V183.811C450.836 183.967 451.166 184.09 451.518 184.18C451.873 184.27 452.215 184.314 452.543 184.314C453.051 184.314 453.441 184.234 453.715 184.074C453.988 183.91 454.125 183.662 454.125 183.33C454.125 183.08 454.016 182.867 453.797 182.691C453.582 182.512 453.16 182.301 452.531 182.059C451.934 181.836 451.508 181.643 451.254 181.479C451.004 181.311 450.816 181.121 450.691 180.91C450.57 180.699 450.51 180.447 450.51 180.154C450.51 179.631 450.723 179.219 451.148 178.918C451.574 178.613 452.158 178.461 452.9 178.461C453.592 178.461 454.268 178.602 454.928 178.883L454.582 179.674C453.938 179.408 453.354 179.275 452.83 179.275C452.369 179.275 452.021 179.348 451.787 179.492C451.553 179.637 451.436 179.836 451.436 180.09C451.436 180.262 451.479 180.408 451.564 180.529C451.654 180.65 451.797 180.766 451.992 180.875C452.188 180.984 452.562 181.143 453.117 181.35C453.879 181.627 454.393 181.906 454.658 182.188C454.928 182.469 455.062 182.822 455.062 183.248Z" fill="#0A2535"/>
</svg>
