<svg width="564" height="304" viewBox="0 0 564 304" fill="none" xmlns="http://www.w3.org/2000/svg">
<rect x="201" y="261" width="163" height="42" fill="white" stroke="#68C6A4" stroke-width="2"/>
<path d="M263.07 288H260.781L255.164 278.898H255.102L255.141 279.406C255.214 280.375 255.25 281.26 255.25 282.062V288H253.555V276.578H255.82L261.422 285.633H261.469C261.458 285.513 261.438 285.078 261.406 284.328C261.375 283.573 261.359 282.984 261.359 282.562V276.578H263.07V288ZM269.664 288.156C268.32 288.156 267.268 287.766 266.508 286.984C265.753 286.198 265.375 285.117 265.375 283.742C265.375 282.331 265.727 281.221 266.43 280.414C267.133 279.607 268.099 279.203 269.328 279.203C270.469 279.203 271.37 279.549 272.031 280.242C272.693 280.935 273.023 281.888 273.023 283.102V284.094H267.266C267.292 284.932 267.518 285.578 267.945 286.031C268.372 286.479 268.974 286.703 269.75 286.703C270.26 286.703 270.734 286.656 271.172 286.562C271.615 286.464 272.089 286.302 272.594 286.078V287.57C272.146 287.784 271.693 287.935 271.234 288.023C270.776 288.112 270.253 288.156 269.664 288.156ZM269.328 280.594C268.745 280.594 268.276 280.779 267.922 281.148C267.573 281.518 267.365 282.057 267.297 282.766H271.219C271.208 282.052 271.036 281.513 270.703 281.148C270.37 280.779 269.911 280.594 269.328 280.594ZM278.328 286.672C278.776 286.672 279.224 286.602 279.672 286.461V287.844C279.469 287.932 279.206 288.005 278.883 288.062C278.565 288.125 278.234 288.156 277.891 288.156C276.151 288.156 275.281 287.24 275.281 285.406V280.75H274.102V279.938L275.367 279.266L275.992 277.438H277.125V279.359H279.586V280.75H277.125V285.375C277.125 285.818 277.234 286.146 277.453 286.359C277.677 286.568 277.969 286.672 278.328 286.672ZM293.32 280.031C293.32 281.224 292.93 282.138 292.148 282.773C291.367 283.409 290.255 283.727 288.812 283.727H287.625V288H285.758V276.578H289.047C290.474 276.578 291.542 276.87 292.25 277.453C292.964 278.036 293.32 278.896 293.32 280.031ZM287.625 282.156H288.617C289.576 282.156 290.279 281.99 290.727 281.656C291.174 281.323 291.398 280.802 291.398 280.094C291.398 279.438 291.198 278.948 290.797 278.625C290.396 278.302 289.771 278.141 288.922 278.141H287.625V282.156ZM300.812 288L300.445 286.797H300.383C299.966 287.323 299.547 287.682 299.125 287.875C298.703 288.062 298.161 288.156 297.5 288.156C296.651 288.156 295.987 287.927 295.508 287.469C295.034 287.01 294.797 286.362 294.797 285.523C294.797 284.633 295.128 283.961 295.789 283.508C296.451 283.055 297.458 282.807 298.812 282.766L300.305 282.719V282.258C300.305 281.706 300.174 281.294 299.914 281.023C299.659 280.747 299.26 280.609 298.719 280.609C298.276 280.609 297.852 280.674 297.445 280.805C297.039 280.935 296.648 281.089 296.273 281.266L295.68 279.953C296.148 279.708 296.661 279.523 297.219 279.398C297.776 279.268 298.302 279.203 298.797 279.203C299.896 279.203 300.724 279.443 301.281 279.922C301.844 280.401 302.125 281.154 302.125 282.18V288H300.812ZM298.078 286.75C298.745 286.75 299.279 286.565 299.68 286.195C300.086 285.82 300.289 285.297 300.289 284.625V283.875L299.18 283.922C298.315 283.953 297.685 284.099 297.289 284.359C296.898 284.615 296.703 285.008 296.703 285.539C296.703 285.924 296.818 286.224 297.047 286.438C297.276 286.646 297.62 286.75 298.078 286.75ZM303.375 279.359H305.375L307.133 284.258C307.398 284.956 307.576 285.612 307.664 286.227H307.727C307.773 285.94 307.859 285.594 307.984 285.188C308.109 284.776 308.771 282.833 309.969 279.359H311.953L308.258 289.148C307.586 290.945 306.466 291.844 304.898 291.844C304.492 291.844 304.096 291.799 303.711 291.711V290.258C303.987 290.32 304.302 290.352 304.656 290.352C305.542 290.352 306.164 289.839 306.523 288.812L306.844 288L303.375 279.359Z" fill="#0A2535"/>
<line x1="473.5" y1="77" x2="473.5" y2="44" stroke="#0A2535"/>
<line x1="89.5" y1="77" x2="89.5" y2="44" stroke="#0A2535"/>
<line x1="280.5" y1="77" x2="280.5" y2="44" stroke="#0A2535"/>
<line x1="282.5" y1="193" x2="282.5" y2="260" stroke="#0A2535"/>
<line x1="89.5" y1="194" x2="89.5" y2="227" stroke="#0A2535"/>
<line x1="473.5" y1="194" x2="473.5" y2="227" stroke="#0A2535"/>
<line x1="474" y1="227.5" x2="89" y2="227.5" stroke="#0A2535"/>
<rect x="1" y="78" width="178" height="115" fill="white" stroke="#68C6A4" stroke-width="2"/>
<path d="M77.375 108H75.3438L73.4062 101.188C73.3229 100.891 73.2188 100.464 73.0938 99.9062C72.9688 99.3438 72.8932 98.9531 72.8672 98.7344C72.8151 99.0677 72.7292 99.5 72.6094 100.031C72.4948 100.562 72.3984 100.958 72.3203 101.219L70.4297 108H68.3984L66.9219 102.281L65.4219 96.5781H67.3281L68.9609 103.234C69.2161 104.302 69.3984 105.245 69.5078 106.062C69.5651 105.62 69.651 105.125 69.7656 104.578C69.8802 104.031 69.9844 103.589 70.0781 103.25L71.9375 96.5781H73.7891L75.6953 103.281C75.8776 103.901 76.0703 104.828 76.2734 106.062C76.3516 105.318 76.5391 104.37 76.8359 103.219L78.4609 96.5781H80.3516L77.375 108ZM87.1875 108L86.8203 106.797H86.7578C86.3411 107.323 85.9219 107.682 85.5 107.875C85.0781 108.062 84.5365 108.156 83.875 108.156C83.026 108.156 82.362 107.927 81.8828 107.469C81.4089 107.01 81.1719 106.362 81.1719 105.523C81.1719 104.633 81.5026 103.961 82.1641 103.508C82.8255 103.055 83.8333 102.807 85.1875 102.766L86.6797 102.719V102.258C86.6797 101.706 86.5495 101.294 86.2891 101.023C86.0339 100.747 85.6354 100.609 85.0938 100.609C84.651 100.609 84.2266 100.674 83.8203 100.805C83.4141 100.935 83.0234 101.089 82.6484 101.266L82.0547 99.9531C82.5234 99.7083 83.0365 99.5234 83.5938 99.3984C84.151 99.2682 84.6771 99.2031 85.1719 99.2031C86.2708 99.2031 87.099 99.4427 87.6562 99.9219C88.2188 100.401 88.5 101.154 88.5 102.18V108H87.1875ZM84.4531 106.75C85.1198 106.75 85.6536 106.565 86.0547 106.195C86.4609 105.82 86.6641 105.297 86.6641 104.625V103.875L85.5547 103.922C84.6901 103.953 84.0599 104.099 83.6641 104.359C83.2734 104.615 83.0781 105.008 83.0781 105.539C83.0781 105.924 83.1927 106.224 83.4219 106.438C83.651 106.646 83.9948 106.75 84.4531 106.75ZM98.3594 99.3594V100.367L96.8828 100.641C97.0182 100.823 97.1302 101.047 97.2188 101.312C97.3073 101.578 97.3516 101.859 97.3516 102.156C97.3516 103.047 97.0443 103.747 96.4297 104.258C95.8151 104.768 94.9688 105.023 93.8906 105.023C93.6146 105.023 93.3646 105.003 93.1406 104.961C92.7448 105.206 92.5469 105.492 92.5469 105.82C92.5469 106.018 92.638 106.167 92.8203 106.266C93.0078 106.365 93.349 106.414 93.8438 106.414H95.3516C96.3047 106.414 97.0286 106.617 97.5234 107.023C98.0182 107.43 98.2656 108.016 98.2656 108.781C98.2656 109.76 97.862 110.516 97.0547 111.047C96.2474 111.578 95.0807 111.844 93.5547 111.844C92.3776 111.844 91.4792 111.635 90.8594 111.219C90.2396 110.802 89.9297 110.208 89.9297 109.438C89.9297 108.906 90.0964 108.458 90.4297 108.094C90.7682 107.734 91.2396 107.484 91.8438 107.344C91.599 107.24 91.3958 107.073 91.2344 106.844C91.0781 106.609 91 106.365 91 106.109C91 105.786 91.0911 105.513 91.2734 105.289C91.4557 105.065 91.7266 104.844 92.0859 104.625C91.638 104.432 91.2734 104.12 90.9922 103.688C90.7161 103.25 90.5781 102.74 90.5781 102.156C90.5781 101.219 90.8724 100.492 91.4609 99.9766C92.0547 99.4609 92.8984 99.2031 93.9922 99.2031C94.237 99.2031 94.4922 99.2214 94.7578 99.2578C95.0286 99.2891 95.2318 99.3229 95.3672 99.3594H98.3594ZM91.5703 109.344C91.5703 109.74 91.7474 110.044 92.1016 110.258C92.4609 110.471 92.9635 110.578 93.6094 110.578C94.6094 110.578 95.3542 110.435 95.8438 110.148C96.3333 109.862 96.5781 109.482 96.5781 109.008C96.5781 108.633 96.4427 108.365 96.1719 108.203C95.9062 108.047 95.4089 107.969 94.6797 107.969H93.2891C92.763 107.969 92.3438 108.091 92.0312 108.336C91.724 108.586 91.5703 108.922 91.5703 109.344ZM92.3594 102.156C92.3594 102.698 92.4974 103.115 92.7734 103.406C93.0547 103.698 93.4557 103.844 93.9766 103.844C95.0391 103.844 95.5703 103.276 95.5703 102.141C95.5703 101.578 95.4375 101.146 95.1719 100.844C94.9115 100.536 94.513 100.383 93.9766 100.383C93.4453 100.383 93.0417 100.534 92.7656 100.836C92.4948 101.138 92.3594 101.578 92.3594 102.156ZM103.742 108.156C102.398 108.156 101.346 107.766 100.586 106.984C99.8307 106.198 99.4531 105.117 99.4531 103.742C99.4531 102.331 99.8047 101.221 100.508 100.414C101.211 99.6068 102.177 99.2031 103.406 99.2031C104.547 99.2031 105.448 99.5495 106.109 100.242C106.771 100.935 107.102 101.888 107.102 103.102V104.094H101.344C101.37 104.932 101.596 105.578 102.023 106.031C102.451 106.479 103.052 106.703 103.828 106.703C104.339 106.703 104.812 106.656 105.25 106.562C105.693 106.464 106.167 106.302 106.672 106.078V107.57C106.224 107.784 105.771 107.935 105.312 108.023C104.854 108.112 104.331 108.156 103.742 108.156ZM103.406 100.594C102.823 100.594 102.354 100.779 102 101.148C101.651 101.518 101.443 102.057 101.375 102.766H105.297C105.286 102.052 105.115 101.513 104.781 101.148C104.448 100.779 103.99 100.594 103.406 100.594ZM114.992 105.539C114.992 106.383 114.685 107.031 114.07 107.484C113.456 107.932 112.576 108.156 111.43 108.156C110.279 108.156 109.354 107.982 108.656 107.633V106.047C109.672 106.516 110.617 106.75 111.492 106.75C112.622 106.75 113.188 106.409 113.188 105.727C113.188 105.508 113.125 105.326 113 105.18C112.875 105.034 112.669 104.883 112.383 104.727C112.096 104.57 111.698 104.393 111.188 104.195C110.193 103.81 109.518 103.424 109.164 103.039C108.815 102.654 108.641 102.154 108.641 101.539C108.641 100.799 108.938 100.227 109.531 99.8203C110.13 99.4089 110.943 99.2031 111.969 99.2031C112.984 99.2031 113.945 99.4089 114.852 99.8203L114.258 101.203C113.326 100.818 112.542 100.625 111.906 100.625C110.938 100.625 110.453 100.901 110.453 101.453C110.453 101.724 110.578 101.953 110.828 102.141C111.083 102.328 111.635 102.586 112.484 102.914C113.198 103.19 113.716 103.443 114.039 103.672C114.362 103.901 114.602 104.167 114.758 104.469C114.914 104.766 114.992 105.122 114.992 105.539Z" fill="#0A2535"/>
<path d="M26.4141 126.438V130H25.418V121.434H27.7676C28.8184 121.434 29.5938 121.635 30.0938 122.037C30.5977 122.439 30.8496 123.045 30.8496 123.854C30.8496 124.986 30.2754 125.752 29.127 126.15L31.4531 130H30.2754L28.2012 126.438H26.4141ZM26.4141 125.582H27.7793C28.4824 125.582 28.998 125.443 29.3262 125.166C29.6543 124.885 29.8184 124.465 29.8184 123.906C29.8184 123.34 29.6504 122.932 29.3145 122.682C28.9824 122.432 28.4473 122.307 27.709 122.307H26.4141V125.582ZM35.4023 130.117C34.4531 130.117 33.7031 129.828 33.1523 129.25C32.6055 128.672 32.332 127.869 32.332 126.842C32.332 125.807 32.5859 124.984 33.0938 124.375C33.6055 123.766 34.291 123.461 35.1504 123.461C35.9551 123.461 36.5918 123.727 37.0605 124.258C37.5293 124.785 37.7637 125.482 37.7637 126.35V126.965H33.3398C33.3594 127.719 33.5488 128.291 33.9082 128.682C34.2715 129.072 34.7812 129.268 35.4375 129.268C36.1289 129.268 36.8125 129.123 37.4883 128.834V129.701C37.1445 129.85 36.8184 129.955 36.5098 130.018C36.2051 130.084 35.8359 130.117 35.4023 130.117ZM35.1387 124.275C34.623 124.275 34.2109 124.443 33.9023 124.779C33.5977 125.115 33.418 125.58 33.3633 126.174H36.7207C36.7207 125.561 36.584 125.092 36.3105 124.768C36.0371 124.439 35.6465 124.275 35.1387 124.275ZM44.6836 123.578V124.193L43.4941 124.334C43.6035 124.471 43.7012 124.65 43.7871 124.873C43.873 125.092 43.916 125.34 43.916 125.617C43.916 126.246 43.7012 126.748 43.2715 127.123C42.8418 127.498 42.252 127.686 41.502 127.686C41.3105 127.686 41.1309 127.67 40.9629 127.639C40.5488 127.857 40.3418 128.133 40.3418 128.465C40.3418 128.641 40.4141 128.771 40.5586 128.857C40.7031 128.939 40.9512 128.98 41.3027 128.98H42.4395C43.1348 128.98 43.668 129.127 44.0391 129.42C44.4141 129.713 44.6016 130.139 44.6016 130.697C44.6016 131.408 44.3164 131.949 43.7461 132.32C43.1758 132.695 42.3438 132.883 41.25 132.883C40.4102 132.883 39.7617 132.727 39.3047 132.414C38.8516 132.102 38.625 131.66 38.625 131.09C38.625 130.699 38.75 130.361 39 130.076C39.25 129.791 39.6016 129.598 40.0547 129.496C39.8906 129.422 39.752 129.307 39.6387 129.15C39.5293 128.994 39.4746 128.812 39.4746 128.605C39.4746 128.371 39.5371 128.166 39.6621 127.99C39.7871 127.814 39.9844 127.645 40.2539 127.48C39.9219 127.344 39.6504 127.111 39.4395 126.783C39.2324 126.455 39.1289 126.08 39.1289 125.658C39.1289 124.955 39.3398 124.414 39.7617 124.035C40.1836 123.652 40.7812 123.461 41.5547 123.461C41.8906 123.461 42.1934 123.5 42.4629 123.578H44.6836ZM39.5625 131.078C39.5625 131.426 39.709 131.689 40.002 131.869C40.2949 132.049 40.7148 132.139 41.2617 132.139C42.0781 132.139 42.6816 132.016 43.0723 131.77C43.4668 131.527 43.6641 131.197 43.6641 130.779C43.6641 130.432 43.5566 130.189 43.3418 130.053C43.127 129.92 42.7227 129.854 42.1289 129.854H40.9629C40.5215 129.854 40.1777 129.959 39.9316 130.17C39.6855 130.381 39.5625 130.684 39.5625 131.078ZM40.0898 125.635C40.0898 126.084 40.2168 126.424 40.4707 126.654C40.7246 126.885 41.0781 127 41.5312 127C42.4805 127 42.9551 126.539 42.9551 125.617C42.9551 124.652 42.4746 124.17 41.5137 124.17C41.0566 124.17 40.7051 124.293 40.459 124.539C40.2129 124.785 40.0898 125.15 40.0898 125.635ZM46.916 123.578V127.744C46.916 128.268 47.0352 128.658 47.2734 128.916C47.5117 129.174 47.8848 129.303 48.3926 129.303C49.0645 129.303 49.5547 129.119 49.8633 128.752C50.1758 128.385 50.332 127.785 50.332 126.953V123.578H51.3047V130H50.502L50.3613 129.139H50.3086C50.1094 129.455 49.832 129.697 49.4766 129.865C49.125 130.033 48.7227 130.117 48.2695 130.117C47.4883 130.117 46.9023 129.932 46.5117 129.561C46.125 129.189 45.9316 128.596 45.9316 127.779V123.578H46.916ZM54.3457 130H53.373V120.883H54.3457V130ZM60.3574 130L60.1641 129.086H60.1172C59.7969 129.488 59.4766 129.762 59.1562 129.906C58.8398 130.047 58.4434 130.117 57.9668 130.117C57.3301 130.117 56.8301 129.953 56.4668 129.625C56.1074 129.297 55.9277 128.83 55.9277 128.225C55.9277 126.928 56.9648 126.248 59.0391 126.186L60.1289 126.15V125.752C60.1289 125.248 60.0195 124.877 59.8008 124.639C59.5859 124.396 59.2402 124.275 58.7637 124.275C58.2285 124.275 57.623 124.439 56.9473 124.768L56.6484 124.023C56.9648 123.852 57.3105 123.717 57.6855 123.619C58.0645 123.521 58.4434 123.473 58.8223 123.473C59.5879 123.473 60.1543 123.643 60.5215 123.982C60.8926 124.322 61.0781 124.867 61.0781 125.617V130H60.3574ZM58.1602 129.314C58.7656 129.314 59.2402 129.148 59.584 128.816C59.9316 128.484 60.1055 128.02 60.1055 127.422V126.842L59.1328 126.883C58.3594 126.91 57.8008 127.031 57.457 127.246C57.1172 127.457 56.9473 127.787 56.9473 128.236C56.9473 128.588 57.0527 128.855 57.2637 129.039C57.4785 129.223 57.7773 129.314 58.1602 129.314ZM66.0176 123.461C66.3027 123.461 66.5586 123.484 66.7852 123.531L66.6504 124.434C66.3848 124.375 66.1504 124.346 65.9473 124.346C65.4277 124.346 64.9824 124.557 64.6113 124.979C64.2441 125.4 64.0605 125.926 64.0605 126.555V130H63.0879V123.578H63.8906L64.002 124.768H64.0488C64.2871 124.35 64.5742 124.027 64.9102 123.801C65.2461 123.574 65.6152 123.461 66.0176 123.461ZM77.7539 130H76.7578V125.969H72.2461V130H71.25V121.434H72.2461V125.078H76.7578V121.434H77.7539V130ZM85.5059 126.783C85.5059 127.83 85.2422 128.648 84.7148 129.238C84.1875 129.824 83.459 130.117 82.5293 130.117C81.9551 130.117 81.4453 129.982 81 129.713C80.5547 129.443 80.2109 129.057 79.9688 128.553C79.7266 128.049 79.6055 127.459 79.6055 126.783C79.6055 125.736 79.8672 124.922 80.3906 124.34C80.9141 123.754 81.6406 123.461 82.5703 123.461C83.4688 123.461 84.1816 123.76 84.709 124.357C85.2402 124.955 85.5059 125.764 85.5059 126.783ZM80.6133 126.783C80.6133 127.604 80.7773 128.229 81.1055 128.658C81.4336 129.088 81.916 129.303 82.5527 129.303C83.1895 129.303 83.6719 129.09 84 128.664C84.332 128.234 84.498 127.607 84.498 126.783C84.498 125.967 84.332 125.348 84 124.926C83.6719 124.5 83.1855 124.287 82.541 124.287C81.9043 124.287 81.4238 124.496 81.0996 124.914C80.7754 125.332 80.6133 125.955 80.6133 126.783ZM88.1309 123.578V127.744C88.1309 128.268 88.25 128.658 88.4883 128.916C88.7266 129.174 89.0996 129.303 89.6074 129.303C90.2793 129.303 90.7695 129.119 91.0781 128.752C91.3906 128.385 91.5469 127.785 91.5469 126.953V123.578H92.5195V130H91.7168L91.5762 129.139H91.5234C91.3242 129.455 91.0469 129.697 90.6914 129.865C90.3398 130.033 89.9375 130.117 89.4844 130.117C88.7031 130.117 88.1172 129.932 87.7266 129.561C87.3398 129.189 87.1465 128.596 87.1465 127.779V123.578H88.1309ZM97.5176 123.461C97.8027 123.461 98.0586 123.484 98.2852 123.531L98.1504 124.434C97.8848 124.375 97.6504 124.346 97.4473 124.346C96.9277 124.346 96.4824 124.557 96.1113 124.979C95.7441 125.4 95.5605 125.926 95.5605 126.555V130H94.5879V123.578H95.3906L95.502 124.768H95.5488C95.7871 124.35 96.0742 124.027 96.4102 123.801C96.7461 123.574 97.1152 123.461 97.5176 123.461ZM103.629 128.248C103.629 128.846 103.406 129.307 102.961 129.631C102.516 129.955 101.891 130.117 101.086 130.117C100.234 130.117 99.5703 129.982 99.0938 129.713V128.811C99.4023 128.967 99.7324 129.09 100.084 129.18C100.439 129.27 100.781 129.314 101.109 129.314C101.617 129.314 102.008 129.234 102.281 129.074C102.555 128.91 102.691 128.662 102.691 128.33C102.691 128.08 102.582 127.867 102.363 127.691C102.148 127.512 101.727 127.301 101.098 127.059C100.5 126.836 100.074 126.643 99.8203 126.479C99.5703 126.311 99.3828 126.121 99.2578 125.91C99.1367 125.699 99.0762 125.447 99.0762 125.154C99.0762 124.631 99.2891 124.219 99.7148 123.918C100.141 123.613 100.725 123.461 101.467 123.461C102.158 123.461 102.834 123.602 103.494 123.883L103.148 124.674C102.504 124.408 101.92 124.275 101.396 124.275C100.936 124.275 100.588 124.348 100.354 124.492C100.119 124.637 100.002 124.836 100.002 125.09C100.002 125.262 100.045 125.408 100.131 125.529C100.221 125.65 100.363 125.766 100.559 125.875C100.754 125.984 101.129 126.143 101.684 126.35C102.445 126.627 102.959 126.906 103.225 127.188C103.494 127.469 103.629 127.822 103.629 128.248ZM107.783 126.713C107.783 125.678 107.934 124.709 108.234 123.807C108.539 122.904 108.977 122.113 109.547 121.434H110.496C109.934 122.188 109.51 123.016 109.225 123.918C108.943 124.82 108.803 125.748 108.803 126.701C108.803 127.639 108.947 128.555 109.236 129.449C109.525 130.344 109.941 131.16 110.484 131.898H109.547C108.973 131.234 108.535 130.459 108.234 129.572C107.934 128.686 107.783 127.732 107.783 126.713ZM115.043 130H114.094V123.895C114.094 123.387 114.109 122.906 114.141 122.453C114.059 122.535 113.967 122.621 113.865 122.711C113.764 122.801 113.299 123.182 112.471 123.854L111.955 123.186L114.223 121.434H115.043V130ZM120.299 126.713L118.066 123.578H119.174L120.867 126.039L122.555 123.578H123.65L121.418 126.713L123.768 130H122.666L120.867 127.398L119.051 130H117.949L120.299 126.713ZM129.305 126.438V130H128.309V121.434H130.658C131.709 121.434 132.484 121.635 132.984 122.037C133.488 122.439 133.74 123.045 133.74 123.854C133.74 124.986 133.166 125.752 132.018 126.15L134.344 130H133.166L131.092 126.438H129.305ZM129.305 125.582H130.67C131.373 125.582 131.889 125.443 132.217 125.166C132.545 124.885 132.709 124.465 132.709 123.906C132.709 123.34 132.541 122.932 132.205 122.682C131.873 122.432 131.338 122.307 130.6 122.307H129.305V125.582ZM139.529 130L139.336 129.086H139.289C138.969 129.488 138.648 129.762 138.328 129.906C138.012 130.047 137.615 130.117 137.139 130.117C136.502 130.117 136.002 129.953 135.639 129.625C135.279 129.297 135.1 128.83 135.1 128.225C135.1 126.928 136.137 126.248 138.211 126.186L139.301 126.15V125.752C139.301 125.248 139.191 124.877 138.973 124.639C138.758 124.396 138.412 124.275 137.936 124.275C137.4 124.275 136.795 124.439 136.119 124.768L135.82 124.023C136.137 123.852 136.482 123.717 136.857 123.619C137.236 123.521 137.615 123.473 137.994 123.473C138.76 123.473 139.326 123.643 139.693 123.982C140.064 124.322 140.25 124.867 140.25 125.617V130H139.529ZM137.332 129.314C137.938 129.314 138.412 129.148 138.756 128.816C139.104 128.484 139.277 128.02 139.277 127.422V126.842L138.305 126.883C137.531 126.91 136.973 127.031 136.629 127.246C136.289 127.457 136.119 127.787 136.119 128.236C136.119 128.588 136.225 128.855 136.436 129.039C136.65 129.223 136.949 129.314 137.332 129.314ZM144.334 129.314C144.506 129.314 144.672 129.303 144.832 129.279C144.992 129.252 145.119 129.225 145.213 129.197V129.941C145.107 129.992 144.951 130.033 144.744 130.064C144.541 130.1 144.357 130.117 144.193 130.117C142.951 130.117 142.33 129.463 142.33 128.154V124.334H141.41V123.865L142.33 123.461L142.74 122.09H143.303V123.578H145.166V124.334H143.303V128.113C143.303 128.5 143.395 128.797 143.578 129.004C143.762 129.211 144.014 129.314 144.334 129.314ZM149.215 130.117C148.266 130.117 147.516 129.828 146.965 129.25C146.418 128.672 146.145 127.869 146.145 126.842C146.145 125.807 146.398 124.984 146.906 124.375C147.418 123.766 148.104 123.461 148.963 123.461C149.768 123.461 150.404 123.727 150.873 124.258C151.342 124.785 151.576 125.482 151.576 126.35V126.965H147.152C147.172 127.719 147.361 128.291 147.721 128.682C148.084 129.072 148.594 129.268 149.25 129.268C149.941 129.268 150.625 129.123 151.301 128.834V129.701C150.957 129.85 150.631 129.955 150.322 130.018C150.018 130.084 149.648 130.117 149.215 130.117ZM148.951 124.275C148.436 124.275 148.023 124.443 147.715 124.779C147.41 125.115 147.23 125.58 147.176 126.174H150.533C150.533 125.561 150.396 125.092 150.123 124.768C149.85 124.439 149.459 124.275 148.951 124.275ZM155.279 126.713C155.279 127.74 155.127 128.697 154.822 129.584C154.521 130.471 154.086 131.242 153.516 131.898H152.578C153.121 131.164 153.537 130.35 153.826 129.455C154.115 128.557 154.26 127.639 154.26 126.701C154.26 125.748 154.117 124.82 153.832 123.918C153.551 123.016 153.129 122.188 152.566 121.434H153.516C154.09 122.117 154.527 122.912 154.828 123.818C155.129 124.721 155.279 125.686 155.279 126.713Z" fill="#0A2535"/>
<path d="M23.0859 147.705C23.0859 149.076 22.7383 150.154 22.043 150.939C21.3516 151.725 20.3887 152.117 19.1543 152.117C17.8926 152.117 16.918 151.732 16.2305 150.963C15.5469 150.189 15.2051 149.1 15.2051 147.693C15.2051 146.299 15.5488 145.219 16.2363 144.453C16.9238 143.684 17.9004 143.299 19.166 143.299C20.3965 143.299 21.3574 143.689 22.0488 144.471C22.7402 145.252 23.0859 146.33 23.0859 147.705ZM16.2598 147.705C16.2598 148.865 16.5059 149.746 16.998 150.348C17.4941 150.945 18.2129 151.244 19.1543 151.244C20.1035 151.244 20.8203 150.945 21.3047 150.348C21.7891 149.75 22.0312 148.869 22.0312 147.705C22.0312 146.553 21.7891 145.68 21.3047 145.086C20.8242 144.488 20.1113 144.189 19.166 144.189C18.2168 144.189 17.4941 144.49 16.998 145.092C16.5059 145.689 16.2598 146.561 16.2598 147.705ZM26.2617 152L23.8242 145.578H24.8672L26.25 149.387C26.5625 150.277 26.7461 150.855 26.8008 151.121H26.8477C26.8906 150.914 27.0254 150.486 27.252 149.838C27.4824 149.186 27.9961 147.766 28.793 145.578H29.8359L27.3984 152H26.2617ZM33.5801 152.117C32.6309 152.117 31.8809 151.828 31.3301 151.25C30.7832 150.672 30.5098 149.869 30.5098 148.842C30.5098 147.807 30.7637 146.984 31.2715 146.375C31.7832 145.766 32.4688 145.461 33.3281 145.461C34.1328 145.461 34.7695 145.727 35.2383 146.258C35.707 146.785 35.9414 147.482 35.9414 148.35V148.965H31.5176C31.5371 149.719 31.7266 150.291 32.0859 150.682C32.4492 151.072 32.959 151.268 33.6152 151.268C34.3066 151.268 34.9902 151.123 35.666 150.834V151.701C35.3223 151.85 34.9961 151.955 34.6875 152.018C34.3828 152.084 34.0137 152.117 33.5801 152.117ZM33.3164 146.275C32.8008 146.275 32.3887 146.443 32.0801 146.779C31.7754 147.115 31.5957 147.58 31.541 148.174H34.8984C34.8984 147.561 34.7617 147.092 34.4883 146.768C34.2148 146.439 33.8242 146.275 33.3164 146.275ZM40.5352 145.461C40.8203 145.461 41.0762 145.484 41.3027 145.531L41.168 146.434C40.9023 146.375 40.668 146.346 40.4648 146.346C39.9453 146.346 39.5 146.557 39.1289 146.979C38.7617 147.4 38.5781 147.926 38.5781 148.555V152H37.6055V145.578H38.4082L38.5195 146.768H38.5664C38.8047 146.35 39.0918 146.027 39.4277 145.801C39.7637 145.574 40.1328 145.461 40.5352 145.461ZM44.5781 151.314C44.75 151.314 44.916 151.303 45.0762 151.279C45.2363 151.252 45.3633 151.225 45.457 151.197V151.941C45.3516 151.992 45.1953 152.033 44.9883 152.064C44.7852 152.1 44.6016 152.117 44.4375 152.117C43.1953 152.117 42.5742 151.463 42.5742 150.154V146.334H41.6543V145.865L42.5742 145.461L42.9844 144.09H43.5469V145.578H45.4102V146.334H43.5469V150.113C43.5469 150.5 43.6387 150.797 43.8223 151.004C44.0059 151.211 44.2578 151.314 44.5781 151.314ZM47.7188 152H46.7461V145.578H47.7188V152ZM46.6641 143.838C46.6641 143.615 46.7188 143.453 46.8281 143.352C46.9375 143.246 47.0742 143.193 47.2383 143.193C47.3945 143.193 47.5293 143.246 47.6426 143.352C47.7559 143.457 47.8125 143.619 47.8125 143.838C47.8125 144.057 47.7559 144.221 47.6426 144.33C47.5293 144.436 47.3945 144.488 47.2383 144.488C47.0742 144.488 46.9375 144.436 46.8281 144.33C46.7188 144.221 46.6641 144.057 46.6641 143.838ZM57.9668 152V147.822C57.9668 147.311 57.8574 146.928 57.6387 146.674C57.4199 146.416 57.0801 146.287 56.6191 146.287C56.0137 146.287 55.5664 146.461 55.2773 146.809C54.9883 147.156 54.8438 147.691 54.8438 148.414V152H53.8711V147.822C53.8711 147.311 53.7617 146.928 53.543 146.674C53.3242 146.416 52.9824 146.287 52.5176 146.287C51.9082 146.287 51.4609 146.471 51.1758 146.838C50.8945 147.201 50.7539 147.799 50.7539 148.631V152H49.7812V145.578H50.5723L50.7305 146.457H50.7773C50.9609 146.145 51.2188 145.9 51.5508 145.725C51.8867 145.549 52.2617 145.461 52.6758 145.461C53.6797 145.461 54.3359 145.824 54.6445 146.551H54.6914C54.8828 146.215 55.1602 145.949 55.5234 145.754C55.8867 145.559 56.3008 145.461 56.7656 145.461C57.4922 145.461 58.0352 145.648 58.3945 146.023C58.7578 146.395 58.9395 146.99 58.9395 147.811V152H57.9668ZM63.6621 152.117C62.7129 152.117 61.9629 151.828 61.4121 151.25C60.8652 150.672 60.5918 149.869 60.5918 148.842C60.5918 147.807 60.8457 146.984 61.3535 146.375C61.8652 145.766 62.5508 145.461 63.4102 145.461C64.2148 145.461 64.8516 145.727 65.3203 146.258C65.7891 146.785 66.0234 147.482 66.0234 148.35V148.965H61.5996C61.6191 149.719 61.8086 150.291 62.168 150.682C62.5312 151.072 63.041 151.268 63.6973 151.268C64.3887 151.268 65.0723 151.123 65.748 150.834V151.701C65.4043 151.85 65.0781 151.955 64.7695 152.018C64.4648 152.084 64.0957 152.117 63.6621 152.117ZM63.3984 146.275C62.8828 146.275 62.4707 146.443 62.1621 146.779C61.8574 147.115 61.6777 147.58 61.623 148.174H64.9805C64.9805 147.561 64.8438 147.092 64.5703 146.768C64.2969 146.439 63.9062 146.275 63.3984 146.275ZM77.4551 152H76.459V147.969H71.9473V152H70.9512V143.434H71.9473V147.078H76.459V143.434H77.4551V152ZM85.207 148.783C85.207 149.83 84.9434 150.648 84.416 151.238C83.8887 151.824 83.1602 152.117 82.2305 152.117C81.6562 152.117 81.1465 151.982 80.7012 151.713C80.2559 151.443 79.9121 151.057 79.6699 150.553C79.4277 150.049 79.3066 149.459 79.3066 148.783C79.3066 147.736 79.5684 146.922 80.0918 146.34C80.6152 145.754 81.3418 145.461 82.2715 145.461C83.1699 145.461 83.8828 145.76 84.4102 146.357C84.9414 146.955 85.207 147.764 85.207 148.783ZM80.3145 148.783C80.3145 149.604 80.4785 150.229 80.8066 150.658C81.1348 151.088 81.6172 151.303 82.2539 151.303C82.8906 151.303 83.373 151.09 83.7012 150.664C84.0332 150.234 84.1992 149.607 84.1992 148.783C84.1992 147.967 84.0332 147.348 83.7012 146.926C83.373 146.5 82.8867 146.287 82.2422 146.287C81.6055 146.287 81.125 146.496 80.8008 146.914C80.4766 147.332 80.3145 147.955 80.3145 148.783ZM87.832 145.578V149.744C87.832 150.268 87.9512 150.658 88.1895 150.916C88.4277 151.174 88.8008 151.303 89.3086 151.303C89.9805 151.303 90.4707 151.119 90.7793 150.752C91.0918 150.385 91.248 149.785 91.248 148.953V145.578H92.2207V152H91.418L91.2773 151.139H91.2246C91.0254 151.455 90.748 151.697 90.3926 151.865C90.041 152.033 89.6387 152.117 89.1855 152.117C88.4043 152.117 87.8184 151.932 87.4277 151.561C87.041 151.189 86.8477 150.596 86.8477 149.779V145.578H87.832ZM97.2188 145.461C97.5039 145.461 97.7598 145.484 97.9863 145.531L97.8516 146.434C97.5859 146.375 97.3516 146.346 97.1484 146.346C96.6289 146.346 96.1836 146.557 95.8125 146.979C95.4453 147.4 95.2617 147.926 95.2617 148.555V152H94.2891V145.578H95.0918L95.2031 146.768H95.25C95.4883 146.35 95.7754 146.027 96.1113 145.801C96.4473 145.574 96.8164 145.461 97.2188 145.461ZM103.33 150.248C103.33 150.846 103.107 151.307 102.662 151.631C102.217 151.955 101.592 152.117 100.787 152.117C99.9355 152.117 99.2715 151.982 98.7949 151.713V150.811C99.1035 150.967 99.4336 151.09 99.7852 151.18C100.141 151.27 100.482 151.314 100.811 151.314C101.318 151.314 101.709 151.234 101.982 151.074C102.256 150.91 102.393 150.662 102.393 150.33C102.393 150.08 102.283 149.867 102.064 149.691C101.85 149.512 101.428 149.301 100.799 149.059C100.201 148.836 99.7754 148.643 99.5215 148.479C99.2715 148.311 99.084 148.121 98.959 147.91C98.8379 147.699 98.7773 147.447 98.7773 147.154C98.7773 146.631 98.9902 146.219 99.416 145.918C99.8418 145.613 100.426 145.461 101.168 145.461C101.859 145.461 102.535 145.602 103.195 145.883L102.85 146.674C102.205 146.408 101.621 146.275 101.098 146.275C100.637 146.275 100.289 146.348 100.055 146.492C99.8203 146.637 99.7031 146.836 99.7031 147.09C99.7031 147.262 99.7461 147.408 99.832 147.529C99.9219 147.65 100.064 147.766 100.26 147.875C100.455 147.984 100.83 148.143 101.385 148.35C102.146 148.627 102.66 148.906 102.926 149.188C103.195 149.469 103.33 149.822 103.33 150.248ZM107.484 148.713C107.484 147.678 107.635 146.709 107.936 145.807C108.24 144.904 108.678 144.113 109.248 143.434H110.197C109.635 144.188 109.211 145.016 108.926 145.918C108.645 146.82 108.504 147.748 108.504 148.701C108.504 149.639 108.648 150.555 108.938 151.449C109.227 152.344 109.643 153.16 110.186 153.898H109.248C108.674 153.234 108.236 152.459 107.936 151.572C107.635 150.686 107.484 149.732 107.484 148.713ZM114.744 152H113.795V145.895C113.795 145.387 113.811 144.906 113.842 144.453C113.76 144.535 113.668 144.621 113.566 144.711C113.465 144.801 113 145.182 112.172 145.854L111.656 145.186L113.924 143.434H114.744V152ZM118.312 151.379C118.312 151.117 118.371 150.92 118.488 150.787C118.609 150.65 118.781 150.582 119.004 150.582C119.23 150.582 119.406 150.65 119.531 150.787C119.66 150.92 119.725 151.117 119.725 151.379C119.725 151.633 119.66 151.828 119.531 151.965C119.402 152.102 119.227 152.17 119.004 152.17C118.805 152.17 118.639 152.109 118.506 151.988C118.377 151.863 118.312 151.66 118.312 151.379ZM123.885 146.768C124.787 146.768 125.496 146.992 126.012 147.441C126.531 147.887 126.791 148.498 126.791 149.275C126.791 150.162 126.508 150.857 125.941 151.361C125.379 151.865 124.602 152.117 123.609 152.117C122.645 152.117 121.908 151.963 121.4 151.654V150.717C121.674 150.893 122.014 151.031 122.42 151.133C122.826 151.23 123.227 151.279 123.621 151.279C124.309 151.279 124.842 151.117 125.221 150.793C125.604 150.469 125.795 150 125.795 149.387C125.795 148.191 125.062 147.594 123.598 147.594C123.227 147.594 122.73 147.65 122.109 147.764L121.605 147.441L121.928 143.434H126.188V144.33H122.76L122.543 146.902C122.992 146.812 123.439 146.768 123.885 146.768ZM130.066 148.713L127.834 145.578H128.941L130.635 148.039L132.322 145.578H133.418L131.186 148.713L133.535 152H132.434L130.635 149.398L128.818 152H127.717L130.066 148.713ZM139.072 148.438V152H138.076V143.434H140.426C141.477 143.434 142.252 143.635 142.752 144.037C143.256 144.439 143.508 145.045 143.508 145.854C143.508 146.986 142.934 147.752 141.785 148.15L144.111 152H142.934L140.859 148.438H139.072ZM139.072 147.582H140.438C141.141 147.582 141.656 147.443 141.984 147.166C142.312 146.885 142.477 146.465 142.477 145.906C142.477 145.34 142.309 144.932 141.973 144.682C141.641 144.432 141.105 144.307 140.367 144.307H139.072V147.582ZM149.297 152L149.104 151.086H149.057C148.736 151.488 148.416 151.762 148.096 151.906C147.779 152.047 147.383 152.117 146.906 152.117C146.27 152.117 145.77 151.953 145.406 151.625C145.047 151.297 144.867 150.83 144.867 150.225C144.867 148.928 145.904 148.248 147.979 148.186L149.068 148.15V147.752C149.068 147.248 148.959 146.877 148.74 146.639C148.525 146.396 148.18 146.275 147.703 146.275C147.168 146.275 146.562 146.439 145.887 146.768L145.588 146.023C145.904 145.852 146.25 145.717 146.625 145.619C147.004 145.521 147.383 145.473 147.762 145.473C148.527 145.473 149.094 145.643 149.461 145.982C149.832 146.322 150.018 146.867 150.018 147.617V152H149.297ZM147.1 151.314C147.705 151.314 148.18 151.148 148.523 150.816C148.871 150.484 149.045 150.02 149.045 149.422V148.842L148.072 148.883C147.299 148.91 146.74 149.031 146.396 149.246C146.057 149.457 145.887 149.787 145.887 150.236C145.887 150.588 145.992 150.855 146.203 151.039C146.418 151.223 146.717 151.314 147.1 151.314ZM154.102 151.314C154.273 151.314 154.439 151.303 154.6 151.279C154.76 151.252 154.887 151.225 154.98 151.197V151.941C154.875 151.992 154.719 152.033 154.512 152.064C154.309 152.1 154.125 152.117 153.961 152.117C152.719 152.117 152.098 151.463 152.098 150.154V146.334H151.178V145.865L152.098 145.461L152.508 144.09H153.07V145.578H154.934V146.334H153.07V150.113C153.07 150.5 153.162 150.797 153.346 151.004C153.529 151.211 153.781 151.314 154.102 151.314ZM158.982 152.117C158.033 152.117 157.283 151.828 156.732 151.25C156.186 150.672 155.912 149.869 155.912 148.842C155.912 147.807 156.166 146.984 156.674 146.375C157.186 145.766 157.871 145.461 158.73 145.461C159.535 145.461 160.172 145.727 160.641 146.258C161.109 146.785 161.344 147.482 161.344 148.35V148.965H156.92C156.939 149.719 157.129 150.291 157.488 150.682C157.852 151.072 158.361 151.268 159.018 151.268C159.709 151.268 160.393 151.123 161.068 150.834V151.701C160.725 151.85 160.398 151.955 160.09 152.018C159.785 152.084 159.416 152.117 158.982 152.117ZM158.719 146.275C158.203 146.275 157.791 146.443 157.482 146.779C157.178 147.115 156.998 147.58 156.943 148.174H160.301C160.301 147.561 160.164 147.092 159.891 146.768C159.617 146.439 159.227 146.275 158.719 146.275ZM165.047 148.713C165.047 149.74 164.895 150.697 164.59 151.584C164.289 152.471 163.854 153.242 163.283 153.898H162.346C162.889 153.164 163.305 152.35 163.594 151.455C163.883 150.557 164.027 149.639 164.027 148.701C164.027 147.748 163.885 146.82 163.6 145.918C163.318 145.016 162.896 144.188 162.334 143.434H163.283C163.857 144.117 164.295 144.912 164.596 145.818C164.896 146.721 165.047 147.686 165.047 148.713Z" fill="#0A2535"/>
<path d="M21.2656 169.635C21.2656 171.049 20.8809 172.131 20.1113 172.881C19.3457 173.627 18.2422 174 16.8008 174H14.4277V165.434H17.0527C18.3848 165.434 19.4199 165.803 20.1582 166.541C20.8965 167.279 21.2656 168.311 21.2656 169.635ZM20.2109 169.67C20.2109 168.553 19.9297 167.711 19.3672 167.145C18.8086 166.578 17.9766 166.295 16.8711 166.295H15.4238V173.139H16.6367C17.8242 173.139 18.7168 172.848 19.3145 172.266C19.9121 171.68 20.2109 170.814 20.2109 169.67ZM28.5781 170.783C28.5781 171.83 28.3145 172.648 27.7871 173.238C27.2598 173.824 26.5312 174.117 25.6016 174.117C25.0273 174.117 24.5176 173.982 24.0723 173.713C23.627 173.443 23.2832 173.057 23.041 172.553C22.7988 172.049 22.6777 171.459 22.6777 170.783C22.6777 169.736 22.9395 168.922 23.4629 168.34C23.9863 167.754 24.7129 167.461 25.6426 167.461C26.541 167.461 27.2539 167.76 27.7812 168.357C28.3125 168.955 28.5781 169.764 28.5781 170.783ZM23.6855 170.783C23.6855 171.604 23.8496 172.229 24.1777 172.658C24.5059 173.088 24.9883 173.303 25.625 173.303C26.2617 173.303 26.7441 173.09 27.0723 172.664C27.4043 172.234 27.5703 171.607 27.5703 170.783C27.5703 169.967 27.4043 169.348 27.0723 168.926C26.7441 168.5 26.2578 168.287 25.6133 168.287C24.9766 168.287 24.4961 168.496 24.1719 168.914C23.8477 169.332 23.6855 169.955 23.6855 170.783ZM31.2031 167.578V171.744C31.2031 172.268 31.3223 172.658 31.5605 172.916C31.7988 173.174 32.1719 173.303 32.6797 173.303C33.3516 173.303 33.8418 173.119 34.1504 172.752C34.4629 172.385 34.6191 171.785 34.6191 170.953V167.578H35.5918V174H34.7891L34.6484 173.139H34.5957C34.3965 173.455 34.1191 173.697 33.7637 173.865C33.4121 174.033 33.0098 174.117 32.5566 174.117C31.7754 174.117 31.1895 173.932 30.7988 173.561C30.4121 173.189 30.2188 172.596 30.2188 171.779V167.578H31.2031ZM40.6484 167.473C41.4922 167.473 42.1465 167.762 42.6113 168.34C43.0801 168.914 43.3145 169.729 43.3145 170.783C43.3145 171.838 43.0781 172.658 42.6055 173.244C42.1367 173.826 41.4844 174.117 40.6484 174.117C40.2305 174.117 39.8477 174.041 39.5 173.889C39.1562 173.732 38.8672 173.494 38.6328 173.174H38.5625L38.3574 174H37.6602V164.883H38.6328V167.098C38.6328 167.594 38.6172 168.039 38.5859 168.434H38.6328C39.0859 167.793 39.7578 167.473 40.6484 167.473ZM40.5078 168.287C39.8438 168.287 39.3652 168.479 39.0723 168.861C38.7793 169.24 38.6328 169.881 38.6328 170.783C38.6328 171.686 38.7832 172.332 39.084 172.723C39.3848 173.109 39.8672 173.303 40.5312 173.303C41.1289 173.303 41.5742 173.086 41.8672 172.652C42.1602 172.215 42.3066 171.588 42.3066 170.771C42.3066 169.936 42.1602 169.312 41.8672 168.902C41.5742 168.492 41.1211 168.287 40.5078 168.287ZM45.9922 174H45.0195V164.883H45.9922V174ZM50.7676 174.117C49.8184 174.117 49.0684 173.828 48.5176 173.25C47.9707 172.672 47.6973 171.869 47.6973 170.842C47.6973 169.807 47.9512 168.984 48.459 168.375C48.9707 167.766 49.6562 167.461 50.5156 167.461C51.3203 167.461 51.957 167.727 52.4258 168.258C52.8945 168.785 53.1289 169.482 53.1289 170.35V170.965H48.7051C48.7246 171.719 48.9141 172.291 49.2734 172.682C49.6367 173.072 50.1465 173.268 50.8027 173.268C51.4941 173.268 52.1777 173.123 52.8535 172.834V173.701C52.5098 173.85 52.1836 173.955 51.875 174.018C51.5703 174.084 51.2012 174.117 50.7676 174.117ZM50.5039 168.275C49.9883 168.275 49.5762 168.443 49.2676 168.779C48.9629 169.115 48.7832 169.58 48.7285 170.174H52.0859C52.0859 169.561 51.9492 169.092 51.6758 168.768C51.4023 168.439 51.0117 168.275 50.5039 168.275ZM56.8672 173.314C57.0391 173.314 57.2051 173.303 57.3652 173.279C57.5254 173.252 57.6523 173.225 57.7461 173.197V173.941C57.6406 173.992 57.4844 174.033 57.2773 174.064C57.0742 174.1 56.8906 174.117 56.7266 174.117C55.4844 174.117 54.8633 173.463 54.8633 172.154V168.334H53.9434V167.865L54.8633 167.461L55.2734 166.09H55.8359V167.578H57.6992V168.334H55.8359V172.113C55.8359 172.5 55.9277 172.797 56.1113 173.004C56.2949 173.211 56.5469 173.314 56.8672 173.314ZM60.0078 174H59.0352V167.578H60.0078V174ZM58.9531 165.838C58.9531 165.615 59.0078 165.453 59.1172 165.352C59.2266 165.246 59.3633 165.193 59.5273 165.193C59.6836 165.193 59.8184 165.246 59.9316 165.352C60.0449 165.457 60.1016 165.619 60.1016 165.838C60.1016 166.057 60.0449 166.221 59.9316 166.33C59.8184 166.436 59.6836 166.488 59.5273 166.488C59.3633 166.488 59.2266 166.436 59.1172 166.33C59.0078 166.221 58.9531 166.057 58.9531 165.838ZM70.2559 174V169.822C70.2559 169.311 70.1465 168.928 69.9277 168.674C69.709 168.416 69.3691 168.287 68.9082 168.287C68.3027 168.287 67.8555 168.461 67.5664 168.809C67.2773 169.156 67.1328 169.691 67.1328 170.414V174H66.1602V169.822C66.1602 169.311 66.0508 168.928 65.832 168.674C65.6133 168.416 65.2715 168.287 64.8066 168.287C64.1973 168.287 63.75 168.471 63.4648 168.838C63.1836 169.201 63.043 169.799 63.043 170.631V174H62.0703V167.578H62.8613L63.0195 168.457H63.0664C63.25 168.145 63.5078 167.9 63.8398 167.725C64.1758 167.549 64.5508 167.461 64.9648 167.461C65.9688 167.461 66.625 167.824 66.9336 168.551H66.9805C67.1719 168.215 67.4492 167.949 67.8125 167.754C68.1758 167.559 68.5898 167.461 69.0547 167.461C69.7812 167.461 70.3242 167.648 70.6836 168.023C71.0469 168.395 71.2285 168.99 71.2285 169.811V174H70.2559ZM75.9512 174.117C75.002 174.117 74.252 173.828 73.7012 173.25C73.1543 172.672 72.8809 171.869 72.8809 170.842C72.8809 169.807 73.1348 168.984 73.6426 168.375C74.1543 167.766 74.8398 167.461 75.6992 167.461C76.5039 167.461 77.1406 167.727 77.6094 168.258C78.0781 168.785 78.3125 169.482 78.3125 170.35V170.965H73.8887C73.9082 171.719 74.0977 172.291 74.457 172.682C74.8203 173.072 75.3301 173.268 75.9863 173.268C76.6777 173.268 77.3613 173.123 78.0371 172.834V173.701C77.6934 173.85 77.3672 173.955 77.0586 174.018C76.7539 174.084 76.3848 174.117 75.9512 174.117ZM75.6875 168.275C75.1719 168.275 74.7598 168.443 74.4512 168.779C74.1465 169.115 73.9668 169.58 73.9121 170.174H77.2695C77.2695 169.561 77.1328 169.092 76.8594 168.768C76.5859 168.439 76.1953 168.275 75.6875 168.275ZM89.7441 174H88.748V169.969H84.2363V174H83.2402V165.434H84.2363V169.078H88.748V165.434H89.7441V174ZM97.4961 170.783C97.4961 171.83 97.2324 172.648 96.7051 173.238C96.1777 173.824 95.4492 174.117 94.5195 174.117C93.9453 174.117 93.4355 173.982 92.9902 173.713C92.5449 173.443 92.2012 173.057 91.959 172.553C91.7168 172.049 91.5957 171.459 91.5957 170.783C91.5957 169.736 91.8574 168.922 92.3809 168.34C92.9043 167.754 93.6309 167.461 94.5605 167.461C95.459 167.461 96.1719 167.76 96.6992 168.357C97.2305 168.955 97.4961 169.764 97.4961 170.783ZM92.6035 170.783C92.6035 171.604 92.7676 172.229 93.0957 172.658C93.4238 173.088 93.9062 173.303 94.543 173.303C95.1797 173.303 95.6621 173.09 95.9902 172.664C96.3223 172.234 96.4883 171.607 96.4883 170.783C96.4883 169.967 96.3223 169.348 95.9902 168.926C95.6621 168.5 95.1758 168.287 94.5312 168.287C93.8945 168.287 93.4141 168.496 93.0898 168.914C92.7656 169.332 92.6035 169.955 92.6035 170.783ZM100.121 167.578V171.744C100.121 172.268 100.24 172.658 100.479 172.916C100.717 173.174 101.09 173.303 101.598 173.303C102.27 173.303 102.76 173.119 103.068 172.752C103.381 172.385 103.537 171.785 103.537 170.953V167.578H104.51V174H103.707L103.566 173.139H103.514C103.314 173.455 103.037 173.697 102.682 173.865C102.33 174.033 101.928 174.117 101.475 174.117C100.693 174.117 100.107 173.932 99.7168 173.561C99.3301 173.189 99.1367 172.596 99.1367 171.779V167.578H100.121ZM109.508 167.461C109.793 167.461 110.049 167.484 110.275 167.531L110.141 168.434C109.875 168.375 109.641 168.346 109.438 168.346C108.918 168.346 108.473 168.557 108.102 168.979C107.734 169.4 107.551 169.926 107.551 170.555V174H106.578V167.578H107.381L107.492 168.768H107.539C107.777 168.35 108.064 168.027 108.4 167.801C108.736 167.574 109.105 167.461 109.508 167.461ZM115.619 172.248C115.619 172.846 115.396 173.307 114.951 173.631C114.506 173.955 113.881 174.117 113.076 174.117C112.225 174.117 111.561 173.982 111.084 173.713V172.811C111.393 172.967 111.723 173.09 112.074 173.18C112.43 173.27 112.771 173.314 113.1 173.314C113.607 173.314 113.998 173.234 114.271 173.074C114.545 172.91 114.682 172.662 114.682 172.33C114.682 172.08 114.572 171.867 114.354 171.691C114.139 171.512 113.717 171.301 113.088 171.059C112.49 170.836 112.064 170.643 111.811 170.479C111.561 170.311 111.373 170.121 111.248 169.91C111.127 169.699 111.066 169.447 111.066 169.154C111.066 168.631 111.279 168.219 111.705 167.918C112.131 167.613 112.715 167.461 113.457 167.461C114.148 167.461 114.824 167.602 115.484 167.883L115.139 168.674C114.494 168.408 113.91 168.275 113.387 168.275C112.926 168.275 112.578 168.348 112.344 168.492C112.109 168.637 111.992 168.836 111.992 169.09C111.992 169.262 112.035 169.408 112.121 169.529C112.211 169.65 112.354 169.766 112.549 169.875C112.744 169.984 113.119 170.143 113.674 170.35C114.436 170.627 114.949 170.906 115.215 171.188C115.484 171.469 115.619 171.822 115.619 172.248ZM119.773 170.713C119.773 169.678 119.924 168.709 120.225 167.807C120.529 166.904 120.967 166.113 121.537 165.434H122.486C121.924 166.188 121.5 167.016 121.215 167.918C120.934 168.82 120.793 169.748 120.793 170.701C120.793 171.639 120.938 172.555 121.227 173.449C121.516 174.344 121.932 175.16 122.475 175.898H121.537C120.963 175.234 120.525 174.459 120.225 173.572C119.924 172.686 119.773 171.732 119.773 170.713ZM129.061 174H123.43V173.162L125.686 170.895C126.373 170.199 126.826 169.703 127.045 169.406C127.264 169.109 127.428 168.82 127.537 168.539C127.646 168.258 127.701 167.955 127.701 167.631C127.701 167.174 127.562 166.812 127.285 166.547C127.008 166.277 126.623 166.143 126.131 166.143C125.775 166.143 125.438 166.201 125.117 166.318C124.801 166.436 124.447 166.648 124.057 166.957L123.541 166.295C124.33 165.639 125.189 165.311 126.119 165.311C126.924 165.311 127.555 165.518 128.012 165.932C128.469 166.342 128.697 166.895 128.697 167.59C128.697 168.133 128.545 168.67 128.24 169.201C127.936 169.732 127.365 170.404 126.529 171.217L124.654 173.051V173.098H129.061V174ZM132.289 170.713L130.057 167.578H131.164L132.857 170.039L134.545 167.578H135.641L133.408 170.713L135.758 174H134.656L132.857 171.398L131.041 174H129.939L132.289 170.713ZM141.295 170.438V174H140.299V165.434H142.648C143.699 165.434 144.475 165.635 144.975 166.037C145.479 166.439 145.73 167.045 145.73 167.854C145.73 168.986 145.156 169.752 144.008 170.15L146.334 174H145.156L143.082 170.438H141.295ZM141.295 169.582H142.66C143.363 169.582 143.879 169.443 144.207 169.166C144.535 168.885 144.699 168.465 144.699 167.906C144.699 167.34 144.531 166.932 144.195 166.682C143.863 166.432 143.328 166.307 142.59 166.307H141.295V169.582ZM151.52 174L151.326 173.086H151.279C150.959 173.488 150.639 173.762 150.318 173.906C150.002 174.047 149.605 174.117 149.129 174.117C148.492 174.117 147.992 173.953 147.629 173.625C147.27 173.297 147.09 172.83 147.09 172.225C147.09 170.928 148.127 170.248 150.201 170.186L151.291 170.15V169.752C151.291 169.248 151.182 168.877 150.963 168.639C150.748 168.396 150.402 168.275 149.926 168.275C149.391 168.275 148.785 168.439 148.109 168.768L147.811 168.023C148.127 167.852 148.473 167.717 148.848 167.619C149.227 167.521 149.605 167.473 149.984 167.473C150.75 167.473 151.316 167.643 151.684 167.982C152.055 168.322 152.24 168.867 152.24 169.617V174H151.52ZM149.322 173.314C149.928 173.314 150.402 173.148 150.746 172.816C151.094 172.484 151.268 172.02 151.268 171.422V170.842L150.295 170.883C149.521 170.91 148.963 171.031 148.619 171.246C148.279 171.457 148.109 171.787 148.109 172.236C148.109 172.588 148.215 172.855 148.426 173.039C148.641 173.223 148.939 173.314 149.322 173.314ZM156.324 173.314C156.496 173.314 156.662 173.303 156.822 173.279C156.982 173.252 157.109 173.225 157.203 173.197V173.941C157.098 173.992 156.941 174.033 156.734 174.064C156.531 174.1 156.348 174.117 156.184 174.117C154.941 174.117 154.32 173.463 154.32 172.154V168.334H153.4V167.865L154.32 167.461L154.73 166.09H155.293V167.578H157.156V168.334H155.293V172.113C155.293 172.5 155.385 172.797 155.568 173.004C155.752 173.211 156.004 173.314 156.324 173.314ZM161.205 174.117C160.256 174.117 159.506 173.828 158.955 173.25C158.408 172.672 158.135 171.869 158.135 170.842C158.135 169.807 158.389 168.984 158.896 168.375C159.408 167.766 160.094 167.461 160.953 167.461C161.758 167.461 162.395 167.727 162.863 168.258C163.332 168.785 163.566 169.482 163.566 170.35V170.965H159.143C159.162 171.719 159.352 172.291 159.711 172.682C160.074 173.072 160.584 173.268 161.24 173.268C161.932 173.268 162.615 173.123 163.291 172.834V173.701C162.947 173.85 162.621 173.955 162.312 174.018C162.008 174.084 161.639 174.117 161.205 174.117ZM160.941 168.275C160.426 168.275 160.014 168.443 159.705 168.779C159.4 169.115 159.221 169.58 159.166 170.174H162.523C162.523 169.561 162.387 169.092 162.113 168.768C161.84 168.439 161.449 168.275 160.941 168.275ZM167.27 170.713C167.27 171.74 167.117 172.697 166.812 173.584C166.512 174.471 166.076 175.242 165.506 175.898H164.568C165.111 175.164 165.527 174.35 165.816 173.455C166.105 172.557 166.25 171.639 166.25 170.701C166.25 169.748 166.107 168.82 165.822 167.918C165.541 167.016 165.119 166.188 164.557 165.434H165.506C166.08 166.117 166.518 166.912 166.818 167.818C167.119 168.721 167.27 169.686 167.27 170.713Z" fill="#0A2535"/>
<rect x="1" y="1" width="562" height="42" fill="white" stroke="#68C6A4" stroke-width="2"/>
<path d="M231.508 28H229.641V18.1797H226.281V16.5781H234.867V18.1797H231.508V28ZM238.266 28H236.43V19.3594H238.266V28ZM236.32 17.0703C236.32 16.7422 236.409 16.4896 236.586 16.3125C236.768 16.1354 237.026 16.0469 237.359 16.0469C237.682 16.0469 237.932 16.1354 238.109 16.3125C238.292 16.4896 238.383 16.7422 238.383 17.0703C238.383 17.3828 238.292 17.6302 238.109 17.8125C237.932 17.9896 237.682 18.0781 237.359 18.0781C237.026 18.0781 236.768 17.9896 236.586 17.8125C236.409 17.6302 236.32 17.3828 236.32 17.0703ZM248.18 28H246.336V22.6719C246.336 22.0104 246.211 21.5182 245.961 21.1953C245.711 20.8672 245.32 20.7031 244.789 20.7031C244.081 20.7031 243.56 20.9349 243.227 21.3984C242.898 21.8568 242.734 22.6224 242.734 23.6953V28H240.898V19.3594H242.336L242.594 20.4922H242.688C242.927 20.0807 243.273 19.763 243.727 19.5391C244.185 19.3151 244.688 19.2031 245.234 19.2031C246.562 19.2031 247.443 19.6562 247.875 20.5625H248C248.255 20.1354 248.615 19.8021 249.078 19.5625C249.542 19.3229 250.073 19.2031 250.672 19.2031C251.703 19.2031 252.453 19.4635 252.922 19.9844C253.396 20.5052 253.633 21.2995 253.633 22.3672V28H251.797V22.6719C251.797 22.0104 251.669 21.5182 251.414 21.1953C251.164 20.8672 250.773 20.7031 250.242 20.7031C249.529 20.7031 249.005 20.9271 248.672 21.375C248.344 21.8177 248.18 22.5 248.18 23.4219V28ZM259.969 28.1562C258.625 28.1562 257.573 27.7656 256.812 26.9844C256.057 26.1979 255.68 25.1172 255.68 23.7422C255.68 22.3307 256.031 21.2214 256.734 20.4141C257.438 19.6068 258.404 19.2031 259.633 19.2031C260.773 19.2031 261.674 19.5495 262.336 20.2422C262.997 20.9349 263.328 21.888 263.328 23.1016V24.0938H257.57C257.596 24.9323 257.823 25.5781 258.25 26.0312C258.677 26.4792 259.279 26.7031 260.055 26.7031C260.565 26.7031 261.039 26.6562 261.477 26.5625C261.919 26.4635 262.393 26.3021 262.898 26.0781V27.5703C262.451 27.7839 261.997 27.9349 261.539 28.0234C261.081 28.112 260.557 28.1562 259.969 28.1562ZM259.633 20.5938C259.049 20.5938 258.581 20.7786 258.227 21.1484C257.878 21.5182 257.669 22.0573 257.602 22.7656H261.523C261.513 22.0521 261.341 21.513 261.008 21.1484C260.674 20.7786 260.216 20.5938 259.633 20.5938ZM268.898 28.1562C267.591 28.1562 266.596 27.776 265.914 27.0156C265.237 26.25 264.898 25.1536 264.898 23.7266C264.898 22.2734 265.253 21.1562 265.961 20.375C266.674 19.5938 267.703 19.2031 269.047 19.2031C269.958 19.2031 270.779 19.3724 271.508 19.7109L270.953 21.1875C270.177 20.8854 269.536 20.7344 269.031 20.7344C267.536 20.7344 266.789 21.7266 266.789 23.7109C266.789 24.6797 266.974 25.4089 267.344 25.8984C267.719 26.3828 268.266 26.625 268.984 26.625C269.802 26.625 270.576 26.4219 271.305 26.0156V27.6172C270.977 27.8099 270.625 27.9479 270.25 28.0312C269.88 28.1146 269.43 28.1562 268.898 28.1562ZM278.742 28L278.375 26.7969H278.312C277.896 27.3229 277.477 27.6823 277.055 27.875C276.633 28.0625 276.091 28.1562 275.43 28.1562C274.581 28.1562 273.917 27.9271 273.438 27.4688C272.964 27.0104 272.727 26.362 272.727 25.5234C272.727 24.6328 273.057 23.9609 273.719 23.5078C274.38 23.0547 275.388 22.8073 276.742 22.7656L278.234 22.7188V22.2578C278.234 21.7057 278.104 21.2943 277.844 21.0234C277.589 20.7474 277.19 20.6094 276.648 20.6094C276.206 20.6094 275.781 20.6745 275.375 20.8047C274.969 20.9349 274.578 21.0885 274.203 21.2656L273.609 19.9531C274.078 19.7083 274.591 19.5234 275.148 19.3984C275.706 19.2682 276.232 19.2031 276.727 19.2031C277.826 19.2031 278.654 19.4427 279.211 19.9219C279.773 20.401 280.055 21.1536 280.055 22.1797V28H278.742ZM276.008 26.75C276.674 26.75 277.208 26.5651 277.609 26.1953C278.016 25.8203 278.219 25.2969 278.219 24.625V23.875L277.109 23.9219C276.245 23.9531 275.615 24.099 275.219 24.3594C274.828 24.6146 274.633 25.0078 274.633 25.5391C274.633 25.9245 274.747 26.224 274.977 26.4375C275.206 26.6458 275.549 26.75 276.008 26.75ZM287 19.2031C287.37 19.2031 287.674 19.2292 287.914 19.2812L287.734 20.9922C287.474 20.9297 287.203 20.8984 286.922 20.8984C286.188 20.8984 285.591 21.138 285.133 21.6172C284.68 22.0964 284.453 22.7188 284.453 23.4844V28H282.617V19.3594H284.055L284.297 20.8828H284.391C284.677 20.3672 285.049 19.9583 285.508 19.6562C285.971 19.3542 286.469 19.2031 287 19.2031ZM292.438 28.1562C291.359 28.1562 290.518 27.7656 289.914 26.9844C289.31 26.2031 289.008 25.1068 289.008 23.6953C289.008 22.2786 289.312 21.1771 289.922 20.3906C290.536 19.599 291.385 19.2031 292.469 19.2031C293.604 19.2031 294.469 19.6224 295.062 20.4609H295.156C295.068 19.8411 295.023 19.3516 295.023 18.9922V15.8438H296.867V28H295.43L295.109 26.8672H295.023C294.435 27.7266 293.573 28.1562 292.438 28.1562ZM292.93 26.6719C293.685 26.6719 294.234 26.4609 294.578 26.0391C294.922 25.612 295.099 24.9219 295.109 23.9688V23.7109C295.109 22.6224 294.932 21.849 294.578 21.3906C294.224 20.9323 293.669 20.7031 292.914 20.7031C292.268 20.7031 291.771 20.9661 291.422 21.4922C291.073 22.013 290.898 22.7578 290.898 23.7266C290.898 24.6849 291.068 25.4167 291.406 25.9219C291.745 26.4219 292.253 26.6719 292.93 26.6719ZM313.133 22.1797C313.133 24.0651 312.609 25.5078 311.562 26.5078C310.516 27.5026 309.008 28 307.039 28H303.844V16.5781H307.375C309.193 16.5781 310.607 17.0677 311.617 18.0469C312.628 19.026 313.133 20.4036 313.133 22.1797ZM311.164 22.2422C311.164 19.5078 309.885 18.1406 307.328 18.1406H305.711V26.4297H307.039C309.789 26.4297 311.164 25.0339 311.164 22.2422ZM320.805 28L320.438 26.7969H320.375C319.958 27.3229 319.539 27.6823 319.117 27.875C318.695 28.0625 318.154 28.1562 317.492 28.1562C316.643 28.1562 315.979 27.9271 315.5 27.4688C315.026 27.0104 314.789 26.362 314.789 25.5234C314.789 24.6328 315.12 23.9609 315.781 23.5078C316.443 23.0547 317.451 22.8073 318.805 22.7656L320.297 22.7188V22.2578C320.297 21.7057 320.167 21.2943 319.906 21.0234C319.651 20.7474 319.253 20.6094 318.711 20.6094C318.268 20.6094 317.844 20.6745 317.438 20.8047C317.031 20.9349 316.641 21.0885 316.266 21.2656L315.672 19.9531C316.141 19.7083 316.654 19.5234 317.211 19.3984C317.768 19.2682 318.294 19.2031 318.789 19.2031C319.888 19.2031 320.716 19.4427 321.273 19.9219C321.836 20.401 322.117 21.1536 322.117 22.1797V28H320.805ZM318.07 26.75C318.737 26.75 319.271 26.5651 319.672 26.1953C320.078 25.8203 320.281 25.2969 320.281 24.625V23.875L319.172 23.9219C318.307 23.9531 317.677 24.099 317.281 24.3594C316.891 24.6146 316.695 25.0078 316.695 25.5391C316.695 25.9245 316.81 26.224 317.039 26.4375C317.268 26.6458 317.612 26.75 318.07 26.75ZM327.898 26.6719C328.346 26.6719 328.794 26.6016 329.242 26.4609V27.8438C329.039 27.9323 328.776 28.0052 328.453 28.0625C328.135 28.125 327.805 28.1562 327.461 28.1562C325.721 28.1562 324.852 27.2396 324.852 25.4062V20.75H323.672V19.9375L324.938 19.2656L325.562 17.4375H326.695V19.3594H329.156V20.75H326.695V25.375C326.695 25.8177 326.805 26.1458 327.023 26.3594C327.247 26.5677 327.539 26.6719 327.898 26.6719ZM336.383 28L336.016 26.7969H335.953C335.536 27.3229 335.117 27.6823 334.695 27.875C334.273 28.0625 333.732 28.1562 333.07 28.1562C332.221 28.1562 331.557 27.9271 331.078 27.4688C330.604 27.0104 330.367 26.362 330.367 25.5234C330.367 24.6328 330.698 23.9609 331.359 23.5078C332.021 23.0547 333.029 22.8073 334.383 22.7656L335.875 22.7188V22.2578C335.875 21.7057 335.745 21.2943 335.484 21.0234C335.229 20.7474 334.831 20.6094 334.289 20.6094C333.846 20.6094 333.422 20.6745 333.016 20.8047C332.609 20.9349 332.219 21.0885 331.844 21.2656L331.25 19.9531C331.719 19.7083 332.232 19.5234 332.789 19.3984C333.346 19.2682 333.872 19.2031 334.367 19.2031C335.466 19.2031 336.294 19.4427 336.852 19.9219C337.414 20.401 337.695 21.1536 337.695 22.1797V28H336.383ZM333.648 26.75C334.315 26.75 334.849 26.5651 335.25 26.1953C335.656 25.8203 335.859 25.2969 335.859 24.625V23.875L334.75 23.9219C333.885 23.9531 333.255 24.099 332.859 24.3594C332.469 24.6146 332.273 25.0078 332.273 25.5391C332.273 25.9245 332.388 26.224 332.617 26.4375C332.846 26.6458 333.19 26.75 333.648 26.75Z" fill="#0A2535"/>
<rect x="193" y="78" width="178" height="115" fill="white" stroke="#68C6A4" stroke-width="2"/>
<path d="M271.805 108H269.938V98.1797H266.578V96.5781H275.164V98.1797H271.805V108ZM278.562 108H276.727V99.3594H278.562V108ZM276.617 97.0703C276.617 96.7422 276.706 96.4896 276.883 96.3125C277.065 96.1354 277.323 96.0469 277.656 96.0469C277.979 96.0469 278.229 96.1354 278.406 96.3125C278.589 96.4896 278.68 96.7422 278.68 97.0703C278.68 97.3828 278.589 97.6302 278.406 97.8125C278.229 97.9896 277.979 98.0781 277.656 98.0781C277.323 98.0781 277.065 97.9896 276.883 97.8125C276.706 97.6302 276.617 97.3828 276.617 97.0703ZM285.578 108.156C284.484 108.156 283.635 107.763 283.031 106.977H282.922C282.995 107.706 283.031 108.148 283.031 108.305V111.844H281.195V99.3594H282.68C282.721 99.5208 282.807 99.9062 282.938 100.516H283.031C283.604 99.6406 284.464 99.2031 285.609 99.2031C286.688 99.2031 287.526 99.5938 288.125 100.375C288.729 101.156 289.031 102.253 289.031 103.664C289.031 105.076 288.724 106.177 288.109 106.969C287.5 107.76 286.656 108.156 285.578 108.156ZM285.133 100.703C284.404 100.703 283.87 100.917 283.531 101.344C283.198 101.771 283.031 102.453 283.031 103.391V103.664C283.031 104.716 283.198 105.479 283.531 105.953C283.865 106.422 284.409 106.656 285.164 106.656C285.799 106.656 286.289 106.396 286.633 105.875C286.977 105.354 287.148 104.612 287.148 103.648C287.148 102.68 286.977 101.948 286.633 101.453C286.294 100.953 285.794 100.703 285.133 100.703ZM296.969 105.539C296.969 106.383 296.661 107.031 296.047 107.484C295.432 107.932 294.552 108.156 293.406 108.156C292.255 108.156 291.331 107.982 290.633 107.633V106.047C291.648 106.516 292.594 106.75 293.469 106.75C294.599 106.75 295.164 106.409 295.164 105.727C295.164 105.508 295.102 105.326 294.977 105.18C294.852 105.034 294.646 104.883 294.359 104.727C294.073 104.57 293.674 104.393 293.164 104.195C292.169 103.81 291.495 103.424 291.141 103.039C290.792 102.654 290.617 102.154 290.617 101.539C290.617 100.799 290.914 100.227 291.508 99.8203C292.107 99.4089 292.919 99.2031 293.945 99.2031C294.961 99.2031 295.922 99.4089 296.828 99.8203L296.234 101.203C295.302 100.818 294.518 100.625 293.883 100.625C292.914 100.625 292.43 100.901 292.43 101.453C292.43 101.724 292.555 101.953 292.805 102.141C293.06 102.328 293.612 102.586 294.461 102.914C295.174 103.19 295.693 103.443 296.016 103.672C296.339 103.901 296.578 104.167 296.734 104.469C296.891 104.766 296.969 105.122 296.969 105.539Z" fill="#0A2535"/>
<path d="M249.762 123.93C249.762 124.797 249.465 125.465 248.871 125.934C248.281 126.398 247.436 126.631 246.334 126.631H245.326V130H244.33V121.434H246.551C248.691 121.434 249.762 122.266 249.762 123.93ZM245.326 125.775H246.223C247.105 125.775 247.744 125.633 248.139 125.348C248.533 125.062 248.73 124.605 248.73 123.977C248.73 123.41 248.545 122.988 248.174 122.711C247.803 122.434 247.225 122.295 246.439 122.295H245.326V125.775ZM255.363 130L255.17 129.086H255.123C254.803 129.488 254.482 129.762 254.162 129.906C253.846 130.047 253.449 130.117 252.973 130.117C252.336 130.117 251.836 129.953 251.473 129.625C251.113 129.297 250.934 128.83 250.934 128.225C250.934 126.928 251.971 126.248 254.045 126.186L255.135 126.15V125.752C255.135 125.248 255.025 124.877 254.807 124.639C254.592 124.396 254.246 124.275 253.77 124.275C253.234 124.275 252.629 124.439 251.953 124.768L251.654 124.023C251.971 123.852 252.316 123.717 252.691 123.619C253.07 123.521 253.449 123.473 253.828 123.473C254.594 123.473 255.16 123.643 255.527 123.982C255.898 124.322 256.084 124.867 256.084 125.617V130H255.363ZM253.166 129.314C253.771 129.314 254.246 129.148 254.59 128.816C254.938 128.484 255.111 128.02 255.111 127.422V126.842L254.139 126.883C253.365 126.91 252.807 127.031 252.463 127.246C252.123 127.457 251.953 127.787 251.953 128.236C251.953 128.588 252.059 128.855 252.27 129.039C252.484 129.223 252.783 129.314 253.166 129.314ZM257.074 123.578H258.117L259.523 127.24C259.832 128.076 260.023 128.68 260.098 129.051H260.145C260.195 128.852 260.301 128.512 260.461 128.031C260.625 127.547 261.156 126.062 262.055 123.578H263.098L260.338 130.891C260.064 131.613 259.744 132.125 259.377 132.426C259.014 132.73 258.566 132.883 258.035 132.883C257.738 132.883 257.445 132.85 257.156 132.783V132.004C257.371 132.051 257.611 132.074 257.877 132.074C258.545 132.074 259.021 131.699 259.307 130.949L259.664 130.035L257.074 123.578ZM266.707 130.117C265.777 130.117 265.057 129.832 264.545 129.262C264.037 128.688 263.783 127.877 263.783 126.83C263.783 125.756 264.041 124.926 264.557 124.34C265.076 123.754 265.814 123.461 266.771 123.461C267.08 123.461 267.389 123.494 267.697 123.561C268.006 123.627 268.248 123.705 268.424 123.795L268.125 124.621C267.91 124.535 267.676 124.465 267.422 124.41C267.168 124.352 266.943 124.322 266.748 124.322C265.443 124.322 264.791 125.154 264.791 126.818C264.791 127.607 264.949 128.213 265.266 128.635C265.586 129.057 266.059 129.268 266.684 129.268C267.219 129.268 267.768 129.152 268.33 128.922V129.783C267.9 130.006 267.359 130.117 266.707 130.117ZM274.254 130V125.846C274.254 125.322 274.135 124.932 273.896 124.674C273.658 124.416 273.285 124.287 272.777 124.287C272.102 124.287 271.607 124.471 271.295 124.838C270.986 125.205 270.832 125.807 270.832 126.643V130H269.859V120.883H270.832V123.643C270.832 123.975 270.816 124.25 270.785 124.469H270.844C271.035 124.16 271.307 123.918 271.658 123.742C272.014 123.562 272.418 123.473 272.871 123.473C273.656 123.473 274.244 123.66 274.635 124.035C275.029 124.406 275.227 124.998 275.227 125.811V130H274.254ZM279.943 130.117C278.994 130.117 278.244 129.828 277.693 129.25C277.146 128.672 276.873 127.869 276.873 126.842C276.873 125.807 277.127 124.984 277.635 124.375C278.146 123.766 278.832 123.461 279.691 123.461C280.496 123.461 281.133 123.727 281.602 124.258C282.07 124.785 282.305 125.482 282.305 126.35V126.965H277.881C277.9 127.719 278.09 128.291 278.449 128.682C278.812 129.072 279.322 129.268 279.979 129.268C280.67 129.268 281.354 129.123 282.029 128.834V129.701C281.686 129.85 281.359 129.955 281.051 130.018C280.746 130.084 280.377 130.117 279.943 130.117ZM279.68 124.275C279.164 124.275 278.752 124.443 278.443 124.779C278.139 125.115 277.959 125.58 277.904 126.174H281.262C281.262 125.561 281.125 125.092 280.852 124.768C280.578 124.439 280.188 124.275 279.68 124.275ZM286.535 130.117C285.605 130.117 284.885 129.832 284.373 129.262C283.865 128.688 283.611 127.877 283.611 126.83C283.611 125.756 283.869 124.926 284.385 124.34C284.904 123.754 285.643 123.461 286.6 123.461C286.908 123.461 287.217 123.494 287.525 123.561C287.834 123.627 288.076 123.705 288.252 123.795L287.953 124.621C287.738 124.535 287.504 124.465 287.25 124.41C286.996 124.352 286.771 124.322 286.576 124.322C285.271 124.322 284.619 125.154 284.619 126.818C284.619 127.607 284.777 128.213 285.094 128.635C285.414 129.057 285.887 129.268 286.512 129.268C287.047 129.268 287.596 129.152 288.158 128.922V129.783C287.729 130.006 287.188 130.117 286.535 130.117ZM290.648 126.713C290.816 126.475 291.072 126.162 291.416 125.775L293.49 123.578H294.645L292.043 126.314L294.826 130H293.648L291.381 126.965L290.648 127.598V130H289.688V120.883H290.648V125.717C290.648 125.932 290.633 126.264 290.602 126.713H290.648ZM301.893 130H300.896V122.318H298.184V121.434H304.605V122.318H301.893V130ZM306.727 130H305.754V123.578H306.727V130ZM305.672 121.838C305.672 121.615 305.727 121.453 305.836 121.352C305.945 121.246 306.082 121.193 306.246 121.193C306.402 121.193 306.537 121.246 306.65 121.352C306.764 121.457 306.82 121.619 306.82 121.838C306.82 122.057 306.764 122.221 306.65 122.33C306.537 122.436 306.402 122.488 306.246 122.488C306.082 122.488 305.945 122.436 305.836 122.33C305.727 122.221 305.672 122.057 305.672 121.838ZM311.777 130.117C311.359 130.117 310.977 130.041 310.629 129.889C310.285 129.732 309.996 129.494 309.762 129.174H309.691C309.738 129.549 309.762 129.904 309.762 130.24V132.883H308.789V123.578H309.58L309.715 124.457H309.762C310.012 124.105 310.303 123.852 310.635 123.695C310.967 123.539 311.348 123.461 311.777 123.461C312.629 123.461 313.285 123.752 313.746 124.334C314.211 124.916 314.443 125.732 314.443 126.783C314.443 127.838 314.207 128.658 313.734 129.244C313.266 129.826 312.613 130.117 311.777 130.117ZM311.637 124.287C310.98 124.287 310.506 124.469 310.213 124.832C309.92 125.195 309.77 125.773 309.762 126.566V126.783C309.762 127.686 309.912 128.332 310.213 128.723C310.514 129.109 310.996 129.303 311.66 129.303C312.215 129.303 312.648 129.078 312.961 128.629C313.277 128.18 313.436 127.561 313.436 126.771C313.436 125.971 313.277 125.357 312.961 124.932C312.648 124.502 312.207 124.287 311.637 124.287ZM320.291 128.248C320.291 128.846 320.068 129.307 319.623 129.631C319.178 129.955 318.553 130.117 317.748 130.117C316.896 130.117 316.232 129.982 315.756 129.713V128.811C316.064 128.967 316.395 129.09 316.746 129.18C317.102 129.27 317.443 129.314 317.771 129.314C318.279 129.314 318.67 129.234 318.943 129.074C319.217 128.91 319.354 128.662 319.354 128.33C319.354 128.08 319.244 127.867 319.025 127.691C318.811 127.512 318.389 127.301 317.76 127.059C317.162 126.836 316.736 126.643 316.482 126.479C316.232 126.311 316.045 126.121 315.92 125.91C315.799 125.699 315.738 125.447 315.738 125.154C315.738 124.631 315.951 124.219 316.377 123.918C316.803 123.613 317.387 123.461 318.129 123.461C318.82 123.461 319.496 123.602 320.156 123.883L319.811 124.674C319.166 124.408 318.582 124.275 318.059 124.275C317.598 124.275 317.25 124.348 317.016 124.492C316.781 124.637 316.664 124.836 316.664 125.09C316.664 125.262 316.707 125.408 316.793 125.529C316.883 125.65 317.025 125.766 317.221 125.875C317.416 125.984 317.791 126.143 318.346 126.35C319.107 126.627 319.621 126.906 319.887 127.188C320.156 127.469 320.291 127.822 320.291 128.248Z" fill="#0A2535"/>
<path d="M260.227 144.201C259.285 144.201 258.541 144.516 257.994 145.145C257.451 145.77 257.18 146.627 257.18 147.717C257.18 148.838 257.441 149.705 257.965 150.318C258.492 150.928 259.242 151.232 260.215 151.232C260.812 151.232 261.494 151.125 262.26 150.91V151.783C261.666 152.006 260.934 152.117 260.062 152.117C258.801 152.117 257.826 151.734 257.139 150.969C256.455 150.203 256.113 149.115 256.113 147.705C256.113 146.822 256.277 146.049 256.605 145.385C256.938 144.721 257.414 144.209 258.035 143.85C258.66 143.49 259.395 143.311 260.238 143.311C261.137 143.311 261.922 143.475 262.594 143.803L262.172 144.658C261.523 144.354 260.875 144.201 260.227 144.201ZM267.932 152L267.738 151.086H267.691C267.371 151.488 267.051 151.762 266.73 151.906C266.414 152.047 266.018 152.117 265.541 152.117C264.904 152.117 264.404 151.953 264.041 151.625C263.682 151.297 263.502 150.83 263.502 150.225C263.502 148.928 264.539 148.248 266.613 148.186L267.703 148.15V147.752C267.703 147.248 267.594 146.877 267.375 146.639C267.16 146.396 266.814 146.275 266.338 146.275C265.803 146.275 265.197 146.439 264.521 146.768L264.223 146.023C264.539 145.852 264.885 145.717 265.26 145.619C265.639 145.521 266.018 145.473 266.396 145.473C267.162 145.473 267.729 145.643 268.096 145.982C268.467 146.322 268.652 146.867 268.652 147.617V152H267.932ZM265.734 151.314C266.34 151.314 266.814 151.148 267.158 150.816C267.506 150.484 267.68 150.02 267.68 149.422V148.842L266.707 148.883C265.934 148.91 265.375 149.031 265.031 149.246C264.691 149.457 264.521 149.787 264.521 150.236C264.521 150.588 264.627 150.855 264.838 151.039C265.053 151.223 265.352 151.314 265.734 151.314ZM274.805 150.248C274.805 150.846 274.582 151.307 274.137 151.631C273.691 151.955 273.066 152.117 272.262 152.117C271.41 152.117 270.746 151.982 270.27 151.713V150.811C270.578 150.967 270.908 151.09 271.26 151.18C271.615 151.27 271.957 151.314 272.285 151.314C272.793 151.314 273.184 151.234 273.457 151.074C273.73 150.91 273.867 150.662 273.867 150.33C273.867 150.08 273.758 149.867 273.539 149.691C273.324 149.512 272.902 149.301 272.273 149.059C271.676 148.836 271.25 148.643 270.996 148.479C270.746 148.311 270.559 148.121 270.434 147.91C270.312 147.699 270.252 147.447 270.252 147.154C270.252 146.631 270.465 146.219 270.891 145.918C271.316 145.613 271.9 145.461 272.643 145.461C273.334 145.461 274.01 145.602 274.67 145.883L274.324 146.674C273.68 146.408 273.096 146.275 272.572 146.275C272.111 146.275 271.764 146.348 271.529 146.492C271.295 146.637 271.178 146.836 271.178 147.09C271.178 147.262 271.221 147.408 271.307 147.529C271.396 147.65 271.539 147.766 271.734 147.875C271.93 147.984 272.305 148.143 272.859 148.35C273.621 148.627 274.135 148.906 274.4 149.188C274.67 149.469 274.805 149.822 274.805 150.248ZM280.787 152V147.846C280.787 147.322 280.668 146.932 280.43 146.674C280.191 146.416 279.818 146.287 279.311 146.287C278.635 146.287 278.141 146.471 277.828 146.838C277.52 147.205 277.365 147.807 277.365 148.643V152H276.393V142.883H277.365V145.643C277.365 145.975 277.35 146.25 277.318 146.469H277.377C277.568 146.16 277.84 145.918 278.191 145.742C278.547 145.562 278.951 145.473 279.404 145.473C280.189 145.473 280.777 145.66 281.168 146.035C281.562 146.406 281.76 146.998 281.76 147.811V152H280.787ZM289.664 152H288.668V144.318H285.955V143.434H292.377V144.318H289.664V152ZM294.498 152H293.525V145.578H294.498V152ZM293.443 143.838C293.443 143.615 293.498 143.453 293.607 143.352C293.717 143.246 293.854 143.193 294.018 143.193C294.174 143.193 294.309 143.246 294.422 143.352C294.535 143.457 294.592 143.619 294.592 143.838C294.592 144.057 294.535 144.221 294.422 144.33C294.309 144.436 294.174 144.488 294.018 144.488C293.854 144.488 293.717 144.436 293.607 144.33C293.498 144.221 293.443 144.057 293.443 143.838ZM299.549 152.117C299.131 152.117 298.748 152.041 298.4 151.889C298.057 151.732 297.768 151.494 297.533 151.174H297.463C297.51 151.549 297.533 151.904 297.533 152.24V154.883H296.561V145.578H297.352L297.486 146.457H297.533C297.783 146.105 298.074 145.852 298.406 145.695C298.738 145.539 299.119 145.461 299.549 145.461C300.4 145.461 301.057 145.752 301.518 146.334C301.982 146.916 302.215 147.732 302.215 148.783C302.215 149.838 301.979 150.658 301.506 151.244C301.037 151.826 300.385 152.117 299.549 152.117ZM299.408 146.287C298.752 146.287 298.277 146.469 297.984 146.832C297.691 147.195 297.541 147.773 297.533 148.566V148.783C297.533 149.686 297.684 150.332 297.984 150.723C298.285 151.109 298.768 151.303 299.432 151.303C299.986 151.303 300.42 151.078 300.732 150.629C301.049 150.18 301.207 149.561 301.207 148.771C301.207 147.971 301.049 147.357 300.732 146.932C300.42 146.502 299.979 146.287 299.408 146.287ZM308.062 150.248C308.062 150.846 307.84 151.307 307.395 151.631C306.949 151.955 306.324 152.117 305.52 152.117C304.668 152.117 304.004 151.982 303.527 151.713V150.811C303.836 150.967 304.166 151.09 304.518 151.18C304.873 151.27 305.215 151.314 305.543 151.314C306.051 151.314 306.441 151.234 306.715 151.074C306.988 150.91 307.125 150.662 307.125 150.33C307.125 150.08 307.016 149.867 306.797 149.691C306.582 149.512 306.16 149.301 305.531 149.059C304.934 148.836 304.508 148.643 304.254 148.479C304.004 148.311 303.816 148.121 303.691 147.91C303.57 147.699 303.51 147.447 303.51 147.154C303.51 146.631 303.723 146.219 304.148 145.918C304.574 145.613 305.158 145.461 305.9 145.461C306.592 145.461 307.268 145.602 307.928 145.883L307.582 146.674C306.938 146.408 306.354 146.275 305.83 146.275C305.369 146.275 305.021 146.348 304.787 146.492C304.553 146.637 304.436 146.836 304.436 147.09C304.436 147.262 304.479 147.408 304.564 147.529C304.654 147.65 304.797 147.766 304.992 147.875C305.188 147.984 305.562 148.143 306.117 148.35C306.879 148.627 307.393 148.906 307.658 149.188C307.928 149.469 308.062 149.822 308.062 150.248Z" fill="#0A2535"/>
<rect x="385" y="78" width="178" height="115" fill="white" stroke="#68C6A4" stroke-width="2"/>
<path d="M457.867 108H456V98.1797H452.641V96.5781H461.227V98.1797H457.867V108ZM468.195 108L467.828 106.797H467.766C467.349 107.323 466.93 107.682 466.508 107.875C466.086 108.062 465.544 108.156 464.883 108.156C464.034 108.156 463.37 107.927 462.891 107.469C462.417 107.01 462.18 106.362 462.18 105.523C462.18 104.633 462.51 103.961 463.172 103.508C463.833 103.055 464.841 102.807 466.195 102.766L467.688 102.719V102.258C467.688 101.706 467.557 101.294 467.297 101.023C467.042 100.747 466.643 100.609 466.102 100.609C465.659 100.609 465.234 100.674 464.828 100.805C464.422 100.935 464.031 101.089 463.656 101.266L463.062 99.9531C463.531 99.7083 464.044 99.5234 464.602 99.3984C465.159 99.2682 465.685 99.2031 466.18 99.2031C467.279 99.2031 468.107 99.4427 468.664 99.9219C469.227 100.401 469.508 101.154 469.508 102.18V108H468.195ZM465.461 106.75C466.128 106.75 466.661 106.565 467.062 106.195C467.469 105.82 467.672 105.297 467.672 104.625V103.875L466.562 103.922C465.698 103.953 465.068 104.099 464.672 104.359C464.281 104.615 464.086 105.008 464.086 105.539C464.086 105.924 464.201 106.224 464.43 106.438C464.659 106.646 465.003 106.75 465.461 106.75ZM473.992 103.586L471.094 99.3594H473.188L475.156 102.383L477.141 99.3594H479.219L476.312 103.586L479.367 108H477.289L475.156 104.766L473.031 108H470.953L473.992 103.586ZM484.656 108.156C483.312 108.156 482.26 107.766 481.5 106.984C480.745 106.198 480.367 105.117 480.367 103.742C480.367 102.331 480.719 101.221 481.422 100.414C482.125 99.6068 483.091 99.2031 484.32 99.2031C485.461 99.2031 486.362 99.5495 487.023 100.242C487.685 100.935 488.016 101.888 488.016 103.102V104.094H482.258C482.284 104.932 482.51 105.578 482.938 106.031C483.365 106.479 483.966 106.703 484.742 106.703C485.253 106.703 485.727 106.656 486.164 106.562C486.607 106.464 487.081 106.302 487.586 106.078V107.57C487.138 107.784 486.685 107.935 486.227 108.023C485.768 108.112 485.245 108.156 484.656 108.156ZM484.32 100.594C483.737 100.594 483.268 100.779 482.914 101.148C482.565 101.518 482.357 102.057 482.289 102.766H486.211C486.201 102.052 486.029 101.513 485.695 101.148C485.362 100.779 484.904 100.594 484.32 100.594ZM495.906 105.539C495.906 106.383 495.599 107.031 494.984 107.484C494.37 107.932 493.49 108.156 492.344 108.156C491.193 108.156 490.268 107.982 489.57 107.633V106.047C490.586 106.516 491.531 106.75 492.406 106.75C493.536 106.75 494.102 106.409 494.102 105.727C494.102 105.508 494.039 105.326 493.914 105.18C493.789 105.034 493.583 104.883 493.297 104.727C493.01 104.57 492.612 104.393 492.102 104.195C491.107 103.81 490.432 103.424 490.078 103.039C489.729 102.654 489.555 102.154 489.555 101.539C489.555 100.799 489.852 100.227 490.445 99.8203C491.044 99.4089 491.857 99.2031 492.883 99.2031C493.898 99.2031 494.859 99.4089 495.766 99.8203L495.172 101.203C494.24 100.818 493.456 100.625 492.82 100.625C491.852 100.625 491.367 100.901 491.367 101.453C491.367 101.724 491.492 101.953 491.742 102.141C491.997 102.328 492.549 102.586 493.398 102.914C494.112 103.19 494.63 103.443 494.953 103.672C495.276 103.901 495.516 104.167 495.672 104.469C495.828 104.766 495.906 105.122 495.906 105.539Z" fill="#0A2535"/>
<path d="M444.107 130H443.123L441.395 124.264C441.312 124.01 441.221 123.689 441.119 123.303C441.018 122.916 440.965 122.684 440.961 122.605C440.875 123.121 440.738 123.686 440.551 124.299L438.875 130H437.891L435.611 121.434H436.666L438.02 126.725C438.207 127.467 438.344 128.139 438.43 128.74C438.535 128.025 438.691 127.326 438.898 126.643L440.434 121.434H441.488L443.1 126.689C443.287 127.295 443.445 127.979 443.574 128.74C443.648 128.186 443.789 127.51 443.996 126.713L445.344 121.434H446.398L444.107 130ZM453.137 126.783C453.137 127.83 452.873 128.648 452.346 129.238C451.818 129.824 451.09 130.117 450.16 130.117C449.586 130.117 449.076 129.982 448.631 129.713C448.186 129.443 447.842 129.057 447.6 128.553C447.357 128.049 447.236 127.459 447.236 126.783C447.236 125.736 447.498 124.922 448.021 124.34C448.545 123.754 449.271 123.461 450.201 123.461C451.1 123.461 451.812 123.76 452.34 124.357C452.871 124.955 453.137 125.764 453.137 126.783ZM448.244 126.783C448.244 127.604 448.408 128.229 448.736 128.658C449.064 129.088 449.547 129.303 450.184 129.303C450.82 129.303 451.303 129.09 451.631 128.664C451.963 128.234 452.129 127.607 452.129 126.783C452.129 125.967 451.963 125.348 451.631 124.926C451.303 124.5 450.816 124.287 450.172 124.287C449.535 124.287 449.055 124.496 448.73 124.914C448.406 125.332 448.244 125.955 448.244 126.783ZM457.777 123.461C458.062 123.461 458.318 123.484 458.545 123.531L458.41 124.434C458.145 124.375 457.91 124.346 457.707 124.346C457.188 124.346 456.742 124.557 456.371 124.979C456.004 125.4 455.82 125.926 455.82 126.555V130H454.848V123.578H455.65L455.762 124.768H455.809C456.047 124.35 456.334 124.027 456.67 123.801C457.006 123.574 457.375 123.461 457.777 123.461ZM460.707 126.713C460.875 126.475 461.131 126.162 461.475 125.775L463.549 123.578H464.703L462.102 126.314L464.885 130H463.707L461.439 126.965L460.707 127.598V130H459.746V120.883H460.707V125.717C460.707 125.932 460.691 126.264 460.66 126.713H460.707ZM474.699 130L473.633 127.275H470.199L469.145 130H468.137L471.523 121.398H472.361L475.73 130H474.699ZM473.322 126.379L472.326 123.725C472.197 123.389 472.064 122.977 471.928 122.488C471.842 122.863 471.719 123.275 471.559 123.725L470.551 126.379H473.322ZM481.133 129.139H481.08C480.631 129.791 479.959 130.117 479.064 130.117C478.225 130.117 477.57 129.83 477.102 129.256C476.637 128.682 476.404 127.865 476.404 126.807C476.404 125.748 476.639 124.926 477.107 124.34C477.576 123.754 478.229 123.461 479.064 123.461C479.936 123.461 480.604 123.777 481.068 124.41H481.145L481.104 123.947L481.08 123.496V120.883H482.053V130H481.262L481.133 129.139ZM479.188 129.303C479.852 129.303 480.332 129.123 480.629 128.764C480.93 128.4 481.08 127.816 481.08 127.012V126.807C481.08 125.896 480.928 125.248 480.623 124.861C480.322 124.471 479.84 124.275 479.176 124.275C478.605 124.275 478.168 124.498 477.863 124.943C477.562 125.385 477.412 126.01 477.412 126.818C477.412 127.639 477.562 128.258 477.863 128.676C478.164 129.094 478.605 129.303 479.188 129.303ZM488.492 129.139H488.439C487.99 129.791 487.318 130.117 486.424 130.117C485.584 130.117 484.93 129.83 484.461 129.256C483.996 128.682 483.764 127.865 483.764 126.807C483.764 125.748 483.998 124.926 484.467 124.34C484.936 123.754 485.588 123.461 486.424 123.461C487.295 123.461 487.963 123.777 488.428 124.41H488.504L488.463 123.947L488.439 123.496V120.883H489.412V130H488.621L488.492 129.139ZM486.547 129.303C487.211 129.303 487.691 129.123 487.988 128.764C488.289 128.4 488.439 127.816 488.439 127.012V126.807C488.439 125.896 488.287 125.248 487.982 124.861C487.682 124.471 487.199 124.275 486.535 124.275C485.965 124.275 485.527 124.498 485.223 124.943C484.922 125.385 484.771 126.01 484.771 126.818C484.771 127.639 484.922 128.258 485.223 128.676C485.523 129.094 485.965 129.303 486.547 129.303ZM494.41 123.461C494.695 123.461 494.951 123.484 495.178 123.531L495.043 124.434C494.777 124.375 494.543 124.346 494.34 124.346C493.82 124.346 493.375 124.557 493.004 124.979C492.637 125.4 492.453 125.926 492.453 126.555V130H491.48V123.578H492.283L492.395 124.768H492.441C492.68 124.35 492.967 124.027 493.303 123.801C493.639 123.574 494.008 123.461 494.41 123.461ZM499.092 130.117C498.143 130.117 497.393 129.828 496.842 129.25C496.295 128.672 496.021 127.869 496.021 126.842C496.021 125.807 496.275 124.984 496.783 124.375C497.295 123.766 497.98 123.461 498.84 123.461C499.645 123.461 500.281 123.727 500.75 124.258C501.219 124.785 501.453 125.482 501.453 126.35V126.965H497.029C497.049 127.719 497.238 128.291 497.598 128.682C497.961 129.072 498.471 129.268 499.127 129.268C499.818 129.268 500.502 129.123 501.178 128.834V129.701C500.834 129.85 500.508 129.955 500.199 130.018C499.895 130.084 499.525 130.117 499.092 130.117ZM498.828 124.275C498.312 124.275 497.9 124.443 497.592 124.779C497.287 125.115 497.107 125.58 497.053 126.174H500.41C500.41 125.561 500.273 125.092 500 124.768C499.727 124.439 499.336 124.275 498.828 124.275ZM507.26 128.248C507.26 128.846 507.037 129.307 506.592 129.631C506.146 129.955 505.521 130.117 504.717 130.117C503.865 130.117 503.201 129.982 502.725 129.713V128.811C503.033 128.967 503.363 129.09 503.715 129.18C504.07 129.27 504.412 129.314 504.74 129.314C505.248 129.314 505.639 129.234 505.912 129.074C506.186 128.91 506.322 128.662 506.322 128.33C506.322 128.08 506.213 127.867 505.994 127.691C505.779 127.512 505.357 127.301 504.729 127.059C504.131 126.836 503.705 126.643 503.451 126.479C503.201 126.311 503.014 126.121 502.889 125.91C502.768 125.699 502.707 125.447 502.707 125.154C502.707 124.631 502.92 124.219 503.346 123.918C503.771 123.613 504.355 123.461 505.098 123.461C505.789 123.461 506.465 123.602 507.125 123.883L506.779 124.674C506.135 124.408 505.551 124.275 505.027 124.275C504.566 124.275 504.219 124.348 503.984 124.492C503.75 124.637 503.633 124.836 503.633 125.09C503.633 125.262 503.676 125.408 503.762 125.529C503.852 125.65 503.994 125.766 504.189 125.875C504.385 125.984 504.76 126.143 505.314 126.35C506.076 126.627 506.59 126.906 506.855 127.188C507.125 127.469 507.26 127.822 507.26 128.248ZM512.99 128.248C512.99 128.846 512.768 129.307 512.322 129.631C511.877 129.955 511.252 130.117 510.447 130.117C509.596 130.117 508.932 129.982 508.455 129.713V128.811C508.764 128.967 509.094 129.09 509.445 129.18C509.801 129.27 510.143 129.314 510.471 129.314C510.979 129.314 511.369 129.234 511.643 129.074C511.916 128.91 512.053 128.662 512.053 128.33C512.053 128.08 511.943 127.867 511.725 127.691C511.51 127.512 511.088 127.301 510.459 127.059C509.861 126.836 509.436 126.643 509.182 126.479C508.932 126.311 508.744 126.121 508.619 125.91C508.498 125.699 508.438 125.447 508.438 125.154C508.438 124.631 508.65 124.219 509.076 123.918C509.502 123.613 510.086 123.461 510.828 123.461C511.52 123.461 512.195 123.602 512.855 123.883L512.51 124.674C511.865 124.408 511.281 124.275 510.758 124.275C510.297 124.275 509.949 124.348 509.715 124.492C509.48 124.637 509.363 124.836 509.363 125.09C509.363 125.262 509.406 125.408 509.492 125.529C509.582 125.65 509.725 125.766 509.92 125.875C510.115 125.984 510.49 126.143 511.045 126.35C511.807 126.627 512.32 126.906 512.586 127.188C512.855 127.469 512.99 127.822 512.99 128.248Z" fill="#0A2535"/>
<path d="M440.908 152H439.912V147.969H435.4V152H434.404V143.434H435.4V147.078H439.912V143.434H440.908V152ZM448.66 148.783C448.66 149.83 448.396 150.648 447.869 151.238C447.342 151.824 446.613 152.117 445.684 152.117C445.109 152.117 444.6 151.982 444.154 151.713C443.709 151.443 443.365 151.057 443.123 150.553C442.881 150.049 442.76 149.459 442.76 148.783C442.76 147.736 443.021 146.922 443.545 146.34C444.068 145.754 444.795 145.461 445.725 145.461C446.623 145.461 447.336 145.76 447.863 146.357C448.395 146.955 448.66 147.764 448.66 148.783ZM443.768 148.783C443.768 149.604 443.932 150.229 444.26 150.658C444.588 151.088 445.07 151.303 445.707 151.303C446.344 151.303 446.826 151.09 447.154 150.664C447.486 150.234 447.652 149.607 447.652 148.783C447.652 147.967 447.486 147.348 447.154 146.926C446.826 146.5 446.34 146.287 445.695 146.287C445.059 146.287 444.578 146.496 444.254 146.914C443.93 147.332 443.768 147.955 443.768 148.783ZM458.557 152V147.822C458.557 147.311 458.447 146.928 458.229 146.674C458.01 146.416 457.67 146.287 457.209 146.287C456.604 146.287 456.156 146.461 455.867 146.809C455.578 147.156 455.434 147.691 455.434 148.414V152H454.461V147.822C454.461 147.311 454.352 146.928 454.133 146.674C453.914 146.416 453.572 146.287 453.107 146.287C452.498 146.287 452.051 146.471 451.766 146.838C451.484 147.201 451.344 147.799 451.344 148.631V152H450.371V145.578H451.162L451.32 146.457H451.367C451.551 146.145 451.809 145.9 452.141 145.725C452.477 145.549 452.852 145.461 453.266 145.461C454.27 145.461 454.926 145.824 455.234 146.551H455.281C455.473 146.215 455.75 145.949 456.113 145.754C456.477 145.559 456.891 145.461 457.355 145.461C458.082 145.461 458.625 145.648 458.984 146.023C459.348 146.395 459.529 146.99 459.529 147.811V152H458.557ZM464.252 152.117C463.303 152.117 462.553 151.828 462.002 151.25C461.455 150.672 461.182 149.869 461.182 148.842C461.182 147.807 461.436 146.984 461.943 146.375C462.455 145.766 463.141 145.461 464 145.461C464.805 145.461 465.441 145.727 465.91 146.258C466.379 146.785 466.613 147.482 466.613 148.35V148.965H462.189C462.209 149.719 462.398 150.291 462.758 150.682C463.121 151.072 463.631 151.268 464.287 151.268C464.979 151.268 465.662 151.123 466.338 150.834V151.701C465.994 151.85 465.668 151.955 465.359 152.018C465.055 152.084 464.686 152.117 464.252 152.117ZM463.988 146.275C463.473 146.275 463.061 146.443 462.752 146.779C462.447 147.115 462.268 147.58 462.213 148.174H465.57C465.57 147.561 465.434 147.092 465.16 146.768C464.887 146.439 464.496 146.275 463.988 146.275ZM476.926 152L475.859 149.275H472.426L471.371 152H470.363L473.75 143.398H474.588L477.957 152H476.926ZM475.549 148.379L474.553 145.725C474.424 145.389 474.291 144.977 474.154 144.488C474.068 144.863 473.945 145.275 473.785 145.725L472.777 148.379H475.549ZM483.359 151.139H483.307C482.857 151.791 482.186 152.117 481.291 152.117C480.451 152.117 479.797 151.83 479.328 151.256C478.863 150.682 478.631 149.865 478.631 148.807C478.631 147.748 478.865 146.926 479.334 146.34C479.803 145.754 480.455 145.461 481.291 145.461C482.162 145.461 482.83 145.777 483.295 146.41H483.371L483.33 145.947L483.307 145.496V142.883H484.279V152H483.488L483.359 151.139ZM481.414 151.303C482.078 151.303 482.559 151.123 482.855 150.764C483.156 150.4 483.307 149.816 483.307 149.012V148.807C483.307 147.896 483.154 147.248 482.85 146.861C482.549 146.471 482.066 146.275 481.402 146.275C480.832 146.275 480.395 146.498 480.09 146.943C479.789 147.385 479.639 148.01 479.639 148.818C479.639 149.639 479.789 150.258 480.09 150.676C480.391 151.094 480.832 151.303 481.414 151.303ZM490.719 151.139H490.666C490.217 151.791 489.545 152.117 488.65 152.117C487.811 152.117 487.156 151.83 486.688 151.256C486.223 150.682 485.99 149.865 485.99 148.807C485.99 147.748 486.225 146.926 486.693 146.34C487.162 145.754 487.814 145.461 488.65 145.461C489.521 145.461 490.189 145.777 490.654 146.41H490.73L490.689 145.947L490.666 145.496V142.883H491.639V152H490.848L490.719 151.139ZM488.773 151.303C489.438 151.303 489.918 151.123 490.215 150.764C490.516 150.4 490.666 149.816 490.666 149.012V148.807C490.666 147.896 490.514 147.248 490.209 146.861C489.908 146.471 489.426 146.275 488.762 146.275C488.191 146.275 487.754 146.498 487.449 146.943C487.148 147.385 486.998 148.01 486.998 148.818C486.998 149.639 487.148 150.258 487.449 150.676C487.75 151.094 488.191 151.303 488.773 151.303ZM496.637 145.461C496.922 145.461 497.178 145.484 497.404 145.531L497.27 146.434C497.004 146.375 496.77 146.346 496.566 146.346C496.047 146.346 495.602 146.557 495.23 146.979C494.863 147.4 494.68 147.926 494.68 148.555V152H493.707V145.578H494.51L494.621 146.768H494.668C494.906 146.35 495.193 146.027 495.529 145.801C495.865 145.574 496.234 145.461 496.637 145.461ZM501.318 152.117C500.369 152.117 499.619 151.828 499.068 151.25C498.521 150.672 498.248 149.869 498.248 148.842C498.248 147.807 498.502 146.984 499.01 146.375C499.521 145.766 500.207 145.461 501.066 145.461C501.871 145.461 502.508 145.727 502.977 146.258C503.445 146.785 503.68 147.482 503.68 148.35V148.965H499.256C499.275 149.719 499.465 150.291 499.824 150.682C500.188 151.072 500.697 151.268 501.354 151.268C502.045 151.268 502.729 151.123 503.404 150.834V151.701C503.061 151.85 502.734 151.955 502.426 152.018C502.121 152.084 501.752 152.117 501.318 152.117ZM501.055 146.275C500.539 146.275 500.127 146.443 499.818 146.779C499.514 147.115 499.334 147.58 499.279 148.174H502.637C502.637 147.561 502.5 147.092 502.227 146.768C501.953 146.439 501.562 146.275 501.055 146.275ZM509.486 150.248C509.486 150.846 509.264 151.307 508.818 151.631C508.373 151.955 507.748 152.117 506.943 152.117C506.092 152.117 505.428 151.982 504.951 151.713V150.811C505.26 150.967 505.59 151.09 505.941 151.18C506.297 151.27 506.639 151.314 506.967 151.314C507.475 151.314 507.865 151.234 508.139 151.074C508.412 150.91 508.549 150.662 508.549 150.33C508.549 150.08 508.439 149.867 508.221 149.691C508.006 149.512 507.584 149.301 506.955 149.059C506.357 148.836 505.932 148.643 505.678 148.479C505.428 148.311 505.24 148.121 505.115 147.91C504.994 147.699 504.934 147.447 504.934 147.154C504.934 146.631 505.146 146.219 505.572 145.918C505.998 145.613 506.582 145.461 507.324 145.461C508.016 145.461 508.691 145.602 509.352 145.883L509.006 146.674C508.361 146.408 507.777 146.275 507.254 146.275C506.793 146.275 506.445 146.348 506.211 146.492C505.977 146.637 505.859 146.836 505.859 147.09C505.859 147.262 505.902 147.408 505.988 147.529C506.078 147.65 506.221 147.766 506.416 147.875C506.611 147.984 506.986 148.143 507.541 148.35C508.303 148.627 508.816 148.906 509.082 149.188C509.352 149.469 509.486 149.822 509.486 150.248ZM515.217 150.248C515.217 150.846 514.994 151.307 514.549 151.631C514.104 151.955 513.479 152.117 512.674 152.117C511.822 152.117 511.158 151.982 510.682 151.713V150.811C510.99 150.967 511.32 151.09 511.672 151.18C512.027 151.27 512.369 151.314 512.697 151.314C513.205 151.314 513.596 151.234 513.869 151.074C514.143 150.91 514.279 150.662 514.279 150.33C514.279 150.08 514.17 149.867 513.951 149.691C513.736 149.512 513.314 149.301 512.686 149.059C512.088 148.836 511.662 148.643 511.408 148.479C511.158 148.311 510.971 148.121 510.846 147.91C510.725 147.699 510.664 147.447 510.664 147.154C510.664 146.631 510.877 146.219 511.303 145.918C511.729 145.613 512.312 145.461 513.055 145.461C513.746 145.461 514.422 145.602 515.082 145.883L514.736 146.674C514.092 146.408 513.508 146.275 512.984 146.275C512.523 146.275 512.176 146.348 511.941 146.492C511.707 146.637 511.59 146.836 511.59 147.09C511.59 147.262 511.633 147.408 511.719 147.529C511.809 147.65 511.951 147.766 512.146 147.875C512.342 147.984 512.717 148.143 513.271 148.35C514.033 148.627 514.547 148.906 514.812 149.188C515.082 149.469 515.217 149.822 515.217 150.248Z" fill="#0A2535"/>
</svg>
