<svg width="564" height="218" viewBox="0 0 564 218" fill="none" xmlns="http://www.w3.org/2000/svg">
<line x1="280.5" y1="110" x2="280.5" y2="44" stroke="#0A2535"/>
<rect x="400" y="111" width="163" height="106" fill="white" stroke="#68C6A4" stroke-width="2"/>
<path d="M454.867 126.578H458.258C459.831 126.578 460.966 126.807 461.664 127.266C462.367 127.724 462.719 128.448 462.719 129.438C462.719 130.104 462.547 130.659 462.203 131.102C461.859 131.544 461.365 131.823 460.719 131.938V132.016C461.521 132.167 462.109 132.466 462.484 132.914C462.865 133.357 463.055 133.958 463.055 134.719C463.055 135.745 462.695 136.549 461.977 137.133C461.263 137.711 460.268 138 458.992 138H454.867V126.578ZM456.734 131.297H458.531C459.312 131.297 459.883 131.174 460.242 130.93C460.602 130.68 460.781 130.258 460.781 129.664C460.781 129.128 460.586 128.74 460.195 128.5C459.81 128.26 459.195 128.141 458.352 128.141H456.734V131.297ZM456.734 132.812V136.43H458.719C459.5 136.43 460.089 136.281 460.484 135.984C460.885 135.682 461.086 135.208 461.086 134.562C461.086 133.969 460.883 133.529 460.477 133.242C460.07 132.956 459.453 132.812 458.625 132.812H456.734ZM470.641 138L470.273 136.797H470.211C469.794 137.323 469.375 137.682 468.953 137.875C468.531 138.062 467.99 138.156 467.328 138.156C466.479 138.156 465.815 137.927 465.336 137.469C464.862 137.01 464.625 136.362 464.625 135.523C464.625 134.633 464.956 133.961 465.617 133.508C466.279 133.055 467.286 132.807 468.641 132.766L470.133 132.719V132.258C470.133 131.706 470.003 131.294 469.742 131.023C469.487 130.747 469.089 130.609 468.547 130.609C468.104 130.609 467.68 130.674 467.273 130.805C466.867 130.935 466.477 131.089 466.102 131.266L465.508 129.953C465.977 129.708 466.49 129.523 467.047 129.398C467.604 129.268 468.13 129.203 468.625 129.203C469.724 129.203 470.552 129.443 471.109 129.922C471.672 130.401 471.953 131.154 471.953 132.18V138H470.641ZM467.906 136.75C468.573 136.75 469.107 136.565 469.508 136.195C469.914 135.82 470.117 135.297 470.117 134.625V133.875L469.008 133.922C468.143 133.953 467.513 134.099 467.117 134.359C466.727 134.615 466.531 135.008 466.531 135.539C466.531 135.924 466.646 136.224 466.875 136.438C467.104 136.646 467.448 136.75 467.906 136.75ZM482.117 138H480.273V132.688C480.273 132.021 480.138 131.523 479.867 131.195C479.602 130.867 479.177 130.703 478.594 130.703C477.818 130.703 477.25 130.932 476.891 131.391C476.531 131.849 476.352 132.617 476.352 133.695V138H474.516V129.359H475.953L476.211 130.492H476.305C476.565 130.081 476.935 129.763 477.414 129.539C477.893 129.315 478.424 129.203 479.008 129.203C481.081 129.203 482.117 130.258 482.117 132.367V138ZM492.273 138H490.43V132.688C490.43 132.021 490.294 131.523 490.023 131.195C489.758 130.867 489.333 130.703 488.75 130.703C487.974 130.703 487.406 130.932 487.047 131.391C486.688 131.849 486.508 132.617 486.508 133.695V138H484.672V129.359H486.109L486.367 130.492H486.461C486.721 130.081 487.091 129.763 487.57 129.539C488.049 129.315 488.581 129.203 489.164 129.203C491.237 129.203 492.273 130.258 492.273 132.367V138ZM498.602 138.156C497.258 138.156 496.206 137.766 495.445 136.984C494.69 136.198 494.312 135.117 494.312 133.742C494.312 132.331 494.664 131.221 495.367 130.414C496.07 129.607 497.036 129.203 498.266 129.203C499.406 129.203 500.307 129.549 500.969 130.242C501.63 130.935 501.961 131.888 501.961 133.102V134.094H496.203C496.229 134.932 496.456 135.578 496.883 136.031C497.31 136.479 497.911 136.703 498.688 136.703C499.198 136.703 499.672 136.656 500.109 136.562C500.552 136.464 501.026 136.302 501.531 136.078V137.57C501.083 137.784 500.63 137.935 500.172 138.023C499.714 138.112 499.19 138.156 498.602 138.156ZM498.266 130.594C497.682 130.594 497.214 130.779 496.859 131.148C496.51 131.518 496.302 132.057 496.234 132.766H500.156C500.146 132.052 499.974 131.513 499.641 131.148C499.307 130.779 498.849 130.594 498.266 130.594ZM508.43 129.203C508.799 129.203 509.104 129.229 509.344 129.281L509.164 130.992C508.904 130.93 508.633 130.898 508.352 130.898C507.617 130.898 507.021 131.138 506.562 131.617C506.109 132.096 505.883 132.719 505.883 133.484V138H504.047V129.359H505.484L505.727 130.883H505.82C506.107 130.367 506.479 129.958 506.938 129.656C507.401 129.354 507.898 129.203 508.43 129.203Z" fill="#0A2535"/>
<line x1="480.5" y1="110" x2="480.5" y2="77" stroke="#0A2535"/>
<rect x="200" y="1" width="163" height="42" fill="white" stroke="#68C6A4" stroke-width="2"/>
<path d="M246.391 28H244.102L238.484 18.8984H238.422L238.461 19.4062C238.534 20.375 238.57 21.2604 238.57 22.0625V28H236.875V16.5781H239.141L244.742 25.6328H244.789C244.779 25.513 244.758 25.0781 244.727 24.3281C244.695 23.5729 244.68 22.9844 244.68 22.5625V16.5781H246.391V28ZM256.875 23.6641C256.875 25.0755 256.513 26.1771 255.789 26.9688C255.065 27.7604 254.057 28.1562 252.766 28.1562C251.958 28.1562 251.245 27.974 250.625 27.6094C250.005 27.2448 249.529 26.7214 249.195 26.0391C248.862 25.3568 248.695 24.5651 248.695 23.6641C248.695 22.263 249.055 21.1693 249.773 20.3828C250.492 19.5964 251.505 19.2031 252.812 19.2031C254.062 19.2031 255.052 19.6068 255.781 20.4141C256.51 21.2161 256.875 22.2995 256.875 23.6641ZM250.586 23.6641C250.586 25.6589 251.323 26.6562 252.797 26.6562C254.255 26.6562 254.984 25.6589 254.984 23.6641C254.984 21.6901 254.25 20.7031 252.781 20.7031C252.01 20.7031 251.451 20.9583 251.102 21.4688C250.758 21.9792 250.586 22.7109 250.586 23.6641ZM262.211 26.6719C262.659 26.6719 263.107 26.6016 263.555 26.4609V27.8438C263.352 27.9323 263.089 28.0052 262.766 28.0625C262.448 28.125 262.117 28.1562 261.773 28.1562C260.034 28.1562 259.164 27.2396 259.164 25.4062V20.75H257.984V19.9375L259.25 19.2656L259.875 17.4375H261.008V19.3594H263.469V20.75H261.008V25.375C261.008 25.8177 261.117 26.1458 261.336 26.3594C261.56 26.5677 261.852 26.6719 262.211 26.6719ZM267.125 28H265.289V19.3594H267.125V28ZM265.18 17.0703C265.18 16.7422 265.268 16.4896 265.445 16.3125C265.628 16.1354 265.885 16.0469 266.219 16.0469C266.542 16.0469 266.792 16.1354 266.969 16.3125C267.151 16.4896 267.242 16.7422 267.242 17.0703C267.242 17.3828 267.151 17.6302 266.969 17.8125C266.792 17.9896 266.542 18.0781 266.219 18.0781C265.885 18.0781 265.628 17.9896 265.445 17.8125C265.268 17.6302 265.18 17.3828 265.18 17.0703ZM274.094 20.75H271.984V28H270.141V20.75H268.719V19.8906L270.141 19.3281V18.7656C270.141 17.7448 270.38 16.9896 270.859 16.5C271.339 16.0052 272.07 15.7578 273.055 15.7578C273.701 15.7578 274.336 15.8646 274.961 16.0781L274.477 17.4688C274.023 17.3229 273.591 17.25 273.18 17.25C272.763 17.25 272.458 17.3802 272.266 17.6406C272.078 17.8958 271.984 18.2812 271.984 18.7969V19.3594H274.094V20.75ZM277.398 28H275.562V19.3594H277.398V28ZM275.453 17.0703C275.453 16.7422 275.542 16.4896 275.719 16.3125C275.901 16.1354 276.159 16.0469 276.492 16.0469C276.815 16.0469 277.065 16.1354 277.242 16.3125C277.424 16.4896 277.516 16.7422 277.516 17.0703C277.516 17.3828 277.424 17.6302 277.242 17.8125C277.065 17.9896 276.815 18.0781 276.492 18.0781C276.159 18.0781 275.901 17.9896 275.719 17.8125C275.542 17.6302 275.453 17.3828 275.453 17.0703ZM283.523 28.1562C282.216 28.1562 281.221 27.776 280.539 27.0156C279.862 26.25 279.523 25.1536 279.523 23.7266C279.523 22.2734 279.878 21.1562 280.586 20.375C281.299 19.5938 282.328 19.2031 283.672 19.2031C284.583 19.2031 285.404 19.3724 286.133 19.7109L285.578 21.1875C284.802 20.8854 284.161 20.7344 283.656 20.7344C282.161 20.7344 281.414 21.7266 281.414 23.7109C281.414 24.6797 281.599 25.4089 281.969 25.8984C282.344 26.3828 282.891 26.625 283.609 26.625C284.427 26.625 285.201 26.4219 285.93 26.0156V27.6172C285.602 27.8099 285.25 27.9479 284.875 28.0312C284.505 28.1146 284.055 28.1562 283.523 28.1562ZM293.367 28L293 26.7969H292.938C292.521 27.3229 292.102 27.6823 291.68 27.875C291.258 28.0625 290.716 28.1562 290.055 28.1562C289.206 28.1562 288.542 27.9271 288.062 27.4688C287.589 27.0104 287.352 26.362 287.352 25.5234C287.352 24.6328 287.682 23.9609 288.344 23.5078C289.005 23.0547 290.013 22.8073 291.367 22.7656L292.859 22.7188V22.2578C292.859 21.7057 292.729 21.2943 292.469 21.0234C292.214 20.7474 291.815 20.6094 291.273 20.6094C290.831 20.6094 290.406 20.6745 290 20.8047C289.594 20.9349 289.203 21.0885 288.828 21.2656L288.234 19.9531C288.703 19.7083 289.216 19.5234 289.773 19.3984C290.331 19.2682 290.857 19.2031 291.352 19.2031C292.451 19.2031 293.279 19.4427 293.836 19.9219C294.398 20.401 294.68 21.1536 294.68 22.1797V28H293.367ZM290.633 26.75C291.299 26.75 291.833 26.5651 292.234 26.1953C292.641 25.8203 292.844 25.2969 292.844 24.625V23.875L291.734 23.9219C290.87 23.9531 290.24 24.099 289.844 24.3594C289.453 24.6146 289.258 25.0078 289.258 25.5391C289.258 25.9245 289.372 26.224 289.602 26.4375C289.831 26.6458 290.174 26.75 290.633 26.75ZM300.461 26.6719C300.909 26.6719 301.357 26.6016 301.805 26.4609V27.8438C301.602 27.9323 301.339 28.0052 301.016 28.0625C300.698 28.125 300.367 28.1562 300.023 28.1562C298.284 28.1562 297.414 27.2396 297.414 25.4062V20.75H296.234V19.9375L297.5 19.2656L298.125 17.4375H299.258V19.3594H301.719V20.75H299.258V25.375C299.258 25.8177 299.367 26.1458 299.586 26.3594C299.81 26.5677 300.102 26.6719 300.461 26.6719ZM305.375 28H303.539V19.3594H305.375V28ZM303.43 17.0703C303.43 16.7422 303.518 16.4896 303.695 16.3125C303.878 16.1354 304.135 16.0469 304.469 16.0469C304.792 16.0469 305.042 16.1354 305.219 16.3125C305.401 16.4896 305.492 16.7422 305.492 17.0703C305.492 17.3828 305.401 17.6302 305.219 17.8125C305.042 17.9896 304.792 18.0781 304.469 18.0781C304.135 18.0781 303.878 17.9896 303.695 17.8125C303.518 17.6302 303.43 17.3828 303.43 17.0703ZM315.672 23.6641C315.672 25.0755 315.31 26.1771 314.586 26.9688C313.862 27.7604 312.854 28.1562 311.562 28.1562C310.755 28.1562 310.042 27.974 309.422 27.6094C308.802 27.2448 308.326 26.7214 307.992 26.0391C307.659 25.3568 307.492 24.5651 307.492 23.6641C307.492 22.263 307.852 21.1693 308.57 20.3828C309.289 19.5964 310.302 19.2031 311.609 19.2031C312.859 19.2031 313.849 19.6068 314.578 20.4141C315.307 21.2161 315.672 22.2995 315.672 23.6641ZM309.383 23.6641C309.383 25.6589 310.12 26.6562 311.594 26.6562C313.052 26.6562 313.781 25.6589 313.781 23.6641C313.781 21.6901 313.047 20.7031 311.578 20.7031C310.807 20.7031 310.247 20.9583 309.898 21.4688C309.555 21.9792 309.383 22.7109 309.383 23.6641ZM325.391 28H323.547V22.6875C323.547 22.0208 323.411 21.5234 323.141 21.1953C322.875 20.8672 322.451 20.7031 321.867 20.7031C321.091 20.7031 320.523 20.9323 320.164 21.3906C319.805 21.849 319.625 22.6172 319.625 23.6953V28H317.789V19.3594H319.227L319.484 20.4922H319.578C319.839 20.0807 320.208 19.763 320.688 19.5391C321.167 19.3151 321.698 19.2031 322.281 19.2031C324.354 19.2031 325.391 20.2578 325.391 22.3672V28Z" fill="#0A2535"/>
<line x1="81.5" y1="110" x2="81.5" y2="77" stroke="#0A2535"/>
<rect x="1" y="111" width="163" height="106" fill="white" stroke="#68C6A4" stroke-width="2"/>
<path d="M69.2422 138H62.7812V126.578H69.2422V128.156H64.6484V131.266H68.9531V132.828H64.6484V136.414H69.2422V138ZM78.8047 138H76.9609V132.672C76.9609 132.01 76.8359 131.518 76.5859 131.195C76.3359 130.867 75.9453 130.703 75.4141 130.703C74.7057 130.703 74.1849 130.935 73.8516 131.398C73.5234 131.857 73.3594 132.622 73.3594 133.695V138H71.5234V129.359H72.9609L73.2188 130.492H73.3125C73.5521 130.081 73.8984 129.763 74.3516 129.539C74.8099 129.315 75.3125 129.203 75.8594 129.203C77.1875 129.203 78.0677 129.656 78.5 130.562H78.625C78.8802 130.135 79.2396 129.802 79.7031 129.562C80.1667 129.323 80.6979 129.203 81.2969 129.203C82.3281 129.203 83.0781 129.464 83.5469 129.984C84.0208 130.505 84.2578 131.299 84.2578 132.367V138H82.4219V132.672C82.4219 132.01 82.2943 131.518 82.0391 131.195C81.7891 130.867 81.3984 130.703 80.8672 130.703C80.1536 130.703 79.6302 130.927 79.2969 131.375C78.9688 131.818 78.8047 132.5 78.8047 133.422V138ZM92.2266 138L91.8594 136.797H91.7969C91.3802 137.323 90.9609 137.682 90.5391 137.875C90.1172 138.062 89.5755 138.156 88.9141 138.156C88.0651 138.156 87.401 137.927 86.9219 137.469C86.4479 137.01 86.2109 136.362 86.2109 135.523C86.2109 134.633 86.5417 133.961 87.2031 133.508C87.8646 133.055 88.8724 132.807 90.2266 132.766L91.7188 132.719V132.258C91.7188 131.706 91.5885 131.294 91.3281 131.023C91.0729 130.747 90.6745 130.609 90.1328 130.609C89.6901 130.609 89.2656 130.674 88.8594 130.805C88.4531 130.935 88.0625 131.089 87.6875 131.266L87.0938 129.953C87.5625 129.708 88.0755 129.523 88.6328 129.398C89.1901 129.268 89.7161 129.203 90.2109 129.203C91.3099 129.203 92.138 129.443 92.6953 129.922C93.2578 130.401 93.5391 131.154 93.5391 132.18V138H92.2266ZM89.4922 136.75C90.1589 136.75 90.6927 136.565 91.0938 136.195C91.5 135.82 91.7031 135.297 91.7031 134.625V133.875L90.5938 133.922C89.7292 133.953 89.099 134.099 88.7031 134.359C88.3125 134.615 88.1172 135.008 88.1172 135.539C88.1172 135.924 88.2318 136.224 88.4609 136.438C88.6901 136.646 89.0339 136.75 89.4922 136.75ZM97.9375 138H96.1016V129.359H97.9375V138ZM95.9922 127.07C95.9922 126.742 96.0807 126.49 96.2578 126.312C96.4401 126.135 96.6979 126.047 97.0312 126.047C97.3542 126.047 97.6042 126.135 97.7812 126.312C97.9635 126.49 98.0547 126.742 98.0547 127.07C98.0547 127.383 97.9635 127.63 97.7812 127.812C97.6042 127.99 97.3542 128.078 97.0312 128.078C96.6979 128.078 96.4401 127.99 96.2578 127.812C96.0807 127.63 95.9922 127.383 95.9922 127.07ZM102.406 138H100.57V125.844H102.406V138Z" fill="#0A2535"/>
<rect x="200" y="111" width="163" height="106" fill="white" stroke="#68C6A4" stroke-width="2"/>
<path d="M254.141 134.898C254.141 135.914 253.773 136.711 253.039 137.289C252.305 137.867 251.292 138.156 250 138.156C248.708 138.156 247.651 137.956 246.828 137.555V135.789C247.349 136.034 247.901 136.227 248.484 136.367C249.073 136.508 249.62 136.578 250.125 136.578C250.865 136.578 251.409 136.438 251.758 136.156C252.112 135.875 252.289 135.497 252.289 135.023C252.289 134.596 252.128 134.234 251.805 133.938C251.482 133.641 250.815 133.289 249.805 132.883C248.763 132.461 248.029 131.979 247.602 131.438C247.174 130.896 246.961 130.245 246.961 129.484C246.961 128.531 247.299 127.781 247.977 127.234C248.654 126.688 249.562 126.414 250.703 126.414C251.797 126.414 252.885 126.654 253.969 127.133L253.375 128.656C252.359 128.229 251.453 128.016 250.656 128.016C250.052 128.016 249.594 128.148 249.281 128.414C248.969 128.674 248.812 129.021 248.812 129.453C248.812 129.75 248.875 130.005 249 130.219C249.125 130.427 249.331 130.625 249.617 130.812C249.904 131 250.419 131.247 251.164 131.555C252.003 131.904 252.617 132.229 253.008 132.531C253.398 132.833 253.685 133.174 253.867 133.555C254.049 133.935 254.141 134.383 254.141 134.898ZM261.289 138L257.977 128.461H257.914C258.003 129.878 258.047 131.206 258.047 132.445V138H256.352V126.578H258.984L262.156 135.664H262.203L265.469 126.578H268.109V138H266.312V132.352C266.312 131.784 266.326 131.044 266.352 130.133C266.383 129.221 266.409 128.669 266.43 128.477H266.367L262.938 138H261.289ZM277.703 134.898C277.703 135.914 277.336 136.711 276.602 137.289C275.867 137.867 274.854 138.156 273.562 138.156C272.271 138.156 271.214 137.956 270.391 137.555V135.789C270.911 136.034 271.464 136.227 272.047 136.367C272.635 136.508 273.182 136.578 273.688 136.578C274.427 136.578 274.971 136.438 275.32 136.156C275.674 135.875 275.852 135.497 275.852 135.023C275.852 134.596 275.69 134.234 275.367 133.938C275.044 133.641 274.378 133.289 273.367 132.883C272.326 132.461 271.591 131.979 271.164 131.438C270.737 130.896 270.523 130.245 270.523 129.484C270.523 128.531 270.862 127.781 271.539 127.234C272.216 126.688 273.125 126.414 274.266 126.414C275.359 126.414 276.448 126.654 277.531 127.133L276.938 128.656C275.922 128.229 275.016 128.016 274.219 128.016C273.615 128.016 273.156 128.148 272.844 128.414C272.531 128.674 272.375 129.021 272.375 129.453C272.375 129.75 272.438 130.005 272.562 130.219C272.688 130.427 272.893 130.625 273.18 130.812C273.466 131 273.982 131.247 274.727 131.555C275.565 131.904 276.18 132.229 276.57 132.531C276.961 132.833 277.247 133.174 277.43 133.555C277.612 133.935 277.703 134.383 277.703 134.898ZM288.016 138H286.148V128.18H282.789V126.578H291.375V128.18H288.016V138ZM296.711 138.156C295.367 138.156 294.315 137.766 293.555 136.984C292.799 136.198 292.422 135.117 292.422 133.742C292.422 132.331 292.773 131.221 293.477 130.414C294.18 129.607 295.146 129.203 296.375 129.203C297.516 129.203 298.417 129.549 299.078 130.242C299.74 130.935 300.07 131.888 300.07 133.102V134.094H294.312C294.339 134.932 294.565 135.578 294.992 136.031C295.419 136.479 296.021 136.703 296.797 136.703C297.307 136.703 297.781 136.656 298.219 136.562C298.661 136.464 299.135 136.302 299.641 136.078V137.57C299.193 137.784 298.74 137.935 298.281 138.023C297.823 138.112 297.299 138.156 296.711 138.156ZM296.375 130.594C295.792 130.594 295.323 130.779 294.969 131.148C294.62 131.518 294.411 132.057 294.344 132.766H298.266C298.255 132.052 298.083 131.513 297.75 131.148C297.417 130.779 296.958 130.594 296.375 130.594ZM304.078 133.586L301.18 129.359H303.273L305.242 132.383L307.227 129.359H309.305L306.398 133.586L309.453 138H307.375L305.242 134.766L303.117 138H301.039L304.078 133.586ZM314.188 136.672C314.635 136.672 315.083 136.602 315.531 136.461V137.844C315.328 137.932 315.065 138.005 314.742 138.062C314.424 138.125 314.094 138.156 313.75 138.156C312.01 138.156 311.141 137.24 311.141 135.406V130.75H309.961V129.938L311.227 129.266L311.852 127.438H312.984V129.359H315.445V130.75H312.984V135.375C312.984 135.818 313.094 136.146 313.312 136.359C313.536 136.568 313.828 136.672 314.188 136.672Z" fill="#0A2535"/>
<line x1="81" y1="76.5" x2="481" y2="76.5" stroke="#0A2535"/>
<path d="M67.2148 157.721C67.2148 158.475 66.9414 159.062 66.3945 159.484C65.8477 159.906 65.1055 160.117 64.168 160.117C63.1523 160.117 62.3711 159.986 61.8242 159.725V158.764C62.1758 158.912 62.5586 159.029 62.9727 159.115C63.3867 159.201 63.7969 159.244 64.2031 159.244C64.8672 159.244 65.3672 159.119 65.7031 158.869C66.0391 158.615 66.207 158.264 66.207 157.814C66.207 157.518 66.1465 157.275 66.0254 157.088C65.9082 156.896 65.709 156.721 65.4277 156.561C65.1504 156.4 64.7266 156.219 64.1562 156.016C63.3594 155.73 62.7891 155.393 62.4453 155.002C62.1055 154.611 61.9355 154.102 61.9355 153.473C61.9355 152.812 62.1836 152.287 62.6797 151.896C63.1758 151.506 63.832 151.311 64.6484 151.311C65.5 151.311 66.2832 151.467 66.998 151.779L66.6875 152.646C65.9805 152.35 65.293 152.201 64.625 152.201C64.0977 152.201 63.6855 152.314 63.3887 152.541C63.0918 152.768 62.9434 153.082 62.9434 153.484C62.9434 153.781 62.998 154.025 63.1074 154.217C63.2168 154.404 63.4004 154.578 63.6582 154.738C63.9199 154.895 64.3184 155.068 64.8535 155.26C65.752 155.58 66.3691 155.924 66.7051 156.291C67.0449 156.658 67.2148 157.135 67.2148 157.721ZM69.7344 153.578V157.744C69.7344 158.268 69.8535 158.658 70.0918 158.916C70.3301 159.174 70.7031 159.303 71.2109 159.303C71.8828 159.303 72.373 159.119 72.6816 158.752C72.9941 158.385 73.1504 157.785 73.1504 156.953V153.578H74.123V160H73.3203L73.1797 159.139H73.127C72.9277 159.455 72.6504 159.697 72.2949 159.865C71.9434 160.033 71.541 160.117 71.0879 160.117C70.3066 160.117 69.7207 159.932 69.3301 159.561C68.9434 159.189 68.75 158.596 68.75 157.779V153.578H69.7344ZM78.7578 160.117C77.8281 160.117 77.1074 159.832 76.5957 159.262C76.0879 158.688 75.834 157.877 75.834 156.83C75.834 155.756 76.0918 154.926 76.6074 154.34C77.127 153.754 77.8652 153.461 78.8223 153.461C79.1309 153.461 79.4395 153.494 79.748 153.561C80.0566 153.627 80.2988 153.705 80.4746 153.795L80.1758 154.621C79.9609 154.535 79.7266 154.465 79.4727 154.41C79.2188 154.352 78.9941 154.322 78.7988 154.322C77.4941 154.322 76.8418 155.154 76.8418 156.818C76.8418 157.607 77 158.213 77.3164 158.635C77.6367 159.057 78.1094 159.268 78.7344 159.268C79.2695 159.268 79.8184 159.152 80.3809 158.922V159.783C79.9512 160.006 79.4102 160.117 78.7578 160.117ZM84.4766 160.117C83.5469 160.117 82.8262 159.832 82.3145 159.262C81.8066 158.688 81.5527 157.877 81.5527 156.83C81.5527 155.756 81.8105 154.926 82.3262 154.34C82.8457 153.754 83.584 153.461 84.541 153.461C84.8496 153.461 85.1582 153.494 85.4668 153.561C85.7754 153.627 86.0176 153.705 86.1934 153.795L85.8945 154.621C85.6797 154.535 85.4453 154.465 85.1914 154.41C84.9375 154.352 84.7129 154.322 84.5176 154.322C83.2129 154.322 82.5605 155.154 82.5605 156.818C82.5605 157.607 82.7188 158.213 83.0352 158.635C83.3555 159.057 83.8281 159.268 84.4531 159.268C84.9883 159.268 85.5371 159.152 86.0996 158.922V159.783C85.6699 160.006 85.1289 160.117 84.4766 160.117ZM90.3418 160.117C89.3926 160.117 88.6426 159.828 88.0918 159.25C87.5449 158.672 87.2715 157.869 87.2715 156.842C87.2715 155.807 87.5254 154.984 88.0332 154.375C88.5449 153.766 89.2305 153.461 90.0898 153.461C90.8945 153.461 91.5312 153.727 92 154.258C92.4688 154.785 92.7031 155.482 92.7031 156.35V156.965H88.2793C88.2988 157.719 88.4883 158.291 88.8477 158.682C89.2109 159.072 89.7207 159.268 90.377 159.268C91.0684 159.268 91.752 159.123 92.4277 158.834V159.701C92.084 159.85 91.7578 159.955 91.4492 160.018C91.1445 160.084 90.7754 160.117 90.3418 160.117ZM90.0781 154.275C89.5625 154.275 89.1504 154.443 88.8418 154.779C88.5371 155.115 88.3574 155.58 88.3027 156.174H91.6602C91.6602 155.561 91.5234 155.092 91.25 154.768C90.9766 154.439 90.5859 154.275 90.0781 154.275ZM98.5098 158.248C98.5098 158.846 98.2871 159.307 97.8418 159.631C97.3965 159.955 96.7715 160.117 95.9668 160.117C95.1152 160.117 94.4512 159.982 93.9746 159.713V158.811C94.2832 158.967 94.6133 159.09 94.9648 159.18C95.3203 159.27 95.6621 159.314 95.9902 159.314C96.498 159.314 96.8887 159.234 97.1621 159.074C97.4355 158.91 97.5723 158.662 97.5723 158.33C97.5723 158.08 97.4629 157.867 97.2441 157.691C97.0293 157.512 96.6074 157.301 95.9785 157.059C95.3809 156.836 94.9551 156.643 94.7012 156.479C94.4512 156.311 94.2637 156.121 94.1387 155.91C94.0176 155.699 93.957 155.447 93.957 155.154C93.957 154.631 94.1699 154.219 94.5957 153.918C95.0215 153.613 95.6055 153.461 96.3477 153.461C97.0391 153.461 97.7148 153.602 98.375 153.883L98.0293 154.674C97.3848 154.408 96.8008 154.275 96.2773 154.275C95.8164 154.275 95.4688 154.348 95.2344 154.492C95 154.637 94.8828 154.836 94.8828 155.09C94.8828 155.262 94.9258 155.408 95.0117 155.529C95.1016 155.65 95.2441 155.766 95.4395 155.875C95.6348 155.984 96.0098 156.143 96.5645 156.35C97.3262 156.627 97.8398 156.906 98.1055 157.188C98.375 157.469 98.5098 157.822 98.5098 158.248ZM104.24 158.248C104.24 158.846 104.018 159.307 103.572 159.631C103.127 159.955 102.502 160.117 101.697 160.117C100.846 160.117 100.182 159.982 99.7051 159.713V158.811C100.014 158.967 100.344 159.09 100.695 159.18C101.051 159.27 101.393 159.314 101.721 159.314C102.229 159.314 102.619 159.234 102.893 159.074C103.166 158.91 103.303 158.662 103.303 158.33C103.303 158.08 103.193 157.867 102.975 157.691C102.76 157.512 102.338 157.301 101.709 157.059C101.111 156.836 100.686 156.643 100.432 156.479C100.182 156.311 99.9941 156.121 99.8691 155.91C99.748 155.699 99.6875 155.447 99.6875 155.154C99.6875 154.631 99.9004 154.219 100.326 153.918C100.752 153.613 101.336 153.461 102.078 153.461C102.77 153.461 103.445 153.602 104.105 153.883L103.76 154.674C103.115 154.408 102.531 154.275 102.008 154.275C101.547 154.275 101.199 154.348 100.965 154.492C100.73 154.637 100.613 154.836 100.613 155.09C100.613 155.262 100.656 155.408 100.742 155.529C100.832 155.65 100.975 155.766 101.17 155.875C101.365 155.984 101.74 156.143 102.295 156.35C103.057 156.627 103.57 156.906 103.836 157.188C104.105 157.469 104.24 157.822 104.24 158.248Z" fill="#0A2535"/>
<path d="M68.1348 182H67.1504L65.4219 176.264C65.3398 176.01 65.248 175.689 65.1465 175.303C65.0449 174.916 64.9922 174.684 64.9883 174.605C64.9023 175.121 64.7656 175.686 64.5781 176.299L62.9023 182H61.918L59.6387 173.434H60.6934L62.0469 178.725C62.2344 179.467 62.3711 180.139 62.457 180.74C62.5625 180.025 62.7188 179.326 62.9258 178.643L64.4609 173.434H65.5156L67.127 178.689C67.3145 179.295 67.4727 179.979 67.6016 180.74C67.6758 180.186 67.8164 179.51 68.0234 178.713L69.3711 173.434H70.4258L68.1348 182ZM75.5703 182L75.377 181.086H75.3301C75.0098 181.488 74.6895 181.762 74.3691 181.906C74.0527 182.047 73.6562 182.117 73.1797 182.117C72.543 182.117 72.043 181.953 71.6797 181.625C71.3203 181.297 71.1406 180.83 71.1406 180.225C71.1406 178.928 72.1777 178.248 74.252 178.186L75.3418 178.15V177.752C75.3418 177.248 75.2324 176.877 75.0137 176.639C74.7988 176.396 74.4531 176.275 73.9766 176.275C73.4414 176.275 72.8359 176.439 72.1602 176.768L71.8613 176.023C72.1777 175.852 72.5234 175.717 72.8984 175.619C73.2773 175.521 73.6562 175.473 74.0352 175.473C74.8008 175.473 75.3672 175.643 75.7344 175.982C76.1055 176.322 76.291 176.867 76.291 177.617V182H75.5703ZM73.373 181.314C73.9785 181.314 74.4531 181.148 74.7969 180.816C75.1445 180.484 75.3184 180.02 75.3184 179.422V178.842L74.3457 178.883C73.5723 178.91 73.0137 179.031 72.6699 179.246C72.3301 179.457 72.1602 179.787 72.1602 180.236C72.1602 180.588 72.2656 180.855 72.4766 181.039C72.6914 181.223 72.9902 181.314 73.373 181.314ZM81.2305 175.461C81.5156 175.461 81.7715 175.484 81.998 175.531L81.8633 176.434C81.5977 176.375 81.3633 176.346 81.1602 176.346C80.6406 176.346 80.1953 176.557 79.8242 176.979C79.457 177.4 79.2734 177.926 79.2734 178.555V182H78.3008V175.578H79.1035L79.2148 176.768H79.2617C79.5 176.35 79.7871 176.027 80.123 175.801C80.459 175.574 80.8281 175.461 81.2305 175.461ZM87.5938 182V177.846C87.5938 177.322 87.4746 176.932 87.2363 176.674C86.998 176.416 86.625 176.287 86.1172 176.287C85.4453 176.287 84.9531 176.469 84.6406 176.832C84.3281 177.195 84.1719 177.795 84.1719 178.631V182H83.1992V175.578H83.9902L84.1484 176.457H84.1953C84.3945 176.141 84.6738 175.896 85.0332 175.725C85.3926 175.549 85.793 175.461 86.2344 175.461C87.0078 175.461 87.5898 175.648 87.9805 176.023C88.3711 176.395 88.5664 176.99 88.5664 177.811V182H87.5938ZM91.543 182H90.5703V175.578H91.543V182ZM90.4883 173.838C90.4883 173.615 90.543 173.453 90.6523 173.352C90.7617 173.246 90.8984 173.193 91.0625 173.193C91.2188 173.193 91.3535 173.246 91.4668 173.352C91.5801 173.457 91.6367 173.619 91.6367 173.838C91.6367 174.057 91.5801 174.221 91.4668 174.33C91.3535 174.436 91.2188 174.488 91.0625 174.488C90.8984 174.488 90.7617 174.436 90.6523 174.33C90.543 174.221 90.4883 174.057 90.4883 173.838ZM98 182V177.846C98 177.322 97.8809 176.932 97.6426 176.674C97.4043 176.416 97.0312 176.287 96.5234 176.287C95.8516 176.287 95.3594 176.469 95.0469 176.832C94.7344 177.195 94.5781 177.795 94.5781 178.631V182H93.6055V175.578H94.3965L94.5547 176.457H94.6016C94.8008 176.141 95.0801 175.896 95.4395 175.725C95.7988 175.549 96.1992 175.461 96.6406 175.461C97.4141 175.461 97.9961 175.648 98.3867 176.023C98.7773 176.395 98.9727 176.99 98.9727 177.811V182H98ZM106.232 175.578V176.193L105.043 176.334C105.152 176.471 105.25 176.65 105.336 176.873C105.422 177.092 105.465 177.34 105.465 177.617C105.465 178.246 105.25 178.748 104.82 179.123C104.391 179.498 103.801 179.686 103.051 179.686C102.859 179.686 102.68 179.67 102.512 179.639C102.098 179.857 101.891 180.133 101.891 180.465C101.891 180.641 101.963 180.771 102.107 180.857C102.252 180.939 102.5 180.98 102.852 180.98H103.988C104.684 180.98 105.217 181.127 105.588 181.42C105.963 181.713 106.15 182.139 106.15 182.697C106.15 183.408 105.865 183.949 105.295 184.32C104.725 184.695 103.893 184.883 102.799 184.883C101.959 184.883 101.311 184.727 100.854 184.414C100.4 184.102 100.174 183.66 100.174 183.09C100.174 182.699 100.299 182.361 100.549 182.076C100.799 181.791 101.15 181.598 101.604 181.496C101.439 181.422 101.301 181.307 101.188 181.15C101.078 180.994 101.023 180.812 101.023 180.605C101.023 180.371 101.086 180.166 101.211 179.99C101.336 179.814 101.533 179.645 101.803 179.48C101.471 179.344 101.199 179.111 100.988 178.783C100.781 178.455 100.678 178.08 100.678 177.658C100.678 176.955 100.889 176.414 101.311 176.035C101.732 175.652 102.33 175.461 103.104 175.461C103.439 175.461 103.742 175.5 104.012 175.578H106.232ZM101.111 183.078C101.111 183.426 101.258 183.689 101.551 183.869C101.844 184.049 102.264 184.139 102.811 184.139C103.627 184.139 104.23 184.016 104.621 183.77C105.016 183.527 105.213 183.197 105.213 182.779C105.213 182.432 105.105 182.189 104.891 182.053C104.676 181.92 104.271 181.854 103.678 181.854H102.512C102.07 181.854 101.727 181.959 101.48 182.17C101.234 182.381 101.111 182.684 101.111 183.078ZM101.639 177.635C101.639 178.084 101.766 178.424 102.02 178.654C102.273 178.885 102.627 179 103.08 179C104.029 179 104.504 178.539 104.504 177.617C104.504 176.652 104.023 176.17 103.062 176.17C102.605 176.17 102.254 176.293 102.008 176.539C101.762 176.785 101.639 177.15 101.639 177.635Z" fill="#0A2535"/>
<path d="M75.1387 204H70.3633V195.434H75.1387V196.318H71.3594V199.078H74.9102V199.957H71.3594V203.109H75.1387V204ZM79.8262 197.461C80.1113 197.461 80.3672 197.484 80.5938 197.531L80.459 198.434C80.1934 198.375 79.959 198.346 79.7559 198.346C79.2363 198.346 78.791 198.557 78.4199 198.979C78.0527 199.4 77.8691 199.926 77.8691 200.555V204H76.8965V197.578H77.6992L77.8105 198.768H77.8574C78.0957 198.35 78.3828 198.027 78.7188 197.801C79.0547 197.574 79.4238 197.461 79.8262 197.461ZM84.7246 197.461C85.0098 197.461 85.2656 197.484 85.4922 197.531L85.3574 198.434C85.0918 198.375 84.8574 198.346 84.6543 198.346C84.1348 198.346 83.6895 198.557 83.3184 198.979C82.9512 199.4 82.7676 199.926 82.7676 200.555V204H81.7949V197.578H82.5977L82.709 198.768H82.7559C82.9941 198.35 83.2812 198.027 83.6172 197.801C83.9531 197.574 84.3223 197.461 84.7246 197.461ZM92.2363 200.783C92.2363 201.83 91.9727 202.648 91.4453 203.238C90.918 203.824 90.1895 204.117 89.2598 204.117C88.6855 204.117 88.1758 203.982 87.7305 203.713C87.2852 203.443 86.9414 203.057 86.6992 202.553C86.457 202.049 86.3359 201.459 86.3359 200.783C86.3359 199.736 86.5977 198.922 87.1211 198.34C87.6445 197.754 88.3711 197.461 89.3008 197.461C90.1992 197.461 90.9121 197.76 91.4395 198.357C91.9707 198.955 92.2363 199.764 92.2363 200.783ZM87.3438 200.783C87.3438 201.604 87.5078 202.229 87.8359 202.658C88.1641 203.088 88.6465 203.303 89.2832 203.303C89.9199 203.303 90.4023 203.09 90.7305 202.664C91.0625 202.234 91.2285 201.607 91.2285 200.783C91.2285 199.967 91.0625 199.348 90.7305 198.926C90.4023 198.5 89.916 198.287 89.2715 198.287C88.6348 198.287 88.1543 198.496 87.8301 198.914C87.5059 199.332 87.3438 199.955 87.3438 200.783ZM96.877 197.461C97.1621 197.461 97.418 197.484 97.6445 197.531L97.5098 198.434C97.2441 198.375 97.0098 198.346 96.8066 198.346C96.2871 198.346 95.8418 198.557 95.4707 198.979C95.1035 199.4 94.9199 199.926 94.9199 200.555V204H93.9473V197.578H94.75L94.8613 198.768H94.9082C95.1465 198.35 95.4336 198.027 95.7695 197.801C96.1055 197.574 96.4746 197.461 96.877 197.461Z" fill="#0A2535"/>
<path d="M265.215 157.721C265.215 158.475 264.941 159.062 264.395 159.484C263.848 159.906 263.105 160.117 262.168 160.117C261.152 160.117 260.371 159.986 259.824 159.725V158.764C260.176 158.912 260.559 159.029 260.973 159.115C261.387 159.201 261.797 159.244 262.203 159.244C262.867 159.244 263.367 159.119 263.703 158.869C264.039 158.615 264.207 158.264 264.207 157.814C264.207 157.518 264.146 157.275 264.025 157.088C263.908 156.896 263.709 156.721 263.428 156.561C263.15 156.4 262.727 156.219 262.156 156.016C261.359 155.73 260.789 155.393 260.445 155.002C260.105 154.611 259.936 154.102 259.936 153.473C259.936 152.812 260.184 152.287 260.68 151.896C261.176 151.506 261.832 151.311 262.648 151.311C263.5 151.311 264.283 151.467 264.998 151.779L264.688 152.646C263.98 152.35 263.293 152.201 262.625 152.201C262.098 152.201 261.686 152.314 261.389 152.541C261.092 152.768 260.943 153.082 260.943 153.484C260.943 153.781 260.998 154.025 261.107 154.217C261.217 154.404 261.4 154.578 261.658 154.738C261.92 154.895 262.318 155.068 262.854 155.26C263.752 155.58 264.369 155.924 264.705 156.291C265.045 156.658 265.215 157.135 265.215 157.721ZM267.734 153.578V157.744C267.734 158.268 267.854 158.658 268.092 158.916C268.33 159.174 268.703 159.303 269.211 159.303C269.883 159.303 270.373 159.119 270.682 158.752C270.994 158.385 271.15 157.785 271.15 156.953V153.578H272.123V160H271.32L271.18 159.139H271.127C270.928 159.455 270.65 159.697 270.295 159.865C269.943 160.033 269.541 160.117 269.088 160.117C268.307 160.117 267.721 159.932 267.33 159.561C266.943 159.189 266.75 158.596 266.75 157.779V153.578H267.734ZM276.758 160.117C275.828 160.117 275.107 159.832 274.596 159.262C274.088 158.688 273.834 157.877 273.834 156.83C273.834 155.756 274.092 154.926 274.607 154.34C275.127 153.754 275.865 153.461 276.822 153.461C277.131 153.461 277.439 153.494 277.748 153.561C278.057 153.627 278.299 153.705 278.475 153.795L278.176 154.621C277.961 154.535 277.727 154.465 277.473 154.41C277.219 154.352 276.994 154.322 276.799 154.322C275.494 154.322 274.842 155.154 274.842 156.818C274.842 157.607 275 158.213 275.316 158.635C275.637 159.057 276.109 159.268 276.734 159.268C277.27 159.268 277.818 159.152 278.381 158.922V159.783C277.951 160.006 277.41 160.117 276.758 160.117ZM282.477 160.117C281.547 160.117 280.826 159.832 280.314 159.262C279.807 158.688 279.553 157.877 279.553 156.83C279.553 155.756 279.811 154.926 280.326 154.34C280.846 153.754 281.584 153.461 282.541 153.461C282.85 153.461 283.158 153.494 283.467 153.561C283.775 153.627 284.018 153.705 284.193 153.795L283.895 154.621C283.68 154.535 283.445 154.465 283.191 154.41C282.938 154.352 282.713 154.322 282.518 154.322C281.213 154.322 280.561 155.154 280.561 156.818C280.561 157.607 280.719 158.213 281.035 158.635C281.355 159.057 281.828 159.268 282.453 159.268C282.988 159.268 283.537 159.152 284.1 158.922V159.783C283.67 160.006 283.129 160.117 282.477 160.117ZM288.342 160.117C287.393 160.117 286.643 159.828 286.092 159.25C285.545 158.672 285.271 157.869 285.271 156.842C285.271 155.807 285.525 154.984 286.033 154.375C286.545 153.766 287.23 153.461 288.09 153.461C288.895 153.461 289.531 153.727 290 154.258C290.469 154.785 290.703 155.482 290.703 156.35V156.965H286.279C286.299 157.719 286.488 158.291 286.848 158.682C287.211 159.072 287.721 159.268 288.377 159.268C289.068 159.268 289.752 159.123 290.428 158.834V159.701C290.084 159.85 289.758 159.955 289.449 160.018C289.145 160.084 288.775 160.117 288.342 160.117ZM288.078 154.275C287.562 154.275 287.15 154.443 286.842 154.779C286.537 155.115 286.357 155.58 286.303 156.174H289.66C289.66 155.561 289.523 155.092 289.25 154.768C288.977 154.439 288.586 154.275 288.078 154.275ZM296.51 158.248C296.51 158.846 296.287 159.307 295.842 159.631C295.396 159.955 294.771 160.117 293.967 160.117C293.115 160.117 292.451 159.982 291.975 159.713V158.811C292.283 158.967 292.613 159.09 292.965 159.18C293.32 159.27 293.662 159.314 293.99 159.314C294.498 159.314 294.889 159.234 295.162 159.074C295.436 158.91 295.572 158.662 295.572 158.33C295.572 158.08 295.463 157.867 295.244 157.691C295.029 157.512 294.607 157.301 293.979 157.059C293.381 156.836 292.955 156.643 292.701 156.479C292.451 156.311 292.264 156.121 292.139 155.91C292.018 155.699 291.957 155.447 291.957 155.154C291.957 154.631 292.17 154.219 292.596 153.918C293.021 153.613 293.605 153.461 294.348 153.461C295.039 153.461 295.715 153.602 296.375 153.883L296.029 154.674C295.385 154.408 294.801 154.275 294.277 154.275C293.816 154.275 293.469 154.348 293.234 154.492C293 154.637 292.883 154.836 292.883 155.09C292.883 155.262 292.926 155.408 293.012 155.529C293.102 155.65 293.244 155.766 293.439 155.875C293.635 155.984 294.01 156.143 294.564 156.35C295.326 156.627 295.84 156.906 296.105 157.188C296.375 157.469 296.51 157.822 296.51 158.248ZM302.24 158.248C302.24 158.846 302.018 159.307 301.572 159.631C301.127 159.955 300.502 160.117 299.697 160.117C298.846 160.117 298.182 159.982 297.705 159.713V158.811C298.014 158.967 298.344 159.09 298.695 159.18C299.051 159.27 299.393 159.314 299.721 159.314C300.229 159.314 300.619 159.234 300.893 159.074C301.166 158.91 301.303 158.662 301.303 158.33C301.303 158.08 301.193 157.867 300.975 157.691C300.76 157.512 300.338 157.301 299.709 157.059C299.111 156.836 298.686 156.643 298.432 156.479C298.182 156.311 297.994 156.121 297.869 155.91C297.748 155.699 297.688 155.447 297.688 155.154C297.688 154.631 297.9 154.219 298.326 153.918C298.752 153.613 299.336 153.461 300.078 153.461C300.77 153.461 301.445 153.602 302.105 153.883L301.76 154.674C301.115 154.408 300.531 154.275 300.008 154.275C299.547 154.275 299.199 154.348 298.965 154.492C298.73 154.637 298.613 154.836 298.613 155.09C298.613 155.262 298.656 155.408 298.742 155.529C298.832 155.65 298.975 155.766 299.17 155.875C299.365 155.984 299.74 156.143 300.295 156.35C301.057 156.627 301.57 156.906 301.836 157.188C302.105 157.469 302.24 157.822 302.24 158.248Z" fill="#0A2535"/>
<path d="M266.135 182H265.15L263.422 176.264C263.34 176.01 263.248 175.689 263.146 175.303C263.045 174.916 262.992 174.684 262.988 174.605C262.902 175.121 262.766 175.686 262.578 176.299L260.902 182H259.918L257.639 173.434H258.693L260.047 178.725C260.234 179.467 260.371 180.139 260.457 180.74C260.562 180.025 260.719 179.326 260.926 178.643L262.461 173.434H263.516L265.127 178.689C265.314 179.295 265.473 179.979 265.602 180.74C265.676 180.186 265.816 179.51 266.023 178.713L267.371 173.434H268.426L266.135 182ZM273.57 182L273.377 181.086H273.33C273.01 181.488 272.689 181.762 272.369 181.906C272.053 182.047 271.656 182.117 271.18 182.117C270.543 182.117 270.043 181.953 269.68 181.625C269.32 181.297 269.141 180.83 269.141 180.225C269.141 178.928 270.178 178.248 272.252 178.186L273.342 178.15V177.752C273.342 177.248 273.232 176.877 273.014 176.639C272.799 176.396 272.453 176.275 271.977 176.275C271.441 176.275 270.836 176.439 270.16 176.768L269.861 176.023C270.178 175.852 270.523 175.717 270.898 175.619C271.277 175.521 271.656 175.473 272.035 175.473C272.801 175.473 273.367 175.643 273.734 175.982C274.105 176.322 274.291 176.867 274.291 177.617V182H273.57ZM271.373 181.314C271.979 181.314 272.453 181.148 272.797 180.816C273.145 180.484 273.318 180.02 273.318 179.422V178.842L272.346 178.883C271.572 178.91 271.014 179.031 270.67 179.246C270.33 179.457 270.16 179.787 270.16 180.236C270.16 180.588 270.266 180.855 270.477 181.039C270.691 181.223 270.99 181.314 271.373 181.314ZM279.23 175.461C279.516 175.461 279.771 175.484 279.998 175.531L279.863 176.434C279.598 176.375 279.363 176.346 279.16 176.346C278.641 176.346 278.195 176.557 277.824 176.979C277.457 177.4 277.273 177.926 277.273 178.555V182H276.301V175.578H277.104L277.215 176.768H277.262C277.5 176.35 277.787 176.027 278.123 175.801C278.459 175.574 278.828 175.461 279.23 175.461ZM285.594 182V177.846C285.594 177.322 285.475 176.932 285.236 176.674C284.998 176.416 284.625 176.287 284.117 176.287C283.445 176.287 282.953 176.469 282.641 176.832C282.328 177.195 282.172 177.795 282.172 178.631V182H281.199V175.578H281.99L282.148 176.457H282.195C282.395 176.141 282.674 175.896 283.033 175.725C283.393 175.549 283.793 175.461 284.234 175.461C285.008 175.461 285.59 175.648 285.98 176.023C286.371 176.395 286.566 176.99 286.566 177.811V182H285.594ZM289.543 182H288.57V175.578H289.543V182ZM288.488 173.838C288.488 173.615 288.543 173.453 288.652 173.352C288.762 173.246 288.898 173.193 289.062 173.193C289.219 173.193 289.354 173.246 289.467 173.352C289.58 173.457 289.637 173.619 289.637 173.838C289.637 174.057 289.58 174.221 289.467 174.33C289.354 174.436 289.219 174.488 289.062 174.488C288.898 174.488 288.762 174.436 288.652 174.33C288.543 174.221 288.488 174.057 288.488 173.838ZM296 182V177.846C296 177.322 295.881 176.932 295.643 176.674C295.404 176.416 295.031 176.287 294.523 176.287C293.852 176.287 293.359 176.469 293.047 176.832C292.734 177.195 292.578 177.795 292.578 178.631V182H291.605V175.578H292.396L292.555 176.457H292.602C292.801 176.141 293.08 175.896 293.439 175.725C293.799 175.549 294.199 175.461 294.641 175.461C295.414 175.461 295.996 175.648 296.387 176.023C296.777 176.395 296.973 176.99 296.973 177.811V182H296ZM304.232 175.578V176.193L303.043 176.334C303.152 176.471 303.25 176.65 303.336 176.873C303.422 177.092 303.465 177.34 303.465 177.617C303.465 178.246 303.25 178.748 302.82 179.123C302.391 179.498 301.801 179.686 301.051 179.686C300.859 179.686 300.68 179.67 300.512 179.639C300.098 179.857 299.891 180.133 299.891 180.465C299.891 180.641 299.963 180.771 300.107 180.857C300.252 180.939 300.5 180.98 300.852 180.98H301.988C302.684 180.98 303.217 181.127 303.588 181.42C303.963 181.713 304.15 182.139 304.15 182.697C304.15 183.408 303.865 183.949 303.295 184.32C302.725 184.695 301.893 184.883 300.799 184.883C299.959 184.883 299.311 184.727 298.854 184.414C298.4 184.102 298.174 183.66 298.174 183.09C298.174 182.699 298.299 182.361 298.549 182.076C298.799 181.791 299.15 181.598 299.604 181.496C299.439 181.422 299.301 181.307 299.188 181.15C299.078 180.994 299.023 180.812 299.023 180.605C299.023 180.371 299.086 180.166 299.211 179.99C299.336 179.814 299.533 179.645 299.803 179.48C299.471 179.344 299.199 179.111 298.988 178.783C298.781 178.455 298.678 178.08 298.678 177.658C298.678 176.955 298.889 176.414 299.311 176.035C299.732 175.652 300.33 175.461 301.104 175.461C301.439 175.461 301.742 175.5 302.012 175.578H304.232ZM299.111 183.078C299.111 183.426 299.258 183.689 299.551 183.869C299.844 184.049 300.264 184.139 300.811 184.139C301.627 184.139 302.23 184.016 302.621 183.77C303.016 183.527 303.213 183.197 303.213 182.779C303.213 182.432 303.105 182.189 302.891 182.053C302.676 181.92 302.271 181.854 301.678 181.854H300.512C300.07 181.854 299.727 181.959 299.48 182.17C299.234 182.381 299.111 182.684 299.111 183.078ZM299.639 177.635C299.639 178.084 299.766 178.424 300.02 178.654C300.273 178.885 300.627 179 301.08 179C302.029 179 302.504 178.539 302.504 177.617C302.504 176.652 302.023 176.17 301.062 176.17C300.605 176.17 300.254 176.293 300.008 176.539C299.762 176.785 299.639 177.15 299.639 177.635Z" fill="#0A2535"/>
<path d="M273.139 204H268.363V195.434H273.139V196.318H269.359V199.078H272.91V199.957H269.359V203.109H273.139V204ZM277.826 197.461C278.111 197.461 278.367 197.484 278.594 197.531L278.459 198.434C278.193 198.375 277.959 198.346 277.756 198.346C277.236 198.346 276.791 198.557 276.42 198.979C276.053 199.4 275.869 199.926 275.869 200.555V204H274.896V197.578H275.699L275.811 198.768H275.857C276.096 198.35 276.383 198.027 276.719 197.801C277.055 197.574 277.424 197.461 277.826 197.461ZM282.725 197.461C283.01 197.461 283.266 197.484 283.492 197.531L283.357 198.434C283.092 198.375 282.857 198.346 282.654 198.346C282.135 198.346 281.689 198.557 281.318 198.979C280.951 199.4 280.768 199.926 280.768 200.555V204H279.795V197.578H280.598L280.709 198.768H280.756C280.994 198.35 281.281 198.027 281.617 197.801C281.953 197.574 282.322 197.461 282.725 197.461ZM290.236 200.783C290.236 201.83 289.973 202.648 289.445 203.238C288.918 203.824 288.189 204.117 287.26 204.117C286.686 204.117 286.176 203.982 285.73 203.713C285.285 203.443 284.941 203.057 284.699 202.553C284.457 202.049 284.336 201.459 284.336 200.783C284.336 199.736 284.598 198.922 285.121 198.34C285.645 197.754 286.371 197.461 287.301 197.461C288.199 197.461 288.912 197.76 289.439 198.357C289.971 198.955 290.236 199.764 290.236 200.783ZM285.344 200.783C285.344 201.604 285.508 202.229 285.836 202.658C286.164 203.088 286.646 203.303 287.283 203.303C287.92 203.303 288.402 203.09 288.73 202.664C289.062 202.234 289.229 201.607 289.229 200.783C289.229 199.967 289.062 199.348 288.73 198.926C288.402 198.5 287.916 198.287 287.271 198.287C286.635 198.287 286.154 198.496 285.83 198.914C285.506 199.332 285.344 199.955 285.344 200.783ZM294.877 197.461C295.162 197.461 295.418 197.484 295.645 197.531L295.51 198.434C295.244 198.375 295.01 198.346 294.807 198.346C294.287 198.346 293.842 198.557 293.471 198.979C293.104 199.4 292.92 199.926 292.92 200.555V204H291.947V197.578H292.75L292.861 198.768H292.908C293.146 198.35 293.434 198.027 293.77 197.801C294.105 197.574 294.475 197.461 294.877 197.461Z" fill="#0A2535"/>
<path d="M465.215 157.721C465.215 158.475 464.941 159.062 464.395 159.484C463.848 159.906 463.105 160.117 462.168 160.117C461.152 160.117 460.371 159.986 459.824 159.725V158.764C460.176 158.912 460.559 159.029 460.973 159.115C461.387 159.201 461.797 159.244 462.203 159.244C462.867 159.244 463.367 159.119 463.703 158.869C464.039 158.615 464.207 158.264 464.207 157.814C464.207 157.518 464.146 157.275 464.025 157.088C463.908 156.896 463.709 156.721 463.428 156.561C463.15 156.4 462.727 156.219 462.156 156.016C461.359 155.73 460.789 155.393 460.445 155.002C460.105 154.611 459.936 154.102 459.936 153.473C459.936 152.812 460.184 152.287 460.68 151.896C461.176 151.506 461.832 151.311 462.648 151.311C463.5 151.311 464.283 151.467 464.998 151.779L464.688 152.646C463.98 152.35 463.293 152.201 462.625 152.201C462.098 152.201 461.686 152.314 461.389 152.541C461.092 152.768 460.943 153.082 460.943 153.484C460.943 153.781 460.998 154.025 461.107 154.217C461.217 154.404 461.4 154.578 461.658 154.738C461.92 154.895 462.318 155.068 462.854 155.26C463.752 155.58 464.369 155.924 464.705 156.291C465.045 156.658 465.215 157.135 465.215 157.721ZM467.734 153.578V157.744C467.734 158.268 467.854 158.658 468.092 158.916C468.33 159.174 468.703 159.303 469.211 159.303C469.883 159.303 470.373 159.119 470.682 158.752C470.994 158.385 471.15 157.785 471.15 156.953V153.578H472.123V160H471.32L471.18 159.139H471.127C470.928 159.455 470.65 159.697 470.295 159.865C469.943 160.033 469.541 160.117 469.088 160.117C468.307 160.117 467.721 159.932 467.33 159.561C466.943 159.189 466.75 158.596 466.75 157.779V153.578H467.734ZM476.758 160.117C475.828 160.117 475.107 159.832 474.596 159.262C474.088 158.688 473.834 157.877 473.834 156.83C473.834 155.756 474.092 154.926 474.607 154.34C475.127 153.754 475.865 153.461 476.822 153.461C477.131 153.461 477.439 153.494 477.748 153.561C478.057 153.627 478.299 153.705 478.475 153.795L478.176 154.621C477.961 154.535 477.727 154.465 477.473 154.41C477.219 154.352 476.994 154.322 476.799 154.322C475.494 154.322 474.842 155.154 474.842 156.818C474.842 157.607 475 158.213 475.316 158.635C475.637 159.057 476.109 159.268 476.734 159.268C477.27 159.268 477.818 159.152 478.381 158.922V159.783C477.951 160.006 477.41 160.117 476.758 160.117ZM482.477 160.117C481.547 160.117 480.826 159.832 480.314 159.262C479.807 158.688 479.553 157.877 479.553 156.83C479.553 155.756 479.811 154.926 480.326 154.34C480.846 153.754 481.584 153.461 482.541 153.461C482.85 153.461 483.158 153.494 483.467 153.561C483.775 153.627 484.018 153.705 484.193 153.795L483.895 154.621C483.68 154.535 483.445 154.465 483.191 154.41C482.938 154.352 482.713 154.322 482.518 154.322C481.213 154.322 480.561 155.154 480.561 156.818C480.561 157.607 480.719 158.213 481.035 158.635C481.355 159.057 481.828 159.268 482.453 159.268C482.988 159.268 483.537 159.152 484.1 158.922V159.783C483.67 160.006 483.129 160.117 482.477 160.117ZM488.342 160.117C487.393 160.117 486.643 159.828 486.092 159.25C485.545 158.672 485.271 157.869 485.271 156.842C485.271 155.807 485.525 154.984 486.033 154.375C486.545 153.766 487.23 153.461 488.09 153.461C488.895 153.461 489.531 153.727 490 154.258C490.469 154.785 490.703 155.482 490.703 156.35V156.965H486.279C486.299 157.719 486.488 158.291 486.848 158.682C487.211 159.072 487.721 159.268 488.377 159.268C489.068 159.268 489.752 159.123 490.428 158.834V159.701C490.084 159.85 489.758 159.955 489.449 160.018C489.145 160.084 488.775 160.117 488.342 160.117ZM488.078 154.275C487.562 154.275 487.15 154.443 486.842 154.779C486.537 155.115 486.357 155.58 486.303 156.174H489.66C489.66 155.561 489.523 155.092 489.25 154.768C488.977 154.439 488.586 154.275 488.078 154.275ZM496.51 158.248C496.51 158.846 496.287 159.307 495.842 159.631C495.396 159.955 494.771 160.117 493.967 160.117C493.115 160.117 492.451 159.982 491.975 159.713V158.811C492.283 158.967 492.613 159.09 492.965 159.18C493.32 159.27 493.662 159.314 493.99 159.314C494.498 159.314 494.889 159.234 495.162 159.074C495.436 158.91 495.572 158.662 495.572 158.33C495.572 158.08 495.463 157.867 495.244 157.691C495.029 157.512 494.607 157.301 493.979 157.059C493.381 156.836 492.955 156.643 492.701 156.479C492.451 156.311 492.264 156.121 492.139 155.91C492.018 155.699 491.957 155.447 491.957 155.154C491.957 154.631 492.17 154.219 492.596 153.918C493.021 153.613 493.605 153.461 494.348 153.461C495.039 153.461 495.715 153.602 496.375 153.883L496.029 154.674C495.385 154.408 494.801 154.275 494.277 154.275C493.816 154.275 493.469 154.348 493.234 154.492C493 154.637 492.883 154.836 492.883 155.09C492.883 155.262 492.926 155.408 493.012 155.529C493.102 155.65 493.244 155.766 493.439 155.875C493.635 155.984 494.01 156.143 494.564 156.35C495.326 156.627 495.84 156.906 496.105 157.188C496.375 157.469 496.51 157.822 496.51 158.248ZM502.24 158.248C502.24 158.846 502.018 159.307 501.572 159.631C501.127 159.955 500.502 160.117 499.697 160.117C498.846 160.117 498.182 159.982 497.705 159.713V158.811C498.014 158.967 498.344 159.09 498.695 159.18C499.051 159.27 499.393 159.314 499.721 159.314C500.229 159.314 500.619 159.234 500.893 159.074C501.166 158.91 501.303 158.662 501.303 158.33C501.303 158.08 501.193 157.867 500.975 157.691C500.76 157.512 500.338 157.301 499.709 157.059C499.111 156.836 498.686 156.643 498.432 156.479C498.182 156.311 497.994 156.121 497.869 155.91C497.748 155.699 497.688 155.447 497.688 155.154C497.688 154.631 497.9 154.219 498.326 153.918C498.752 153.613 499.336 153.461 500.078 153.461C500.77 153.461 501.445 153.602 502.105 153.883L501.76 154.674C501.115 154.408 500.531 154.275 500.008 154.275C499.547 154.275 499.199 154.348 498.965 154.492C498.73 154.637 498.613 154.836 498.613 155.09C498.613 155.262 498.656 155.408 498.742 155.529C498.832 155.65 498.975 155.766 499.17 155.875C499.365 155.984 499.74 156.143 500.295 156.35C501.057 156.627 501.57 156.906 501.836 157.188C502.105 157.469 502.24 157.822 502.24 158.248Z" fill="#0A2535"/>
<path d="M466.135 182H465.15L463.422 176.264C463.34 176.01 463.248 175.689 463.146 175.303C463.045 174.916 462.992 174.684 462.988 174.605C462.902 175.121 462.766 175.686 462.578 176.299L460.902 182H459.918L457.639 173.434H458.693L460.047 178.725C460.234 179.467 460.371 180.139 460.457 180.74C460.562 180.025 460.719 179.326 460.926 178.643L462.461 173.434H463.516L465.127 178.689C465.314 179.295 465.473 179.979 465.602 180.74C465.676 180.186 465.816 179.51 466.023 178.713L467.371 173.434H468.426L466.135 182ZM473.57 182L473.377 181.086H473.33C473.01 181.488 472.689 181.762 472.369 181.906C472.053 182.047 471.656 182.117 471.18 182.117C470.543 182.117 470.043 181.953 469.68 181.625C469.32 181.297 469.141 180.83 469.141 180.225C469.141 178.928 470.178 178.248 472.252 178.186L473.342 178.15V177.752C473.342 177.248 473.232 176.877 473.014 176.639C472.799 176.396 472.453 176.275 471.977 176.275C471.441 176.275 470.836 176.439 470.16 176.768L469.861 176.023C470.178 175.852 470.523 175.717 470.898 175.619C471.277 175.521 471.656 175.473 472.035 175.473C472.801 175.473 473.367 175.643 473.734 175.982C474.105 176.322 474.291 176.867 474.291 177.617V182H473.57ZM471.373 181.314C471.979 181.314 472.453 181.148 472.797 180.816C473.145 180.484 473.318 180.02 473.318 179.422V178.842L472.346 178.883C471.572 178.91 471.014 179.031 470.67 179.246C470.33 179.457 470.16 179.787 470.16 180.236C470.16 180.588 470.266 180.855 470.477 181.039C470.691 181.223 470.99 181.314 471.373 181.314ZM479.23 175.461C479.516 175.461 479.771 175.484 479.998 175.531L479.863 176.434C479.598 176.375 479.363 176.346 479.16 176.346C478.641 176.346 478.195 176.557 477.824 176.979C477.457 177.4 477.273 177.926 477.273 178.555V182H476.301V175.578H477.104L477.215 176.768H477.262C477.5 176.35 477.787 176.027 478.123 175.801C478.459 175.574 478.828 175.461 479.23 175.461ZM485.594 182V177.846C485.594 177.322 485.475 176.932 485.236 176.674C484.998 176.416 484.625 176.287 484.117 176.287C483.445 176.287 482.953 176.469 482.641 176.832C482.328 177.195 482.172 177.795 482.172 178.631V182H481.199V175.578H481.99L482.148 176.457H482.195C482.395 176.141 482.674 175.896 483.033 175.725C483.393 175.549 483.793 175.461 484.234 175.461C485.008 175.461 485.59 175.648 485.98 176.023C486.371 176.395 486.566 176.99 486.566 177.811V182H485.594ZM489.543 182H488.57V175.578H489.543V182ZM488.488 173.838C488.488 173.615 488.543 173.453 488.652 173.352C488.762 173.246 488.898 173.193 489.062 173.193C489.219 173.193 489.354 173.246 489.467 173.352C489.58 173.457 489.637 173.619 489.637 173.838C489.637 174.057 489.58 174.221 489.467 174.33C489.354 174.436 489.219 174.488 489.062 174.488C488.898 174.488 488.762 174.436 488.652 174.33C488.543 174.221 488.488 174.057 488.488 173.838ZM496 182V177.846C496 177.322 495.881 176.932 495.643 176.674C495.404 176.416 495.031 176.287 494.523 176.287C493.852 176.287 493.359 176.469 493.047 176.832C492.734 177.195 492.578 177.795 492.578 178.631V182H491.605V175.578H492.396L492.555 176.457H492.602C492.801 176.141 493.08 175.896 493.439 175.725C493.799 175.549 494.199 175.461 494.641 175.461C495.414 175.461 495.996 175.648 496.387 176.023C496.777 176.395 496.973 176.99 496.973 177.811V182H496ZM504.232 175.578V176.193L503.043 176.334C503.152 176.471 503.25 176.65 503.336 176.873C503.422 177.092 503.465 177.34 503.465 177.617C503.465 178.246 503.25 178.748 502.82 179.123C502.391 179.498 501.801 179.686 501.051 179.686C500.859 179.686 500.68 179.67 500.512 179.639C500.098 179.857 499.891 180.133 499.891 180.465C499.891 180.641 499.963 180.771 500.107 180.857C500.252 180.939 500.5 180.98 500.852 180.98H501.988C502.684 180.98 503.217 181.127 503.588 181.42C503.963 181.713 504.15 182.139 504.15 182.697C504.15 183.408 503.865 183.949 503.295 184.32C502.725 184.695 501.893 184.883 500.799 184.883C499.959 184.883 499.311 184.727 498.854 184.414C498.4 184.102 498.174 183.66 498.174 183.09C498.174 182.699 498.299 182.361 498.549 182.076C498.799 181.791 499.15 181.598 499.604 181.496C499.439 181.422 499.301 181.307 499.188 181.15C499.078 180.994 499.023 180.812 499.023 180.605C499.023 180.371 499.086 180.166 499.211 179.99C499.336 179.814 499.533 179.645 499.803 179.48C499.471 179.344 499.199 179.111 498.988 178.783C498.781 178.455 498.678 178.08 498.678 177.658C498.678 176.955 498.889 176.414 499.311 176.035C499.732 175.652 500.33 175.461 501.104 175.461C501.439 175.461 501.742 175.5 502.012 175.578H504.232ZM499.111 183.078C499.111 183.426 499.258 183.689 499.551 183.869C499.844 184.049 500.264 184.139 500.811 184.139C501.627 184.139 502.23 184.016 502.621 183.77C503.016 183.527 503.213 183.197 503.213 182.779C503.213 182.432 503.105 182.189 502.891 182.053C502.676 181.92 502.271 181.854 501.678 181.854H500.512C500.07 181.854 499.727 181.959 499.48 182.17C499.234 182.381 499.111 182.684 499.111 183.078ZM499.639 177.635C499.639 178.084 499.766 178.424 500.02 178.654C500.273 178.885 500.627 179 501.08 179C502.029 179 502.504 178.539 502.504 177.617C502.504 176.652 502.023 176.17 501.062 176.17C500.605 176.17 500.254 176.293 500.008 176.539C499.762 176.785 499.639 177.15 499.639 177.635Z" fill="#0A2535"/>
<path d="M473.139 204H468.363V195.434H473.139V196.318H469.359V199.078H472.91V199.957H469.359V203.109H473.139V204ZM477.826 197.461C478.111 197.461 478.367 197.484 478.594 197.531L478.459 198.434C478.193 198.375 477.959 198.346 477.756 198.346C477.236 198.346 476.791 198.557 476.42 198.979C476.053 199.4 475.869 199.926 475.869 200.555V204H474.896V197.578H475.699L475.811 198.768H475.857C476.096 198.35 476.383 198.027 476.719 197.801C477.055 197.574 477.424 197.461 477.826 197.461ZM482.725 197.461C483.01 197.461 483.266 197.484 483.492 197.531L483.357 198.434C483.092 198.375 482.857 198.346 482.654 198.346C482.135 198.346 481.689 198.557 481.318 198.979C480.951 199.4 480.768 199.926 480.768 200.555V204H479.795V197.578H480.598L480.709 198.768H480.756C480.994 198.35 481.281 198.027 481.617 197.801C481.953 197.574 482.322 197.461 482.725 197.461ZM490.236 200.783C490.236 201.83 489.973 202.648 489.445 203.238C488.918 203.824 488.189 204.117 487.26 204.117C486.686 204.117 486.176 203.982 485.73 203.713C485.285 203.443 484.941 203.057 484.699 202.553C484.457 202.049 484.336 201.459 484.336 200.783C484.336 199.736 484.598 198.922 485.121 198.34C485.645 197.754 486.371 197.461 487.301 197.461C488.199 197.461 488.912 197.76 489.439 198.357C489.971 198.955 490.236 199.764 490.236 200.783ZM485.344 200.783C485.344 201.604 485.508 202.229 485.836 202.658C486.164 203.088 486.646 203.303 487.283 203.303C487.92 203.303 488.402 203.09 488.73 202.664C489.062 202.234 489.229 201.607 489.229 200.783C489.229 199.967 489.062 199.348 488.73 198.926C488.402 198.5 487.916 198.287 487.271 198.287C486.635 198.287 486.154 198.496 485.83 198.914C485.506 199.332 485.344 199.955 485.344 200.783ZM494.877 197.461C495.162 197.461 495.418 197.484 495.645 197.531L495.51 198.434C495.244 198.375 495.01 198.346 494.807 198.346C494.287 198.346 493.842 198.557 493.471 198.979C493.104 199.4 492.92 199.926 492.92 200.555V204H491.947V197.578H492.75L492.861 198.768H492.908C493.146 198.35 493.434 198.027 493.77 197.801C494.105 197.574 494.475 197.461 494.877 197.461Z" fill="#0A2535"/>
</svg>
