<svg width="564" height="306" viewBox="0 0 564 306" fill="none" xmlns="http://www.w3.org/2000/svg">
<line x1="280.5" y1="110" x2="280.5" y2="44" stroke="#0A2535"/>
<rect x="400" y="111" width="163" height="42" fill="white" stroke="#68C6A4" stroke-width="2"/>
<path d="M441.734 128.016C440.661 128.016 439.818 128.396 439.203 129.156C438.589 129.917 438.281 130.966 438.281 132.305C438.281 133.706 438.576 134.766 439.164 135.484C439.758 136.203 440.615 136.562 441.734 136.562C442.219 136.562 442.688 136.516 443.141 136.422C443.594 136.323 444.065 136.198 444.555 136.047V137.648C443.659 137.987 442.643 138.156 441.508 138.156C439.836 138.156 438.552 137.651 437.656 136.641C436.76 135.625 436.312 134.174 436.312 132.289C436.312 131.102 436.529 130.062 436.961 129.172C437.398 128.281 438.029 127.599 438.852 127.125C439.674 126.651 440.641 126.414 441.75 126.414C442.917 126.414 443.995 126.659 444.984 127.148L444.312 128.703C443.927 128.521 443.518 128.362 443.086 128.227C442.659 128.086 442.208 128.016 441.734 128.016ZM454.484 133.664C454.484 135.076 454.122 136.177 453.398 136.969C452.674 137.76 451.667 138.156 450.375 138.156C449.568 138.156 448.854 137.974 448.234 137.609C447.615 137.245 447.138 136.721 446.805 136.039C446.471 135.357 446.305 134.565 446.305 133.664C446.305 132.263 446.664 131.169 447.383 130.383C448.102 129.596 449.115 129.203 450.422 129.203C451.672 129.203 452.661 129.607 453.391 130.414C454.12 131.216 454.484 132.299 454.484 133.664ZM448.195 133.664C448.195 135.659 448.932 136.656 450.406 136.656C451.865 136.656 452.594 135.659 452.594 133.664C452.594 131.69 451.859 130.703 450.391 130.703C449.62 130.703 449.06 130.958 448.711 131.469C448.367 131.979 448.195 132.711 448.195 133.664ZM464.203 138H462.359V132.688C462.359 132.021 462.224 131.523 461.953 131.195C461.688 130.867 461.263 130.703 460.68 130.703C459.904 130.703 459.336 130.932 458.977 131.391C458.617 131.849 458.438 132.617 458.438 133.695V138H456.602V129.359H458.039L458.297 130.492H458.391C458.651 130.081 459.021 129.763 459.5 129.539C459.979 129.315 460.51 129.203 461.094 129.203C463.167 129.203 464.203 130.258 464.203 132.367V138ZM469.977 136.672C470.424 136.672 470.872 136.602 471.32 136.461V137.844C471.117 137.932 470.854 138.005 470.531 138.062C470.214 138.125 469.883 138.156 469.539 138.156C467.799 138.156 466.93 137.24 466.93 135.406V130.75H465.75V129.938L467.016 129.266L467.641 127.438H468.773V129.359H471.234V130.75H468.773V135.375C468.773 135.818 468.883 136.146 469.102 136.359C469.326 136.568 469.617 136.672 469.977 136.672ZM477.438 129.203C477.807 129.203 478.112 129.229 478.352 129.281L478.172 130.992C477.911 130.93 477.641 130.898 477.359 130.898C476.625 130.898 476.029 131.138 475.57 131.617C475.117 132.096 474.891 132.719 474.891 133.484V138H473.055V129.359H474.492L474.734 130.883H474.828C475.115 130.367 475.487 129.958 475.945 129.656C476.409 129.354 476.906 129.203 477.438 129.203ZM485.367 138L485 136.797H484.938C484.521 137.323 484.102 137.682 483.68 137.875C483.258 138.062 482.716 138.156 482.055 138.156C481.206 138.156 480.542 137.927 480.062 137.469C479.589 137.01 479.352 136.362 479.352 135.523C479.352 134.633 479.682 133.961 480.344 133.508C481.005 133.055 482.013 132.807 483.367 132.766L484.859 132.719V132.258C484.859 131.706 484.729 131.294 484.469 131.023C484.214 130.747 483.815 130.609 483.273 130.609C482.831 130.609 482.406 130.674 482 130.805C481.594 130.935 481.203 131.089 480.828 131.266L480.234 129.953C480.703 129.708 481.216 129.523 481.773 129.398C482.331 129.268 482.857 129.203 483.352 129.203C484.451 129.203 485.279 129.443 485.836 129.922C486.398 130.401 486.68 131.154 486.68 132.18V138H485.367ZM482.633 136.75C483.299 136.75 483.833 136.565 484.234 136.195C484.641 135.82 484.844 135.297 484.844 134.625V133.875L483.734 133.922C482.87 133.953 482.24 134.099 481.844 134.359C481.453 134.615 481.258 135.008 481.258 135.539C481.258 135.924 481.372 136.224 481.602 136.438C481.831 136.646 482.174 136.75 482.633 136.75ZM492.727 138.156C491.419 138.156 490.424 137.776 489.742 137.016C489.065 136.25 488.727 135.154 488.727 133.727C488.727 132.273 489.081 131.156 489.789 130.375C490.503 129.594 491.531 129.203 492.875 129.203C493.786 129.203 494.607 129.372 495.336 129.711L494.781 131.188C494.005 130.885 493.365 130.734 492.859 130.734C491.365 130.734 490.617 131.727 490.617 133.711C490.617 134.68 490.802 135.409 491.172 135.898C491.547 136.383 492.094 136.625 492.812 136.625C493.63 136.625 494.404 136.422 495.133 136.016V137.617C494.805 137.81 494.453 137.948 494.078 138.031C493.708 138.115 493.258 138.156 492.727 138.156ZM500.383 136.672C500.831 136.672 501.279 136.602 501.727 136.461V137.844C501.523 137.932 501.26 138.005 500.938 138.062C500.62 138.125 500.289 138.156 499.945 138.156C498.206 138.156 497.336 137.24 497.336 135.406V130.75H496.156V129.938L497.422 129.266L498.047 127.438H499.18V129.359H501.641V130.75H499.18V135.375C499.18 135.818 499.289 136.146 499.508 136.359C499.732 136.568 500.023 136.672 500.383 136.672ZM511.125 133.664C511.125 135.076 510.763 136.177 510.039 136.969C509.315 137.76 508.307 138.156 507.016 138.156C506.208 138.156 505.495 137.974 504.875 137.609C504.255 137.245 503.779 136.721 503.445 136.039C503.112 135.357 502.945 134.565 502.945 133.664C502.945 132.263 503.305 131.169 504.023 130.383C504.742 129.596 505.755 129.203 507.062 129.203C508.312 129.203 509.302 129.607 510.031 130.414C510.76 131.216 511.125 132.299 511.125 133.664ZM504.836 133.664C504.836 135.659 505.573 136.656 507.047 136.656C508.505 136.656 509.234 135.659 509.234 133.664C509.234 131.69 508.5 130.703 507.031 130.703C506.26 130.703 505.701 130.958 505.352 131.469C505.008 131.979 504.836 132.711 504.836 133.664ZM517.625 129.203C517.995 129.203 518.299 129.229 518.539 129.281L518.359 130.992C518.099 130.93 517.828 130.898 517.547 130.898C516.812 130.898 516.216 131.138 515.758 131.617C515.305 132.096 515.078 132.719 515.078 133.484V138H513.242V129.359H514.68L514.922 130.883H515.016C515.302 130.367 515.674 129.958 516.133 129.656C516.596 129.354 517.094 129.203 517.625 129.203ZM525.953 135.539C525.953 136.383 525.646 137.031 525.031 137.484C524.417 137.932 523.536 138.156 522.391 138.156C521.24 138.156 520.315 137.982 519.617 137.633V136.047C520.633 136.516 521.578 136.75 522.453 136.75C523.583 136.75 524.148 136.409 524.148 135.727C524.148 135.508 524.086 135.326 523.961 135.18C523.836 135.034 523.63 134.883 523.344 134.727C523.057 134.57 522.659 134.393 522.148 134.195C521.154 133.81 520.479 133.424 520.125 133.039C519.776 132.654 519.602 132.154 519.602 131.539C519.602 130.799 519.898 130.227 520.492 129.82C521.091 129.409 521.904 129.203 522.93 129.203C523.945 129.203 524.906 129.409 525.812 129.82L525.219 131.203C524.286 130.818 523.503 130.625 522.867 130.625C521.898 130.625 521.414 130.901 521.414 131.453C521.414 131.724 521.539 131.953 521.789 132.141C522.044 132.328 522.596 132.586 523.445 132.914C524.159 133.19 524.677 133.443 525 133.672C525.323 133.901 525.562 134.167 525.719 134.469C525.875 134.766 525.953 135.122 525.953 135.539Z" fill="#0A2535"/>
<line x1="480.5" y1="110" x2="480.5" y2="77" stroke="#0A2535"/>
<rect x="1" y="1" width="562" height="42" fill="white" stroke="#68C6A4" stroke-width="2"/>
<path d="M190.008 22.2734C190.008 24.1328 189.542 25.5781 188.609 26.6094C187.682 27.6406 186.367 28.1562 184.664 28.1562C182.94 28.1562 181.615 27.6458 180.688 26.625C179.766 25.599 179.305 24.1432 179.305 22.2578C179.305 20.3724 179.768 18.9245 180.695 17.9141C181.628 16.9036 182.956 16.3984 184.68 16.3984C186.378 16.3984 187.69 16.9115 188.617 17.9375C189.544 18.9635 190.008 20.4089 190.008 22.2734ZM181.289 22.2734C181.289 23.6797 181.573 24.7474 182.141 25.4766C182.708 26.2005 183.549 26.5625 184.664 26.5625C185.773 26.5625 186.609 26.2031 187.172 25.4844C187.74 24.7656 188.023 23.6953 188.023 22.2734C188.023 20.8724 187.742 19.8099 187.18 19.0859C186.622 18.362 185.789 18 184.68 18C183.56 18 182.714 18.362 182.141 19.0859C181.573 19.8099 181.289 20.8724 181.289 22.2734ZM199.867 28H198.023V22.6875C198.023 22.0208 197.888 21.5234 197.617 21.1953C197.352 20.8672 196.927 20.7031 196.344 20.7031C195.568 20.7031 195 20.9323 194.641 21.3906C194.281 21.849 194.102 22.6172 194.102 23.6953V28H192.266V19.3594H193.703L193.961 20.4922H194.055C194.315 20.0807 194.685 19.763 195.164 19.5391C195.643 19.3151 196.174 19.2031 196.758 19.2031C198.831 19.2031 199.867 20.2578 199.867 22.3672V28ZM206.836 19.2031C207.914 19.2031 208.753 19.5938 209.352 20.375C209.956 21.1562 210.258 22.2526 210.258 23.6641C210.258 25.0807 209.953 26.1849 209.344 26.9766C208.734 27.763 207.888 28.1562 206.805 28.1562C205.711 28.1562 204.862 27.763 204.258 26.9766H204.133L203.797 28H202.422V15.8438H204.258V18.7344C204.258 18.9479 204.247 19.2656 204.227 19.6875C204.206 20.1094 204.19 20.3776 204.18 20.4922H204.258C204.841 19.6328 205.701 19.2031 206.836 19.2031ZM206.359 20.7031C205.62 20.7031 205.086 20.9219 204.758 21.3594C204.435 21.7917 204.268 22.5182 204.258 23.5391V23.6641C204.258 24.7161 204.424 25.4792 204.758 25.9531C205.091 26.4219 205.635 26.6562 206.391 26.6562C207.042 26.6562 207.534 26.3984 207.867 25.8828C208.206 25.3672 208.375 24.6224 208.375 23.6484C208.375 21.6849 207.703 20.7031 206.359 20.7031ZM220.055 23.6641C220.055 25.0755 219.693 26.1771 218.969 26.9688C218.245 27.7604 217.237 28.1562 215.945 28.1562C215.138 28.1562 214.424 27.974 213.805 27.6094C213.185 27.2448 212.708 26.7214 212.375 26.0391C212.042 25.3568 211.875 24.5651 211.875 23.6641C211.875 22.263 212.234 21.1693 212.953 20.3828C213.672 19.5964 214.685 19.2031 215.992 19.2031C217.242 19.2031 218.232 19.6068 218.961 20.4141C219.69 21.2161 220.055 22.2995 220.055 23.6641ZM213.766 23.6641C213.766 25.6589 214.503 26.6562 215.977 26.6562C217.435 26.6562 218.164 25.6589 218.164 23.6641C218.164 21.6901 217.43 20.7031 215.961 20.7031C215.19 20.7031 214.63 20.9583 214.281 21.4688C213.938 21.9792 213.766 22.7109 213.766 23.6641ZM227.578 28L227.211 26.7969H227.148C226.732 27.3229 226.312 27.6823 225.891 27.875C225.469 28.0625 224.927 28.1562 224.266 28.1562C223.417 28.1562 222.753 27.9271 222.273 27.4688C221.799 27.0104 221.562 26.362 221.562 25.5234C221.562 24.6328 221.893 23.9609 222.555 23.5078C223.216 23.0547 224.224 22.8073 225.578 22.7656L227.07 22.7188V22.2578C227.07 21.7057 226.94 21.2943 226.68 21.0234C226.424 20.7474 226.026 20.6094 225.484 20.6094C225.042 20.6094 224.617 20.6745 224.211 20.8047C223.805 20.9349 223.414 21.0885 223.039 21.2656L222.445 19.9531C222.914 19.7083 223.427 19.5234 223.984 19.3984C224.542 19.2682 225.068 19.2031 225.562 19.2031C226.661 19.2031 227.49 19.4427 228.047 19.9219C228.609 20.401 228.891 21.1536 228.891 22.1797V28H227.578ZM224.844 26.75C225.51 26.75 226.044 26.5651 226.445 26.1953C226.852 25.8203 227.055 25.2969 227.055 24.625V23.875L225.945 23.9219C225.081 23.9531 224.451 24.099 224.055 24.3594C223.664 24.6146 223.469 25.0078 223.469 25.5391C223.469 25.9245 223.583 26.224 223.812 26.4375C224.042 26.6458 224.385 26.75 224.844 26.75ZM235.836 19.2031C236.206 19.2031 236.51 19.2292 236.75 19.2812L236.57 20.9922C236.31 20.9297 236.039 20.8984 235.758 20.8984C235.023 20.8984 234.427 21.138 233.969 21.6172C233.516 22.0964 233.289 22.7188 233.289 23.4844V28H231.453V19.3594H232.891L233.133 20.8828H233.227C233.513 20.3672 233.885 19.9583 234.344 19.6562C234.807 19.3542 235.305 19.2031 235.836 19.2031ZM241.273 28.1562C240.195 28.1562 239.354 27.7656 238.75 26.9844C238.146 26.2031 237.844 25.1068 237.844 23.6953C237.844 22.2786 238.148 21.1771 238.758 20.3906C239.372 19.599 240.221 19.2031 241.305 19.2031C242.44 19.2031 243.305 19.6224 243.898 20.4609H243.992C243.904 19.8411 243.859 19.3516 243.859 18.9922V15.8438H245.703V28H244.266L243.945 26.8672H243.859C243.271 27.7266 242.409 28.1562 241.273 28.1562ZM241.766 26.6719C242.521 26.6719 243.07 26.4609 243.414 26.0391C243.758 25.612 243.935 24.9219 243.945 23.9688V23.7109C243.945 22.6224 243.768 21.849 243.414 21.3906C243.06 20.9323 242.505 20.7031 241.75 20.7031C241.104 20.7031 240.607 20.9661 240.258 21.4922C239.909 22.013 239.734 22.7578 239.734 23.7266C239.734 24.6849 239.904 25.4167 240.242 25.9219C240.581 26.4219 241.089 26.6719 241.766 26.6719ZM250.164 28H248.328V19.3594H250.164V28ZM248.219 17.0703C248.219 16.7422 248.307 16.4896 248.484 16.3125C248.667 16.1354 248.924 16.0469 249.258 16.0469C249.581 16.0469 249.831 16.1354 250.008 16.3125C250.19 16.4896 250.281 16.7422 250.281 17.0703C250.281 17.3828 250.19 17.6302 250.008 17.8125C249.831 17.9896 249.581 18.0781 249.258 18.0781C248.924 18.0781 248.667 17.9896 248.484 17.8125C248.307 17.6302 248.219 17.3828 248.219 17.0703ZM260.398 28H258.555V22.6875C258.555 22.0208 258.419 21.5234 258.148 21.1953C257.883 20.8672 257.458 20.7031 256.875 20.7031C256.099 20.7031 255.531 20.9323 255.172 21.3906C254.812 21.849 254.633 22.6172 254.633 23.6953V28H252.797V19.3594H254.234L254.492 20.4922H254.586C254.846 20.0807 255.216 19.763 255.695 19.5391C256.174 19.3151 256.706 19.2031 257.289 19.2031C259.362 19.2031 260.398 20.2578 260.398 22.3672V28ZM270.25 19.3594V20.3672L268.773 20.6406C268.909 20.8229 269.021 21.0469 269.109 21.3125C269.198 21.5781 269.242 21.8594 269.242 22.1562C269.242 23.0469 268.935 23.7474 268.32 24.2578C267.706 24.7682 266.859 25.0234 265.781 25.0234C265.505 25.0234 265.255 25.0026 265.031 24.9609C264.635 25.2057 264.438 25.4922 264.438 25.8203C264.438 26.0182 264.529 26.1667 264.711 26.2656C264.898 26.3646 265.24 26.4141 265.734 26.4141H267.242C268.195 26.4141 268.919 26.6172 269.414 27.0234C269.909 27.4297 270.156 28.0156 270.156 28.7812C270.156 29.7604 269.753 30.5156 268.945 31.0469C268.138 31.5781 266.971 31.8438 265.445 31.8438C264.268 31.8438 263.37 31.6354 262.75 31.2188C262.13 30.8021 261.82 30.2083 261.82 29.4375C261.82 28.9062 261.987 28.4583 262.32 28.0938C262.659 27.7344 263.13 27.4844 263.734 27.3438C263.49 27.2396 263.286 27.0729 263.125 26.8438C262.969 26.6094 262.891 26.3646 262.891 26.1094C262.891 25.7865 262.982 25.513 263.164 25.2891C263.346 25.0651 263.617 24.8438 263.977 24.625C263.529 24.4323 263.164 24.1198 262.883 23.6875C262.607 23.25 262.469 22.7396 262.469 22.1562C262.469 21.2188 262.763 20.4922 263.352 19.9766C263.945 19.4609 264.789 19.2031 265.883 19.2031C266.128 19.2031 266.383 19.2214 266.648 19.2578C266.919 19.2891 267.122 19.3229 267.258 19.3594H270.25ZM263.461 29.3438C263.461 29.7396 263.638 30.0443 263.992 30.2578C264.352 30.4714 264.854 30.5781 265.5 30.5781C266.5 30.5781 267.245 30.4349 267.734 30.1484C268.224 29.862 268.469 29.4818 268.469 29.0078C268.469 28.6328 268.333 28.3646 268.062 28.2031C267.797 28.0469 267.299 27.9688 266.57 27.9688H265.18C264.654 27.9688 264.234 28.0911 263.922 28.3359C263.615 28.5859 263.461 28.9219 263.461 29.3438ZM264.25 22.1562C264.25 22.6979 264.388 23.1146 264.664 23.4062C264.945 23.6979 265.346 23.8438 265.867 23.8438C266.93 23.8438 267.461 23.276 267.461 22.1406C267.461 21.5781 267.328 21.1458 267.062 20.8438C266.802 20.5365 266.404 20.3828 265.867 20.3828C265.336 20.3828 264.932 20.5339 264.656 20.8359C264.385 21.138 264.25 21.5781 264.25 22.1562ZM278.078 21.8906H279.375C280.245 21.8906 280.875 21.7292 281.266 21.4062C281.656 21.0833 281.852 20.6042 281.852 19.9688C281.852 19.3229 281.641 18.8594 281.219 18.5781C280.797 18.2969 280.161 18.1562 279.312 18.1562H278.078V21.8906ZM278.078 23.4375V28H276.211V16.5781H279.438C280.911 16.5781 282.003 16.8542 282.711 17.4062C283.419 17.9583 283.773 18.7917 283.773 19.9062C283.773 21.3281 283.034 22.3411 281.555 22.9453L284.781 28H282.656L279.922 23.4375H278.078ZM290.023 28.1562C288.68 28.1562 287.628 27.7656 286.867 26.9844C286.112 26.1979 285.734 25.1172 285.734 23.7422C285.734 22.3307 286.086 21.2214 286.789 20.4141C287.492 19.6068 288.458 19.2031 289.688 19.2031C290.828 19.2031 291.729 19.5495 292.391 20.2422C293.052 20.9349 293.383 21.888 293.383 23.1016V24.0938H287.625C287.651 24.9323 287.878 25.5781 288.305 26.0312C288.732 26.4792 289.333 26.7031 290.109 26.7031C290.62 26.7031 291.094 26.6562 291.531 26.5625C291.974 26.4635 292.448 26.3021 292.953 26.0781V27.5703C292.505 27.7839 292.052 27.9349 291.594 28.0234C291.135 28.112 290.612 28.1562 290.023 28.1562ZM289.688 20.5938C289.104 20.5938 288.635 20.7786 288.281 21.1484C287.932 21.5182 287.724 22.0573 287.656 22.7656H291.578C291.568 22.0521 291.396 21.513 291.062 21.1484C290.729 20.7786 290.271 20.5938 289.688 20.5938ZM298.891 26.6875C299.661 26.6875 300.214 26.4661 300.547 26.0234C300.885 25.5755 301.055 24.901 301.055 24V23.7109C301.055 22.6432 300.88 21.875 300.531 21.4062C300.188 20.9375 299.63 20.7031 298.859 20.7031C298.203 20.7031 297.703 20.9635 297.359 21.4844C297.016 22.0052 296.844 22.7526 296.844 23.7266C296.844 25.7005 297.526 26.6875 298.891 26.6875ZM298.367 28.1562C297.299 28.1562 296.464 27.7656 295.859 26.9844C295.255 26.1979 294.953 25.1016 294.953 23.6953C294.953 22.2891 295.26 21.1901 295.875 20.3984C296.49 19.6016 297.336 19.2031 298.414 19.2031C298.956 19.2031 299.44 19.3047 299.867 19.5078C300.299 19.7057 300.685 20.0339 301.023 20.4922H301.086L301.289 19.3594H302.812V31.8438H300.969V28.1797C300.969 27.9505 300.979 27.7083 301 27.4531C301.021 27.1979 301.039 27.0026 301.055 26.8672H300.953C300.411 27.7266 299.549 28.1562 298.367 28.1562ZM311.531 28L311.273 26.8672H311.18C310.924 27.2682 310.56 27.5833 310.086 27.8125C309.617 28.0417 309.081 28.1562 308.477 28.1562C307.43 28.1562 306.648 27.8958 306.133 27.375C305.617 26.8542 305.359 26.0651 305.359 25.0078V19.3594H307.211V24.6875C307.211 25.349 307.346 25.8464 307.617 26.1797C307.888 26.5078 308.312 26.6719 308.891 26.6719C309.661 26.6719 310.227 26.4427 310.586 25.9844C310.951 25.5208 311.133 24.7474 311.133 23.6641V19.3594H312.977V28H311.531ZM317.43 28H315.594V19.3594H317.43V28ZM315.484 17.0703C315.484 16.7422 315.573 16.4896 315.75 16.3125C315.932 16.1354 316.19 16.0469 316.523 16.0469C316.846 16.0469 317.096 16.1354 317.273 16.3125C317.456 16.4896 317.547 16.7422 317.547 17.0703C317.547 17.3828 317.456 17.6302 317.273 17.8125C317.096 17.9896 316.846 18.0781 316.523 18.0781C316.19 18.0781 315.932 17.9896 315.75 17.8125C315.573 17.6302 315.484 17.3828 315.484 17.0703ZM324.445 19.2031C324.815 19.2031 325.12 19.2292 325.359 19.2812L325.18 20.9922C324.919 20.9297 324.648 20.8984 324.367 20.8984C323.633 20.8984 323.036 21.138 322.578 21.6172C322.125 22.0964 321.898 22.7188 321.898 23.4844V28H320.062V19.3594H321.5L321.742 20.8828H321.836C322.122 20.3672 322.495 19.9583 322.953 19.6562C323.417 19.3542 323.914 19.2031 324.445 19.2031ZM330.742 28.1562C329.398 28.1562 328.346 27.7656 327.586 26.9844C326.831 26.1979 326.453 25.1172 326.453 23.7422C326.453 22.3307 326.805 21.2214 327.508 20.4141C328.211 19.6068 329.177 19.2031 330.406 19.2031C331.547 19.2031 332.448 19.5495 333.109 20.2422C333.771 20.9349 334.102 21.888 334.102 23.1016V24.0938H328.344C328.37 24.9323 328.596 25.5781 329.023 26.0312C329.451 26.4792 330.052 26.7031 330.828 26.7031C331.339 26.7031 331.812 26.6562 332.25 26.5625C332.693 26.4635 333.167 26.3021 333.672 26.0781V27.5703C333.224 27.7839 332.771 27.9349 332.312 28.0234C331.854 28.112 331.331 28.1562 330.742 28.1562ZM330.406 20.5938C329.823 20.5938 329.354 20.7786 329 21.1484C328.651 21.5182 328.443 22.0573 328.375 22.7656H332.297C332.286 22.0521 332.115 21.513 331.781 21.1484C331.448 20.7786 330.99 20.5938 330.406 20.5938ZM343.469 28H341.625V22.6719C341.625 22.0104 341.5 21.5182 341.25 21.1953C341 20.8672 340.609 20.7031 340.078 20.7031C339.37 20.7031 338.849 20.9349 338.516 21.3984C338.188 21.8568 338.023 22.6224 338.023 23.6953V28H336.188V19.3594H337.625L337.883 20.4922H337.977C338.216 20.0807 338.562 19.763 339.016 19.5391C339.474 19.3151 339.977 19.2031 340.523 19.2031C341.852 19.2031 342.732 19.6562 343.164 20.5625H343.289C343.544 20.1354 343.904 19.8021 344.367 19.5625C344.831 19.3229 345.362 19.2031 345.961 19.2031C346.992 19.2031 347.742 19.4635 348.211 19.9844C348.685 20.5052 348.922 21.2995 348.922 22.3672V28H347.086V22.6719C347.086 22.0104 346.958 21.5182 346.703 21.1953C346.453 20.8672 346.062 20.7031 345.531 20.7031C344.818 20.7031 344.294 20.9271 343.961 21.375C343.633 21.8177 343.469 22.5 343.469 23.4219V28ZM355.258 28.1562C353.914 28.1562 352.862 27.7656 352.102 26.9844C351.346 26.1979 350.969 25.1172 350.969 23.7422C350.969 22.3307 351.32 21.2214 352.023 20.4141C352.727 19.6068 353.693 19.2031 354.922 19.2031C356.062 19.2031 356.964 19.5495 357.625 20.2422C358.286 20.9349 358.617 21.888 358.617 23.1016V24.0938H352.859C352.885 24.9323 353.112 25.5781 353.539 26.0312C353.966 26.4792 354.568 26.7031 355.344 26.7031C355.854 26.7031 356.328 26.6562 356.766 26.5625C357.208 26.4635 357.682 26.3021 358.188 26.0781V27.5703C357.74 27.7839 357.286 27.9349 356.828 28.0234C356.37 28.112 355.846 28.1562 355.258 28.1562ZM354.922 20.5938C354.339 20.5938 353.87 20.7786 353.516 21.1484C353.167 21.5182 352.958 22.0573 352.891 22.7656H356.812C356.802 22.0521 356.63 21.513 356.297 21.1484C355.964 20.7786 355.505 20.5938 354.922 20.5938ZM368.305 28H366.461V22.6875C366.461 22.0208 366.326 21.5234 366.055 21.1953C365.789 20.8672 365.365 20.7031 364.781 20.7031C364.005 20.7031 363.438 20.9323 363.078 21.3906C362.719 21.849 362.539 22.6172 362.539 23.6953V28H360.703V19.3594H362.141L362.398 20.4922H362.492C362.753 20.0807 363.122 19.763 363.602 19.5391C364.081 19.3151 364.612 19.2031 365.195 19.2031C367.268 19.2031 368.305 20.2578 368.305 22.3672V28ZM374.078 26.6719C374.526 26.6719 374.974 26.6016 375.422 26.4609V27.8438C375.219 27.9323 374.956 28.0052 374.633 28.0625C374.315 28.125 373.984 28.1562 373.641 28.1562C371.901 28.1562 371.031 27.2396 371.031 25.4062V20.75H369.852V19.9375L371.117 19.2656L371.742 17.4375H372.875V19.3594H375.336V20.75H372.875V25.375C372.875 25.8177 372.984 26.1458 373.203 26.3594C373.427 26.5677 373.719 26.6719 374.078 26.6719ZM382.961 25.5391C382.961 26.3828 382.654 27.0312 382.039 27.4844C381.424 27.9323 380.544 28.1562 379.398 28.1562C378.247 28.1562 377.323 27.9818 376.625 27.6328V26.0469C377.641 26.5156 378.586 26.75 379.461 26.75C380.591 26.75 381.156 26.4089 381.156 25.7266C381.156 25.5078 381.094 25.3255 380.969 25.1797C380.844 25.0339 380.638 24.8828 380.352 24.7266C380.065 24.5703 379.667 24.3932 379.156 24.1953C378.161 23.8099 377.487 23.4245 377.133 23.0391C376.784 22.6536 376.609 22.1536 376.609 21.5391C376.609 20.7995 376.906 20.2266 377.5 19.8203C378.099 19.4089 378.911 19.2031 379.938 19.2031C380.953 19.2031 381.914 19.4089 382.82 19.8203L382.227 21.2031C381.294 20.8177 380.51 20.625 379.875 20.625C378.906 20.625 378.422 20.901 378.422 21.4531C378.422 21.724 378.547 21.9531 378.797 22.1406C379.052 22.3281 379.604 22.5859 380.453 22.9141C381.167 23.1901 381.685 23.4427 382.008 23.6719C382.331 23.901 382.57 24.1667 382.727 24.4688C382.883 24.7656 382.961 25.1224 382.961 25.5391Z" fill="#0A2535"/>
<line x1="81.5" y1="110" x2="81.5" y2="77" stroke="#0A2535"/>
<line x1="280.5" y1="186" x2="280.5" y2="153" stroke="#0A2535"/>
<line x1="480.5" y1="186" x2="480.5" y2="153" stroke="#0A2535"/>
<line x1="81.5" y1="186" x2="81.5" y2="153" stroke="#0A2535"/>
<rect x="1" y="111" width="163" height="42" fill="white" stroke="#68C6A4" stroke-width="2"/>
<path d="M46.9297 138V126.578H48.7969V136.398H53.6328V138H46.9297ZM63.0703 133.664C63.0703 135.076 62.7083 136.177 61.9844 136.969C61.2604 137.76 60.2526 138.156 58.9609 138.156C58.1536 138.156 57.4401 137.974 56.8203 137.609C56.2005 137.245 55.724 136.721 55.3906 136.039C55.0573 135.357 54.8906 134.565 54.8906 133.664C54.8906 132.263 55.25 131.169 55.9688 130.383C56.6875 129.596 57.7005 129.203 59.0078 129.203C60.2578 129.203 61.2474 129.607 61.9766 130.414C62.7057 131.216 63.0703 132.299 63.0703 133.664ZM56.7812 133.664C56.7812 135.659 57.5182 136.656 58.9922 136.656C60.4505 136.656 61.1797 135.659 61.1797 133.664C61.1797 131.69 60.4453 130.703 58.9766 130.703C58.2057 130.703 57.6458 130.958 57.2969 131.469C56.9531 131.979 56.7812 132.711 56.7812 133.664ZM68.6719 138.156C67.3646 138.156 66.3698 137.776 65.6875 137.016C65.0104 136.25 64.6719 135.154 64.6719 133.727C64.6719 132.273 65.026 131.156 65.7344 130.375C66.4479 129.594 67.4766 129.203 68.8203 129.203C69.7318 129.203 70.5521 129.372 71.2812 129.711L70.7266 131.188C69.9505 130.885 69.3099 130.734 68.8047 130.734C67.3099 130.734 66.5625 131.727 66.5625 133.711C66.5625 134.68 66.7474 135.409 67.1172 135.898C67.4922 136.383 68.0391 136.625 68.7578 136.625C69.5755 136.625 70.349 136.422 71.0781 136.016V137.617C70.75 137.81 70.3984 137.948 70.0234 138.031C69.6536 138.115 69.2031 138.156 68.6719 138.156ZM78.5156 138L78.1484 136.797H78.0859C77.6693 137.323 77.25 137.682 76.8281 137.875C76.4062 138.062 75.8646 138.156 75.2031 138.156C74.3542 138.156 73.6901 137.927 73.2109 137.469C72.737 137.01 72.5 136.362 72.5 135.523C72.5 134.633 72.8307 133.961 73.4922 133.508C74.1536 133.055 75.1615 132.807 76.5156 132.766L78.0078 132.719V132.258C78.0078 131.706 77.8776 131.294 77.6172 131.023C77.362 130.747 76.9635 130.609 76.4219 130.609C75.9792 130.609 75.5547 130.674 75.1484 130.805C74.7422 130.935 74.3516 131.089 73.9766 131.266L73.3828 129.953C73.8516 129.708 74.3646 129.523 74.9219 129.398C75.4792 129.268 76.0052 129.203 76.5 129.203C77.599 129.203 78.4271 129.443 78.9844 129.922C79.5469 130.401 79.8281 131.154 79.8281 132.18V138H78.5156ZM75.7812 136.75C76.4479 136.75 76.9818 136.565 77.3828 136.195C77.7891 135.82 77.9922 135.297 77.9922 134.625V133.875L76.8828 133.922C76.0182 133.953 75.388 134.099 74.9922 134.359C74.6016 134.615 74.4062 135.008 74.4062 135.539C74.4062 135.924 74.5208 136.224 74.75 136.438C74.9792 136.646 75.3229 136.75 75.7812 136.75ZM85.6094 136.672C86.0573 136.672 86.5052 136.602 86.9531 136.461V137.844C86.75 137.932 86.487 138.005 86.1641 138.062C85.8464 138.125 85.5156 138.156 85.1719 138.156C83.4323 138.156 82.5625 137.24 82.5625 135.406V130.75H81.3828V129.938L82.6484 129.266L83.2734 127.438H84.4062V129.359H86.8672V130.75H84.4062V135.375C84.4062 135.818 84.5156 136.146 84.7344 136.359C84.9583 136.568 85.25 136.672 85.6094 136.672ZM90.5234 138H88.6875V129.359H90.5234V138ZM88.5781 127.07C88.5781 126.742 88.6667 126.49 88.8438 126.312C89.026 126.135 89.2839 126.047 89.6172 126.047C89.9401 126.047 90.1901 126.135 90.3672 126.312C90.5495 126.49 90.6406 126.742 90.6406 127.07C90.6406 127.383 90.5495 127.63 90.3672 127.812C90.1901 127.99 89.9401 128.078 89.6172 128.078C89.2839 128.078 89.026 127.99 88.8438 127.812C88.6667 127.63 88.5781 127.383 88.5781 127.07ZM100.82 133.664C100.82 135.076 100.458 136.177 99.7344 136.969C99.0104 137.76 98.0026 138.156 96.7109 138.156C95.9036 138.156 95.1901 137.974 94.5703 137.609C93.9505 137.245 93.474 136.721 93.1406 136.039C92.8073 135.357 92.6406 134.565 92.6406 133.664C92.6406 132.263 93 131.169 93.7188 130.383C94.4375 129.596 95.4505 129.203 96.7578 129.203C98.0078 129.203 98.9974 129.607 99.7266 130.414C100.456 131.216 100.82 132.299 100.82 133.664ZM94.5312 133.664C94.5312 135.659 95.2682 136.656 96.7422 136.656C98.2005 136.656 98.9297 135.659 98.9297 133.664C98.9297 131.69 98.1953 130.703 96.7266 130.703C95.9557 130.703 95.3958 130.958 95.0469 131.469C94.7031 131.979 94.5312 132.711 94.5312 133.664ZM110.539 138H108.695V132.688C108.695 132.021 108.56 131.523 108.289 131.195C108.023 130.867 107.599 130.703 107.016 130.703C106.24 130.703 105.672 130.932 105.312 131.391C104.953 131.849 104.773 132.617 104.773 133.695V138H102.938V129.359H104.375L104.633 130.492H104.727C104.987 130.081 105.357 129.763 105.836 129.539C106.315 129.315 106.846 129.203 107.43 129.203C109.503 129.203 110.539 130.258 110.539 132.367V138ZM118.898 135.539C118.898 136.383 118.591 137.031 117.977 137.484C117.362 137.932 116.482 138.156 115.336 138.156C114.185 138.156 113.26 137.982 112.562 137.633V136.047C113.578 136.516 114.523 136.75 115.398 136.75C116.529 136.75 117.094 136.409 117.094 135.727C117.094 135.508 117.031 135.326 116.906 135.18C116.781 135.034 116.576 134.883 116.289 134.727C116.003 134.57 115.604 134.393 115.094 134.195C114.099 133.81 113.424 133.424 113.07 133.039C112.721 132.654 112.547 132.154 112.547 131.539C112.547 130.799 112.844 130.227 113.438 129.82C114.036 129.409 114.849 129.203 115.875 129.203C116.891 129.203 117.852 129.409 118.758 129.82L118.164 131.203C117.232 130.818 116.448 130.625 115.812 130.625C114.844 130.625 114.359 130.901 114.359 131.453C114.359 131.724 114.484 131.953 114.734 132.141C114.99 132.328 115.542 132.586 116.391 132.914C117.104 133.19 117.622 133.443 117.945 133.672C118.268 133.901 118.508 134.167 118.664 134.469C118.82 134.766 118.898 135.122 118.898 135.539Z" fill="#0A2535"/>
<rect x="200" y="111" width="163" height="42" fill="white" stroke="#68C6A4" stroke-width="2"/>
<path d="M247.336 138H240.875V126.578H247.336V128.156H242.742V131.266H247.047V132.828H242.742V136.414H247.336V138ZM256.898 138H255.055V132.672C255.055 132.01 254.93 131.518 254.68 131.195C254.43 130.867 254.039 130.703 253.508 130.703C252.799 130.703 252.279 130.935 251.945 131.398C251.617 131.857 251.453 132.622 251.453 133.695V138H249.617V129.359H251.055L251.312 130.492H251.406C251.646 130.081 251.992 129.763 252.445 129.539C252.904 129.315 253.406 129.203 253.953 129.203C255.281 129.203 256.161 129.656 256.594 130.562H256.719C256.974 130.135 257.333 129.802 257.797 129.562C258.26 129.323 258.792 129.203 259.391 129.203C260.422 129.203 261.172 129.464 261.641 129.984C262.115 130.505 262.352 131.299 262.352 132.367V138H260.516V132.672C260.516 132.01 260.388 131.518 260.133 131.195C259.883 130.867 259.492 130.703 258.961 130.703C258.247 130.703 257.724 130.927 257.391 131.375C257.062 131.818 256.898 132.5 256.898 133.422V138ZM269.297 138.156C268.203 138.156 267.354 137.763 266.75 136.977H266.641C266.714 137.706 266.75 138.148 266.75 138.305V141.844H264.914V129.359H266.398C266.44 129.521 266.526 129.906 266.656 130.516H266.75C267.323 129.641 268.182 129.203 269.328 129.203C270.406 129.203 271.245 129.594 271.844 130.375C272.448 131.156 272.75 132.253 272.75 133.664C272.75 135.076 272.443 136.177 271.828 136.969C271.219 137.76 270.375 138.156 269.297 138.156ZM268.852 130.703C268.122 130.703 267.589 130.917 267.25 131.344C266.917 131.771 266.75 132.453 266.75 133.391V133.664C266.75 134.716 266.917 135.479 267.25 135.953C267.583 136.422 268.128 136.656 268.883 136.656C269.518 136.656 270.008 136.396 270.352 135.875C270.695 135.354 270.867 134.612 270.867 133.648C270.867 132.68 270.695 131.948 270.352 131.453C270.013 130.953 269.513 130.703 268.852 130.703ZM276.719 138H274.883V125.844H276.719V138ZM287.016 133.664C287.016 135.076 286.654 136.177 285.93 136.969C285.206 137.76 284.198 138.156 282.906 138.156C282.099 138.156 281.385 137.974 280.766 137.609C280.146 137.245 279.669 136.721 279.336 136.039C279.003 135.357 278.836 134.565 278.836 133.664C278.836 132.263 279.195 131.169 279.914 130.383C280.633 129.596 281.646 129.203 282.953 129.203C284.203 129.203 285.193 129.607 285.922 130.414C286.651 131.216 287.016 132.299 287.016 133.664ZM280.727 133.664C280.727 135.659 281.464 136.656 282.938 136.656C284.396 136.656 285.125 135.659 285.125 133.664C285.125 131.69 284.391 130.703 282.922 130.703C282.151 130.703 281.591 130.958 281.242 131.469C280.898 131.979 280.727 132.711 280.727 133.664ZM287.82 129.359H289.82L291.578 134.258C291.844 134.956 292.021 135.612 292.109 136.227H292.172C292.219 135.94 292.305 135.594 292.43 135.188C292.555 134.776 293.216 132.833 294.414 129.359H296.398L292.703 139.148C292.031 140.945 290.911 141.844 289.344 141.844C288.938 141.844 288.542 141.799 288.156 141.711V140.258C288.432 140.32 288.747 140.352 289.102 140.352C289.987 140.352 290.609 139.839 290.969 138.812L291.289 138L287.82 129.359ZM301.484 138.156C300.141 138.156 299.089 137.766 298.328 136.984C297.573 136.198 297.195 135.117 297.195 133.742C297.195 132.331 297.547 131.221 298.25 130.414C298.953 129.607 299.919 129.203 301.148 129.203C302.289 129.203 303.19 129.549 303.852 130.242C304.513 130.935 304.844 131.888 304.844 133.102V134.094H299.086C299.112 134.932 299.339 135.578 299.766 136.031C300.193 136.479 300.794 136.703 301.57 136.703C302.081 136.703 302.555 136.656 302.992 136.562C303.435 136.464 303.909 136.302 304.414 136.078V137.57C303.966 137.784 303.513 137.935 303.055 138.023C302.596 138.112 302.073 138.156 301.484 138.156ZM301.148 130.594C300.565 130.594 300.096 130.779 299.742 131.148C299.393 131.518 299.185 132.057 299.117 132.766H303.039C303.029 132.052 302.857 131.513 302.523 131.148C302.19 130.779 301.732 130.594 301.148 130.594ZM310.703 138.156C309.359 138.156 308.307 137.766 307.547 136.984C306.792 136.198 306.414 135.117 306.414 133.742C306.414 132.331 306.766 131.221 307.469 130.414C308.172 129.607 309.138 129.203 310.367 129.203C311.508 129.203 312.409 129.549 313.07 130.242C313.732 130.935 314.062 131.888 314.062 133.102V134.094H308.305C308.331 134.932 308.557 135.578 308.984 136.031C309.411 136.479 310.013 136.703 310.789 136.703C311.299 136.703 311.773 136.656 312.211 136.562C312.654 136.464 313.128 136.302 313.633 136.078V137.57C313.185 137.784 312.732 137.935 312.273 138.023C311.815 138.112 311.292 138.156 310.703 138.156ZM310.367 130.594C309.784 130.594 309.315 130.779 308.961 131.148C308.612 131.518 308.404 132.057 308.336 132.766H312.258C312.247 132.052 312.076 131.513 311.742 131.148C311.409 130.779 310.951 130.594 310.367 130.594ZM321.953 135.539C321.953 136.383 321.646 137.031 321.031 137.484C320.417 137.932 319.536 138.156 318.391 138.156C317.24 138.156 316.315 137.982 315.617 137.633V136.047C316.633 136.516 317.578 136.75 318.453 136.75C319.583 136.75 320.148 136.409 320.148 135.727C320.148 135.508 320.086 135.326 319.961 135.18C319.836 135.034 319.63 134.883 319.344 134.727C319.057 134.57 318.659 134.393 318.148 134.195C317.154 133.81 316.479 133.424 316.125 133.039C315.776 132.654 315.602 132.154 315.602 131.539C315.602 130.799 315.898 130.227 316.492 129.82C317.091 129.409 317.904 129.203 318.93 129.203C319.945 129.203 320.906 129.409 321.812 129.82L321.219 131.203C320.286 130.818 319.503 130.625 318.867 130.625C317.898 130.625 317.414 130.901 317.414 131.453C317.414 131.724 317.539 131.953 317.789 132.141C318.044 132.328 318.596 132.586 319.445 132.914C320.159 133.19 320.677 133.443 321 133.672C321.323 133.901 321.562 134.167 321.719 134.469C321.875 134.766 321.953 135.122 321.953 135.539Z" fill="#0A2535"/>
<line x1="81" y1="76.5" x2="481" y2="76.5" stroke="#0A2535"/>
<line x1="164" y1="131.5" x2="199" y2="131.5" stroke="#0A2535"/>
<line x1="364" y1="131.5" x2="399" y2="131.5" stroke="#0A2535"/>
<rect x="400" y="187" width="163" height="42" fill="white" stroke="#68C6A4" stroke-width="2"/>
<path d="M429.945 202.578H433.336C434.909 202.578 436.044 202.807 436.742 203.266C437.445 203.724 437.797 204.448 437.797 205.438C437.797 206.104 437.625 206.659 437.281 207.102C436.938 207.544 436.443 207.823 435.797 207.938V208.016C436.599 208.167 437.188 208.466 437.562 208.914C437.943 209.357 438.133 209.958 438.133 210.719C438.133 211.745 437.773 212.549 437.055 213.133C436.341 213.711 435.346 214 434.07 214H429.945V202.578ZM431.812 207.297H433.609C434.391 207.297 434.961 207.174 435.32 206.93C435.68 206.68 435.859 206.258 435.859 205.664C435.859 205.128 435.664 204.74 435.273 204.5C434.888 204.26 434.273 204.141 433.43 204.141H431.812V207.297ZM431.812 208.812V212.43H433.797C434.578 212.43 435.167 212.281 435.562 211.984C435.964 211.682 436.164 211.208 436.164 210.562C436.164 209.969 435.961 209.529 435.555 209.242C435.148 208.956 434.531 208.812 433.703 208.812H431.812ZM445.719 214L445.352 212.797H445.289C444.872 213.323 444.453 213.682 444.031 213.875C443.609 214.062 443.068 214.156 442.406 214.156C441.557 214.156 440.893 213.927 440.414 213.469C439.94 213.01 439.703 212.362 439.703 211.523C439.703 210.633 440.034 209.961 440.695 209.508C441.357 209.055 442.365 208.807 443.719 208.766L445.211 208.719V208.258C445.211 207.706 445.081 207.294 444.82 207.023C444.565 206.747 444.167 206.609 443.625 206.609C443.182 206.609 442.758 206.674 442.352 206.805C441.945 206.935 441.555 207.089 441.18 207.266L440.586 205.953C441.055 205.708 441.568 205.523 442.125 205.398C442.682 205.268 443.208 205.203 443.703 205.203C444.802 205.203 445.63 205.443 446.188 205.922C446.75 206.401 447.031 207.154 447.031 208.18V214H445.719ZM442.984 212.75C443.651 212.75 444.185 212.565 444.586 212.195C444.992 211.82 445.195 211.297 445.195 210.625V209.875L444.086 209.922C443.221 209.953 442.591 210.099 442.195 210.359C441.805 210.615 441.609 211.008 441.609 211.539C441.609 211.924 441.724 212.224 441.953 212.438C442.182 212.646 442.526 212.75 442.984 212.75ZM457.195 214H455.352V208.688C455.352 208.021 455.216 207.523 454.945 207.195C454.68 206.867 454.255 206.703 453.672 206.703C452.896 206.703 452.328 206.932 451.969 207.391C451.609 207.849 451.43 208.617 451.43 209.695V214H449.594V205.359H451.031L451.289 206.492H451.383C451.643 206.081 452.013 205.763 452.492 205.539C452.971 205.315 453.503 205.203 454.086 205.203C456.159 205.203 457.195 206.258 457.195 208.367V214ZM461.523 209.438L462.562 208.141L465.172 205.359H467.289L463.812 209.07L467.508 214H465.352L462.578 210.211L461.57 211.039V214H459.75V201.844H461.57V207.773L461.477 209.438H461.523ZM480.344 214L479.203 210.828H474.836L473.719 214H471.75L476.023 202.531H478.055L482.328 214H480.344ZM478.711 209.219L477.641 206.109C477.562 205.901 477.453 205.573 477.312 205.125C477.177 204.677 477.083 204.349 477.031 204.141C476.891 204.781 476.685 205.482 476.414 206.242L475.383 209.219H478.711ZM487.125 214.156C485.818 214.156 484.823 213.776 484.141 213.016C483.464 212.25 483.125 211.154 483.125 209.727C483.125 208.273 483.479 207.156 484.188 206.375C484.901 205.594 485.93 205.203 487.273 205.203C488.185 205.203 489.005 205.372 489.734 205.711L489.18 207.188C488.404 206.885 487.763 206.734 487.258 206.734C485.763 206.734 485.016 207.727 485.016 209.711C485.016 210.68 485.201 211.409 485.57 211.898C485.945 212.383 486.492 212.625 487.211 212.625C488.029 212.625 488.802 212.422 489.531 212.016V213.617C489.203 213.81 488.852 213.948 488.477 214.031C488.107 214.115 487.656 214.156 487.125 214.156ZM495.047 214.156C493.74 214.156 492.745 213.776 492.062 213.016C491.385 212.25 491.047 211.154 491.047 209.727C491.047 208.273 491.401 207.156 492.109 206.375C492.823 205.594 493.852 205.203 495.195 205.203C496.107 205.203 496.927 205.372 497.656 205.711L497.102 207.188C496.326 206.885 495.685 206.734 495.18 206.734C493.685 206.734 492.938 207.727 492.938 209.711C492.938 210.68 493.122 211.409 493.492 211.898C493.867 212.383 494.414 212.625 495.133 212.625C495.951 212.625 496.724 212.422 497.453 212.016V213.617C497.125 213.81 496.773 213.948 496.398 214.031C496.029 214.115 495.578 214.156 495.047 214.156ZM507.148 209.664C507.148 211.076 506.786 212.177 506.062 212.969C505.339 213.76 504.331 214.156 503.039 214.156C502.232 214.156 501.518 213.974 500.898 213.609C500.279 213.245 499.802 212.721 499.469 212.039C499.135 211.357 498.969 210.565 498.969 209.664C498.969 208.263 499.328 207.169 500.047 206.383C500.766 205.596 501.779 205.203 503.086 205.203C504.336 205.203 505.326 205.607 506.055 206.414C506.784 207.216 507.148 208.299 507.148 209.664ZM500.859 209.664C500.859 211.659 501.596 212.656 503.07 212.656C504.529 212.656 505.258 211.659 505.258 209.664C505.258 207.69 504.523 206.703 503.055 206.703C502.284 206.703 501.724 206.958 501.375 207.469C501.031 207.979 500.859 208.711 500.859 209.664ZM515.359 214L515.102 212.867H515.008C514.753 213.268 514.388 213.583 513.914 213.812C513.445 214.042 512.909 214.156 512.305 214.156C511.258 214.156 510.477 213.896 509.961 213.375C509.445 212.854 509.188 212.065 509.188 211.008V205.359H511.039V210.688C511.039 211.349 511.174 211.846 511.445 212.18C511.716 212.508 512.141 212.672 512.719 212.672C513.49 212.672 514.055 212.443 514.414 211.984C514.779 211.521 514.961 210.747 514.961 209.664V205.359H516.805V214H515.359ZM527.023 214H525.18V208.688C525.18 208.021 525.044 207.523 524.773 207.195C524.508 206.867 524.083 206.703 523.5 206.703C522.724 206.703 522.156 206.932 521.797 207.391C521.438 207.849 521.258 208.617 521.258 209.695V214H519.422V205.359H520.859L521.117 206.492H521.211C521.471 206.081 521.841 205.763 522.32 205.539C522.799 205.315 523.331 205.203 523.914 205.203C525.987 205.203 527.023 206.258 527.023 208.367V214ZM532.797 212.672C533.245 212.672 533.693 212.602 534.141 212.461V213.844C533.938 213.932 533.674 214.005 533.352 214.062C533.034 214.125 532.703 214.156 532.359 214.156C530.62 214.156 529.75 213.24 529.75 211.406V206.75H528.57V205.938L529.836 205.266L530.461 203.438H531.594V205.359H534.055V206.75H531.594V211.375C531.594 211.818 531.703 212.146 531.922 212.359C532.146 212.568 532.438 212.672 532.797 212.672Z" fill="#0A2535"/>
<rect x="1" y="187" width="163" height="42" fill="white" stroke="#68C6A4" stroke-width="2"/>
<path d="M39.6719 214H37.8203V202.578H44.2656V204.156H39.6719V207.727H43.9766V209.312H39.6719V214ZM49.9141 214.156C48.5703 214.156 47.5182 213.766 46.7578 212.984C46.0026 212.198 45.625 211.117 45.625 209.742C45.625 208.331 45.9766 207.221 46.6797 206.414C47.3828 205.607 48.349 205.203 49.5781 205.203C50.7188 205.203 51.6198 205.549 52.2812 206.242C52.9427 206.935 53.2734 207.888 53.2734 209.102V210.094H47.5156C47.5417 210.932 47.7682 211.578 48.1953 212.031C48.6224 212.479 49.224 212.703 50 212.703C50.5104 212.703 50.9844 212.656 51.4219 212.562C51.8646 212.464 52.3385 212.302 52.8438 212.078V213.57C52.3958 213.784 51.9427 213.935 51.4844 214.023C51.026 214.112 50.5026 214.156 49.9141 214.156ZM49.5781 206.594C48.9948 206.594 48.526 206.779 48.1719 207.148C47.8229 207.518 47.6146 208.057 47.5469 208.766H51.4688C51.4583 208.052 51.2865 207.513 50.9531 207.148C50.6198 206.779 50.1615 206.594 49.5781 206.594ZM58.2734 214.156C57.1953 214.156 56.3542 213.766 55.75 212.984C55.1458 212.203 54.8438 211.107 54.8438 209.695C54.8438 208.279 55.1484 207.177 55.7578 206.391C56.3724 205.599 57.2214 205.203 58.3047 205.203C59.4401 205.203 60.3047 205.622 60.8984 206.461H60.9922C60.9036 205.841 60.8594 205.352 60.8594 204.992V201.844H62.7031V214H61.2656L60.9453 212.867H60.8594C60.2708 213.727 59.4089 214.156 58.2734 214.156ZM58.7656 212.672C59.5208 212.672 60.0703 212.461 60.4141 212.039C60.7578 211.612 60.9349 210.922 60.9453 209.969V209.711C60.9453 208.622 60.7682 207.849 60.4141 207.391C60.0599 206.932 59.5052 206.703 58.75 206.703C58.1042 206.703 57.6068 206.966 57.2578 207.492C56.9089 208.013 56.7344 208.758 56.7344 209.727C56.7344 210.685 56.9036 211.417 57.2422 211.922C57.5807 212.422 58.0885 212.672 58.7656 212.672ZM69.1016 214.156C67.7578 214.156 66.7057 213.766 65.9453 212.984C65.1901 212.198 64.8125 211.117 64.8125 209.742C64.8125 208.331 65.1641 207.221 65.8672 206.414C66.5703 205.607 67.5365 205.203 68.7656 205.203C69.9062 205.203 70.8073 205.549 71.4688 206.242C72.1302 206.935 72.4609 207.888 72.4609 209.102V210.094H66.7031C66.7292 210.932 66.9557 211.578 67.3828 212.031C67.8099 212.479 68.4115 212.703 69.1875 212.703C69.6979 212.703 70.1719 212.656 70.6094 212.562C71.0521 212.464 71.526 212.302 72.0312 212.078V213.57C71.5833 213.784 71.1302 213.935 70.6719 214.023C70.2135 214.112 69.6901 214.156 69.1016 214.156ZM68.7656 206.594C68.1823 206.594 67.7135 206.779 67.3594 207.148C67.0104 207.518 66.8021 208.057 66.7344 208.766H70.6562C70.6458 208.052 70.474 207.513 70.1406 207.148C69.8073 206.779 69.349 206.594 68.7656 206.594ZM78.9297 205.203C79.2995 205.203 79.6042 205.229 79.8438 205.281L79.6641 206.992C79.4036 206.93 79.1328 206.898 78.8516 206.898C78.1172 206.898 77.5208 207.138 77.0625 207.617C76.6094 208.096 76.3828 208.719 76.3828 209.484V214H74.5469V205.359H75.9844L76.2266 206.883H76.3203C76.6068 206.367 76.9792 205.958 77.4375 205.656C77.901 205.354 78.3984 205.203 78.9297 205.203ZM86.8594 214L86.4922 212.797H86.4297C86.013 213.323 85.5938 213.682 85.1719 213.875C84.75 214.062 84.2083 214.156 83.5469 214.156C82.6979 214.156 82.0339 213.927 81.5547 213.469C81.0807 213.01 80.8438 212.362 80.8438 211.523C80.8438 210.633 81.1745 209.961 81.8359 209.508C82.4974 209.055 83.5052 208.807 84.8594 208.766L86.3516 208.719V208.258C86.3516 207.706 86.2214 207.294 85.9609 207.023C85.7057 206.747 85.3073 206.609 84.7656 206.609C84.3229 206.609 83.8984 206.674 83.4922 206.805C83.0859 206.935 82.6953 207.089 82.3203 207.266L81.7266 205.953C82.1953 205.708 82.7083 205.523 83.2656 205.398C83.8229 205.268 84.349 205.203 84.8438 205.203C85.9427 205.203 86.7708 205.443 87.3281 205.922C87.8906 206.401 88.1719 207.154 88.1719 208.18V214H86.8594ZM84.125 212.75C84.7917 212.75 85.3255 212.565 85.7266 212.195C86.1328 211.82 86.3359 211.297 86.3359 210.625V209.875L85.2266 209.922C84.362 209.953 83.7318 210.099 83.3359 210.359C82.9453 210.615 82.75 211.008 82.75 211.539C82.75 211.924 82.8646 212.224 83.0938 212.438C83.3229 212.646 83.6667 212.75 84.125 212.75ZM92.5703 214H90.7344V201.844H92.5703V214ZM99.5547 214V202.578H101.422V214H99.5547ZM111.852 214H110.008V208.688C110.008 208.021 109.872 207.523 109.602 207.195C109.336 206.867 108.911 206.703 108.328 206.703C107.552 206.703 106.984 206.932 106.625 207.391C106.266 207.849 106.086 208.617 106.086 209.695V214H104.25V205.359H105.688L105.945 206.492H106.039C106.299 206.081 106.669 205.763 107.148 205.539C107.628 205.315 108.159 205.203 108.742 205.203C110.815 205.203 111.852 206.258 111.852 208.367V214ZM118.742 206.75H116.633V214H114.789V206.75H113.367V205.891L114.789 205.328V204.766C114.789 203.745 115.029 202.99 115.508 202.5C115.987 202.005 116.719 201.758 117.703 201.758C118.349 201.758 118.984 201.865 119.609 202.078L119.125 203.469C118.672 203.323 118.24 203.25 117.828 203.25C117.411 203.25 117.107 203.38 116.914 203.641C116.727 203.896 116.633 204.281 116.633 204.797V205.359H118.742V206.75ZM127.883 209.664C127.883 211.076 127.521 212.177 126.797 212.969C126.073 213.76 125.065 214.156 123.773 214.156C122.966 214.156 122.253 213.974 121.633 213.609C121.013 213.245 120.536 212.721 120.203 212.039C119.87 211.357 119.703 210.565 119.703 209.664C119.703 208.263 120.062 207.169 120.781 206.383C121.5 205.596 122.513 205.203 123.82 205.203C125.07 205.203 126.06 205.607 126.789 206.414C127.518 207.216 127.883 208.299 127.883 209.664ZM121.594 209.664C121.594 211.659 122.331 212.656 123.805 212.656C125.263 212.656 125.992 211.659 125.992 209.664C125.992 207.69 125.258 206.703 123.789 206.703C123.018 206.703 122.458 206.958 122.109 207.469C121.766 207.979 121.594 208.711 121.594 209.664Z" fill="#0A2535"/>
<rect x="200" y="187" width="163" height="42" fill="white" stroke="#68C6A4" stroke-width="2"/>
<path d="M252.25 210.898C252.25 211.914 251.883 212.711 251.148 213.289C250.414 213.867 249.401 214.156 248.109 214.156C246.818 214.156 245.76 213.956 244.938 213.555V211.789C245.458 212.034 246.01 212.227 246.594 212.367C247.182 212.508 247.729 212.578 248.234 212.578C248.974 212.578 249.518 212.438 249.867 212.156C250.221 211.875 250.398 211.497 250.398 211.023C250.398 210.596 250.237 210.234 249.914 209.938C249.591 209.641 248.924 209.289 247.914 208.883C246.872 208.461 246.138 207.979 245.711 207.438C245.284 206.896 245.07 206.245 245.07 205.484C245.07 204.531 245.409 203.781 246.086 203.234C246.763 202.688 247.672 202.414 248.812 202.414C249.906 202.414 250.995 202.654 252.078 203.133L251.484 204.656C250.469 204.229 249.562 204.016 248.766 204.016C248.161 204.016 247.703 204.148 247.391 204.414C247.078 204.674 246.922 205.021 246.922 205.453C246.922 205.75 246.984 206.005 247.109 206.219C247.234 206.427 247.44 206.625 247.727 206.812C248.013 207 248.529 207.247 249.273 207.555C250.112 207.904 250.727 208.229 251.117 208.531C251.508 208.833 251.794 209.174 251.977 209.555C252.159 209.935 252.25 210.383 252.25 210.898ZM257.484 212.672C257.932 212.672 258.38 212.602 258.828 212.461V213.844C258.625 213.932 258.362 214.005 258.039 214.062C257.721 214.125 257.391 214.156 257.047 214.156C255.307 214.156 254.438 213.24 254.438 211.406V206.75H253.258V205.938L254.523 205.266L255.148 203.438H256.281V205.359H258.742V206.75H256.281V211.375C256.281 211.818 256.391 212.146 256.609 212.359C256.833 212.568 257.125 212.672 257.484 212.672ZM265.969 214L265.602 212.797H265.539C265.122 213.323 264.703 213.682 264.281 213.875C263.859 214.062 263.318 214.156 262.656 214.156C261.807 214.156 261.143 213.927 260.664 213.469C260.19 213.01 259.953 212.362 259.953 211.523C259.953 210.633 260.284 209.961 260.945 209.508C261.607 209.055 262.615 208.807 263.969 208.766L265.461 208.719V208.258C265.461 207.706 265.331 207.294 265.07 207.023C264.815 206.747 264.417 206.609 263.875 206.609C263.432 206.609 263.008 206.674 262.602 206.805C262.195 206.935 261.805 207.089 261.43 207.266L260.836 205.953C261.305 205.708 261.818 205.523 262.375 205.398C262.932 205.268 263.458 205.203 263.953 205.203C265.052 205.203 265.88 205.443 266.438 205.922C267 206.401 267.281 207.154 267.281 208.18V214H265.969ZM263.234 212.75C263.901 212.75 264.435 212.565 264.836 212.195C265.242 211.82 265.445 211.297 265.445 210.625V209.875L264.336 209.922C263.471 209.953 262.841 210.099 262.445 210.359C262.055 210.615 261.859 211.008 261.859 211.539C261.859 211.924 261.974 212.224 262.203 212.438C262.432 212.646 262.776 212.75 263.234 212.75ZM273.062 212.672C273.51 212.672 273.958 212.602 274.406 212.461V213.844C274.203 213.932 273.94 214.005 273.617 214.062C273.299 214.125 272.969 214.156 272.625 214.156C270.885 214.156 270.016 213.24 270.016 211.406V206.75H268.836V205.938L270.102 205.266L270.727 203.438H271.859V205.359H274.32V206.75H271.859V211.375C271.859 211.818 271.969 212.146 272.188 212.359C272.411 212.568 272.703 212.672 273.062 212.672ZM279.914 214.156C278.57 214.156 277.518 213.766 276.758 212.984C276.003 212.198 275.625 211.117 275.625 209.742C275.625 208.331 275.977 207.221 276.68 206.414C277.383 205.607 278.349 205.203 279.578 205.203C280.719 205.203 281.62 205.549 282.281 206.242C282.943 206.935 283.273 207.888 283.273 209.102V210.094H277.516C277.542 210.932 277.768 211.578 278.195 212.031C278.622 212.479 279.224 212.703 280 212.703C280.51 212.703 280.984 212.656 281.422 212.562C281.865 212.464 282.339 212.302 282.844 212.078V213.57C282.396 213.784 281.943 213.935 281.484 214.023C281.026 214.112 280.503 214.156 279.914 214.156ZM279.578 206.594C278.995 206.594 278.526 206.779 278.172 207.148C277.823 207.518 277.615 208.057 277.547 208.766H281.469C281.458 208.052 281.286 207.513 280.953 207.148C280.62 206.779 280.161 206.594 279.578 206.594ZM289.711 214V202.578H291.578V214H289.711ZM302.008 214H300.164V208.688C300.164 208.021 300.029 207.523 299.758 207.195C299.492 206.867 299.068 206.703 298.484 206.703C297.708 206.703 297.141 206.932 296.781 207.391C296.422 207.849 296.242 208.617 296.242 209.695V214H294.406V205.359H295.844L296.102 206.492H296.195C296.456 206.081 296.826 205.763 297.305 205.539C297.784 205.315 298.315 205.203 298.898 205.203C300.971 205.203 302.008 206.258 302.008 208.367V214ZM308.898 206.75H306.789V214H304.945V206.75H303.523V205.891L304.945 205.328V204.766C304.945 203.745 305.185 202.99 305.664 202.5C306.143 202.005 306.875 201.758 307.859 201.758C308.505 201.758 309.141 201.865 309.766 202.078L309.281 203.469C308.828 203.323 308.396 203.25 307.984 203.25C307.568 203.25 307.263 203.38 307.07 203.641C306.883 203.896 306.789 204.281 306.789 204.797V205.359H308.898V206.75ZM318.039 209.664C318.039 211.076 317.677 212.177 316.953 212.969C316.229 213.76 315.221 214.156 313.93 214.156C313.122 214.156 312.409 213.974 311.789 213.609C311.169 213.245 310.693 212.721 310.359 212.039C310.026 211.357 309.859 210.565 309.859 209.664C309.859 208.263 310.219 207.169 310.938 206.383C311.656 205.596 312.669 205.203 313.977 205.203C315.227 205.203 316.216 205.607 316.945 206.414C317.674 207.216 318.039 208.299 318.039 209.664ZM311.75 209.664C311.75 211.659 312.487 212.656 313.961 212.656C315.419 212.656 316.148 211.659 316.148 209.664C316.148 207.69 315.414 206.703 313.945 206.703C313.174 206.703 312.615 206.958 312.266 207.469C311.922 207.979 311.75 208.711 311.75 209.664Z" fill="#0A2535"/>
<line x1="164" y1="207.5" x2="199" y2="207.5" stroke="#0A2535"/>
<line x1="364" y1="207.5" x2="399" y2="207.5" stroke="#0A2535"/>
<line x1="280.5" y1="262" x2="280.5" y2="229" stroke="#0A2535"/>
<line x1="480.5" y1="262" x2="480.5" y2="229" stroke="#0A2535"/>
<line x1="81.5" y1="262" x2="81.5" y2="229" stroke="#0A2535"/>
<rect x="400" y="263" width="163" height="42" fill="white" stroke="#68C6A4" stroke-width="2"/>
<path d="M445.148 278.578H447.086L443.086 290H441.117L437.133 278.578H439.055L441.438 285.68C441.562 286.018 441.695 286.456 441.836 286.992C441.977 287.523 442.068 287.919 442.109 288.18C442.177 287.784 442.281 287.326 442.422 286.805C442.562 286.284 442.677 285.898 442.766 285.648L445.148 278.578ZM452.172 290.156C450.828 290.156 449.776 289.766 449.016 288.984C448.26 288.198 447.883 287.117 447.883 285.742C447.883 284.331 448.234 283.221 448.938 282.414C449.641 281.607 450.607 281.203 451.836 281.203C452.977 281.203 453.878 281.549 454.539 282.242C455.201 282.935 455.531 283.888 455.531 285.102V286.094H449.773C449.799 286.932 450.026 287.578 450.453 288.031C450.88 288.479 451.482 288.703 452.258 288.703C452.768 288.703 453.242 288.656 453.68 288.562C454.122 288.464 454.596 288.302 455.102 288.078V289.57C454.654 289.784 454.201 289.935 453.742 290.023C453.284 290.112 452.76 290.156 452.172 290.156ZM451.836 282.594C451.253 282.594 450.784 282.779 450.43 283.148C450.081 283.518 449.872 284.057 449.805 284.766H453.727C453.716 284.052 453.544 283.513 453.211 283.148C452.878 282.779 452.419 282.594 451.836 282.594ZM462 281.203C462.37 281.203 462.674 281.229 462.914 281.281L462.734 282.992C462.474 282.93 462.203 282.898 461.922 282.898C461.188 282.898 460.591 283.138 460.133 283.617C459.68 284.096 459.453 284.719 459.453 285.484V290H457.617V281.359H459.055L459.297 282.883H459.391C459.677 282.367 460.049 281.958 460.508 281.656C460.971 281.354 461.469 281.203 462 281.203ZM466.359 290H464.523V281.359H466.359V290ZM464.414 279.07C464.414 278.742 464.503 278.49 464.68 278.312C464.862 278.135 465.12 278.047 465.453 278.047C465.776 278.047 466.026 278.135 466.203 278.312C466.385 278.49 466.477 278.742 466.477 279.07C466.477 279.383 466.385 279.63 466.203 279.812C466.026 279.99 465.776 280.078 465.453 280.078C465.12 280.078 464.862 279.99 464.68 279.812C464.503 279.63 464.414 279.383 464.414 279.07ZM473.328 282.75H471.219V290H469.375V282.75H467.953V281.891L469.375 281.328V280.766C469.375 279.745 469.615 278.99 470.094 278.5C470.573 278.005 471.305 277.758 472.289 277.758C472.935 277.758 473.57 277.865 474.195 278.078L473.711 279.469C473.258 279.323 472.826 279.25 472.414 279.25C471.997 279.25 471.693 279.38 471.5 279.641C471.312 279.896 471.219 280.281 471.219 280.797V281.359H473.328V282.75ZM476.633 290H474.797V281.359H476.633V290ZM474.688 279.07C474.688 278.742 474.776 278.49 474.953 278.312C475.135 278.135 475.393 278.047 475.727 278.047C476.049 278.047 476.299 278.135 476.477 278.312C476.659 278.49 476.75 278.742 476.75 279.07C476.75 279.383 476.659 279.63 476.477 279.812C476.299 279.99 476.049 280.078 475.727 280.078C475.393 280.078 475.135 279.99 474.953 279.812C474.776 279.63 474.688 279.383 474.688 279.07ZM482.758 290.156C481.451 290.156 480.456 289.776 479.773 289.016C479.096 288.25 478.758 287.154 478.758 285.727C478.758 284.273 479.112 283.156 479.82 282.375C480.534 281.594 481.562 281.203 482.906 281.203C483.818 281.203 484.638 281.372 485.367 281.711L484.812 283.188C484.036 282.885 483.396 282.734 482.891 282.734C481.396 282.734 480.648 283.727 480.648 285.711C480.648 286.68 480.833 287.409 481.203 287.898C481.578 288.383 482.125 288.625 482.844 288.625C483.661 288.625 484.435 288.422 485.164 288.016V289.617C484.836 289.81 484.484 289.948 484.109 290.031C483.74 290.115 483.289 290.156 482.758 290.156ZM492.602 290L492.234 288.797H492.172C491.755 289.323 491.336 289.682 490.914 289.875C490.492 290.062 489.951 290.156 489.289 290.156C488.44 290.156 487.776 289.927 487.297 289.469C486.823 289.01 486.586 288.362 486.586 287.523C486.586 286.633 486.917 285.961 487.578 285.508C488.24 285.055 489.247 284.807 490.602 284.766L492.094 284.719V284.258C492.094 283.706 491.964 283.294 491.703 283.023C491.448 282.747 491.049 282.609 490.508 282.609C490.065 282.609 489.641 282.674 489.234 282.805C488.828 282.935 488.438 283.089 488.062 283.266L487.469 281.953C487.938 281.708 488.451 281.523 489.008 281.398C489.565 281.268 490.091 281.203 490.586 281.203C491.685 281.203 492.513 281.443 493.07 281.922C493.633 282.401 493.914 283.154 493.914 284.18V290H492.602ZM489.867 288.75C490.534 288.75 491.068 288.565 491.469 288.195C491.875 287.82 492.078 287.297 492.078 286.625V285.875L490.969 285.922C490.104 285.953 489.474 286.099 489.078 286.359C488.688 286.615 488.492 287.008 488.492 287.539C488.492 287.924 488.607 288.224 488.836 288.438C489.065 288.646 489.409 288.75 489.867 288.75ZM499.695 288.672C500.143 288.672 500.591 288.602 501.039 288.461V289.844C500.836 289.932 500.573 290.005 500.25 290.062C499.932 290.125 499.602 290.156 499.258 290.156C497.518 290.156 496.648 289.24 496.648 287.406V282.75H495.469V281.938L496.734 281.266L497.359 279.438H498.492V281.359H500.953V282.75H498.492V287.375C498.492 287.818 498.602 288.146 498.82 288.359C499.044 288.568 499.336 288.672 499.695 288.672ZM504.609 290H502.773V281.359H504.609V290ZM502.664 279.07C502.664 278.742 502.753 278.49 502.93 278.312C503.112 278.135 503.37 278.047 503.703 278.047C504.026 278.047 504.276 278.135 504.453 278.312C504.635 278.49 504.727 278.742 504.727 279.07C504.727 279.383 504.635 279.63 504.453 279.812C504.276 279.99 504.026 280.078 503.703 280.078C503.37 280.078 503.112 279.99 502.93 279.812C502.753 279.63 502.664 279.383 502.664 279.07ZM514.906 285.664C514.906 287.076 514.544 288.177 513.82 288.969C513.096 289.76 512.089 290.156 510.797 290.156C509.99 290.156 509.276 289.974 508.656 289.609C508.036 289.245 507.56 288.721 507.227 288.039C506.893 287.357 506.727 286.565 506.727 285.664C506.727 284.263 507.086 283.169 507.805 282.383C508.523 281.596 509.536 281.203 510.844 281.203C512.094 281.203 513.083 281.607 513.812 282.414C514.542 283.216 514.906 284.299 514.906 285.664ZM508.617 285.664C508.617 287.659 509.354 288.656 510.828 288.656C512.286 288.656 513.016 287.659 513.016 285.664C513.016 283.69 512.281 282.703 510.812 282.703C510.042 282.703 509.482 282.958 509.133 283.469C508.789 283.979 508.617 284.711 508.617 285.664ZM524.625 290H522.781V284.688C522.781 284.021 522.646 283.523 522.375 283.195C522.109 282.867 521.685 282.703 521.102 282.703C520.326 282.703 519.758 282.932 519.398 283.391C519.039 283.849 518.859 284.617 518.859 285.695V290H517.023V281.359H518.461L518.719 282.492H518.812C519.073 282.081 519.443 281.763 519.922 281.539C520.401 281.315 520.932 281.203 521.516 281.203C523.589 281.203 524.625 282.258 524.625 284.367V290Z" fill="#0A2535"/>
<rect x="1" y="263" width="163" height="42" fill="white" stroke="#68C6A4" stroke-width="2"/>
<path d="M40.1875 282.031C40.1875 283.224 39.7969 284.138 39.0156 284.773C38.2344 285.409 37.1224 285.727 35.6797 285.727H34.4922V290H32.625V278.578H35.9141C37.3411 278.578 38.4089 278.87 39.1172 279.453C39.8307 280.036 40.1875 280.896 40.1875 282.031ZM34.4922 284.156H35.4844C36.4427 284.156 37.1458 283.99 37.5938 283.656C38.0417 283.323 38.2656 282.802 38.2656 282.094C38.2656 281.438 38.0651 280.948 37.6641 280.625C37.263 280.302 36.638 280.141 35.7891 280.141H34.4922V284.156ZM47.6797 290L47.3125 288.797H47.25C46.8333 289.323 46.4141 289.682 45.9922 289.875C45.5703 290.062 45.0286 290.156 44.3672 290.156C43.5182 290.156 42.8542 289.927 42.375 289.469C41.901 289.01 41.6641 288.362 41.6641 287.523C41.6641 286.633 41.9948 285.961 42.6562 285.508C43.3177 285.055 44.3255 284.807 45.6797 284.766L47.1719 284.719V284.258C47.1719 283.706 47.0417 283.294 46.7812 283.023C46.526 282.747 46.1276 282.609 45.5859 282.609C45.1432 282.609 44.7188 282.674 44.3125 282.805C43.9062 282.935 43.5156 283.089 43.1406 283.266L42.5469 281.953C43.0156 281.708 43.5286 281.523 44.0859 281.398C44.6432 281.268 45.1693 281.203 45.6641 281.203C46.763 281.203 47.5911 281.443 48.1484 281.922C48.7109 282.401 48.9922 283.154 48.9922 284.18V290H47.6797ZM44.9453 288.75C45.612 288.75 46.1458 288.565 46.5469 288.195C46.9531 287.82 47.1562 287.297 47.1562 286.625V285.875L46.0469 285.922C45.1823 285.953 44.5521 286.099 44.1562 286.359C43.7656 286.615 43.5703 287.008 43.5703 287.539C43.5703 287.924 43.6849 288.224 43.9141 288.438C44.1432 288.646 44.487 288.75 44.9453 288.75ZM50.2422 281.359H52.2422L54 286.258C54.2656 286.956 54.4427 287.612 54.5312 288.227H54.5938C54.6406 287.94 54.7266 287.594 54.8516 287.188C54.9766 286.776 55.638 284.833 56.8359 281.359H58.8203L55.125 291.148C54.4531 292.945 53.3333 293.844 51.7656 293.844C51.3594 293.844 50.9635 293.799 50.5781 293.711V292.258C50.8542 292.32 51.1693 292.352 51.5234 292.352C52.4089 292.352 53.0312 291.839 53.3906 290.812L53.7109 290L50.2422 281.359ZM71.0703 286.898C71.0703 287.914 70.7031 288.711 69.9688 289.289C69.2344 289.867 68.2214 290.156 66.9297 290.156C65.638 290.156 64.5807 289.956 63.7578 289.555V287.789C64.2786 288.034 64.8307 288.227 65.4141 288.367C66.0026 288.508 66.5495 288.578 67.0547 288.578C67.7943 288.578 68.3385 288.438 68.6875 288.156C69.0417 287.875 69.2188 287.497 69.2188 287.023C69.2188 286.596 69.0573 286.234 68.7344 285.938C68.4115 285.641 67.7448 285.289 66.7344 284.883C65.6927 284.461 64.9583 283.979 64.5312 283.438C64.1042 282.896 63.8906 282.245 63.8906 281.484C63.8906 280.531 64.2292 279.781 64.9062 279.234C65.5833 278.688 66.4922 278.414 67.6328 278.414C68.7266 278.414 69.8151 278.654 70.8984 279.133L70.3047 280.656C69.2891 280.229 68.3828 280.016 67.5859 280.016C66.9818 280.016 66.5234 280.148 66.2109 280.414C65.8984 280.674 65.7422 281.021 65.7422 281.453C65.7422 281.75 65.8047 282.005 65.9297 282.219C66.0547 282.427 66.2604 282.625 66.5469 282.812C66.8333 283 67.349 283.247 68.0938 283.555C68.9323 283.904 69.5469 284.229 69.9375 284.531C70.3281 284.833 70.6146 285.174 70.7969 285.555C70.9792 285.935 71.0703 286.383 71.0703 286.898ZM76.5703 290.156C75.263 290.156 74.2682 289.776 73.5859 289.016C72.9089 288.25 72.5703 287.154 72.5703 285.727C72.5703 284.273 72.9245 283.156 73.6328 282.375C74.3464 281.594 75.375 281.203 76.7188 281.203C77.6302 281.203 78.4505 281.372 79.1797 281.711L78.625 283.188C77.849 282.885 77.2083 282.734 76.7031 282.734C75.2083 282.734 74.4609 283.727 74.4609 285.711C74.4609 286.68 74.6458 287.409 75.0156 287.898C75.3906 288.383 75.9375 288.625 76.6562 288.625C77.474 288.625 78.2474 288.422 78.9766 288.016V289.617C78.6484 289.81 78.2969 289.948 77.9219 290.031C77.5521 290.115 77.1016 290.156 76.5703 290.156ZM88.6094 290H86.7656V284.688C86.7656 284.021 86.6302 283.523 86.3594 283.195C86.0938 282.867 85.6693 282.703 85.0859 282.703C84.3151 282.703 83.7474 282.935 83.3828 283.398C83.0234 283.857 82.8438 284.628 82.8438 285.711V290H81.0078V277.844H82.8438V280.93C82.8438 281.424 82.8125 281.953 82.75 282.516H82.8672C83.1172 282.099 83.4635 281.776 83.9062 281.547C84.3542 281.318 84.875 281.203 85.4688 281.203C87.5625 281.203 88.6094 282.258 88.6094 284.367V290ZM94.9375 290.156C93.5938 290.156 92.5417 289.766 91.7812 288.984C91.026 288.198 90.6484 287.117 90.6484 285.742C90.6484 284.331 91 283.221 91.7031 282.414C92.4062 281.607 93.3724 281.203 94.6016 281.203C95.7422 281.203 96.6432 281.549 97.3047 282.242C97.9661 282.935 98.2969 283.888 98.2969 285.102V286.094H92.5391C92.5651 286.932 92.7917 287.578 93.2188 288.031C93.6458 288.479 94.2474 288.703 95.0234 288.703C95.5339 288.703 96.0078 288.656 96.4453 288.562C96.888 288.464 97.362 288.302 97.8672 288.078V289.57C97.4193 289.784 96.9661 289.935 96.5078 290.023C96.0495 290.112 95.526 290.156 94.9375 290.156ZM94.6016 282.594C94.0182 282.594 93.5495 282.779 93.1953 283.148C92.8464 283.518 92.638 284.057 92.5703 284.766H96.4922C96.4818 284.052 96.3099 283.513 95.9766 283.148C95.6432 282.779 95.1849 282.594 94.6016 282.594ZM103.297 290.156C102.219 290.156 101.378 289.766 100.773 288.984C100.169 288.203 99.8672 287.107 99.8672 285.695C99.8672 284.279 100.172 283.177 100.781 282.391C101.396 281.599 102.245 281.203 103.328 281.203C104.464 281.203 105.328 281.622 105.922 282.461H106.016C105.927 281.841 105.883 281.352 105.883 280.992V277.844H107.727V290H106.289L105.969 288.867H105.883C105.294 289.727 104.432 290.156 103.297 290.156ZM103.789 288.672C104.544 288.672 105.094 288.461 105.438 288.039C105.781 287.612 105.958 286.922 105.969 285.969V285.711C105.969 284.622 105.792 283.849 105.438 283.391C105.083 282.932 104.529 282.703 103.773 282.703C103.128 282.703 102.63 282.966 102.281 283.492C101.932 284.013 101.758 284.758 101.758 285.727C101.758 286.685 101.927 287.417 102.266 287.922C102.604 288.422 103.112 288.672 103.789 288.672ZM116.445 290L116.188 288.867H116.094C115.839 289.268 115.474 289.583 115 289.812C114.531 290.042 113.995 290.156 113.391 290.156C112.344 290.156 111.562 289.896 111.047 289.375C110.531 288.854 110.273 288.065 110.273 287.008V281.359H112.125V286.688C112.125 287.349 112.26 287.846 112.531 288.18C112.802 288.508 113.227 288.672 113.805 288.672C114.576 288.672 115.141 288.443 115.5 287.984C115.865 287.521 116.047 286.747 116.047 285.664V281.359H117.891V290H116.445ZM122.344 290H120.508V277.844H122.344V290ZM128.75 290.156C127.406 290.156 126.354 289.766 125.594 288.984C124.839 288.198 124.461 287.117 124.461 285.742C124.461 284.331 124.812 283.221 125.516 282.414C126.219 281.607 127.185 281.203 128.414 281.203C129.555 281.203 130.456 281.549 131.117 282.242C131.779 282.935 132.109 283.888 132.109 285.102V286.094H126.352C126.378 286.932 126.604 287.578 127.031 288.031C127.458 288.479 128.06 288.703 128.836 288.703C129.346 288.703 129.82 288.656 130.258 288.562C130.701 288.464 131.174 288.302 131.68 288.078V289.57C131.232 289.784 130.779 289.935 130.32 290.023C129.862 290.112 129.339 290.156 128.75 290.156ZM128.414 282.594C127.831 282.594 127.362 282.779 127.008 283.148C126.659 283.518 126.451 284.057 126.383 284.766H130.305C130.294 284.052 130.122 283.513 129.789 283.148C129.456 282.779 128.997 282.594 128.414 282.594Z" fill="#0A2535"/>
<rect x="200" y="263" width="163" height="42" fill="white" stroke="#68C6A4" stroke-width="2"/>
<path d="M252.5 286.898C252.5 287.914 252.133 288.711 251.398 289.289C250.664 289.867 249.651 290.156 248.359 290.156C247.068 290.156 246.01 289.956 245.188 289.555V287.789C245.708 288.034 246.26 288.227 246.844 288.367C247.432 288.508 247.979 288.578 248.484 288.578C249.224 288.578 249.768 288.438 250.117 288.156C250.471 287.875 250.648 287.497 250.648 287.023C250.648 286.596 250.487 286.234 250.164 285.938C249.841 285.641 249.174 285.289 248.164 284.883C247.122 284.461 246.388 283.979 245.961 283.438C245.534 282.896 245.32 282.245 245.32 281.484C245.32 280.531 245.659 279.781 246.336 279.234C247.013 278.688 247.922 278.414 249.062 278.414C250.156 278.414 251.245 278.654 252.328 279.133L251.734 280.656C250.719 280.229 249.812 280.016 249.016 280.016C248.411 280.016 247.953 280.148 247.641 280.414C247.328 280.674 247.172 281.021 247.172 281.453C247.172 281.75 247.234 282.005 247.359 282.219C247.484 282.427 247.69 282.625 247.977 282.812C248.263 283 248.779 283.247 249.523 283.555C250.362 283.904 250.977 284.229 251.367 284.531C251.758 284.833 252.044 285.174 252.227 285.555C252.409 285.935 252.5 286.383 252.5 286.898ZM256.352 290H254.516V281.359H256.352V290ZM254.406 279.07C254.406 278.742 254.495 278.49 254.672 278.312C254.854 278.135 255.112 278.047 255.445 278.047C255.768 278.047 256.018 278.135 256.195 278.312C256.378 278.49 256.469 278.742 256.469 279.07C256.469 279.383 256.378 279.63 256.195 279.812C256.018 279.99 255.768 280.078 255.445 280.078C255.112 280.078 254.854 279.99 254.672 279.812C254.495 279.63 254.406 279.383 254.406 279.07ZM266.281 281.359V282.367L264.805 282.641C264.94 282.823 265.052 283.047 265.141 283.312C265.229 283.578 265.273 283.859 265.273 284.156C265.273 285.047 264.966 285.747 264.352 286.258C263.737 286.768 262.891 287.023 261.812 287.023C261.536 287.023 261.286 287.003 261.062 286.961C260.667 287.206 260.469 287.492 260.469 287.82C260.469 288.018 260.56 288.167 260.742 288.266C260.93 288.365 261.271 288.414 261.766 288.414H263.273C264.227 288.414 264.951 288.617 265.445 289.023C265.94 289.43 266.188 290.016 266.188 290.781C266.188 291.76 265.784 292.516 264.977 293.047C264.169 293.578 263.003 293.844 261.477 293.844C260.299 293.844 259.401 293.635 258.781 293.219C258.161 292.802 257.852 292.208 257.852 291.438C257.852 290.906 258.018 290.458 258.352 290.094C258.69 289.734 259.161 289.484 259.766 289.344C259.521 289.24 259.318 289.073 259.156 288.844C259 288.609 258.922 288.365 258.922 288.109C258.922 287.786 259.013 287.513 259.195 287.289C259.378 287.065 259.648 286.844 260.008 286.625C259.56 286.432 259.195 286.12 258.914 285.688C258.638 285.25 258.5 284.74 258.5 284.156C258.5 283.219 258.794 282.492 259.383 281.977C259.977 281.461 260.82 281.203 261.914 281.203C262.159 281.203 262.414 281.221 262.68 281.258C262.951 281.289 263.154 281.323 263.289 281.359H266.281ZM259.492 291.344C259.492 291.74 259.669 292.044 260.023 292.258C260.383 292.471 260.885 292.578 261.531 292.578C262.531 292.578 263.276 292.435 263.766 292.148C264.255 291.862 264.5 291.482 264.5 291.008C264.5 290.633 264.365 290.365 264.094 290.203C263.828 290.047 263.331 289.969 262.602 289.969H261.211C260.685 289.969 260.266 290.091 259.953 290.336C259.646 290.586 259.492 290.922 259.492 291.344ZM260.281 284.156C260.281 284.698 260.419 285.115 260.695 285.406C260.977 285.698 261.378 285.844 261.898 285.844C262.961 285.844 263.492 285.276 263.492 284.141C263.492 283.578 263.359 283.146 263.094 282.844C262.833 282.536 262.435 282.383 261.898 282.383C261.367 282.383 260.964 282.534 260.688 282.836C260.417 283.138 260.281 283.578 260.281 284.156ZM275.492 290H273.648V284.688C273.648 284.021 273.513 283.523 273.242 283.195C272.977 282.867 272.552 282.703 271.969 282.703C271.193 282.703 270.625 282.932 270.266 283.391C269.906 283.849 269.727 284.617 269.727 285.695V290H267.891V281.359H269.328L269.586 282.492H269.68C269.94 282.081 270.31 281.763 270.789 281.539C271.268 281.315 271.799 281.203 272.383 281.203C274.456 281.203 275.492 282.258 275.492 284.367V290ZM283.453 290L283.086 288.797H283.023C282.607 289.323 282.188 289.682 281.766 289.875C281.344 290.062 280.802 290.156 280.141 290.156C279.292 290.156 278.628 289.927 278.148 289.469C277.674 289.01 277.438 288.362 277.438 287.523C277.438 286.633 277.768 285.961 278.43 285.508C279.091 285.055 280.099 284.807 281.453 284.766L282.945 284.719V284.258C282.945 283.706 282.815 283.294 282.555 283.023C282.299 282.747 281.901 282.609 281.359 282.609C280.917 282.609 280.492 282.674 280.086 282.805C279.68 282.935 279.289 283.089 278.914 283.266L278.32 281.953C278.789 281.708 279.302 281.523 279.859 281.398C280.417 281.268 280.943 281.203 281.438 281.203C282.536 281.203 283.365 281.443 283.922 281.922C284.484 282.401 284.766 283.154 284.766 284.18V290H283.453ZM280.719 288.75C281.385 288.75 281.919 288.565 282.32 288.195C282.727 287.82 282.93 287.297 282.93 286.625V285.875L281.82 285.922C280.956 285.953 280.326 286.099 279.93 286.359C279.539 286.615 279.344 287.008 279.344 287.539C279.344 287.924 279.458 288.224 279.688 288.438C279.917 288.646 280.26 288.75 280.719 288.75ZM290.547 288.672C290.995 288.672 291.443 288.602 291.891 288.461V289.844C291.688 289.932 291.424 290.005 291.102 290.062C290.784 290.125 290.453 290.156 290.109 290.156C288.37 290.156 287.5 289.24 287.5 287.406V282.75H286.32V281.938L287.586 281.266L288.211 279.438H289.344V281.359H291.805V282.75H289.344V287.375C289.344 287.818 289.453 288.146 289.672 288.359C289.896 288.568 290.188 288.672 290.547 288.672ZM299.719 290L299.461 288.867H299.367C299.112 289.268 298.747 289.583 298.273 289.812C297.805 290.042 297.268 290.156 296.664 290.156C295.617 290.156 294.836 289.896 294.32 289.375C293.805 288.854 293.547 288.065 293.547 287.008V281.359H295.398V286.688C295.398 287.349 295.534 287.846 295.805 288.18C296.076 288.508 296.5 288.672 297.078 288.672C297.849 288.672 298.414 288.443 298.773 287.984C299.138 287.521 299.32 286.747 299.32 285.664V281.359H301.164V290H299.719ZM308.164 281.203C308.534 281.203 308.839 281.229 309.078 281.281L308.898 282.992C308.638 282.93 308.367 282.898 308.086 282.898C307.352 282.898 306.755 283.138 306.297 283.617C305.844 284.096 305.617 284.719 305.617 285.484V290H303.781V281.359H305.219L305.461 282.883H305.555C305.841 282.367 306.214 281.958 306.672 281.656C307.135 281.354 307.633 281.203 308.164 281.203ZM314.461 290.156C313.117 290.156 312.065 289.766 311.305 288.984C310.549 288.198 310.172 287.117 310.172 285.742C310.172 284.331 310.523 283.221 311.227 282.414C311.93 281.607 312.896 281.203 314.125 281.203C315.266 281.203 316.167 281.549 316.828 282.242C317.49 282.935 317.82 283.888 317.82 285.102V286.094H312.062C312.089 286.932 312.315 287.578 312.742 288.031C313.169 288.479 313.771 288.703 314.547 288.703C315.057 288.703 315.531 288.656 315.969 288.562C316.411 288.464 316.885 288.302 317.391 288.078V289.57C316.943 289.784 316.49 289.935 316.031 290.023C315.573 290.112 315.049 290.156 314.461 290.156ZM314.125 282.594C313.542 282.594 313.073 282.779 312.719 283.148C312.37 283.518 312.161 284.057 312.094 284.766H316.016C316.005 284.052 315.833 283.513 315.5 283.148C315.167 282.779 314.708 282.594 314.125 282.594Z" fill="#0A2535"/>
<line x1="164" y1="283.5" x2="199" y2="283.5" stroke="#0A2535"/>
<line x1="364" y1="283.5" x2="399" y2="283.5" stroke="#0A2535"/>
</svg>
